<svg xmlns="http://www.w3.org/2000/svg" xmlns:xlink="http://www.w3.org/1999/xlink" width="113" height="113" viewBox="0 0 113 113">
  <defs>
    <filter id="Trazado_982547" x="0" y="0" width="113" height="113" filterUnits="userSpaceOnUse">
      <feOffset dy="3" input="SourceAlpha"/>
      <feGaussianBlur stdDeviation="3" result="blur"/>
      <feFlood flood-opacity="0.161"/>
      <feComposite operator="in" in2="blur"/>
      <feComposite in="SourceGraphic"/>
    </filter>
  </defs>
  <g id="Grupo_1210848" data-name="Grupo 1210848" transform="translate(-374.02 -4698.873)">
    <g id="Grupo_1210834" data-name="Grupo 1210834" transform="translate(102.02 53.358)">
      <g id="Grupo_1202055" data-name="Grupo 1202055" transform="translate(0 3240.511)">
        <g id="Grupo_1177900" data-name="Grupo 1177900" transform="translate(281 1411.003)">
          <g id="Grupo_1172010" data-name="Grupo 1172010" transform="translate(0)">
            <g id="Grupo_1171046" data-name="Grupo 1171046">
              <g id="Grupo_1148525" data-name="Grupo 1148525">
                <g transform="matrix(1, 0, 0, 1, -9, -6)" filter="url(#Trazado_982547)">
                  <g id="Trazado_982547-2" data-name="Trazado 982547" transform="translate(9 6)" fill="#edf3fc">
                    <path d="M 47.5 93.5 C 41.28937149047852 93.5 35.26533508300781 92.28397369384766 29.59518623352051 89.88570404052734 C 24.11771965026855 87.56893157958984 19.19813346862793 84.25196075439453 14.97309303283691 80.02691650390625 C 10.74804019927979 75.80186462402344 7.431066513061523 70.88229370117188 5.114293098449707 65.40481567382812 C 2.716026782989502 59.73468017578125 1.5 53.71062850952148 1.5 47.5 C 1.5 41.28937149047852 2.716026782989502 35.26533508300781 5.114293098449707 29.59518623352051 C 7.431066513061523 24.11771965026855 10.74804019927979 19.19813346862793 14.97309303283691 14.97309303283691 C 19.19813346862793 10.74804019927979 24.11771965026855 7.431066513061523 29.59518623352051 5.114293098449707 C 35.26533508300781 2.716026782989502 41.28937149047852 1.5 47.5 1.5 C 53.71062850952148 1.5 59.73468017578125 2.716026782989502 65.40481567382812 5.114293098449707 C 70.88229370117188 7.431066513061523 75.80186462402344 10.74804019927979 80.02691650390625 14.97309303283691 C 84.25196075439453 19.19813346862793 87.56893157958984 24.11771965026855 89.88570404052734 29.59518623352051 C 92.28397369384766 35.26533508300781 93.5 41.28937149047852 93.5 47.5 C 93.5 53.71062850952148 92.28397369384766 59.73468017578125 89.88570404052734 65.40481567382812 C 87.56893157958984 70.88229370117188 84.25196075439453 75.80186462402344 80.02691650390625 80.02691650390625 C 75.80186462402344 84.25196075439453 70.88229370117188 87.56893157958984 65.40481567382812 89.88570404052734 C 59.73468017578125 92.28397369384766 53.71062850952148 93.5 47.5 93.5 Z" stroke="none"/>
                    <path d="M 47.5 3 C 41.49121475219727 3 35.66376876831055 4.176155090332031 30.17950439453125 6.495796203613281 C 24.88084411621094 8.736953735351562 20.12152099609375 11.94598388671875 16.03375244140625 16.03375244140625 C 11.94598388671875 20.12152099609375 8.736953735351562 24.88084411621094 6.495796203613281 30.17950439453125 C 4.176155090332031 35.66376876831055 3 41.49121475219727 3 47.5 C 3 53.50878524780273 4.176155090332031 59.33623123168945 6.495796203613281 64.82049560546875 C 8.736953735351562 70.11915588378906 11.94598388671875 74.87847900390625 16.03375244140625 78.96624755859375 C 20.12152099609375 83.05401611328125 24.88084411621094 86.26304626464844 30.17950439453125 88.50419616699219 C 35.66376876831055 90.82384490966797 41.49121475219727 92 47.5 92 C 53.50878524780273 92 59.33623123168945 90.82384490966797 64.82049560546875 88.50419616699219 C 70.11915588378906 86.26304626464844 74.87847900390625 83.05401611328125 78.96624755859375 78.96624755859375 C 83.05401611328125 74.87847900390625 86.26304626464844 70.11915588378906 88.50419616699219 64.82049560546875 C 90.82384490966797 59.33623123168945 92 53.50878524780273 92 47.5 C 92 41.49121475219727 90.82384490966797 35.66376876831055 88.50419616699219 30.17950439453125 C 86.26304626464844 24.88084411621094 83.05401611328125 20.12152099609375 78.96624755859375 16.03375244140625 C 74.87847900390625 11.94598388671875 70.11915588378906 8.736953735351562 64.82049560546875 6.495796203613281 C 59.33623123168945 4.176155090332031 53.50878524780273 3 47.5 3 M 47.5 0 C 73.7335205078125 0 95 21.2664794921875 95 47.5 C 95 73.7335205078125 73.7335205078125 95 47.5 95 C 21.2664794921875 95 0 73.7335205078125 0 47.5 C 0 21.2664794921875 21.2664794921875 0 47.5 0 Z" stroke="none" fill="#5692e8"/>
                  </g>
                </g>
              </g>
            </g>
          </g>
        </g>
      </g>
    </g>
    <g id="massage_5200993" transform="translate(396.43 4719.483)">
      <g id="Grupo_1210846" data-name="Grupo 1210846" transform="translate(2.341 0.963)">
        <g id="Grupo_1210840" data-name="Grupo 1210840" transform="translate(10.397)">
          <path id="Trazado_1040940" data-name="Trazado 1040940" d="M141.692,391.217h28.565V405.77H141.692Z" transform="translate(-135.026 -341.919)" fill="#ffeee6"/>
          <path id="Trazado_1040941" data-name="Trazado 1040941" d="M141.692,391.217h8.359V405.77h-8.359Z" transform="translate(-135.026 -341.919)" fill="#ffdfcf"/>
          <path id="Trazado_1040942" data-name="Trazado 1040942" d="M128.205,75.86V87.425l5.1-5.1a5.622,5.622,0,1,1,7.95,7.952l-11.994,11.992a14.171,14.171,0,0,1-10.484,4.157H104.021A14.215,14.215,0,0,1,89.806,92.207V62.1a4.851,4.851,0,0,1,4.672-4.876,4.8,4.8,0,0,1,4.929,4.8l2.7,15.91" transform="translate(-89.806 -50.835)" fill="#ffeee6"/>
          <path id="Trazado_1040943" data-name="Trazado 1040943" d="M193.33,14.574V38.858h-28.8V14.574a4.8,4.8,0,0,1,9.6,0V12.3a4.8,4.8,0,1,1,9.6,0v2.277a4.8,4.8,0,0,1,9.6,0Z" transform="translate(-154.931 -7.497)" fill="#ffeee6"/>
          <g id="Grupo_1210839" data-name="Grupo 1210839" transform="translate(0 0)">
            <path id="Trazado_1040944" data-name="Trazado 1040944" d="M320.4,25.5a4.805,4.805,0,0,0-3.168,4.515V54.3h-3.264V30.02A4.8,4.8,0,0,1,320.4,25.5Z" transform="translate(-285.169 -22.943)" fill="#ffdfcf"/>
            <path id="Trazado_1040945" data-name="Trazado 1040945" d="M108.274,106.421h-4.253A14.215,14.215,0,0,1,89.806,92.206V62.1a4.851,4.851,0,0,1,4.673-4.876,4.77,4.77,0,0,1,2.262.5A4.9,4.9,0,0,0,94.059,62.1V92.206A14.215,14.215,0,0,0,108.274,106.421Z" transform="translate(-89.806 -50.834)" fill="#ffdfcf"/>
            <path id="Trazado_1040946" data-name="Trazado 1040946" d="M170.961,25.5a4.8,4.8,0,0,0-3.168,4.515V54.3h-3.264V30.02a4.8,4.8,0,0,1,6.432-4.515Z" transform="translate(-154.929 -22.943)" fill="#ffdfcf"/>
            <path id="Trazado_1040947" data-name="Trazado 1040947" d="M245.684,7.785a4.8,4.8,0,0,0-3.168,4.515V38.861h-3.263V12.3a4.8,4.8,0,0,1,6.431-4.515Z" transform="translate(-220.053 -7.5)" fill="#ffdfcf"/>
          </g>
          <path id="Trazado_1040948" data-name="Trazado 1040948" d="M309.178,249.654a8.122,8.122,0,0,1,8.835-1.768l1.381-1.381,5.1-5.1a5.622,5.622,0,1,1,7.95,7.952l-11.994,11.992a14.171,14.171,0,0,1-10.484,4.157h-.005" transform="translate(-280.994 -209.916)" fill="#ffeee6"/>
          <path id="Trazado_1040949" data-name="Trazado 1040949" d="M333.551,243.247a5.619,5.619,0,0,0-6.383,1.1l-5.1,5.1-1.381,1.381a8.122,8.122,0,0,0-8.835,1.768,1.518,1.518,0,0,1-2.589-1l-.083-1.676a8.122,8.122,0,0,1,8.835-1.768l1.381-1.381,5.022-5.022a5.718,5.718,0,0,1,8.092-.019A5.549,5.549,0,0,1,333.551,243.247Z" transform="translate(-280.993 -210.192)" fill="#ffdfcf"/>
        </g>
        <g id="Grupo_1210841" data-name="Grupo 1210841" transform="translate(22.793 35.71)">
          <circle id="Elipse_12572" data-name="Elipse 12572" cx="4.489" cy="4.489" r="4.489" transform="translate(0 0.001)" fill="#fd8087"/>
          <path id="Trazado_1040950" data-name="Trazado 1040950" d="M192.231,294.188a4.489,4.489,0,1,1,0-8.5,4.491,4.491,0,0,0,0,8.5Z" transform="translate(-186.29 -285.451)" fill="#fe646f"/>
        </g>
        <g id="Grupo_1210842" data-name="Grupo 1210842" transform="translate(7.535 11.192)">
          <circle id="Elipse_12573" data-name="Elipse 12573" cx="4.489" cy="4.489" r="4.489" transform="translate(0 0.001)" fill="#fd8087"/>
          <path id="Trazado_1040951" data-name="Trazado 1040951" d="M73.47,103.345a4.489,4.489,0,1,1,0-8.5,4.491,4.491,0,0,0,0,8.5Z" transform="translate(-67.529 -94.608)" fill="#fe646f"/>
        </g>
        <g id="Grupo_1210843" data-name="Grupo 1210843" transform="translate(44.308 32.1)">
          <circle id="Elipse_12574" data-name="Elipse 12574" cx="4.489" cy="4.489" r="4.489" transform="translate(0 0.001)" fill="#fd8087"/>
          <path id="Trazado_1040952" data-name="Trazado 1040952" d="M359.693,266.089a4.489,4.489,0,1,1,0-8.5,4.491,4.491,0,0,0,0,8.5Z" transform="translate(-353.752 -257.352)" fill="#fe646f"/>
        </g>
        <g id="Grupo_1210844" data-name="Grupo 1210844" transform="translate(0 34.412)">
          <path id="Trazado_1040953" data-name="Trazado 1040953" d="M25.4,279.182l-6.119-3.533a2.251,2.251,0,0,0-3.377,1.949v.463H11.947a3.07,3.07,0,0,0,0,6.139h3.961v.463a2.251,2.251,0,0,0,3.377,1.949l6.119-3.533A2.251,2.251,0,0,0,25.4,279.182Z" transform="translate(-8.877 -275.344)" fill="#6c7fd8"/>
        </g>
        <g id="Grupo_1210845" data-name="Grupo 1210845" transform="translate(43.009 9.597)">
          <path id="Trazado_1040954" data-name="Trazado 1040954" d="M351.382,98.724l3.533-6.119a2.251,2.251,0,0,0-1.949-3.377H352.5V85.268a3.07,3.07,0,0,0-6.139,0v3.961H345.9a2.251,2.251,0,0,0-1.949,3.377l3.533,6.119A2.251,2.251,0,0,0,351.382,98.724Z" transform="translate(-343.645 -82.198)" fill="#6c7fd8"/>
        </g>
      </g>
      <g id="Grupo_1210847" data-name="Grupo 1210847" transform="translate(1.378 0)">
        <path id="Trazado_1040955" data-name="Trazado 1040955" d="M324.991,350.688l-6.413,6.412a13.128,13.128,0,0,1-9.762,3.876.964.964,0,1,0-.067,1.926q.237.007.473.007a15.165,15.165,0,0,0,4.847-.788V370.2a.964.964,0,1,0,1.927,0v-8.883a15.242,15.242,0,0,0,3.945-2.856l6.413-6.412a.964.964,0,1,0-1.363-1.363Z" transform="translate(-268.439 -305.388)"/>
        <path id="Trazado_1040956" data-name="Trazado 1040956" d="M64.873,31.768a6.584,6.584,0,0,0-9.312,0l-1.312,1.311a5.421,5.421,0,0,0-2.148-.892V29.03a3.18,3.18,0,0,0,1.821-1.462l3.533-6.119a3.216,3.216,0,0,0-2.283-4.784V13.63A4.04,4.04,0,0,0,52.1,9.714V8.041a5.764,5.764,0,0,0-9.839-4.077L42.226,4a5.763,5.763,0,0,0-10.976,0,5.759,5.759,0,0,0-9.87,3.848A5.7,5.7,0,0,0,17.385,6.39a5.837,5.837,0,0,0-5.6,5.45,5.45,5.45,0,0,0-.015,9.6V34.414a3.226,3.226,0,0,0-3.329,2.714H5.411a4.033,4.033,0,0,0,0,8.066H8.447A3.2,3.2,0,0,0,12.755,47.7a15.317,15.317,0,0,0,5.012,6.715c.221.168.446.327.674.482v9.915a.964.964,0,0,0,1.927,0v-8.8a15.062,15.062,0,0,0,6.586,1.5h4.253a.964.964,0,0,0,0-1.927H26.954a13.128,13.128,0,0,1-8.019-2.7,13.366,13.366,0,0,1-4.469-6.12l4.884-2.82a3.215,3.215,0,0,0,0-5.568L13.7,35.118V22.055a5.43,5.43,0,0,0,2.534-.287.964.964,0,0,0-.659-1.811,3.527,3.527,0,1,1,2.313-3.312,3.5,3.5,0,0,1-.22,1.229.964.964,0,1,0,1.805.675,5.454,5.454,0,0,0-5.11-7.356c-.179,0-.355.009-.53.026a3.879,3.879,0,0,1,3.6-2.9,3.836,3.836,0,0,1,3.94,3.835V31.36H18.4a.964.964,0,1,0,0,1.927H44.684a.964.964,0,0,0,0-1.927H42.5V8.01a3.836,3.836,0,0,1,7.672.031V9.714A4.04,4.04,0,0,0,47.1,13.63v3.035a3.216,3.216,0,0,0-2.284,4.784l3.533,6.119a3.179,3.179,0,0,0,1.82,1.461v3.158a5.46,5.46,0,0,0-4.485,5.225,9,9,0,0,0-5.448,2.608A.964.964,0,0,0,41.6,41.383a7.088,7.088,0,0,1,4.377-2.063,5.451,5.451,0,1,0,9.63-4.878l1.311-1.311A4.658,4.658,0,1,1,63.51,39.72l-2.856,2.856a.964.964,0,0,0,1.363,1.363l2.856-2.856a6.585,6.585,0,0,0,0-9.314ZM19.03,41.162a1.258,1.258,0,0,1-.644,1.115L12.267,45.81a1.288,1.288,0,0,1-1.931-1.115v-.463a.963.963,0,0,0-.964-.964H5.411a2.106,2.106,0,1,1,0-4.212H9.372a.964.964,0,0,0,.964-.964v-.463a1.288,1.288,0,0,1,1.931-1.115l6.119,3.533A1.258,1.258,0,0,1,19.03,41.162ZM32.9,5.763a3.836,3.836,0,1,1,7.673,0V8.01c0,.01,0,.021,0,.031V31.36H32.9V5.763Zm-9.6,6.388V8.04a3.836,3.836,0,1,1,7.673,0V31.36H23.3V12.152ZM46.49,20.486a1.288,1.288,0,0,1,1.115-1.931h.463a.964.964,0,0,0,.964-.964V13.63a2.106,2.106,0,0,1,4.212,0v3.961a.963.963,0,0,0,.964.964h.463a1.288,1.288,0,0,1,1.115,1.931L52.253,26.6a1.287,1.287,0,0,1-2.23,0Zm4.648,20.592a3.525,3.525,0,1,1,3.525-3.525A3.529,3.529,0,0,1,51.138,41.078Z" transform="translate(-1.378 0)"/>
        <path id="Trazado_1040957" data-name="Trazado 1040957" d="M184.242,277.956a5.452,5.452,0,1,0,5.452,5.452A5.459,5.459,0,0,0,184.242,277.956Zm0,8.978a3.525,3.525,0,1,1,3.525-3.525A3.529,3.529,0,0,1,184.242,286.934Z" transform="translate(-155.997 -242.246)"/>
      </g>
    </g>
  </g>
</svg>
