<svg xmlns="http://www.w3.org/2000/svg" xmlns:xlink="http://www.w3.org/1999/xlink" width="106.16" height="106.16" viewBox="0 0 106.16 106.16">
  <defs>
    <filter id="Path_982547" x="0" y="0" width="106.16" height="106.16" filterUnits="userSpaceOnUse">
      <feOffset dy="3" input="SourceAlpha"/>
      <feGaussianBlur stdDeviation="3" result="blur"/>
      <feFlood flood-opacity="0.161"/>
      <feComposite operator="in" in2="blur"/>
      <feComposite in="SourceGraphic"/>
    </filter>
  </defs>
  <g id="Group_1202472" data-name="Group 1202472" transform="translate(-616.42 -7547.914)">
    <g id="Group_1202412" data-name="Group 1202412" transform="translate(0 31)">
      <g id="Group_1202161" data-name="Group 1202161" transform="translate(344.42 6111.911)">
        <g id="Group_1177900" data-name="Group 1177900" transform="translate(281 1411.003)">
          <g id="Group_1172010" data-name="Group 1172010" transform="translate(0)">
            <g id="Group_1171046" data-name="Group 1171046">
              <g id="Group_1148525" data-name="Group 1148525">
                <g transform="matrix(1, 0, 0, 1, -9, -6)" filter="url(#Path_982547)">
                  <g id="Path_982547-2" data-name="Path 982547" transform="translate(9 6)" fill="#fdfbec">
                    <path d="M 44.0802001953125 86.660400390625 C 38.33124923706055 86.660400390625 32.75506210327148 85.53479766845703 27.50652503967285 83.31484985351562 C 22.43628692626953 81.17032623291016 17.88242530822754 78.09992218017578 13.97144985198975 74.18894958496094 C 10.06047534942627 70.27797698974609 6.99007511138916 65.72411346435547 4.845550060272217 60.65387344360352 C 2.625600099563599 55.40533828735352 1.500000238418579 49.82915115356445 1.500000238418579 44.0802001953125 C 1.500000238418579 38.33124923706055 2.625600099563599 32.75506210327148 4.845550060272217 27.50652503967285 C 6.99007511138916 22.43628692626953 10.06047534942627 17.88242530822754 13.97144985198975 13.97144985198975 C 17.88242530822754 10.06047534942627 22.43628692626953 6.99007511138916 27.50652503967285 4.845550060272217 C 32.75506210327148 2.625600099563599 38.33124923706055 1.500000238418579 44.0802001953125 1.500000238418579 C 49.82915115356445 1.500000238418579 55.40533828735352 2.625600099563599 60.65387344360352 4.845550060272217 C 65.72411346435547 6.99007511138916 70.27797698974609 10.06047534942627 74.18894958496094 13.97144985198975 C 78.09992218017578 17.88242530822754 81.17032623291016 22.43628692626953 83.31484985351562 27.50652503967285 C 85.53479766845703 32.75506210327148 86.660400390625 38.33124923706055 86.660400390625 44.0802001953125 C 86.660400390625 49.82915115356445 85.53479766845703 55.40533828735352 83.31484985351562 60.65387344360352 C 81.17032623291016 65.72411346435547 78.09992218017578 70.27797698974609 74.18894958496094 74.18894958496094 C 70.27797698974609 78.09992218017578 65.72411346435547 81.17032623291016 60.65387344360352 83.31484985351562 C 55.40533828735352 85.53479766845703 49.82915115356445 86.660400390625 44.0802001953125 86.660400390625 Z" stroke="none"/>
                    <path d="M 44.0802001953125 3 C 38.53308486938477 3 33.15349960327148 4.085746765136719 28.09085845947266 6.227058410644531 C 23.19941711425781 8.29595947265625 18.80581665039062 11.25841522216797 15.03211212158203 15.03211212158203 C 11.25841522216797 18.80581665039062 8.29595947265625 23.19941711425781 6.227058410644531 28.09085845947266 C 4.085746765136719 33.15349960327148 3 38.53308486938477 3 44.0802001953125 C 3 49.62731552124023 4.085746765136719 55.00691604614258 6.227058410644531 60.06954193115234 C 8.29595947265625 64.96098327636719 11.25841522216797 69.35458374023438 15.03211212158203 73.12828826904297 C 18.80581665039062 76.90198516845703 23.19941711425781 79.86444091796875 28.09085845947266 81.93334197998047 C 33.15349960327148 84.07466125488281 38.53308486938477 85.160400390625 44.0802001953125 85.160400390625 C 49.62731552124023 85.160400390625 55.00691604614258 84.07466125488281 60.06954193115234 81.93334197998047 C 64.96099853515625 79.86444091796875 69.35458374023438 76.90198516845703 73.12828826904297 73.12828826904297 C 76.90198516845703 69.35458374023438 79.86444091796875 64.96099853515625 81.93334197998047 60.06954193115234 C 84.07466125488281 55.00691604614258 85.160400390625 49.62731552124023 85.160400390625 44.0802001953125 C 85.160400390625 38.53308486938477 84.07466125488281 33.15349960327148 81.93334197998047 28.09085845947266 C 79.86444091796875 23.19941711425781 76.90198516845703 18.80581665039062 73.12828826904297 15.03211212158203 C 69.35458374023438 11.25841522216797 64.96098327636719 8.29595947265625 60.06954193115234 6.227058410644531 C 55.00691604614258 4.085746765136719 49.62731552124023 3 44.0802001953125 3 M 44.0802001953125 0 C 68.42502593994141 0 88.160400390625 19.73538970947266 88.160400390625 44.0802001953125 C 88.160400390625 68.42502593994141 68.42502593994141 88.160400390625 44.0802001953125 88.160400390625 C 19.73538970947266 88.160400390625 0 68.42502593994141 0 44.0802001953125 C 0 19.73538970947266 19.73538970947266 0 44.0802001953125 0 Z" stroke="none" fill="#83793c"/>
                  </g>
                </g>
              </g>
            </g>
          </g>
        </g>
      </g>
      <g id="problem-solving_16315329" transform="translate(597.77 7537.248)">
        <path id="Path_1040888" data-name="Path 1040888" d="M273.011,326.92h4.872V331.2a2.436,2.436,0,0,1-4.872,0Z" transform="translate(-199.196 -286.855)" fill="#4d6c8f" fill-rule="evenodd"/>
        <path id="Path_1040889" data-name="Path 1040889" d="M192.986,100c-2.21-4.733-7.679-7.311-7.679-14.872a13.187,13.187,0,0,1,13.187-13.187v4.493a2.1,2.1,0,1,0,0,4.2v4.493h4.493a2.1,2.1,0,1,0,4.2,0h4.493c0,7.561-5.469,10.14-7.679,14.872v5.146a1.726,1.726,0,0,1-1.72,1.72h-7.576a1.726,1.726,0,0,1-1.72-1.72Z" transform="translate(-122.244 -63.135)" fill="#ffd23b" fill-rule="evenodd"/>
        <path id="Path_1040890" data-name="Path 1040890" d="M319.106,30.388A13.185,13.185,0,0,1,332.29,43.57l-4.489,0a2.1,2.1,0,1,1-4.2,0h-4.489v-4.49a2.1,2.1,0,0,1,0-4.2Z" transform="translate(-237.797 -26.674)" fill="#ffd23b" fill-rule="evenodd"/>
        <path id="Path_1040891" data-name="Path 1040891" d="M258.964,300.841v5.146a1.726,1.726,0,0,1-1.72,1.72h-7.576a1.726,1.726,0,0,1-1.72-1.72v-5.146Z" transform="translate(-177.206 -263.973)" fill="#456181" fill-rule="evenodd"/>
        <path id="Path_1040892" data-name="Path 1040892" d="M247.952,300.841h11.015v3.4H247.952Z" transform="translate(-177.209 -263.973)" fill="#4d6c8f"/>
        <g id="Group_1202411" data-name="Group 1202411" transform="translate(46.843 0.848)">
          <path id="Path_1040893" data-name="Path 1040893" d="M382.623,16.978a4.988,4.988,0,1,0-4.986-4.989,4.988,4.988,0,0,0,4.986,4.989Z" transform="translate(-337.84 -7.002)" fill="#45bf64" fill-rule="evenodd"/>
          <path id="Path_1040894" data-name="Path 1040894" d="M105.25,367.017a3.544,3.544,0,0,0-1.807-3.266l-8.274-3.829a6.131,6.131,0,0,0-4.719-.122l-8.5,2.623,3.382,11.419,4.955-1.227,7.325,2.787c1.814.691,3.388,1.122,5.018.316l16.036-7.926c1.307-.688,3.089-1.237,2.471-3.461a2.29,2.29,0,0,0-2.683-1.762Z" transform="translate(-78.4 -316.191)" fill="#fbbd80" fill-rule="evenodd"/>
          <path id="Path_1040895" data-name="Path 1040895" d="M53.615,361.219l4.076-1.133a.865.865,0,0,1,1.063.6L62.9,375.6a.861.861,0,0,1-.6,1.06l-4.077,1.133a.863.863,0,0,1-1.06-.6l-4.145-14.914a.863.863,0,0,1,.6-1.06Z" transform="translate(-52.986 -316.776)" fill="#69a7ff" fill-rule="evenodd"/>
          <path id="Path_1040896" data-name="Path 1040896" d="M136.2,406.519l-7.325-2.787-2.7.667.444,1.6,2.471-.612,7.325,2.787c1.814.692,3.388,1.122,5.018.316l16.036-7.926c1.307-.688,3.089-1.237,2.471-3.461a2.4,2.4,0,0,0-.132-.365c-.254,1.2-1.543,1.64-2.551,2.172l-16.036,7.926C139.592,407.641,138.018,407.21,136.2,406.519Z" transform="translate(-117.204 -348.962)" fill="#e2aa73" fill-rule="evenodd"/>
          <path id="Path_1040897" data-name="Path 1040897" d="M85.778,362.671l3.2,11.529.035.125a.862.862,0,0,1-.6,1.06l-3.347.932.243.876a.863.863,0,0,0,1.06.6l4.076-1.133a.861.861,0,0,0,.6-1.06l-.5-1.786-.445-1.6L87.328,362.2l-.42-1.511a.865.865,0,0,0-1.063-.6l-.73.2Z" transform="translate(-81.139 -316.776)" fill="#5f96e6" fill-rule="evenodd"/>
          <path id="Path_1040898" data-name="Path 1040898" d="M258.174,80.638v4.493h2.412V80.638a2.1,2.1,0,1,1,0-4.2V71.944a13.13,13.13,0,0,0-2.412.222v4.271a2.1,2.1,0,1,0,0,4.2Z" transform="translate(-231.178 -63.983)" fill="#e6bd35" fill-rule="evenodd"/>
          <path id="Path_1040899" data-name="Path 1040899" d="M309.861,179.518a2.1,2.1,0,0,0,2.1,2.1,2.08,2.08,0,0,0,1.2-.382,2.1,2.1,0,0,1-.893-1.72Z" transform="translate(-278.372 -158.37)" fill="#e6bd35" fill-rule="evenodd"/>
          <path id="Path_1040900" data-name="Path 1040900" d="M325.817,179.518c0,7.561-5.469,10.14-7.679,14.872h2.412c2.21-4.733,7.679-7.311,7.679-14.872Z" transform="translate(-285.635 -158.37)" fill="#e6bd35" fill-rule="evenodd"/>
        </g>
        <path id="Path_1040901" data-name="Path 1040901" d="M318.138,300.841h2.411v3.4h-2.411Z" transform="translate(-238.792 -263.973)" fill="#456181"/>
        <path id="Path_1040902" data-name="Path 1040902" d="M308.239,328.564h-2.412v1.748a1.726,1.726,0,0,1-1.72,1.72h2.412a1.726,1.726,0,0,0,1.72-1.72Z" transform="translate(-226.481 -288.298)" fill="#3e5774" fill-rule="evenodd"/>
        <path id="Path_1040903" data-name="Path 1040903" d="M339.7,33.957a4.988,4.988,0,0,1-.212-1.449,5.158,5.158,0,0,1,.09-.959,13.134,13.134,0,0,0-5.421-1.161v1.48a13.089,13.089,0,0,1,5.542,2.088Z" transform="translate(-252.844 -26.674)" fill="#e6bd35" fill-rule="evenodd"/>
        <path id="Path_1040904" data-name="Path 1040904" d="M408.963,87.141a5.066,5.066,0,0,1-1.307-.174,13.1,13.1,0,0,1,2.349,6.248h1.824a13.1,13.1,0,0,0-1.571-6.244,4.984,4.984,0,0,1-1.3.17Z" transform="translate(-317.336 -76.317)" fill="#e6bd35" fill-rule="evenodd"/>
        <path id="Path_1040905" data-name="Path 1040905" d="M414.063,7.03a4.989,4.989,0,0,1,1.64,9.459,4.9,4.9,0,0,1-1.64.462c.174.017.348.028.521.028a4.988,4.988,0,0,0,0-9.976c-.174,0-.348.01-.521.028Z" transform="translate(-322.958 -6.154)" fill="#3eac5a" fill-rule="evenodd"/>
        <path id="Path_1040906" data-name="Path 1040906" d="M287.334,356.854v.612a2.443,2.443,0,0,1-1.567,2.272,2.432,2.432,0,0,0,3.308-2.272v-.612h-1.741Z" transform="translate(-210.389 -313.12)" fill="#456181" fill-rule="evenodd"/>
        <path id="Path_1040907" data-name="Path 1040907" d="M94.679,3.493a.858.858,0,0,1,0,1.214L91.212,8.178a.858.858,0,0,1-1.214,0L88.574,6.754A.858.858,0,1,1,89.787,5.54l.817.818,2.861-2.864a.858.858,0,0,1,1.214,0Zm-.567,7.633A14.068,14.068,0,0,1,95.351,16.9a.858.858,0,0,1-.858.858H90.735a2.961,2.961,0,0,1-5.667,0H81.307a.858.858,0,0,1-.858-.858V13.136a2.96,2.96,0,0,1,0-5.663V3.711a.858.858,0,0,1,.858-.858,13.975,13.975,0,0,1,4.872.869,5.846,5.846,0,1,1,7.933,7.4Zm-.507,4.913a12.326,12.326,0,0,0-1.154-4.417,5.84,5.84,0,0,1-6.67-5.789c0-.141.007-.281.017-.42A12.235,12.235,0,0,0,82.165,4.6V8.2a.858.858,0,0,1-.858.858,1.242,1.242,0,0,0,0,2.484.858.858,0,0,1,.858.858v3.635H85.8a.858.858,0,0,1,.858.858,1.244,1.244,0,1,0,2.488,0A.858.858,0,0,1,90,16.039ZM95.758,5.834a4.13,4.13,0,1,0-4.131,4.131,4.13,4.13,0,0,0,4.131-4.131ZM67,33c-2.245-2.689-4.79-5.737-4.79-11A14.06,14.06,0,0,1,76.251,7.95a.858.858,0,0,1,.858.858V13.3a.858.858,0,0,1-.858.858,1.242,1.242,0,1,0,0,2.484.858.858,0,0,1,.858.858v3.634h3.635a.858.858,0,0,1,.858.858,1.242,1.242,0,0,0,2.484,0,.858.858,0,0,1,.858-.858h4.493a.858.858,0,0,1,.858.858c0,5.267-2.545,8.315-4.79,11a20.856,20.856,0,0,0-2.889,4.063v4.952a2.581,2.581,0,0,1-2.578,2.578h-.5a3.293,3.293,0,0,1-6.567,0h-.5a2.581,2.581,0,0,1-2.578-2.578V37.062A20.825,20.825,0,0,0,67,33Zm10.81,11.593H74.695a1.575,1.575,0,0,0,3.112,0ZM80.9,41.124H71.6v.889a.873.873,0,0,0,.862.862h7.575a.873.873,0,0,0,.862-.862Zm0-3.4H71.6v1.682h9.3ZM63.922,21.995c0,4.645,2.233,7.318,4.391,9.9a23.89,23.89,0,0,1,2.96,4.11h9.954a23.872,23.872,0,0,1,2.96-4.11c2.023-2.422,4.109-4.921,4.365-9.045H85.676a2.959,2.959,0,0,1-5.663,0H76.251A.858.858,0,0,1,75.393,22V18.234a2.959,2.959,0,0,1,0-5.664V9.7A12.344,12.344,0,0,0,63.922,22ZM51,46.878a.867.867,0,1,0,0,.01Zm39.406,1.878c.738,2.653-1.257,3.638-2.449,4.226-.152.075-.3.15-.448.226l-.019.01L71.454,61.143a4.981,4.981,0,0,1-2.248.524,9.832,9.832,0,0,1-3.455-.807l-7.073-2.694-1.353.337.26.936a1.7,1.7,0,0,1-.156,1.3,1.715,1.715,0,0,1-1.04.818L52.31,62.688a1.72,1.72,0,0,1-2.117-1.2L46.048,46.58a1.72,1.72,0,0,1,1.195-2.117l4.076-1.132a1.724,1.724,0,0,1,2.119,1.191l.185.664,5.015-1.55a7,7,0,0,1,5.336.163l8.273,3.829a4.114,4.114,0,0,1,2.176,2.894l12.2-4.11.045-.014a3.143,3.143,0,0,1,3.738,2.358ZM55.926,59.9,51.785,44.985,47.7,46.117l4.143,14.917ZM88.753,49.217a1.461,1.461,0,0,0-1.608-1.169L74.5,52.307a4.21,4.21,0,0,1-.246.915A3.467,3.467,0,0,1,70.929,55.5a4.7,4.7,0,0,1-1.7-.335l-5.575-2.179a.858.858,0,1,1,.625-1.6l5.574,2.179a2,2,0,0,0,2.8-.97,2.57,2.57,0,0,0,.177-.927v0a2.688,2.688,0,0,0-1.309-2.478l-8.274-3.83a5.28,5.28,0,0,0-4.107-.081L54.082,46.84l2.782,10.008,1.66-.413a.858.858,0,0,1,.513.031l7.325,2.79c1.845.7,3.082.967,4.331.349l16.027-7.922c.154-.081.315-.16.478-.241,1.416-.7,1.883-1.048,1.556-2.225Z"/>
      </g>
    </g>
  </g>
</svg>
