<svg xmlns="http://www.w3.org/2000/svg" xmlns:xlink="http://www.w3.org/1999/xlink" width="106.16" height="106.161" viewBox="0 0 106.16 106.161">
  <defs>
    <filter id="Path_982547" x="0" y="0" width="106.16" height="106.161" filterUnits="userSpaceOnUse">
      <feOffset dy="3" input="SourceAlpha"/>
      <feGaussianBlur stdDeviation="3" result="blur"/>
      <feFlood flood-opacity="0.161"/>
      <feComposite operator="in" in2="blur"/>
      <feComposite in="SourceGraphic"/>
    </filter>
  </defs>
  <g id="Group_1202460" data-name="Group 1202460" transform="translate(-1036.42 -5240.839)">
    <g id="Group_1202399" data-name="Group 1202399" transform="translate(0 31)">
      <g id="Group_1202058" data-name="Group 1202058" transform="translate(764.42 3804.836)">
        <g id="Group_1177900" data-name="Group 1177900" transform="translate(281 1411.003)">
          <g id="Group_1172010" data-name="Group 1172010" transform="translate(0)">
            <g id="Group_1171046" data-name="Group 1171046">
              <g id="Group_1148525" data-name="Group 1148525">
                <g transform="matrix(1, 0, 0, 1, -9, -6)" filter="url(#Path_982547)">
                  <g id="Path_982547-2" data-name="Path 982547" transform="translate(9 6)" fill="#fdfbec">
                    <path d="M 44.0802001953125 86.660400390625 C 38.33124923706055 86.660400390625 32.75506210327148 85.53479766845703 27.50652503967285 83.31484985351562 C 22.43628692626953 81.17032623291016 17.88242530822754 78.09992218017578 13.97144985198975 74.18894958496094 C 10.06047534942627 70.27797698974609 6.99007511138916 65.72411346435547 4.845550060272217 60.65387344360352 C 2.625600099563599 55.40533828735352 1.500000238418579 49.82915115356445 1.500000238418579 44.0802001953125 C 1.500000238418579 38.33124923706055 2.625600099563599 32.75506210327148 4.845550060272217 27.50652503967285 C 6.99007511138916 22.43628692626953 10.06047534942627 17.88242530822754 13.97144985198975 13.97144985198975 C 17.88242530822754 10.06047534942627 22.43628692626953 6.99007511138916 27.50652503967285 4.845550060272217 C 32.75506210327148 2.625600099563599 38.33124923706055 1.500000238418579 44.0802001953125 1.500000238418579 C 49.82915115356445 1.500000238418579 55.40533828735352 2.625600099563599 60.65387344360352 4.845550060272217 C 65.72411346435547 6.99007511138916 70.27797698974609 10.06047534942627 74.18894958496094 13.97144985198975 C 78.09992218017578 17.88242530822754 81.17032623291016 22.43628692626953 83.31484985351562 27.50652503967285 C 85.53479766845703 32.75506210327148 86.660400390625 38.33124923706055 86.660400390625 44.0802001953125 C 86.660400390625 49.82915115356445 85.53479766845703 55.40533828735352 83.31484985351562 60.65387344360352 C 81.17032623291016 65.72411346435547 78.09992218017578 70.27797698974609 74.18894958496094 74.18894958496094 C 70.27797698974609 78.09992218017578 65.72411346435547 81.17032623291016 60.65387344360352 83.31484985351562 C 55.40533828735352 85.53479766845703 49.82915115356445 86.660400390625 44.0802001953125 86.660400390625 Z" stroke="none"/>
                    <path d="M 44.0802001953125 3 C 38.53308486938477 3 33.15349960327148 4.085746765136719 28.09085845947266 6.227058410644531 C 23.19941711425781 8.29595947265625 18.80581665039062 11.25841522216797 15.03211212158203 15.03211212158203 C 11.25841522216797 18.80581665039062 8.29595947265625 23.19941711425781 6.227058410644531 28.09085845947266 C 4.085746765136719 33.15349960327148 3 38.53308486938477 3 44.0802001953125 C 3 49.62731552124023 4.085746765136719 55.00691604614258 6.227058410644531 60.06954193115234 C 8.29595947265625 64.96098327636719 11.25841522216797 69.35458374023438 15.03211212158203 73.12828826904297 C 18.80581665039062 76.90198516845703 23.19941711425781 79.86444091796875 28.09085845947266 81.93334197998047 C 33.15349960327148 84.07466125488281 38.53308486938477 85.160400390625 44.0802001953125 85.160400390625 C 49.62731552124023 85.160400390625 55.00691604614258 84.07466125488281 60.06954193115234 81.93334197998047 C 64.96099853515625 79.86444091796875 69.35458374023438 76.90198516845703 73.12828826904297 73.12828826904297 C 76.90198516845703 69.35458374023438 79.86444091796875 64.96099853515625 81.93334197998047 60.06954193115234 C 84.07466125488281 55.00691604614258 85.160400390625 49.62731552124023 85.160400390625 44.0802001953125 C 85.160400390625 38.53308486938477 84.07466125488281 33.15349960327148 81.93334197998047 28.09085845947266 C 79.86444091796875 23.19941711425781 76.90198516845703 18.80581665039062 73.12828826904297 15.03211212158203 C 69.35458374023438 11.25841522216797 64.96098327636719 8.29595947265625 60.06954193115234 6.227058410644531 C 55.00691604614258 4.085746765136719 49.62731552124023 3 44.0802001953125 3 M 44.0802001953125 0 C 68.42502593994141 0 88.160400390625 19.73538970947266 88.160400390625 44.0802001953125 C 88.160400390625 68.42502593994141 68.42502593994141 88.160400390625 44.0802001953125 88.160400390625 C 19.73538970947266 88.160400390625 0 68.42502593994141 0 44.0802001953125 C 0 19.73538970947266 19.73538970947266 0 44.0802001953125 0 Z" stroke="none" fill="#83793c"/>
                  </g>
                </g>
              </g>
            </g>
          </g>
        </g>
      </g>
      <g id="fan-tan_10553603" transform="translate(1048.004 5218.424)">
        <path id="Path_1040737" data-name="Path 1040737" d="M24,152H59.694v35.694H24Z" transform="translate(-7.15 -121.552)" fill="#c3c6c7"/>
        <path id="Path_1040738" data-name="Path 1040738" d="M24,152l17.847,17.847L59.694,152Z" transform="translate(-7.15 -121.552)" fill="#ffd33a"/>
        <path id="Path_1040739" data-name="Path 1040739" d="M24,187.694l17.847-17.847L24,152Z" transform="translate(-7.15 -121.552)" fill="#eb423f"/>
        <path id="Path_1040740" data-name="Path 1040740" d="M209.847,152,192,169.847l17.847,17.847Z" transform="translate(-157.303 -121.552)" fill="#35a872"/>
        <path id="Path_1040741" data-name="Path 1040741" d="M0,0H49.277V3.606H0Z" transform="translate(28.745 51.693) rotate(-45)" fill="#95573a"/>
        <path id="Path_1040742" data-name="Path 1040742" d="M345,345H328l1.7-17h13.6Z" transform="translate(-278.856 -278.856)" fill="#e9eef2"/>
        <path id="Path_1040743" data-name="Path 1040743" d="M344,296h13.6v3.4H344Z" transform="translate(-293.156 -250.255)" fill="#c3c6c7"/>
        <g id="Group_1202398" data-name="Group 1202398" transform="translate(17.249 17.25)">
          <ellipse id="Ellipse_12554" data-name="Ellipse 12554" cx="1.399" cy="1.865" rx="1.399" ry="1.865" transform="translate(0 6.528)" fill="#e9eef2"/>
          <circle id="Ellipse_12555" data-name="Ellipse 12555" cx="1.865" cy="1.865" r="1.865" transform="translate(6.528 6.528)" fill="#e9eef2"/>
          <circle id="Ellipse_12556" data-name="Ellipse 12556" cx="1.865" cy="1.865" r="1.865" transform="translate(13.056 6.528)" fill="#e9eef2"/>
          <circle id="Ellipse_12557" data-name="Ellipse 12557" cx="1.865" cy="1.865" r="1.865" transform="translate(19.583 6.528)" fill="#e9eef2"/>
          <circle id="Ellipse_12558" data-name="Ellipse 12558" cx="1.399" cy="1.399" r="1.399" transform="translate(0 0)" fill="#e9eef2"/>
          <ellipse id="Ellipse_12559" data-name="Ellipse 12559" cx="1.865" cy="1.399" rx="1.865" ry="1.399" transform="translate(6.528 0)" fill="#e9eef2"/>
          <ellipse id="Ellipse_12560" data-name="Ellipse 12560" cx="1.865" cy="1.399" rx="1.865" ry="1.399" transform="translate(13.056 0)" fill="#e9eef2"/>
          <ellipse id="Ellipse_12561" data-name="Ellipse 12561" cx="1.865" cy="1.399" rx="1.865" ry="1.399" transform="translate(19.583 0)" fill="#e9eef2"/>
          <ellipse id="Ellipse_12562" data-name="Ellipse 12562" cx="1.399" cy="1.865" rx="1.399" ry="1.865" transform="translate(27.044 6.528)" fill="#e9eef2"/>
          <circle id="Ellipse_12563" data-name="Ellipse 12563" cx="1.399" cy="1.399" r="1.399" transform="translate(27.044 0)" fill="#e9eef2"/>
        </g>
        <path id="Path_1040744" data-name="Path 1040744" d="M65.292,49.1V45.745a.85.85,0,0,0-.85-.85H53.394V33.349L66.742,20a.85.85,0,0,0,0-1.2l-2.55-2.55a.85.85,0,0,0-1.2,0L49.642,29.6H16.85a.844.844,0,0,0-.848.85h0V66.141h0a.844.844,0,0,0,.848.85H66.141a.85.85,0,0,0,.846-.934Zm-1.7-.808h-11.9v-1.7h11.9Zm-11.9-3.4h-.85a.85.85,0,0,0-.85.85V49.1l-1.208,12.08L37.173,49.569l14.52-14.52Zm11.9-26.843L64.94,19.4,31.3,53.042,29.95,51.694ZM17.7,32.5,32.22,47.02l-4.073,4.073a.85.85,0,0,0,0,1.2l.674.674L17.7,64.09Zm30.243-1.2-14.52,14.52L18.9,31.3ZM30.023,54.171l.674.674a.85.85,0,0,0,1.2,0l4.073-4.073L48.544,63.343l.029-.029-.2,1.978H18.9ZM50.083,65.292l1.53-15.3H63.673l1.53,15.3ZM23.649,44.9v6.8a.85.85,0,1,1-1.7,0V46.27l-.47.235a.85.85,0,1,1-.76-1.52l1.7-.85a.85.85,0,0,1,1.23.76Zm8.5-3.4a.85.85,0,0,1-.85-.85v-1.7a2.439,2.439,0,0,1,2.55-2.55.85.85,0,0,0,0-1.7h-1.7a.85.85,0,0,1,0-1.7h1.7a2.55,2.55,0,0,1,0,5.1.747.747,0,0,0-.85.85v.85h2.55a.85.85,0,1,1,0,1.7Zm11.048,5.1a.85.85,0,0,1,.85-.85h1.7a2.439,2.439,0,0,1,2.55,2.55,2.586,2.586,0,0,1-.585,1.7,2.586,2.586,0,0,1,.585,1.7,2.439,2.439,0,0,1-2.55,2.55h-1.7a.85.85,0,1,1,0-1.7h1.7a.85.85,0,1,0,0-1.7H44.9a.85.85,0,0,1,0-1.7h.85a.85.85,0,1,0,0-1.7h-1.7A.85.85,0,0,1,43.2,46.595ZM37.246,59.343H36.4v-5.1a.85.85,0,0,0-1.5-.553l-5.1,5.949a.85.85,0,0,0,.645,1.4H34.7v1.7a.85.85,0,1,0,1.7,0v-1.7h.85a.85.85,0,1,0,0-1.7Zm-2.55,0H32.3l2.4-2.8ZM18.55,27.9A2.55,2.55,0,1,0,16,25.348,2.553,2.553,0,0,0,18.55,27.9Zm0-3.4a.85.85,0,1,1-.85.85A.851.851,0,0,1,18.55,24.5Zm6.8,3.4a2.55,2.55,0,1,0-2.55-2.55A2.553,2.553,0,0,0,25.348,27.9Zm0-3.4a.85.85,0,1,1-.85.85A.851.851,0,0,1,25.348,24.5Zm6.8,3.4a2.55,2.55,0,1,0-2.55-2.55A2.553,2.553,0,0,0,32.147,27.9Zm0-3.4a.85.85,0,1,1-.85.85A.851.851,0,0,1,32.147,24.5Zm6.8,3.4a2.55,2.55,0,1,0-2.55-2.55A2.553,2.553,0,0,0,38.946,27.9Zm0-3.4a.85.85,0,1,1-.85.85A.851.851,0,0,1,38.946,24.5Zm-20.4-3.4A2.55,2.55,0,1,0,16,18.55,2.553,2.553,0,0,0,18.55,21.1Zm0-3.4a.85.85,0,1,1-.85.85A.851.851,0,0,1,18.55,17.7Zm6.8,3.4a2.55,2.55,0,1,0-2.55-2.55A2.553,2.553,0,0,0,25.348,21.1Zm0-3.4a.85.85,0,1,1-.85.85A.851.851,0,0,1,25.348,17.7Zm6.8,3.4a2.55,2.55,0,1,0-2.55-2.55A2.553,2.553,0,0,0,32.147,21.1Zm0-3.4a.85.85,0,1,1-.85.85A.851.851,0,0,1,32.147,17.7Zm6.8,3.4a2.55,2.55,0,1,0-2.55-2.55A2.553,2.553,0,0,0,38.946,21.1Zm0-3.4a.85.85,0,1,1-.85.85A.851.851,0,0,1,38.946,17.7Zm6.8,10.2a2.55,2.55,0,1,0-2.55-2.55A2.553,2.553,0,0,0,45.745,27.9Zm0-3.4a.85.85,0,1,1-.85.85A.851.851,0,0,1,45.745,24.5Zm0-3.4a2.55,2.55,0,1,0-2.55-2.55A2.553,2.553,0,0,0,45.745,21.1Zm0-3.4a.85.85,0,1,1-.85.85A.851.851,0,0,1,45.745,17.7Z" transform="translate(0)"/>
      </g>
    </g>
  </g>
</svg>
