<svg xmlns="http://www.w3.org/2000/svg" xmlns:xlink="http://www.w3.org/1999/xlink" width="113" height="113" viewBox="0 0 113 113">
  <defs>
    <filter id="Trazado_982547" x="0" y="0" width="113" height="113" filterUnits="userSpaceOnUse">
      <feOffset dy="3" input="SourceAlpha"/>
      <feGaussianBlur stdDeviation="3" result="blur"/>
      <feFlood flood-opacity="0.161"/>
      <feComposite operator="in" in2="blur"/>
      <feComposite in="SourceGraphic"/>
    </filter>
  </defs>
  <g id="Grupo_1210850" data-name="Grupo 1210850" transform="translate(-693.019 -4698.873)">
    <g id="Grupo_1210835" data-name="Grupo 1210835" transform="translate(421.02 53.358)">
      <g id="Grupo_1202055" data-name="Grupo 1202055" transform="translate(0 3240.511)">
        <g id="Grupo_1177900" data-name="Grupo 1177900" transform="translate(281 1411.003)">
          <g id="Grupo_1172010" data-name="Grupo 1172010" transform="translate(0)">
            <g id="Grupo_1171046" data-name="Grupo 1171046">
              <g id="Grupo_1148525" data-name="Grupo 1148525">
                <g transform="matrix(1, 0, 0, 1, -9, -6)" filter="url(#Trazado_982547)">
                  <g id="Trazado_982547-2" data-name="Trazado 982547" transform="translate(9 6)" fill="#edf3fc">
                    <path d="M 47.5 93.5 C 41.28937149047852 93.5 35.26533508300781 92.28397369384766 29.59518623352051 89.88570404052734 C 24.11771965026855 87.56893157958984 19.19813346862793 84.25196075439453 14.97309303283691 80.02691650390625 C 10.74804019927979 75.80186462402344 7.431066513061523 70.88229370117188 5.114293098449707 65.40481567382812 C 2.716026782989502 59.73468017578125 1.5 53.71062850952148 1.5 47.5 C 1.5 41.28937149047852 2.716026782989502 35.26533508300781 5.114293098449707 29.59518623352051 C 7.431066513061523 24.11771965026855 10.74804019927979 19.19813346862793 14.97309303283691 14.97309303283691 C 19.19813346862793 10.74804019927979 24.11771965026855 7.431066513061523 29.59518623352051 5.114293098449707 C 35.26533508300781 2.716026782989502 41.28937149047852 1.5 47.5 1.5 C 53.71062850952148 1.5 59.73468017578125 2.716026782989502 65.40481567382812 5.114293098449707 C 70.88229370117188 7.431066513061523 75.80186462402344 10.74804019927979 80.02691650390625 14.97309303283691 C 84.25196075439453 19.19813346862793 87.56893157958984 24.11771965026855 89.88570404052734 29.59518623352051 C 92.28397369384766 35.26533508300781 93.5 41.28937149047852 93.5 47.5 C 93.5 53.71062850952148 92.28397369384766 59.73468017578125 89.88570404052734 65.40481567382812 C 87.56893157958984 70.88229370117188 84.25196075439453 75.80186462402344 80.02691650390625 80.02691650390625 C 75.80186462402344 84.25196075439453 70.88229370117188 87.56893157958984 65.40481567382812 89.88570404052734 C 59.73468017578125 92.28397369384766 53.71062850952148 93.5 47.5 93.5 Z" stroke="none"/>
                    <path d="M 47.5 3 C 41.49121475219727 3 35.66376876831055 4.176155090332031 30.17950439453125 6.495796203613281 C 24.88084411621094 8.736953735351562 20.12152099609375 11.94598388671875 16.03375244140625 16.03375244140625 C 11.94598388671875 20.12152099609375 8.736953735351562 24.88084411621094 6.495796203613281 30.17950439453125 C 4.176155090332031 35.66376876831055 3 41.49121475219727 3 47.5 C 3 53.50878524780273 4.176155090332031 59.33623123168945 6.495796203613281 64.82049560546875 C 8.736953735351562 70.11915588378906 11.94598388671875 74.87847900390625 16.03375244140625 78.96624755859375 C 20.12152099609375 83.05401611328125 24.88084411621094 86.26304626464844 30.17950439453125 88.50419616699219 C 35.66376876831055 90.82384490966797 41.49121475219727 92 47.5 92 C 53.50878524780273 92 59.33623123168945 90.82384490966797 64.82049560546875 88.50419616699219 C 70.11915588378906 86.26304626464844 74.87847900390625 83.05401611328125 78.96624755859375 78.96624755859375 C 83.05401611328125 74.87847900390625 86.26304626464844 70.11915588378906 88.50419616699219 64.82049560546875 C 90.82384490966797 59.33623123168945 92 53.50878524780273 92 47.5 C 92 41.49121475219727 90.82384490966797 35.66376876831055 88.50419616699219 30.17950439453125 C 86.26304626464844 24.88084411621094 83.05401611328125 20.12152099609375 78.96624755859375 16.03375244140625 C 74.87847900390625 11.94598388671875 70.11915588378906 8.736953735351562 64.82049560546875 6.495796203613281 C 59.33623123168945 4.176155090332031 53.50878524780273 3 47.5 3 M 47.5 0 C 73.7335205078125 0 95 21.2664794921875 95 47.5 C 95 73.7335205078125 73.7335205078125 95 47.5 95 C 21.2664794921875 95 0 73.7335205078125 0 47.5 C 0 21.2664794921875 21.2664794921875 0 47.5 0 Z" stroke="none" fill="#5692e8"/>
                  </g>
                </g>
              </g>
            </g>
          </g>
        </g>
      </g>
    </g>
    <g id="technology_14126462" transform="translate(717 4719.67)">
      <path id="Trazado_1040961" data-name="Trazado 1040961" d="M58.687,33l7.643,9.827H3L10.643,33" transform="translate(0 2.757)" fill="#ede329"/>
      <path id="Trazado_1040962" data-name="Trazado 1040962" d="M10,35.757V3H58.044V35.757Z" transform="translate(0.643)" fill="#ede329"/>
      <path id="Trazado_1040963" data-name="Trazado 1040963" d="M46.338,21l1.343,2.872,3.025.47L48.521,26.58l.513,3.156-2.7-1.5-2.708,1.5.524-3.156L41.97,24.341l3.014-.47Z" transform="translate(3.581 1.654)" fill="#05d105"/>
      <path id="Trazado_1040964" data-name="Trazado 1040964" d="M32.368,21l1.354,2.872,3.014.47L34.551,26.58l.513,3.156-2.7-1.5-2.7,1.5.513-3.156L28,24.341l3.014-.47Z" transform="translate(2.298 1.654)" fill="#05d105"/>
      <path id="Trazado_1040965" data-name="Trazado 1040965" d="M39.551,7l2.02,4.313L46.1,12l-3.276,3.363L43.6,20.1l-4.051-2.238L35.5,20.1l.775-4.739L33,12l4.531-.688Z" transform="translate(2.757 0.368)" fill="#05d105"/>
      <path id="Trazado_1040966" data-name="Trazado 1040966" d="M21.735,30.721a6.551,6.551,0,1,0-4.368,0" transform="translate(0.919 1.378)" fill="#05d105"/>
      <g id="Grupo_1210849" data-name="Grupo 1210849" transform="translate(3 3)">
        <path id="Trazado_1040967" data-name="Trazado 1040967" d="M10,35.757V3H58.044V35.757Z" transform="translate(-2.357 -3)" fill="none" stroke="#000" stroke-linejoin="round" stroke-width="2"/>
        <path id="Trazado_1040968" data-name="Trazado 1040968" d="M37,36h4.368" transform="translate(0.125 0.033)" fill="none" stroke="#000" stroke-linejoin="round" stroke-width="2"/>
        <path id="Trazado_1040969" data-name="Trazado 1040969" d="M43,36h4.368" transform="translate(0.676 0.033)" fill="none" stroke="#000" stroke-linejoin="round" stroke-width="2"/>
        <path id="Trazado_1040970" data-name="Trazado 1040970" d="M49,36h4.368" transform="translate(1.227 0.033)" fill="none" stroke="#000" stroke-linejoin="round" stroke-width="2"/>
        <path id="Trazado_1040971" data-name="Trazado 1040971" d="M39,39h4.368" transform="translate(0.308 0.308)" fill="none" stroke="#000" stroke-linejoin="round" stroke-width="2"/>
        <path id="Trazado_1040972" data-name="Trazado 1040972" d="M45,39h4.368" transform="translate(0.86 0.308)" fill="none" stroke="#000" stroke-linejoin="round" stroke-width="2"/>
        <path id="Trazado_1040973" data-name="Trazado 1040973" d="M51,39h4.368" transform="translate(1.411 0.308)" fill="none" stroke="#000" stroke-linejoin="round" stroke-width="2"/>
        <path id="Trazado_1040974" data-name="Trazado 1040974" d="M58.687,33l7.643,9.827H3L10.643,33" transform="translate(-3 -0.243)" fill="none" stroke="#000" stroke-linejoin="round" stroke-width="2"/>
        <path id="Trazado_1040975" data-name="Trazado 1040975" d="M21.735,30.721a6.551,6.551,0,1,0-4.368,0" transform="translate(-2.081 -1.622)" fill="none" stroke="#000" stroke-linejoin="round" stroke-width="2"/>
        <path id="Trazado_1040976" data-name="Trazado 1040976" d="M19,24.551V18" transform="translate(-1.53 -1.621)" fill="none" stroke="#000" stroke-linejoin="round" stroke-width="2"/>
      </g>
      <path id="Trazado_1040980" data-name="Trazado 1040980" d="M17,54H32.287v7.643H17Z" transform="translate(1.287 4.687)" fill="#0b2df7"/>
      <path id="Trazado_1040981" data-name="Trazado 1040981" d="M17,54H32.287v7.643H17Z" transform="translate(1.287 4.687)" fill="none" stroke="#000" stroke-linejoin="round" stroke-width="2"/>
      <path id="Trazado_1040982" data-name="Trazado 1040982" d="M17,54H32.287v7.643H17Z" transform="translate(1.287 4.687)" fill="none" stroke="#000" stroke-linejoin="round" stroke-width="2"/>
      <path id="Trazado_1040983" data-name="Trazado 1040983" d="M39.551,7l2.02,4.313L46.1,12l-3.276,3.363L43.6,20.1l-4.051-2.238L35.5,20.1l.775-4.739L33,12l4.531-.688Z" transform="translate(2.757 0.368)" fill="none" stroke="#000" stroke-linejoin="round" stroke-width="2"/>
      <path id="Trazado_1040984" data-name="Trazado 1040984" d="M39.551,7l2.02,4.313L46.1,12l-3.276,3.363L43.6,20.1l-4.051-2.238L35.5,20.1l.775-4.739L33,12l4.531-.688Z" transform="translate(2.757 0.368)" fill="none" stroke="#000" stroke-linejoin="round" stroke-width="2"/>
      <path id="Trazado_1040985" data-name="Trazado 1040985" d="M32.368,21l1.354,2.872,3.014.47L34.551,26.58l.513,3.156-2.7-1.5-2.7,1.5.513-3.156L28,24.341l3.014-.47Z" transform="translate(2.298 1.654)" fill="none" stroke="#000" stroke-linejoin="round" stroke-width="2"/>
      <path id="Trazado_1040986" data-name="Trazado 1040986" d="M46.338,21l1.343,2.872,3.025.47L48.521,26.58l.513,3.156-2.7-1.5-2.708,1.5.524-3.156L41.97,24.341l3.014-.47Z" transform="translate(3.581 1.654)" fill="none" stroke="#000" stroke-linejoin="round" stroke-width="2"/>
      <path id="Trazado_1040987" data-name="Trazado 1040987" d="M17.477,44.824V25.334a2.184,2.184,0,0,1,4.368,0V35a2.184,2.184,0,0,1,4.368,0v2.184a2.184,2.184,0,0,1,4.368,0v2.184a2.184,2.184,0,1,1,4.368,0V50.284l-2.184,6.551H17.477L14.07,48.1l-1.78-5.46L11.2,39.365l-.076-.251A2.271,2.271,0,0,1,12.454,36.2a1.8,1.8,0,0,1,.633-.109,2.369,2.369,0,0,1,2.184,1.638l.524,1.638,1.092,3.276.6,1.845Z" transform="translate(0.733 1.852)" fill="#f9bbbb"/>
      <path id="Trazado_1040988" data-name="Trazado 1040988" d="M20.91,34v7.643" transform="translate(1.646 2.849)" fill="#f9bbbb"/>
      <path id="Trazado_1040989" data-name="Trazado 1040989" d="M24.91,35v7.643" transform="translate(2.014 2.941)" fill="#f9bbbb"/>
      <path id="Trazado_1040990" data-name="Trazado 1040990" d="M28.91,38v6.551" transform="translate(2.381 3.217)" fill="#f9bbbb"/>
      <path id="Trazado_1040991" data-name="Trazado 1040991" d="M17.477,44.824V25.334a2.184,2.184,0,0,1,4.368,0V35a2.184,2.184,0,0,1,4.368,0v2.184a2.184,2.184,0,0,1,4.368,0v2.184a2.184,2.184,0,1,1,4.368,0V50.284l-2.184,6.551H17.477L14.07,48.1l-1.78-5.46L11.2,39.365l-.076-.251A2.271,2.271,0,0,1,12.454,36.2a1.8,1.8,0,0,1,.633-.109,2.369,2.369,0,0,1,2.184,1.638l.524,1.638,1.092,3.276.6,1.845Z" transform="translate(0.733 1.852)" fill="none" stroke="#000" stroke-linejoin="round" stroke-width="2"/>
      <path id="Trazado_1040992" data-name="Trazado 1040992" d="M20.95,34v7.643" transform="translate(1.65 2.849)" fill="none" stroke="#000" stroke-linejoin="round" stroke-width="2"/>
      <path id="Trazado_1040993" data-name="Trazado 1040993" d="M24.97,35v7.643" transform="translate(2.019 2.941)" fill="none" stroke="#000" stroke-linejoin="round" stroke-width="2"/>
      <path id="Trazado_1040994" data-name="Trazado 1040994" d="M28.98,38v6.551" transform="translate(2.388 3.217)" fill="none" stroke="#000" stroke-linejoin="round" stroke-width="2"/>
    </g>
  </g>
</svg>
