<svg xmlns="http://www.w3.org/2000/svg" xmlns:xlink="http://www.w3.org/1999/xlink" width="97.533" height="97.533" viewBox="0 0 97.533 97.533">
  <defs>
    <filter id="Path_982547" x="0" y="0" width="97.533" height="97.533" filterUnits="userSpaceOnUse">
      <feOffset dy="3" input="SourceAlpha"/>
      <feGaussianBlur stdDeviation="3" result="blur"/>
      <feFlood flood-opacity="0.161"/>
      <feComposite operator="in" in2="blur"/>
      <feComposite in="SourceGraphic"/>
    </filter>
  </defs>
  <g id="Group_1202469" data-name="Group 1202469" transform="translate(-1136.467 -6933.682)">
    <g id="Group_1202410" data-name="Group 1202410" transform="translate(0 31)">
      <g id="Group_1202159" data-name="Group 1202159" transform="translate(864.467 5497.679)">
        <g id="Group_1177900" data-name="Group 1177900" transform="translate(281 1411.003)">
          <g id="Group_1172010" data-name="Group 1172010" transform="translate(0)">
            <g id="Group_1171046" data-name="Group 1171046">
              <g id="Group_1148525" data-name="Group 1148525">
                <g transform="matrix(1, 0, 0, 1, -9, -6)" filter="url(#Path_982547)">
                  <g id="Path_982547-2" data-name="Path 982547" transform="translate(9 6)" fill="#fdfbec">
                    <path d="M 39.7666015625 78.033203125 C 34.59997940063477 78.033203125 29.58870124816895 77.02164459228516 24.87196731567383 75.02663421630859 C 20.31538963317871 73.099365234375 16.22284507751465 70.34000396728516 12.70802402496338 66.82518005371094 C 9.193202018737793 63.31035614013672 6.433835029602051 59.21781158447266 4.506568431854248 54.66123580932617 C 2.511557102203369 49.94449996948242 1.500001549720764 44.93322372436523 1.500001549720764 39.7666015625 C 1.500001549720764 34.59997940063477 2.511557102203369 29.58870124816895 4.506568431854248 24.87196731567383 C 6.433835029602051 20.31538963317871 9.193202018737793 16.22284507751465 12.70802402496338 12.70802402496338 C 16.22284507751465 9.193202018737793 20.31538963317871 6.433835029602051 24.87196731567383 4.506568431854248 C 29.58870124816895 2.511557102203369 34.59997940063477 1.500001549720764 39.7666015625 1.500001549720764 C 44.93322372436523 1.500001549720764 49.94449996948242 2.511557102203369 54.66123580932617 4.506568431854248 C 59.21781158447266 6.433835029602051 63.31035614013672 9.193202018737793 66.82518005371094 12.70802402496338 C 70.34000396728516 16.22284507751465 73.099365234375 20.31538963317871 75.02663421630859 24.87196731567383 C 77.02164459228516 29.58870124816895 78.033203125 34.59997940063477 78.033203125 39.7666015625 C 78.033203125 44.93322372436523 77.02164459228516 49.94449996948242 75.02663421630859 54.66123580932617 C 73.099365234375 59.21781158447266 70.34000396728516 63.31035614013672 66.82518005371094 66.82518005371094 C 63.31035614013672 70.34000396728516 59.21781158447266 73.099365234375 54.66123580932617 75.02663421630859 C 49.94449996948242 77.02164459228516 44.93322372436523 78.033203125 39.7666015625 78.033203125 Z" stroke="none"/>
                    <path d="M 39.7666015625 3 C 34.80181503295898 3 29.98714065551758 3.971687316894531 25.45630264282227 5.888076782226562 C 21.07851409912109 7.739715576171875 17.146240234375 10.39113616943359 13.76869201660156 13.76869201660156 C 10.39113616943359 17.146240234375 7.739715576171875 21.07851409912109 5.888076782226562 25.45630264282227 C 3.971687316894531 29.98714065551758 3 34.80181503295898 3 39.7666015625 C 3 44.73138809204102 3.971687316894531 49.54606628417969 5.888076782226562 54.076904296875 C 7.739715576171875 58.45468902587891 10.39113616943359 62.386962890625 13.76869201660156 65.76451110839844 C 17.146240234375 69.14206695556641 21.07851409912109 71.79348754882812 25.45630264282227 73.64512634277344 C 29.98714065551758 75.56151580810547 34.80181503295898 76.533203125 39.7666015625 76.533203125 C 44.73138809204102 76.533203125 49.54606628417969 75.56151580810547 54.076904296875 73.64512634277344 C 58.45468902587891 71.79348754882812 62.386962890625 69.14206695556641 65.76451110839844 65.76451110839844 C 69.14206695556641 62.386962890625 71.79348754882812 58.45468902587891 73.64512634277344 54.076904296875 C 75.56151580810547 49.54606628417969 76.533203125 44.73138809204102 76.533203125 39.7666015625 C 76.533203125 34.80181503295898 75.56151580810547 29.98714065551758 73.64512634277344 25.45630264282227 C 71.79348754882812 21.07851409912109 69.14206695556641 17.146240234375 65.76451110839844 13.76869201660156 C 62.386962890625 10.39113616943359 58.45468902587891 7.739715576171875 54.076904296875 5.888076782226562 C 49.54606628417969 3.971687316894531 44.73138809204102 3 39.7666015625 3 M 39.7666015625 0 C 61.72908782958984 0 79.533203125 17.80411529541016 79.533203125 39.7666015625 C 79.533203125 61.72908782958984 61.72908782958984 79.533203125 39.7666015625 79.533203125 C 17.80411529541016 79.533203125 0 61.72908782958984 0 39.7666015625 C 0 17.80411529541016 17.80411529541016 0 39.7666015625 0 Z" stroke="none" fill="#83793c"/>
                  </g>
                </g>
              </g>
            </g>
          </g>
        </g>
      </g>
      <g id="composer_11941411" transform="translate(1123.921 6913.985)">
        <g id="Group_1202407" data-name="Group 1202407" transform="translate(37.616 7.499)">
          <path id="Path_1040846" data-name="Path 1040846" d="M123.079,49.675H86.24c0-8.27,7.671-15.029,17.344-15.5q.534-.026,1.075-.026C114.832,34.15,123.079,41.1,123.079,49.675Z" transform="translate(-80.963 -31.258)" fill="#6e768f"/>
          <path id="Path_1040847" data-name="Path 1040847" d="M103.584,34.39a25.485,25.485,0,0,0-5.855,15.5H86.24C86.24,41.619,93.911,34.86,103.584,34.39Z" transform="translate(-80.963 -31.472)" fill="#565e75"/>
          <path id="Path_1040848" data-name="Path 1040848" d="M123.079,296.536h-6.537v3.28a3.255,3.255,0,0,1-3.256,3.256H96.033a3.255,3.255,0,0,1-3.256-3.256v-3.28H86.24a20.109,20.109,0,0,1,5.392-12.245,17.568,17.568,0,0,1,13.027-5.732C115.6,278.559,122.553,288.108,123.079,296.536Z" transform="translate(-80.963 -249.143)" fill="#a8c9ed"/>
          <path id="Path_1040849" data-name="Path 1040849" d="M101.664,302.927a2.342,2.342,0,0,0,.993,1.937H96.033a3.255,3.255,0,0,1-3.256-3.256v-3.281H86.24a20.109,20.109,0,0,1,5.392-12.245,17.791,17.791,0,0,1,10.223-5.514c1.083,2.306,2.552,5.5,2.552,5.5a6.534,6.534,0,0,0-2.743,5.725Z" transform="translate(-80.963 -250.935)" fill="#7fb0e4"/>
          <path id="Path_1040850" data-name="Path 1040850" d="M135.151,150.31l-.252,0a14.862,14.862,0,0,1-14.454-14.938,15.436,15.436,0,0,1,.4-3.215,3.278,3.278,0,0,1,1.752-2.211,16.73,16.73,0,0,1,6.306-1.628,17.739,17.739,0,0,1,5.454.532,3.227,3.227,0,0,0,1.589,0,17.143,17.143,0,0,1,11.761,1.1,3.278,3.278,0,0,1,1.752,2.211,15.436,15.436,0,0,1,.4,3.215A14.862,14.862,0,0,1,135.151,150.31Z" transform="translate(-111.455 -115.174)" fill="#ffd4bd"/>
          <path id="Path_1040851" data-name="Path 1040851" d="M134.9,150.562a14.862,14.862,0,0,1-14.454-14.938,15.436,15.436,0,0,1,.4-3.215A3.278,3.278,0,0,1,122.6,130.2a16.73,16.73,0,0,1,6.306-1.628C127.443,134.435,127.845,142.264,134.9,150.562Z" transform="translate(-111.455 -115.431)" fill="#ffbf9d"/>
          <path id="Path_1040852" data-name="Path 1040852" d="M108.586,27.927v.817h-3.269v-.817a17.16,17.16,0,0,0-17.034-17.16q-.781,0-1.545.06A17.344,17.344,0,0,0,71,28.08v.664H67.73v-.817A20.429,20.429,0,0,1,86.714,7.55q.716-.05,1.444-.051a20.429,20.429,0,0,1,20.428,20.428Z" transform="translate(-64.462 -7.499)" fill="#fad989"/>
          <path id="Path_1040853" data-name="Path 1040853" d="M86.739,11.246A17.344,17.344,0,0,0,71,28.5v.664H67.73v-.817A20.429,20.429,0,0,1,86.714,7.969,2.875,2.875,0,0,0,86.739,11.246Z" transform="translate(-64.462 -7.918)" fill="#f6ca56"/>
          <path id="Path_1040854" data-name="Path 1040854" d="M391.641,154.638h0a5.72,5.72,0,0,1-5.72,5.72H385.6a1.629,1.629,0,0,1-1.6-1.915,24.915,24.915,0,0,0,0-7.61,1.629,1.629,0,0,1,1.6-1.915h.323A5.72,5.72,0,0,1,391.641,154.638Z" transform="translate(-346.383 -133.571)" fill="#fbf198"/>
          <path id="Path_1040855" data-name="Path 1040855" d="M57.284,154.638h0a5.72,5.72,0,0,0,5.72,5.72h.323a1.629,1.629,0,0,0,1.6-1.915,24.913,24.913,0,0,1,0-7.61,1.629,1.629,0,0,0-1.6-1.915H63A5.72,5.72,0,0,0,57.284,154.638Z" transform="translate(-55.15 -133.571)" fill="#fad989"/>
          <path id="Path_1040856" data-name="Path 1040856" d="M144.849,287.388a6.486,6.486,0,0,1-1.311,2.549l-10.558,12.6-5.01-4.2,10.558-12.6A6.494,6.494,0,0,1,140.809,284Z" transform="translate(-118.165 -253.994)" fill="#fffae6"/>
          <path id="Path_1040857" data-name="Path 1040857" d="M251.113,272.353a1.338,1.338,0,0,1-.036.306l-.725,3.043c-.01.041-.02.083-.031.123h0a8.067,8.067,0,0,1-4.04-3.387c.038-.018.076-.036.115-.052l2.868-1.246a1.322,1.322,0,0,1,1.849,1.212Z" transform="translate(-223.635 -242.432)" fill="#fff0ce"/>
          <path id="Path_1040858" data-name="Path 1040858" d="M139.914,385.04l-.136,4.58,2.9,3.11,2.307-.829a4.086,4.086,0,0,0,2.464-5.226h0a4.085,4.085,0,0,0-5.226-2.464Z" transform="translate(-128.691 -343.114)" fill="#ffbf9d"/>
          <path id="Path_1040859" data-name="Path 1040859" d="M37.916,402.1h0a5.049,5.049,0,0,0,7.035,2.8l6.65-3.371-2.762-7.69-7.275,1.63A5.049,5.049,0,0,0,37.916,402.1Z" transform="translate(-37.616 -351.906)" fill="#4f96d9"/>
          <path id="Path_1040860" data-name="Path 1040860" d="M326.656,296.876v16.367A3.255,3.255,0,0,1,323.4,316.5H311.936a3.255,3.255,0,0,1-3.256-3.256V296.876a3.256,3.256,0,0,1,3.256-3.256H323.4A3.256,3.256,0,0,1,326.656,296.876Z" transform="translate(-279.264 -262.569)" fill="#6e768f"/>
          <path id="Path_1040861" data-name="Path 1040861" d="M317.549,316.5h-5.614a3.255,3.255,0,0,1-3.256-3.256V296.876a3.255,3.255,0,0,1,3.256-3.256H317.2a3.1,3.1,0,0,0-1.126,2.71v17.7A2.666,2.666,0,0,0,317.549,316.5Z" transform="translate(-279.263 -262.569)" fill="#565e75"/>
          <path id="Path_1040862" data-name="Path 1040862" d="M350.23,445.843a1.634,1.634,0,0,1-1.634,1.634h-8.172a1.634,1.634,0,1,1,0-3.268H348.6A1.634,1.634,0,0,1,350.23,445.843Z" transform="translate(-306.106 -396.817)" fill="#fffae6"/>
          <path id="Path_1040863" data-name="Path 1040863" d="M340.423,444.21h2.491v3.268h-2.491a1.634,1.634,0,1,1,0-3.268Z" transform="translate(-306.105 -396.817)" fill="#fff0ce"/>
          <path id="Path_1040864" data-name="Path 1040864" d="M350.23,385.6a1.634,1.634,0,0,1-1.634,1.634h-8.172a1.634,1.634,0,1,1,0-3.269H348.6A1.635,1.635,0,0,1,350.23,385.6Z" transform="translate(-306.106 -343.115)" fill="#fffae6"/>
          <path id="Path_1040865" data-name="Path 1040865" d="M340.423,383.97h2.491v3.269h-2.491a1.634,1.634,0,1,1,0-3.269Z" transform="translate(-306.105 -343.115)" fill="#fff0ce"/>
          <path id="Path_1040866" data-name="Path 1040866" d="M350.23,325.364A1.634,1.634,0,0,1,348.6,327h-8.172a1.634,1.634,0,1,1,0-3.269H348.6A1.635,1.635,0,0,1,350.23,325.364Z" transform="translate(-306.106 -289.412)" fill="#fffae6"/>
          <path id="Path_1040867" data-name="Path 1040867" d="M342.915,323.73V327h-2.491a1.634,1.634,0,1,1,0-3.269Z" transform="translate(-306.106 -289.412)" fill="#fff0ce"/>
          <g id="Group_1202406" data-name="Group 1202406" transform="translate(11.877 20.818)">
            <g id="Group_1202405" data-name="Group 1202405">
              <ellipse id="Ellipse_12564" data-name="Ellipse 12564" cx="3.186" cy="2.537" rx="3.186" ry="2.537" fill="#ffa1ac"/>
              <ellipse id="Ellipse_12565" data-name="Ellipse 12565" cx="3.186" cy="2.537" rx="3.186" ry="2.537" transform="translate(17.267)" fill="#ffa1ac"/>
            </g>
          </g>
        </g>
        <g id="Group_1202409" data-name="Group 1202409" transform="translate(37.617 7.499)">
          <path id="Path_1040868" data-name="Path 1040868" d="M146.52,475.79a3.254,3.254,0,0,0,3.251,3.109h17.253" transform="translate(-134.702 -424.97)" fill="none" stroke="#000" stroke-linecap="round" stroke-linejoin="round" stroke-miterlimit="10" stroke-width="1"/>
          <path id="Path_1040869" data-name="Path 1040869" d="M93.67,313.012a22.3,22.3,0,0,1,2.4-4.928,18.308,18.308,0,0,1,6.051-6.094" transform="translate(-87.587 -270.031)" fill="none" stroke="#000" stroke-linecap="round" stroke-linejoin="round" stroke-miterlimit="10" stroke-width="1"/>
          <path id="Path_1040870" data-name="Path 1040870" d="M126.96,131.338a3.26,3.26,0,0,1,1.446-1.4,17.143,17.143,0,0,1,11.761-1.1,3.227,3.227,0,0,0,1.589,0,17.143,17.143,0,0,1,11.761,1.1,3.26,3.26,0,0,1,1.446,1.4" transform="translate(-117.265 -115.175)" fill="none" stroke="#000" stroke-linecap="round" stroke-linejoin="round" stroke-miterlimit="10" stroke-width="1"/>
          <path id="Path_1040871" data-name="Path 1040871" d="M353.477,241.87a14.85,14.85,0,0,1-3.617,5.508" transform="translate(-315.975 -216.436)" fill="none" stroke="#000" stroke-linecap="round" stroke-linejoin="round" stroke-miterlimit="10" stroke-width="1"/>
          <path id="Path_1040872" data-name="Path 1040872" d="M281.836,320.49a14.667,14.667,0,0,1-3.156.939" transform="translate(-252.52 -286.524)" fill="none" stroke="#000" stroke-linecap="round" stroke-linejoin="round" stroke-miterlimit="10" stroke-width="1"/>
          <path id="Path_1040873" data-name="Path 1040873" d="M128.75,241.87a15,15,0,0,0,8.452,8.643" transform="translate(-118.86 -216.436)" fill="none" stroke="#000" stroke-linecap="round" stroke-linejoin="round" stroke-miterlimit="10" stroke-width="1"/>
          <path id="Path_1040874" data-name="Path 1040874" d="M364.15,80.42a17.165,17.165,0,0,1,4.629,7.349" transform="translate(-328.714 -72.507)" fill="none" stroke="#000" stroke-linecap="round" stroke-linejoin="round" stroke-miterlimit="10" stroke-width="1"/>
          <path id="Path_1040875" data-name="Path 1040875" d="M105.6,49.606a17.272,17.272,0,0,1,16.444-11.99,17.084,17.084,0,0,1,8.574,2.366" transform="translate(-98.223 -34.348)" fill="none" stroke="#000" stroke-linecap="round" stroke-linejoin="round" stroke-miterlimit="10" stroke-width="1"/>
          <path id="Path_1040876" data-name="Path 1040876" d="M70.03,24.729a20.431,20.431,0,0,1,40.357,0" transform="translate(-66.513 -7.5)" fill="none" stroke="#000" stroke-linecap="round" stroke-linejoin="round" stroke-miterlimit="10" stroke-width="1"/>
          <path id="Path_1040877" data-name="Path 1040877" d="M391.641,154.637a5.72,5.72,0,0,1-5.72,5.72H385.6a1.629,1.629,0,0,1-1.6-1.915,24.831,24.831,0,0,0,0-7.61,1.629,1.629,0,0,1,1.6-1.915h.323A5.72,5.72,0,0,1,391.641,154.637Z" transform="translate(-346.383 -133.57)" fill="none" stroke="#000" stroke-linecap="round" stroke-linejoin="round" stroke-miterlimit="10" stroke-width="1"/>
          <path id="Path_1040878" data-name="Path 1040878" d="M57.284,154.637a5.72,5.72,0,0,0,5.72,5.72h.323a1.629,1.629,0,0,0,1.6-1.915,24.83,24.83,0,0,1,0-7.61,1.629,1.629,0,0,0-1.6-1.915H63A5.72,5.72,0,0,0,57.284,154.637Z" transform="translate(-55.15 -133.57)" fill="none" stroke="#000" stroke-linecap="round" stroke-linejoin="round" stroke-miterlimit="10" stroke-width="1"/>
          <path id="Path_1040879" data-name="Path 1040879" d="M323.06,316.5h.34a3.255,3.255,0,0,0,3.256-3.256V296.876a3.256,3.256,0,0,0-3.256-3.256H311.936a3.256,3.256,0,0,0-3.256,3.256v16.367a3.255,3.255,0,0,0,3.256,3.256h7.326" transform="translate(-279.264 -262.57)" fill="none" stroke="#000" stroke-linecap="round" stroke-linejoin="round" stroke-miterlimit="10" stroke-width="1"/>
          <path id="Path_1040880" data-name="Path 1040880" d="M348.6,447.474h-8.171a1.634,1.634,0,1,1,0-3.268H348.6a1.634,1.634,0,0,1,0,3.268Z" transform="translate(-306.109 -396.813)" fill="none" stroke="#000" stroke-linecap="round" stroke-linejoin="round" stroke-miterlimit="10" stroke-width="1"/>
          <path id="Path_1040881" data-name="Path 1040881" d="M348.6,387.238h-8.171a1.634,1.634,0,1,1,0-3.268H348.6a1.634,1.634,0,1,1,0,3.268Z" transform="translate(-306.109 -343.115)" fill="none" stroke="#000" stroke-linecap="round" stroke-linejoin="round" stroke-miterlimit="10" stroke-width="1"/>
          <path id="Path_1040882" data-name="Path 1040882" d="M348.6,327h-8.171a1.634,1.634,0,1,1,0-3.268H348.6a1.634,1.634,0,0,1,0,3.268Z" transform="translate(-306.109 -289.416)" fill="none" stroke="#000" stroke-linecap="round" stroke-linejoin="round" stroke-miterlimit="10" stroke-width="1"/>
          <path id="Path_1040883" data-name="Path 1040883" d="M149.84,283.923l8.185-9.768a6.509,6.509,0,0,1,2.4-1.791l2.868-1.246a1.323,1.323,0,0,1,1.813,1.518l-.725,3.043a6.5,6.5,0,0,1-1.342,2.673l-6.447,7.7" transform="translate(-137.662 -242.41)" fill="none" stroke="#000" stroke-linecap="round" stroke-linejoin="round" stroke-miterlimit="10" stroke-width="1"/>
          <path id="Path_1040884" data-name="Path 1040884" d="M246.51,284.45a8.107,8.107,0,0,0,3.94,3.313" transform="translate(-223.841 -254.395)" fill="none" stroke="#000" stroke-linecap="round" stroke-linejoin="round" stroke-miterlimit="10" stroke-width="1"/>
          <path id="Path_1040885" data-name="Path 1040885" d="M40.371,395.891a5.062,5.062,0,0,1,1.2-.431l7.275-1.63,2.762,7.69-6.65,3.372a5.05,5.05,0,0,1-7.069-6.113" transform="translate(-37.621 -351.905)" fill="none" stroke="#000" stroke-linecap="round" stroke-linejoin="round" stroke-miterlimit="10" stroke-width="1"/>
          <path id="Path_1040886" data-name="Path 1040886" d="M143.792,392.731l2.307-.829a4.086,4.086,0,1,0-2.762-7.69l-2.307.829" transform="translate(-129.808 -343.115)" fill="none" stroke="#000" stroke-linecap="round" stroke-linejoin="round" stroke-miterlimit="10" stroke-width="1"/>
          <g id="Group_1202408" data-name="Group 1202408" transform="translate(16.919 19.611)">
            <line id="Line_1064" data-name="Line 1064" y2="1.302" fill="none" stroke="#000" stroke-linecap="round" stroke-linejoin="round" stroke-miterlimit="10" stroke-width="1"/>
            <line id="Line_1065" data-name="Line 1065" y2="1.302" transform="translate(13.554)" fill="none" stroke="#000" stroke-linecap="round" stroke-linejoin="round" stroke-miterlimit="10" stroke-width="1"/>
            <path id="Path_1040887" data-name="Path 1040887" d="M239.5,199.848a2.368,2.368,0,0,0,3.573,0" transform="translate(-234.515 -198.584)" fill="none" stroke="#000" stroke-linecap="round" stroke-linejoin="round" stroke-miterlimit="10" stroke-width="1"/>
          </g>
        </g>
      </g>
    </g>
  </g>
</svg>
