<svg xmlns="http://www.w3.org/2000/svg" xmlns:xlink="http://www.w3.org/1999/xlink" width="108" height="108" viewBox="0 0 108 108">
  <defs>
    <filter id="Path_904820" x="0" y="0" width="108" height="108" filterUnits="userSpaceOnUse">
      <feOffset dy="3" input="SourceAlpha"/>
      <feGaussianBlur stdDeviation="3" result="blur"/>
      <feFlood flood-opacity="0.161"/>
      <feComposite operator="in" in2="blur"/>
      <feComposite in="SourceGraphic"/>
    </filter>
  </defs>
  <g id="Group_1202422" data-name="Group 1202422" transform="translate(-619.477 -413.187)">
    <g id="Group_1202258" data-name="Group 1202258">
      <g id="Group_1177315" data-name="Group 1177315" transform="translate(-0.523 -112.813)">
        <g id="Group_1173585" data-name="Group 1173585" transform="translate(629 532)">
          <g id="Group_1173428" data-name="Group 1173428" transform="translate(0 0)">
            <g id="Group_1171958" data-name="Group 1171958">
              <g id="Group_1167341" data-name="Group 1167341">
                <g id="Group_1166792" data-name="Group 1166792">
                  <g transform="matrix(1, 0, 0, 1, -9, -6)" filter="url(#Path_904820)">
                    <g id="Path_904820-2" data-name="Path 904820" transform="translate(9 6)" fill="#fdfbec">
                      <path d="M 44.99999618530273 88.49999237060547 C 39.12687301635742 88.49999237060547 33.43022155761719 87.35006713867188 28.06829643249512 85.08216857910156 C 22.88852119445801 82.89130401611328 18.23629570007324 79.75457763671875 14.24084663391113 75.75914001464844 C 10.24540901184082 71.76369476318359 7.108683586120605 67.11146545410156 4.917821407318115 61.93169403076172 C 2.649921178817749 56.56976699829102 1.499996185302734 50.87311553955078 1.499996185302734 44.99999237060547 C 1.499996185302734 39.12686920166016 2.649921178817749 33.43021774291992 4.917821407318115 28.06829261779785 C 7.108683586120605 22.88851737976074 10.24540901184082 18.23630523681641 14.24084663391113 14.24085521697998 C 18.23629570007324 10.24540519714355 22.88852119445801 7.108692169189453 28.06829643249512 4.917829990386963 C 33.43022155761719 2.649929761886597 39.12687301635742 1.500004887580872 44.99999618530273 1.500004887580872 C 50.87311935424805 1.500004887580872 56.56977081298828 2.649929761886597 61.93169784545898 4.917829990386963 C 67.11147308349609 7.108692169189453 71.76369476318359 10.24540519714355 75.75914764404297 14.24085521697998 C 79.75458526611328 18.23630523681641 82.89131164550781 22.88851737976074 85.08216857910156 28.06829261779785 C 87.35007476806641 33.43021774291992 88.5 39.12686920166016 88.5 44.99999237060547 C 88.5 50.87311553955078 87.35007476806641 56.56976699829102 85.08216857910156 61.93169403076172 C 82.89131164550781 67.11146545410156 79.75458526611328 71.76369476318359 75.75914764404297 75.75914001464844 C 71.76369476318359 79.75457763671875 67.11147308349609 82.89130401611328 61.93169784545898 85.08216857910156 C 56.56977081298828 87.35006713867188 50.87311935424805 88.49999237060547 44.99999618530273 88.49999237060547 Z" stroke="none"/>
                      <path d="M 44.99999618530273 2.999992370605469 C 39.32870864868164 2.999992370605469 33.82865142822266 4.11004638671875 28.65262603759766 6.299331665039062 C 23.65165710449219 8.414566040039062 19.15968322753906 11.44333648681641 15.301513671875 15.30150604248047 C 11.44333648681641 19.15967559814453 8.414566040039062 23.65164947509766 6.299339294433594 28.65262222290039 C 4.110054016113281 33.82864761352539 2.999992370605469 39.32870483398438 2.999992370605469 44.99999237060547 C 2.999992370605469 50.67127990722656 4.110054016113281 56.17132186889648 6.299339294433594 61.34736633300781 C 8.414566040039062 66.34833526611328 11.44333648681641 70.84029388427734 15.301513671875 74.69846343994141 C 19.15968322753906 78.55663299560547 23.65165710449219 81.58540344238281 28.65262603759766 83.70063781738281 C 33.82865142822266 85.88992309570312 39.32870864868164 86.99997711181641 44.99999618530273 86.99997711181641 C 50.67128372192383 86.99997711181641 56.17134094238281 85.88992309570312 61.34736633300781 83.70063781738281 C 66.34834289550781 81.58540344238281 70.84030914306641 78.55663299560547 74.69847869873047 74.69846343994141 C 78.55665588378906 70.84029388427734 81.58542633056641 66.34833526611328 83.70065307617188 61.34736633300781 C 85.88993835449219 56.17132186889648 87 50.67127990722656 87 44.99999237060547 C 87 39.32870483398438 85.88993835449219 33.82864761352539 83.70065307617188 28.65262222290039 C 81.58542633056641 23.65164947509766 78.55665588378906 19.15967559814453 74.69847869873047 15.30150604248047 C 70.84030914306641 11.44333648681641 66.34834289550781 8.414566040039062 61.34736633300781 6.299331665039062 C 56.17134094238281 4.11004638671875 50.67128372192383 2.999992370605469 44.99999618530273 2.999992370605469 M 44.99999618530273 -7.62939453125e-06 C 69.85281372070312 -7.62939453125e-06 90 20.14717864990234 90 44.99999237060547 C 90 69.85279083251953 69.85281372070312 89.99997711181641 44.99999618530273 89.99997711181641 C 20.14717864990234 89.99997711181641 -7.62939453125e-06 69.85279083251953 -7.62939453125e-06 44.99999237060547 C -7.62939453125e-06 20.14717864990234 20.14717864990234 -7.62939453125e-06 44.99999618530273 -7.62939453125e-06 Z" stroke="none" fill="#83793c"/>
                    </g>
                  </g>
                </g>
              </g>
            </g>
          </g>
        </g>
      </g>
      <g id="_08-Mathematics" data-name="08-Mathematics" transform="translate(646.402 437.112)">
        <path id="Path_1040289" data-name="Path 1040289" d="M6.077,1V6.077H1Z" transform="translate(-0.154 -0.154)" fill="#ff873c"/>
        <path id="Path_1040290" data-name="Path 1040290" d="M5,42H8.384v3.384H5Z" transform="translate(-0.77 -6.464)" fill="#f0f0f0"/>
        <path id="Path_1040291" data-name="Path 1040291" d="M5,34H8.384v3.384H5Z" transform="translate(-0.77 -5.233)" fill="#f0f0f0"/>
        <path id="Path_1040292" data-name="Path 1040292" d="M34.844,1V45H1V6.077H6.077V1ZM7.769,39.074V35.69H4.384v3.384Zm0-6.769V28.921H4.384v3.384Zm0-6.769V22.152H4.384v3.384Zm0-6.769V15.384H4.384v3.384Z" transform="translate(-0.154 -0.154)" fill="#ffc170"/>
        <path id="Path_1040293" data-name="Path 1040293" d="M29.767,1V11.153A28.767,28.767,0,0,1,1,39.92V45H34.844V1Z" transform="translate(-0.154 -0.154)" fill="#ffac5a"/>
        <path id="Path_1040294" data-name="Path 1040294" d="M5,26H8.384v3.384H5Z" transform="translate(-0.77 -4.002)" fill="#f0f0f0"/>
        <path id="Path_1040295" data-name="Path 1040295" d="M5,18H8.384v3.384H5Z" transform="translate(-0.77 -2.77)" fill="#f0f0f0"/>
        <path id="Path_1040296" data-name="Path 1040296" d="M5,20H8.384v1.692H5Z" transform="translate(-0.77 -3.078)" fill="#d9d9d9"/>
        <path id="Path_1040297" data-name="Path 1040297" d="M5,28H8.384v1.692H5Z" transform="translate(-0.77 -4.309)" fill="#d9d9d9"/>
        <path id="Path_1040298" data-name="Path 1040298" d="M5,36H8.384v1.692H5Z" transform="translate(-0.77 -5.541)" fill="#d9d9d9"/>
        <path id="Path_1040299" data-name="Path 1040299" d="M5,44H8.384v1.692H5Z" transform="translate(-0.77 -6.772)" fill="#d9d9d9"/>
        <path id="Path_1040300" data-name="Path 1040300" d="M10,6h1.692V7.692H10Z" transform="translate(-1.539 -0.923)" fill="#ffdfb0"/>
        <path id="Path_1040301" data-name="Path 1040301" d="M14,6h5.923V7.692H14Z" transform="translate(-2.155 -0.923)" fill="#ffdfb0"/>
        <path id="Path_1040302" data-name="Path 1040302" d="M4,10H18.384v1.692H4Z" transform="translate(-0.616 -1.539)" fill="#ffdfb0"/>
        <path id="Path_1040303" data-name="Path 1040303" d="M12,17h1.692v1.692H12Z" transform="translate(-1.847 -2.616)" fill="#ffdfb0"/>
        <path id="Path_1040304" data-name="Path 1040304" d="M16,17h4.23v1.692H16Z" transform="translate(-2.463 -2.616)" fill="#ffdfb0"/>
        <path id="Path_1040305" data-name="Path 1040305" d="M12,21h7.615v1.692H12Z" transform="translate(-1.847 -3.232)" fill="#ffdfb0"/>
        <path id="Path_1040306" data-name="Path 1040306" d="M52.384,41.692v1.692a1.692,1.692,0,1,1-3.384,0V41.692a1.692,1.692,0,0,1,3.384,0Z" transform="translate(-7.542 -6.156)" fill="#ff636e"/>
        <path id="Path_1040307" data-name="Path 1040307" d="M52.039,40.5A1.657,1.657,0,0,0,50,40.236a1.681,1.681,0,0,1,.846,1.456v1.692A1.692,1.692,0,0,1,50,44.84a1.671,1.671,0,0,0,.846.236,1.7,1.7,0,0,0,1.692-1.692V41.692A1.654,1.654,0,0,0,52.039,40.5Z" transform="translate(-7.696 -6.156)" fill="#ff475a"/>
        <path id="Path_1040308" data-name="Path 1040308" d="M48.384,41.692v1.692a1.692,1.692,0,1,1-3.384,0V41.692a1.692,1.692,0,0,1,3.384,0Z" transform="translate(-6.926 -6.156)" fill="#19cffc"/>
        <path id="Path_1040309" data-name="Path 1040309" d="M48.039,40.5A1.657,1.657,0,0,0,46,40.236a1.681,1.681,0,0,1,.846,1.456v1.692A1.692,1.692,0,0,1,46,44.84a1.671,1.671,0,0,0,.846.236,1.7,1.7,0,0,0,1.692-1.692V41.692A1.654,1.654,0,0,0,48.039,40.5Z" transform="translate(-7.08 -6.156)" fill="#1ea1e3"/>
        <path id="Path_1040310" data-name="Path 1040310" d="M44.384,41.692v1.692a1.692,1.692,0,1,1-3.384,0V41.692a1.692,1.692,0,0,1,3.384,0Z" transform="translate(-6.31 -6.156)" fill="#fc9942"/>
        <path id="Path_1040311" data-name="Path 1040311" d="M32.384,51.692v1.692a1.692,1.692,0,0,1-3.384,0V51.692a1.692,1.692,0,0,1,3.384,0Z" transform="translate(-4.463 -7.696)" fill="#fc9942"/>
        <path id="Path_1040312" data-name="Path 1040312" d="M36.384,51.692v1.692a1.692,1.692,0,0,1-3.384,0V51.692a1.692,1.692,0,0,1,3.384,0Z" transform="translate(-5.079 -7.696)" fill="#19cffc"/>
        <path id="Path_1040313" data-name="Path 1040313" d="M40.384,51.692v1.692a1.692,1.692,0,0,1-3.384,0V51.692a1.692,1.692,0,0,1,3.384,0Z" transform="translate(-5.695 -7.696)" fill="#ff636e"/>
        <path id="Path_1040314" data-name="Path 1040314" d="M28.384,51.692v1.692a1.692,1.692,0,0,1-3.384,0V51.692a1.692,1.692,0,0,1,3.384,0Z" transform="translate(-3.848 -7.696)" fill="#b2876d"/>
        <path id="Path_1040315" data-name="Path 1040315" d="M40.384,41.692v1.692a1.692,1.692,0,1,1-3.384,0V41.692a1.692,1.692,0,0,1,3.384,0Z" transform="translate(-5.695 -6.156)" fill="#b2876d"/>
        <path id="Path_1040316" data-name="Path 1040316" d="M40.384,31.692v1.692a1.692,1.692,0,0,1-3.384,0V31.692a1.692,1.692,0,1,1,3.384,0Z" transform="translate(-5.695 -4.617)" fill="#b2876d"/>
        <path id="Path_1040317" data-name="Path 1040317" d="M36.384,31.692v1.692a1.692,1.692,0,0,1-3.384,0V31.692a1.692,1.692,0,1,1,3.384,0Z" transform="translate(-5.079 -4.617)" fill="#fc9942"/>
        <path id="Path_1040318" data-name="Path 1040318" d="M32.384,31.692v1.692a1.692,1.692,0,0,1-3.384,0V31.692a1.692,1.692,0,1,1,3.384,0Z" transform="translate(-4.463 -4.617)" fill="#19cffc"/>
        <path id="Path_1040319" data-name="Path 1040319" d="M28.384,31.692v1.692a1.692,1.692,0,0,1-3.384,0V31.692a1.692,1.692,0,1,1,3.384,0Z" transform="translate(-3.848 -4.617)" fill="#ff636e"/>
        <path id="Path_1040320" data-name="Path 1040320" d="M16.692,59h5.077v3.384H15V59Z" transform="translate(-2.309 -9.081)" fill="#8d5c4d"/>
        <path id="Path_1040321" data-name="Path 1040321" d="M56.692,59h5.077v3.384H55V59Z" transform="translate(-8.465 -9.081)" fill="#8d5c4d"/>
        <path id="Path_1040322" data-name="Path 1040322" d="M56.692,61h5.077v1.692H55V61Z" transform="translate(-8.465 -9.389)" fill="#805142"/>
        <path id="Path_1040323" data-name="Path 1040323" d="M16.692,61h5.077v1.692H15V61Z" transform="translate(-2.309 -9.389)" fill="#805142"/>
        <path id="Path_1040324" data-name="Path 1040324" d="M17,27h3.384V54.075H17Z" transform="translate(-2.616 -4.156)" fill="#a37862"/>
        <path id="Path_1040325" data-name="Path 1040325" d="M57,27h3.384V54.075H57Z" transform="translate(-8.773 -4.156)" fill="#a37862"/>
        <path id="Path_1040326" data-name="Path 1040326" d="M59,27h1.692V54.075H59Z" transform="translate(-9.081 -4.156)" fill="#b2876d"/>
        <path id="Path_1040327" data-name="Path 1040327" d="M19,27h1.692V54.075H19Z" transform="translate(-2.924 -4.156)" fill="#b2876d"/>
        <path id="Path_1040328" data-name="Path 1040328" d="M52.767,5V20.23H46l-4.23,4.23V20.23H24V5Z" transform="translate(-3.694 -0.77)" fill="#f0f0f0"/>
        <path id="Path_1040329" data-name="Path 1040329" d="M40.076,21H24v1.692H41.768A1.692,1.692,0,0,0,40.076,21Z" transform="translate(-3.694 -3.232)" fill="#d9d9d9"/>
        <path id="Path_1040330" data-name="Path 1040330" d="M45,25.23v1.692l4.23-4.23H56V21H49.23Z" transform="translate(-6.926 -3.232)" fill="#d9d9d9"/>
        <path id="Path_1040331" data-name="Path 1040331" d="M28.039,30.5A1.657,1.657,0,0,0,26,30.236a1.681,1.681,0,0,1,.846,1.456v1.692A1.692,1.692,0,0,1,26,34.84a1.671,1.671,0,0,0,.846.236,1.7,1.7,0,0,0,1.692-1.692V31.692a1.654,1.654,0,0,0-.5-1.193Z" transform="translate(-4.002 -4.617)" fill="#ff475a"/>
        <path id="Path_1040332" data-name="Path 1040332" d="M40.039,50.5A1.658,1.658,0,0,0,38,50.236a1.681,1.681,0,0,1,.846,1.456v1.692A1.692,1.692,0,0,1,38,54.84a1.671,1.671,0,0,0,.846.236,1.7,1.7,0,0,0,1.692-1.692V51.692A1.654,1.654,0,0,0,40.039,50.5Z" transform="translate(-5.849 -7.695)" fill="#ff475a"/>
        <path id="Path_1040333" data-name="Path 1040333" d="M32.039,30.5A1.657,1.657,0,0,0,30,30.236a1.681,1.681,0,0,1,.846,1.456v1.692A1.692,1.692,0,0,1,30,34.84a1.671,1.671,0,0,0,.846.236,1.7,1.7,0,0,0,1.692-1.692V31.692a1.654,1.654,0,0,0-.5-1.193Z" transform="translate(-4.617 -4.617)" fill="#1ea1e3"/>
        <path id="Path_1040334" data-name="Path 1040334" d="M36.039,50.5A1.658,1.658,0,0,0,34,50.236a1.681,1.681,0,0,1,.846,1.456v1.692A1.692,1.692,0,0,1,34,54.84a1.671,1.671,0,0,0,.846.236,1.7,1.7,0,0,0,1.692-1.692V51.692A1.654,1.654,0,0,0,36.039,50.5Z" transform="translate(-5.233 -7.695)" fill="#1ea1e3"/>
        <path id="Path_1040335" data-name="Path 1040335" d="M44.039,40.5A1.657,1.657,0,0,0,42,40.236a1.681,1.681,0,0,1,.846,1.456v1.692A1.692,1.692,0,0,1,42,44.84a1.671,1.671,0,0,0,.846.236,1.7,1.7,0,0,0,1.692-1.692V41.692A1.654,1.654,0,0,0,44.039,40.5Z" transform="translate(-6.464 -6.156)" fill="#fa732d"/>
        <path id="Path_1040336" data-name="Path 1040336" d="M36.039,30.5A1.657,1.657,0,0,0,34,30.236a1.681,1.681,0,0,1,.846,1.456v1.692A1.692,1.692,0,0,1,34,34.84a1.671,1.671,0,0,0,.846.236,1.7,1.7,0,0,0,1.692-1.692V31.692a1.654,1.654,0,0,0-.5-1.193Z" transform="translate(-5.233 -4.617)" fill="#fa732d"/>
        <path id="Path_1040337" data-name="Path 1040337" d="M32.039,50.5A1.658,1.658,0,0,0,30,50.236a1.681,1.681,0,0,1,.846,1.456v1.692A1.692,1.692,0,0,1,30,54.84a1.671,1.671,0,0,0,.846.236,1.7,1.7,0,0,0,1.692-1.692V51.692A1.654,1.654,0,0,0,32.039,50.5Z" transform="translate(-4.617 -7.695)" fill="#fa732d"/>
        <path id="Path_1040338" data-name="Path 1040338" d="M40.039,40.5A1.657,1.657,0,0,0,38,40.236a1.681,1.681,0,0,1,.846,1.456v1.692A1.692,1.692,0,0,1,38,44.84a1.671,1.671,0,0,0,.846.236,1.7,1.7,0,0,0,1.692-1.692V41.692A1.654,1.654,0,0,0,40.039,40.5Z" transform="translate(-5.849 -6.156)" fill="#a37862"/>
        <path id="Path_1040339" data-name="Path 1040339" d="M40.039,30.5A1.657,1.657,0,0,0,38,30.236a1.681,1.681,0,0,1,.846,1.456v1.692A1.692,1.692,0,0,1,38,34.84a1.671,1.671,0,0,0,.846.236,1.7,1.7,0,0,0,1.692-1.692V31.692a1.654,1.654,0,0,0-.5-1.193Z" transform="translate(-5.849 -4.617)" fill="#a37862"/>
        <path id="Path_1040340" data-name="Path 1040340" d="M28.039,50.5A1.657,1.657,0,0,0,26,50.236a1.681,1.681,0,0,1,.846,1.456v1.692A1.692,1.692,0,0,1,26,54.84a1.671,1.671,0,0,0,.846.236,1.7,1.7,0,0,0,1.692-1.692V51.692a1.654,1.654,0,0,0-.5-1.193Z" transform="translate(-4.002 -7.695)" fill="#a37862"/>
        <g id="Group_1202257" data-name="Group 1202257" transform="translate(17.768 7.615)">
          <path id="Path_1040341" data-name="Path 1040341" d="M32.923,9H27v1.692h5.077v1.692h-4.23A.846.846,0,0,0,27,13.23v3.384a.846.846,0,0,0,.846.846h5.923V15.769H28.692V14.077h4.23a.846.846,0,0,0,.846-.846V9.846A.846.846,0,0,0,32.923,9Z" transform="translate(-21.923 -9)" fill="#848484"/>
          <path id="Path_1040342" data-name="Path 1040342" d="M52.923,14.077a.846.846,0,0,0,.846-.846V9.846A.846.846,0,0,0,52.923,9H47v1.692h5.077v1.692h-4.23A.846.846,0,0,0,47,13.23v3.384a.846.846,0,0,0,.846.846h5.923V15.769H48.692V14.077Z" transform="translate(-25.002 -9)" fill="#848484"/>
          <path id="Path_1040343" data-name="Path 1040343" d="M41.23,10H39.538v2.538H37V14.23h2.538v2.538H41.23V14.23h2.538V12.538H41.23Z" transform="translate(-23.463 -9.154)" fill="#848484"/>
          <path id="Path_1040344" data-name="Path 1040344" d="M41,32H54.537v1.692H41Z" transform="translate(-24.078 -12.54)" fill="#848484"/>
          <path id="Path_1040345" data-name="Path 1040345" d="M21,32h3.384v1.692H21Z" transform="translate(-21 -12.54)" fill="#848484"/>
          <path id="Path_1040346" data-name="Path 1040346" d="M21,42H34.537v1.692H21Z" transform="translate(-21 -14.079)" fill="#848484"/>
          <path id="Path_1040347" data-name="Path 1040347" d="M53,42h3.384v1.692H53Z" transform="translate(-25.925 -14.079)" fill="#848484"/>
          <path id="Path_1040348" data-name="Path 1040348" d="M41,52H54.537v1.692H41Z" transform="translate(-24.078 -15.618)" fill="#848484"/>
          <path id="Path_1040349" data-name="Path 1040349" d="M21,52h3.384v1.692H21Z" transform="translate(-21 -15.618)" fill="#848484"/>
        </g>
        <path id="Path_1040350" data-name="Path 1040350" d="M24,5H52.767V6.692H24Z" transform="translate(-3.694 -0.77)" fill="#d9d9d9"/>
        <path id="Path_1040351" data-name="Path 1040351" d="M53.3,49.073h-.846V22.844A.846.846,0,0,0,51.611,22H48.227a.846.846,0,0,0-.846.846v4.23H35.536a2.527,2.527,0,0,0-4.23-1.878,2.5,2.5,0,0,0-3.384,0,2.5,2.5,0,0,0-3.384,0,2.527,2.527,0,0,0-4.23,1.878H18.614v-4.23A.846.846,0,0,0,17.768,22H14.384a.846.846,0,0,0-.846.846V44H1.692V6.769h4.23a.846.846,0,0,0,.846-.846V1.692H33.844V3.384H20.306a.846.846,0,0,0-.846.846V19.46a.846.846,0,0,0,.846.846H33.844v3.384h1.692V20.306h1.692v3.384a.846.846,0,0,0,1.444.6l3.983-3.983h6.418a.846.846,0,0,0,.846-.846V4.23a.846.846,0,0,0-.846-.846H35.536V.846A.846.846,0,0,0,34.69,0H5.923a.846.846,0,0,0-.6.248L.248,5.324a.846.846,0,0,0-.248.6v38.92a.846.846,0,0,0,.846.846H13.537v3.384h-.846a.846.846,0,0,0-.846.846V53.3a.846.846,0,0,0,.846.846H19.46a.846.846,0,0,0,.846-.846V49.919a.846.846,0,0,0-.846-.846h-.846V45.689h1.692a2.527,2.527,0,0,0,4.23,1.878,2.5,2.5,0,0,0,3.384,0,2.5,2.5,0,0,0,3.384,0,2.527,2.527,0,0,0,4.23-1.878H47.381v3.384h-.846a.846.846,0,0,0-.846.846V53.3a.846.846,0,0,0,.846.846H53.3a.846.846,0,0,0,.846-.846V49.919A.846.846,0,0,0,53.3,49.073ZM48.227,18.614H42.3a.846.846,0,0,0-.6.248L38.92,21.648V19.46a.846.846,0,0,0-.846-.846H21.152V5.077H48.227ZM2.889,5.077,5.077,2.889V5.077ZM33,26.229a.846.846,0,0,1,.846.846v1.692a.846.846,0,1,1-1.692,0V27.075A.846.846,0,0,1,33,26.229Zm-3.384,0a.846.846,0,0,1,.846.846v1.692a.846.846,0,1,1-1.692,0V27.075A.846.846,0,0,1,29.613,26.229Zm-3.384,0a.846.846,0,0,1,.846.846v1.692a.846.846,0,1,1-1.692,0V27.075A.846.846,0,0,1,26.229,26.229ZM22,27.075a.846.846,0,0,1,1.692,0v1.692a.846.846,0,1,1-1.692,0Zm-1.692,1.692a2.527,2.527,0,0,0,4.23,1.878,2.5,2.5,0,0,0,3.384,0,2.5,2.5,0,0,0,3.384,0,2.527,2.527,0,0,0,4.23-1.878H47.381v6.769H45.689a2.527,2.527,0,0,0-4.23-1.878,2.5,2.5,0,0,0-3.384,0,2.5,2.5,0,0,0-3.384,0,2.527,2.527,0,0,0-4.23,1.878H18.614V28.767Zm22,6.769a.846.846,0,0,1,1.692,0v1.692a.846.846,0,0,1-1.692,0Zm-3.384,0a.846.846,0,0,1,1.692,0v1.692a.846.846,0,0,1-1.692,0Zm-3.384,0a.846.846,0,0,1,1.692,0v1.692a.846.846,0,0,1-1.692,0Zm-1.692,1.692a.846.846,0,0,1-1.692,0V35.536a.846.846,0,0,1,1.692,0Zm-15.23,15.23H13.537V50.765h5.077ZM15.23,49.073V23.691h1.692V49.073Zm7.615-2.538A.846.846,0,0,1,22,45.689V44a.846.846,0,0,1,1.692,0v1.692A.846.846,0,0,1,22.844,46.535Zm3.384,0a.846.846,0,0,1-.846-.846V44a.846.846,0,0,1,1.692,0v1.692A.846.846,0,0,1,26.229,46.535Zm3.384,0a.846.846,0,0,1-.846-.846V44a.846.846,0,0,1,1.692,0v1.692A.846.846,0,0,1,29.613,46.535Zm4.23-.846a.846.846,0,0,1-1.692,0V44a.846.846,0,0,1,1.692,0ZM35.536,44a2.527,2.527,0,0,0-4.23-1.878,2.5,2.5,0,0,0-3.384,0,2.5,2.5,0,0,0-3.384,0A2.527,2.527,0,0,0,20.306,44H18.614V37.228H30.459a2.527,2.527,0,0,0,4.23,1.878,2.5,2.5,0,0,0,3.384,0,2.5,2.5,0,0,0,3.384,0,2.527,2.527,0,0,0,4.23-1.878h1.692V44ZM49.073,23.691h1.692V49.073H49.073Zm3.384,28.767H47.381V50.765h5.077Z" transform="translate(0 0)"/>
        <path id="Path_1040352" data-name="Path 1040352" d="M10,6h1.692V7.692H10Z" transform="translate(-1.539 -0.923)"/>
        <path id="Path_1040353" data-name="Path 1040353" d="M14,6h5.923V7.692H14Z" transform="translate(-2.155 -0.923)"/>
        <path id="Path_1040354" data-name="Path 1040354" d="M4,10H18.384v1.692H4Z" transform="translate(-0.616 -1.539)"/>
        <path id="Path_1040355" data-name="Path 1040355" d="M9.077,17.846A.846.846,0,0,0,8.23,17H4.846A.846.846,0,0,0,4,17.846V21.23a.846.846,0,0,0,.846.846H8.23a.846.846,0,0,0,.846-.846ZM7.384,20.384H5.692V18.692H7.384Z" transform="translate(-0.616 -2.616)"/>
        <path id="Path_1040356" data-name="Path 1040356" d="M9.077,25.846A.846.846,0,0,0,8.23,25H4.846A.846.846,0,0,0,4,25.846V29.23a.846.846,0,0,0,.846.846H8.23a.846.846,0,0,0,.846-.846ZM7.384,28.384H5.692V26.692H7.384Z" transform="translate(-0.616 -3.848)"/>
        <path id="Path_1040357" data-name="Path 1040357" d="M9.077,33.846A.846.846,0,0,0,8.23,33H4.846A.846.846,0,0,0,4,33.846V37.23a.846.846,0,0,0,.846.846H8.23a.846.846,0,0,0,.846-.846ZM7.384,36.384H5.692V34.692H7.384Z" transform="translate(-0.616 -5.079)"/>
        <path id="Path_1040358" data-name="Path 1040358" d="M8.23,41H4.846A.846.846,0,0,0,4,41.846V45.23a.846.846,0,0,0,.846.846H8.23a.846.846,0,0,0,.846-.846V41.846A.846.846,0,0,0,8.23,41Zm-.846,3.384H5.692V42.692H7.384Z" transform="translate(-0.616 -6.31)"/>
        <path id="Path_1040359" data-name="Path 1040359" d="M12,17h1.692v1.692H12Z" transform="translate(-1.847 -2.616)"/>
        <path id="Path_1040360" data-name="Path 1040360" d="M16,17h4.23v1.692H16Z" transform="translate(-2.463 -2.616)"/>
        <path id="Path_1040361" data-name="Path 1040361" d="M12,21h7.615v1.692H12Z" transform="translate(-1.847 -3.232)"/>
        <path id="Path_1040362" data-name="Path 1040362" d="M27.846,17.461h5.923V15.769H28.692V14.077h4.23a.846.846,0,0,0,.846-.846V9.846A.846.846,0,0,0,32.923,9H27v1.692h5.077v1.692h-4.23A.846.846,0,0,0,27,13.23v3.384A.846.846,0,0,0,27.846,17.461Z" transform="translate(-4.156 -1.385)"/>
        <path id="Path_1040363" data-name="Path 1040363" d="M47.846,17.461h5.923V15.769H48.692V14.077h4.23a.846.846,0,0,0,.846-.846V9.846A.846.846,0,0,0,52.923,9H47v1.692h5.077v1.692h-4.23A.846.846,0,0,0,47,13.23v3.384A.846.846,0,0,0,47.846,17.461Z" transform="translate(-7.234 -1.385)"/>
        <path id="Path_1040364" data-name="Path 1040364" d="M39.538,16.769H41.23V14.23h2.538V12.538H41.23V10H39.538v2.538H37V14.23h2.538Z" transform="translate(-5.695 -1.539)"/>
      </g>
    </g>
  </g>
</svg>
