<svg xmlns="http://www.w3.org/2000/svg" xmlns:xlink="http://www.w3.org/1999/xlink" width="108" height="108" viewBox="0 0 108 108">
  <defs>
    <filter id="Path_904820" x="0" y="0" width="108" height="108" filterUnits="userSpaceOnUse">
      <feOffset dy="3" input="SourceAlpha"/>
      <feGaussianBlur stdDeviation="3" result="blur"/>
      <feFlood flood-opacity="0.161"/>
      <feComposite operator="in" in2="blur"/>
      <feComposite in="SourceGraphic"/>
    </filter>
  </defs>
  <g id="Group_1202436" data-name="Group 1202436" transform="translate(-623 -5680.764)">
    <g id="Group_1202286" data-name="Group 1202286">
      <g id="Group_1178316" data-name="Group 1178316" transform="translate(3 5154.764)">
        <g id="Group_1173585" data-name="Group 1173585" transform="translate(629 532)">
          <g id="Group_1173428" data-name="Group 1173428" transform="translate(0 0)">
            <g id="Group_1171958" data-name="Group 1171958">
              <g id="Group_1167341" data-name="Group 1167341">
                <g id="Group_1166792" data-name="Group 1166792">
                  <g transform="matrix(1, 0, 0, 1, -9, -6)" filter="url(#Path_904820)">
                    <g id="Path_904820-2" data-name="Path 904820" transform="translate(9 6)" fill="#edf3fc">
                      <path d="M 44.99999618530273 88.49999237060547 C 39.12687301635742 88.49999237060547 33.43022155761719 87.35006713867188 28.06829643249512 85.08216857910156 C 22.88852119445801 82.89130401611328 18.23629570007324 79.75457763671875 14.24084663391113 75.75914001464844 C 10.24540901184082 71.76369476318359 7.108683586120605 67.11146545410156 4.917821407318115 61.93169403076172 C 2.649921178817749 56.56976699829102 1.499996185302734 50.87311553955078 1.499996185302734 44.99999237060547 C 1.499996185302734 39.12686920166016 2.649921178817749 33.43021774291992 4.917821407318115 28.06829261779785 C 7.108683586120605 22.88851737976074 10.24540901184082 18.23630523681641 14.24084663391113 14.24085521697998 C 18.23629570007324 10.24540519714355 22.88852119445801 7.108692169189453 28.06829643249512 4.917829990386963 C 33.43022155761719 2.649929761886597 39.12687301635742 1.500004887580872 44.99999618530273 1.500004887580872 C 50.87311935424805 1.500004887580872 56.56977081298828 2.649929761886597 61.93169784545898 4.917829990386963 C 67.11147308349609 7.108692169189453 71.76369476318359 10.24540519714355 75.75914764404297 14.24085521697998 C 79.75458526611328 18.23630523681641 82.89131164550781 22.88851737976074 85.08216857910156 28.06829261779785 C 87.35007476806641 33.43021774291992 88.5 39.12686920166016 88.5 44.99999237060547 C 88.5 50.87311553955078 87.35007476806641 56.56976699829102 85.08216857910156 61.93169403076172 C 82.89131164550781 67.11146545410156 79.75458526611328 71.76369476318359 75.75914764404297 75.75914001464844 C 71.76369476318359 79.75457763671875 67.11147308349609 82.89130401611328 61.93169784545898 85.08216857910156 C 56.56977081298828 87.35006713867188 50.87311935424805 88.49999237060547 44.99999618530273 88.49999237060547 Z" stroke="none"/>
                      <path d="M 44.99999618530273 2.999992370605469 C 39.32870864868164 2.999992370605469 33.82865142822266 4.11004638671875 28.65262603759766 6.299331665039062 C 23.65165710449219 8.414566040039062 19.15968322753906 11.44333648681641 15.301513671875 15.30150604248047 C 11.44333648681641 19.15967559814453 8.414566040039062 23.65164947509766 6.299339294433594 28.65262222290039 C 4.110054016113281 33.82864761352539 2.999992370605469 39.32870483398438 2.999992370605469 44.99999237060547 C 2.999992370605469 50.67127990722656 4.110054016113281 56.17132186889648 6.299339294433594 61.34736633300781 C 8.414566040039062 66.34833526611328 11.44333648681641 70.84029388427734 15.301513671875 74.69846343994141 C 19.15968322753906 78.55663299560547 23.65165710449219 81.58540344238281 28.65262603759766 83.70063781738281 C 33.82865142822266 85.88992309570312 39.32870864868164 86.99997711181641 44.99999618530273 86.99997711181641 C 50.67128372192383 86.99997711181641 56.17134094238281 85.88992309570312 61.34736633300781 83.70063781738281 C 66.34834289550781 81.58540344238281 70.84030914306641 78.55663299560547 74.69847869873047 74.69846343994141 C 78.55665588378906 70.84029388427734 81.58542633056641 66.34833526611328 83.70065307617188 61.34736633300781 C 85.88993835449219 56.17132186889648 87 50.67127990722656 87 44.99999237060547 C 87 39.32870483398438 85.88993835449219 33.82864761352539 83.70065307617188 28.65262222290039 C 81.58542633056641 23.65164947509766 78.55665588378906 19.15967559814453 74.69847869873047 15.30150604248047 C 70.84030914306641 11.44333648681641 66.34834289550781 8.414566040039062 61.34736633300781 6.299331665039062 C 56.17134094238281 4.11004638671875 50.67128372192383 2.999992370605469 44.99999618530273 2.999992370605469 M 44.99999618530273 -7.62939453125e-06 C 69.85281372070312 -7.62939453125e-06 90 20.14717864990234 90 44.99999237060547 C 90 69.85279083251953 69.85281372070312 89.99997711181641 44.99999618530273 89.99997711181641 C 20.14717864990234 89.99997711181641 -7.62939453125e-06 69.85279083251953 -7.62939453125e-06 44.99999237060547 C -7.62939453125e-06 20.14717864990234 20.14717864990234 -7.62939453125e-06 44.99999618530273 -7.62939453125e-06 Z" stroke="none" fill="#5692e8"/>
                    </g>
                  </g>
                </g>
              </g>
            </g>
          </g>
        </g>
      </g>
      <g id="Page-1" transform="translate(647 5701)">
        <g id="_008---Mathematics-Book" data-name="008---Mathematics-Book">
          <path id="Shape" d="M46.42,23.54,39.34,31l-1.63,1.71L31.74,39H28.07l-7.6-8-7.01-7.38c1.16-.83,4.6-3.53,11.93-4.37a1.026,1.026,0,0,1,1.01.55L30,27l3.6-7.2a1.026,1.026,0,0,1,1.01-.55c7.1.83,10.56,3.42,11.81,4.29Z" fill="#ffeb3a"/>
          <path id="Shape-2" data-name="Shape" d="M34.61,19.25a1.025,1.025,0,0,0-.849.327A22.563,22.563,0,0,1,43.42,23.54L36.34,31l-1.63,1.71L28.74,39h3l5.97-6.29L39.34,31l7.08-7.46c-1.25-.87-4.71-3.46-11.81-4.29Z" fill="#fdd834"/>
          <path id="Shape-3" data-name="Shape" d="M37.423,23.094a1,1,0,0,0-1.329.483L30,36.635,23.906,23.577a1,1,0,0,0-1.812.846l7,15A1.046,1.046,0,0,0,30,40a1.033,1.033,0,0,0,.9-.576l7-15a1,1,0,0,0-.477-1.33Z" fill="#ffdc00"/>
          <path id="Shape-4" data-name="Shape" d="M24.96,56.89l-1.78,1.6a2,2,0,0,1-1.34.51H8.33a2,2,0,0,1-1.34-3.49l8.26-7.44a1.006,1.006,0,0,1,1.33,0l.72.63,6.93,6.07.72.63a.991.991,0,0,1,.01,1.49Z" fill="#9d27b0"/>
          <path id="Shape-5" data-name="Shape" d="M24.95,55.4l-.72-.63L17.3,48.7l-.72-.63a1.006,1.006,0,0,0-1.33,0l-.823.741,6.8,5.959.72.63a.991.991,0,0,1,.01,1.49l-1.78,1.6a2,2,0,0,1-1.34.51h3a2,2,0,0,0,1.34-.51l1.78-1.6a.991.991,0,0,0-.007-1.49Z" fill="#6a1b9a"/>
          <path id="Shape-6" data-name="Shape" d="M50.49,26.51,46.23,31l-.16.17L42,35.45V34.5a2.5,2.5,0,0,0-5,0v6.22c-1.73,1.82-2.52,2.99-4.54,3.23-.38.07-.02.05-4.6.05a4.727,4.727,0,0,1-3.24-1.38l-7.6-7.99L13.58,31,9.43,26.63a2.5,2.5,0,1,1,3.62-3.44l.41.43L20.47,31l7.6,8h3.67l5.97-6.29L39.34,31l7.08-7.46.45-.47a2.5,2.5,0,1,1,3.62,3.44Z" fill="sienna"/>
          <path id="Shape-7" data-name="Shape" d="M37.95,32.458l-.24.252L34,36.619v4.1c-1.73,1.82-2.52,2.99-4.54,3.23a2.527,2.527,0,0,1-.638.05,22.233,22.233,0,0,0,3.638-.05c2.02-.24,2.81-1.41,4.54-3.23V34.5a2.44,2.44,0,0,1,1.006-2A.681.681,0,0,1,37.95,32.458Z" fill="#783e22"/>
          <path id="Shape-8" data-name="Shape" d="M50.63,23.23a2.5,2.5,0,0,0-3.446-.425,2.517,2.517,0,0,1,.446.425,2.485,2.485,0,0,1-.14,3.28L43.23,31l-.16.17-1.653,1.738A2.493,2.493,0,0,1,42,34.5v.95l4.07-4.28.16-.17,4.26-4.49a2.485,2.485,0,0,0,.14-3.28Z" fill="#783e22"/>
          <path id="Shape-9" data-name="Shape" d="M42,34.5v6.89a2.449,2.449,0,0,1-.45,1.55c-.58.86-1.77,2-4.02,5.24A8.946,8.946,0,0,1,30.18,52H28.3a3.033,3.033,0,0,0-2.11.86l-1.96,1.91L17.3,48.7l1.53-1.53a1.986,1.986,0,0,0,0-2.83l-2.98-3.23a4.007,4.007,0,0,1,.29-5.7l.88-.78,7.6,7.99A4.727,4.727,0,0,0,27.86,44c4.58,0,4.22.02,4.6-.05,2.02-.24,2.81-1.41,4.54-3.23V34.5a2.5,2.5,0,1,1,5,0Z" fill="#ffe0b2"/>
          <path id="Shape-10" data-name="Shape" d="M41.27,32.73a2.486,2.486,0,0,0-3.264-.227,2.784,2.784,0,0,1,.264.227A2.5,2.5,0,0,1,39,34.5v6.89a2.449,2.449,0,0,1-.45,1.55c-.58.86-1.77,2-4.02,5.24A8.946,8.946,0,0,1,27.18,52H25.3a3.033,3.033,0,0,0-2.11.86l-.54.526,1.58,1.384,1.96-1.91A3.033,3.033,0,0,1,28.3,52h1.88a8.946,8.946,0,0,0,7.35-3.82c2.25-3.24,3.44-4.38,4.02-5.24A2.449,2.449,0,0,0,42,41.39V34.5a2.5,2.5,0,0,0-.73-1.77Z" fill="#dfc49c"/>
          <path id="Shape-11" data-name="Shape" d="M48.04,36l-6.49,6.94A2.449,2.449,0,0,0,42,41.39V35.45l4.07-4.28a2.794,2.794,0,0,1,1.89.81A2.871,2.871,0,0,1,48.04,36Z" fill="#ffe0b2"/>
          <path id="Shape-12" data-name="Shape" d="M47.96,31.98a2.794,2.794,0,0,0-1.89-.81l-.951,1A2.862,2.862,0,0,1,45.04,36L42,39.251V41.39a2.449,2.449,0,0,1-.45,1.55L48.04,36A2.871,2.871,0,0,0,47.96,31.98Z" fill="#dfc49c"/>
          <g id="Group_1202285" data-name="Group 1202285">
            <circle id="Oval" cx="1" cy="1" r="1" transform="translate(38)"/>
            <circle id="Oval-2" data-name="Oval" cx="1" cy="1" r="1" transform="translate(38 10)"/>
            <path id="Shape-13" data-name="Shape" d="M18.941,53.527a1,1,0,0,0-1.414,1.414l1.766,1.766a1,1,0,0,0,1.414-1.414Z"/>
            <path id="Shape-14" data-name="Shape" d="M25.276,18.259c-6.489.742-10.056,2.9-11.715,4.06a3.487,3.487,0,0,0-4.856,5l6.877,7.25-.1.094a5.007,5.007,0,0,0-.363,7.126l3.013,3.263a.98.98,0,0,1,.3.7,1,1,0,0,1-.3.715l-.868.868-.008-.006a2.012,2.012,0,0,0-2.666,0L6.319,54.768A3,3,0,0,0,8.33,60H21.84a3.019,3.019,0,0,0,2.009-.766l1.777-1.6a1.974,1.974,0,0,0,.068-2.9l1.2-1.164A2.018,2.018,0,0,1,28.305,53H30.18a9.941,9.941,0,0,0,8.168-4.25A57.715,57.715,0,0,1,42.017,44a4.087,4.087,0,0,0,.31-.431l6.443-6.888a3.821,3.821,0,0,0-.878-5.987L51.209,27.2a3.489,3.489,0,0,0-4.9-4.96A25.09,25.09,0,0,0,34.73,18.257a2,2,0,0,0-2.023,1.1L30,24.764l-2.7-5.407a2.012,2.012,0,0,0-2.024-1.1Zm-15.251,5.77a1.535,1.535,0,0,1,2.3-.149l15.02,15.809A1,1,0,0,0,28.07,40h3.67a1,1,0,0,0,.726-.312L36,35.967V40.32L34.493,41.9a3.641,3.641,0,0,1-2.206,1.063A1.917,1.917,0,0,1,31.95,43H27.86a2.371,2.371,0,0,1-.393-.043,3.543,3.543,0,0,1-2.122-1.026l-7.6-7.991-7.59-8a1.5,1.5,0,0,1-.13-1.911ZM24.3,56.143l-1.776,1.6A1,1,0,0,1,21.84,58H8.33a1,1,0,0,1-.671-1.747l8.262-7.431.719.63,6.93,6.069.722.618Zm12.409-8.534A7.941,7.941,0,0,1,30.18,51H28.305a4.008,4.008,0,0,0-2.813,1.144l-1.3,1.265-2.106-1.844-3.325-2.913.774-.775a2.992,2.992,0,0,0,.886-2.135,2.933,2.933,0,0,0-.858-2.08l-2.978-3.227a3.007,3.007,0,0,1,.216-4.277l.158-.139,6.942,7.3a5.508,5.508,0,0,0,3.274,1.618A3.948,3.948,0,0,0,27.86,45h4.09a3.57,3.57,0,0,0,.627-.057,5.616,5.616,0,0,0,3.358-1.653l1.79-1.881A1,1,0,0,0,38,40.72V34.5a1.51,1.51,0,0,1,.438-1.063,1.563,1.563,0,0,1,2.125,0A1.513,1.513,0,0,1,41,34.5v6.891a2.01,2.01,0,0,1-.5,1.307,59.74,59.74,0,0,0-3.8,4.911ZM47.263,32.7a1.879,1.879,0,0,1,.047,2.62L43,39.925V35.849l3.437-3.619A1.81,1.81,0,0,1,47.263,32.7Zm1.48-9.4a1.492,1.492,0,0,1,1.022,2.523l-7.014,7.386a3.481,3.481,0,0,0-.773-1.184,3.309,3.309,0,0,0-1.454-.819l7.07-7.444a1.469,1.469,0,0,1,1.149-.462ZM30,28a1,1,0,0,0,.9-.553l3.6-7.2A23.51,23.51,0,0,1,44.887,23.7L31.311,38H28.5L14.982,23.772A22.954,22.954,0,0,1,25.507,20.25l3.6,7.2A1,1,0,0,0,30,28Z"/>
            <path id="Shape-15" data-name="Shape" d="M18,7h4v4a1,1,0,0,0,2,0V7h4a1,1,0,0,0,0-2H24V1a1,1,0,0,0-2,0V5H18a1,1,0,0,0,0,2Z"/>
            <path id="Shape-16" data-name="Shape" d="M34,7H44a1,1,0,0,0,0-2H34a1,1,0,0,0,0,2Z"/>
            <path id="Shape-17" data-name="Shape" d="M59.705,6.219a1,1,0,0,0-1.415,0L54,10.545,49.71,6.224a1,1,0,0,0-1.42,1.409l4.3,4.331L48.29,16.3a1,1,0,0,0,1.42,1.41L54,13.384,58.29,17.7a1,1,0,0,0,1.42-1.41l-4.3-4.331,4.3-4.331a1,1,0,0,0-.005-1.409Z"/>
            <path id="Shape-18" data-name="Shape" d="M.076,17.383A1,1,0,0,0,1,18H11a1,1,0,0,0,0-2H3.414l3.293-3.293a1,1,0,0,0,0-1.414L3.414,8H11a1,1,0,0,0,0-2H1A1,1,0,0,0,.293,7.707L4.586,12,.293,16.293a1,1,0,0,0-.217,1.09Z"/>
          </g>
        </g>
      </g>
    </g>
  </g>
</svg>
