<svg xmlns="http://www.w3.org/2000/svg" xmlns:xlink="http://www.w3.org/1999/xlink" width="113" height="113" viewBox="0 0 113 113">
  <defs>
    <filter id="Trazado_982547" x="0" y="0" width="113" height="113" filterUnits="userSpaceOnUse">
      <feOffset dy="3" input="SourceAlpha"/>
      <feGaussianBlur stdDeviation="3" result="blur"/>
      <feFlood flood-opacity="0.161"/>
      <feComposite operator="in" in2="blur"/>
      <feComposite in="SourceGraphic"/>
    </filter>
  </defs>
  <g id="Grupo_1210852" data-name="Grupo 1210852" transform="translate(-4825.005 -4698.873)">
    <g id="Grupo_1210838" data-name="Grupo 1210838" transform="translate(4553.005 53.358)">
      <g id="Grupo_1202055" data-name="Grupo 1202055" transform="translate(0 3240.511)">
        <g id="Grupo_1177900" data-name="Grupo 1177900" transform="translate(281 1411.003)">
          <g id="Grupo_1172010" data-name="Grupo 1172010" transform="translate(0)">
            <g id="Grupo_1171046" data-name="Grupo 1171046">
              <g id="Grupo_1148525" data-name="Grupo 1148525">
                <g transform="matrix(1, 0, 0, 1, -9, -6)" filter="url(#Trazado_982547)">
                  <g id="Trazado_982547-2" data-name="Trazado 982547" transform="translate(9 6)" fill="#edf3fc">
                    <path d="M 47.5 93.5 C 41.28937149047852 93.5 35.26533508300781 92.28397369384766 29.59518623352051 89.88570404052734 C 24.11771965026855 87.56893157958984 19.19813346862793 84.25196075439453 14.97309303283691 80.02691650390625 C 10.74804019927979 75.80186462402344 7.431066513061523 70.88229370117188 5.114293098449707 65.40481567382812 C 2.716026782989502 59.73468017578125 1.5 53.71062850952148 1.5 47.5 C 1.5 41.28937149047852 2.716026782989502 35.26533508300781 5.114293098449707 29.59518623352051 C 7.431066513061523 24.11771965026855 10.74804019927979 19.19813346862793 14.97309303283691 14.97309303283691 C 19.19813346862793 10.74804019927979 24.11771965026855 7.431066513061523 29.59518623352051 5.114293098449707 C 35.26533508300781 2.716026782989502 41.28937149047852 1.5 47.5 1.5 C 53.71062850952148 1.5 59.73468017578125 2.716026782989502 65.40481567382812 5.114293098449707 C 70.88229370117188 7.431066513061523 75.80186462402344 10.74804019927979 80.02691650390625 14.97309303283691 C 84.25196075439453 19.19813346862793 87.56893157958984 24.11771965026855 89.88570404052734 29.59518623352051 C 92.28397369384766 35.26533508300781 93.5 41.28937149047852 93.5 47.5 C 93.5 53.71062850952148 92.28397369384766 59.73468017578125 89.88570404052734 65.40481567382812 C 87.56893157958984 70.88229370117188 84.25196075439453 75.80186462402344 80.02691650390625 80.02691650390625 C 75.80186462402344 84.25196075439453 70.88229370117188 87.56893157958984 65.40481567382812 89.88570404052734 C 59.73468017578125 92.28397369384766 53.71062850952148 93.5 47.5 93.5 Z" stroke="none"/>
                    <path d="M 47.5 3 C 41.49121475219727 3 35.66376876831055 4.176155090332031 30.17950439453125 6.495796203613281 C 24.88084411621094 8.736953735351562 20.12152099609375 11.94598388671875 16.03375244140625 16.03375244140625 C 11.94598388671875 20.12152099609375 8.736953735351562 24.88084411621094 6.495796203613281 30.17950439453125 C 4.176155090332031 35.66376876831055 3 41.49121475219727 3 47.5 C 3 53.50878524780273 4.176155090332031 59.33623123168945 6.495796203613281 64.82049560546875 C 8.736953735351562 70.11915588378906 11.94598388671875 74.87847900390625 16.03375244140625 78.96624755859375 C 20.12152099609375 83.05401611328125 24.88084411621094 86.26304626464844 30.17950439453125 88.50419616699219 C 35.66376876831055 90.82384490966797 41.49121475219727 92 47.5 92 C 53.50878524780273 92 59.33623123168945 90.82384490966797 64.82049560546875 88.50419616699219 C 70.11915588378906 86.26304626464844 74.87847900390625 83.05401611328125 78.96624755859375 78.96624755859375 C 83.05401611328125 74.87847900390625 86.26304626464844 70.11915588378906 88.50419616699219 64.82049560546875 C 90.82384490966797 59.33623123168945 92 53.50878524780273 92 47.5 C 92 41.49121475219727 90.82384490966797 35.66376876831055 88.50419616699219 30.17950439453125 C 86.26304626464844 24.88084411621094 83.05401611328125 20.12152099609375 78.96624755859375 16.03375244140625 C 74.87847900390625 11.94598388671875 70.11915588378906 8.736953735351562 64.82049560546875 6.495796203613281 C 59.33623123168945 4.176155090332031 53.50878524780273 3 47.5 3 M 47.5 0 C 73.7335205078125 0 95 21.2664794921875 95 47.5 C 95 73.7335205078125 73.7335205078125 95 47.5 95 C 21.2664794921875 95 0 73.7335205078125 0 47.5 C 0 21.2664794921875 21.2664794921875 0 47.5 0 Z" stroke="none" fill="#5692e8"/>
                  </g>
                </g>
              </g>
            </g>
          </g>
        </g>
      </g>
    </g>
    <g id="Innovation-thingking-brain-network-idea" transform="translate(4844.709 4720.709)">
      <path id="Trazado_1041012" data-name="Trazado 1041012" d="M58.291,3H31.172A4.172,4.172,0,0,0,27,7.172V59.323A4.172,4.172,0,0,0,31.172,63.5H58.291a4.172,4.172,0,0,0,4.172-4.172V7.172A4.172,4.172,0,0,0,58.291,3Z" transform="translate(1.075 0.043)" fill="#46f8ff"/>
      <path id="Trazado_1041013" data-name="Trazado 1041013" d="M61.387,7.172V59.323A4.172,4.172,0,0,1,57.215,63.5H52a4.172,4.172,0,0,0,4.172-4.172V7.172A4.172,4.172,0,0,0,52,3h5.215A4.172,4.172,0,0,1,61.387,7.172Z" transform="translate(2.151 0.043)" fill="#00d7df"/>
      <path id="Trazado_1041014" data-name="Trazado 1041014" d="M56.018,46.585l-4.433,4.433L44.952,42.9,42,45.855V37h8.855L47.9,39.952Z" transform="translate(1.721 1.506)" fill="#ff3051"/>
      <path id="Trazado_1041015" data-name="Trazado 1041015" d="M48.769,39.086H42V37h8.855Z" transform="translate(1.721 1.506)" fill="#cd2a00"/>
      <path id="Trazado_1041016" data-name="Trazado 1041016" d="M55.861,46.464,53.775,48.55,45.66,41.916l2.086-2.086Z" transform="translate(1.878 1.627)" fill="#cd2a00"/>
      <circle id="Elipse_12575" data-name="Elipse 12575" cx="3" cy="3" r="3" transform="translate(51.291 9.291)" fill="#2488ff"/>
      <circle id="Elipse_12576" data-name="Elipse 12576" cx="3" cy="3" r="3" transform="translate(51.291 22.291)" fill="#9cdd05"/>
      <path id="Trazado_1041017" data-name="Trazado 1041017" d="M33.172,11.214a6.258,6.258,0,0,1,5.559,6.216,6.163,6.163,0,0,1-.417,2.242,6.179,6.179,0,0,1,1.46,4.016A6.258,6.258,0,0,1,34.2,29.9a4.981,4.981,0,0,1-.688.042,6.258,6.258,0,0,1-12.516,0V13.258a6.258,6.258,0,0,1,12.172-2.044Z" transform="translate(0.817 0.215)" fill="#fee9ab"/>
      <path id="Trazado_1041018" data-name="Trazado 1041018" d="M39.6,23.688a6.258,6.258,0,0,1-5.57,6.216,4.981,4.981,0,0,1-.688.042A6.258,6.258,0,0,1,27.086,36.2,6.05,6.05,0,0,1,25,35.839a6.238,6.238,0,0,0,4.172-5.893,4.982,4.982,0,0,0,.688-.042,6.258,6.258,0,0,0,5.57-6.216,6.179,6.179,0,0,0-1.46-4.016,6.163,6.163,0,0,0,.417-2.242,6.258,6.258,0,0,0-5.559-6.216A6.23,6.23,0,0,0,25,7.365,6.049,6.049,0,0,1,27.086,7,6.258,6.258,0,0,1,33,11.213a6.258,6.258,0,0,1,5.56,6.217,6.163,6.163,0,0,1-.417,2.242A6.179,6.179,0,0,1,39.6,23.688Z" transform="translate(0.989 0.215)" fill="#ffd422"/>
      <path id="Trazado_1041019" data-name="Trazado 1041019" d="M34.806,28.96a14.444,14.444,0,0,1,1.4,6.216A15.251,15.251,0,0,1,30.2,47.255a5.743,5.743,0,0,0-2.336,4.694v2.086H15.343V51.948a5.808,5.808,0,0,0-2.4-4.735A15.115,15.115,0,0,1,8.115,29.555c.083-.2.167-.4.271-.595a5.133,5.133,0,0,0,.7.042A6.258,6.258,0,0,0,21.6,29a6.258,6.258,0,0,0,12.516,0A4.981,4.981,0,0,0,34.806,28.96Z" transform="translate(0.216 1.16)" fill="#ffcd00"/>
      <path id="Trazado_1041020" data-name="Trazado 1041020" d="M27.6,53a2.086,2.086,0,1,1,0,4.172H15.086a2.086,2.086,0,1,1,0-4.172Z" transform="translate(0.473 2.194)" fill="#b39a7c"/>
      <path id="Trazado_1041021" data-name="Trazado 1041021" d="M35.516,35.176a15.251,15.251,0,0,1-6.008,12.078,5.743,5.743,0,0,0-2.336,4.694v2.086H23V51.948a5.743,5.743,0,0,1,2.336-4.694,15.251,15.251,0,0,0,6.008-12.078,13.361,13.361,0,0,0-.073-1.45A6.229,6.229,0,0,0,33.43,29a4.981,4.981,0,0,0,.688-.042,14.444,14.444,0,0,1,1.4,6.216Z" transform="translate(0.903 1.16)" fill="#ddb200"/>
      <path id="Trazado_1041022" data-name="Trazado 1041022" d="M29.258,55.086a2.1,2.1,0,0,1-2.086,2.086H23A2.086,2.086,0,1,0,23,53h4.172A2.092,2.092,0,0,1,29.258,55.086Z" transform="translate(0.903 2.194)" fill="#957856"/>
      <path id="Trazado_1041023" data-name="Trazado 1041023" d="M9.6,11.214a6.258,6.258,0,0,1,12.172,2.044V29.946a6.258,6.258,0,0,1-12.516,0,5.133,5.133,0,0,1-.7-.042A6.258,6.258,0,0,1,3,23.688a6.179,6.179,0,0,1,1.46-4.016,6.163,6.163,0,0,1-.417-2.242A6.258,6.258,0,0,1,9.6,11.214Z" transform="translate(0.043 0.215)" fill="#fee9ab"/>
      <path id="Trazado_1041024" data-name="Trazado 1041024" d="M59.366,2H32.248a5.215,5.215,0,0,0-5.121,4.245,7.309,7.309,0,0,0-5.309,3.484A7.285,7.285,0,0,0,8.9,10.49a7.306,7.306,0,0,0-5.862,7.155,7.186,7.186,0,0,0,.3,2.076,7.259,7.259,0,0,0,3.817,11.16,16.034,16.034,0,0,0,5.372,18.326,4.781,4.781,0,0,1,1.982,3.9v1.231a3.129,3.129,0,0,0,1.043,6.07H27.137a5.233,5.233,0,0,0,5.111,4.172H59.366a5.215,5.215,0,0,0,5.215-5.215V7.215A5.215,5.215,0,0,0,59.366,2ZM22.86,13.473a5.207,5.207,0,0,1,9.429-3.056,7.317,7.317,0,0,0-6.3,7.228h2.086a5.215,5.215,0,0,1,5.111-5.2,5.589,5.589,0,0,1,.1,1.033,5.215,5.215,0,0,1-5.215,5.215v2.086a7.309,7.309,0,0,0,7.3-7.3,5.928,5.928,0,0,0-.031-.615,5.215,5.215,0,0,1-2.055,10v2.086a7.278,7.278,0,0,0,5.872-2.983,5.03,5.03,0,0,1,.386,1.94,5.215,5.215,0,1,1-10.43,0H27.032A7.315,7.315,0,0,0,33.2,31.111a5.215,5.215,0,0,1-10.336-.949ZM4.086,23.9a5.03,5.03,0,0,1,.386-1.94,7.278,7.278,0,0,0,5.872,2.983V22.86a5.215,5.215,0,0,1-2.055-10,5.927,5.927,0,0,0-.031.615,7.309,7.309,0,0,0,7.3,7.3V18.688a5.215,5.215,0,0,1-5.215-5.215,5.59,5.59,0,0,1,.1-1.033,5.215,5.215,0,0,1,5.111,5.2h2.086a7.317,7.317,0,0,0-6.3-7.228,5.207,5.207,0,0,1,9.429,3.056V30.161a5.215,5.215,0,0,1-10.336.949A7.315,7.315,0,0,0,16.6,23.9H14.516a5.215,5.215,0,1,1-10.43,0Zm9.7,23.635a14.251,14.251,0,0,1-5.038-14.78,7.283,7.283,0,0,0,13.069,1.147,7.29,7.29,0,0,0,13.069-1.126,13.55,13.55,0,0,1,.49,3.557,14.1,14.1,0,0,1-5.59,11.243,6.813,6.813,0,0,0-2.754,5.529v1.043H16.6V53.108a6.821,6.821,0,0,0-2.816-5.57ZM28.075,58.323H15.559a1.043,1.043,0,0,1,0-2.086H28.075a1.043,1.043,0,1,1,0,2.086ZM62.5,59.366A3.138,3.138,0,0,1,59.366,62.5H32.248a3.123,3.123,0,0,1-3-2.315,3.146,3.146,0,0,0,1.773-1.857h25.22V56.237H31.017a3.166,3.166,0,0,0-1.9-1.9V53.108a4.687,4.687,0,0,1,1.919-3.859,16.2,16.2,0,0,0,6.425-12.913,15.877,15.877,0,0,0-.136-2h7.437a1.043,1.043,0,0,0,1.043-1.043v-7.3h4.318a4.172,4.172,0,1,0,0-2.086H45.807V13.473h4.318a4.172,4.172,0,1,0,0-2.086H44.764a1.043,1.043,0,0,0-1.043,1.043V32.248H36.9c-.125-.459-.271-.918-.438-1.366a7.256,7.256,0,0,0,3.828-11.16,7.186,7.186,0,0,0,.3-2.076A7.306,7.306,0,0,0,34.73,10.49a7.3,7.3,0,0,0-5.455-4.214,3.129,3.129,0,0,1,2.973-2.19H59.366A3.138,3.138,0,0,1,62.5,7.215Zm-10.43-34.42a2.086,2.086,0,1,1,2.086,2.086A2.086,2.086,0,0,1,52.065,24.946Zm0-12.516a2.086,2.086,0,1,1,2.086,2.086A2.086,2.086,0,0,1,52.065,12.43Z" transform="translate(0)"/>
      <path id="Trazado_1041025" data-name="Trazado 1041025" d="M56.718,45.825,49.5,39.911l2.128-2.128A1.043,1.043,0,0,0,50.9,36H42.043A1.043,1.043,0,0,0,41,37.043V45.9a1.043,1.043,0,0,0,1.784.73L44.911,44.5l5.914,7.218a1.014,1.014,0,0,0,.751.375.453.453,0,0,1,.052.01,1.043,1.043,0,0,0,.741-.313l4.422-4.422a1.028,1.028,0,0,0,.3-.793,1.014,1.014,0,0,0-.375-.751Zm-5.006,3.682L45.8,42.279a1.014,1.014,0,0,0-.751-.375h-.052a1.033,1.033,0,0,0-.741.3l-1.168,1.168V38.086h5.288l-1.168,1.168a1.028,1.028,0,0,0-.3.793,1.014,1.014,0,0,0,.375.751l7.228,5.914Z" transform="translate(1.678 1.463)"/>
    </g>
  </g>
</svg>
