<svg xmlns="http://www.w3.org/2000/svg" xmlns:xlink="http://www.w3.org/1999/xlink" width="113" height="113" viewBox="0 0 113 113">
  <defs>
    <filter id="Path_982547" x="0" y="0" width="113" height="113" filterUnits="userSpaceOnUse">
      <feOffset dy="3" input="SourceAlpha"/>
      <feGaussianBlur stdDeviation="3" result="blur"/>
      <feFlood flood-opacity="0.161"/>
      <feComposite operator="in" in2="blur"/>
      <feComposite in="SourceGraphic"/>
    </filter>
  </defs>
  <g id="Group_1202427" data-name="Group 1202427" transform="translate(-1216.56 -1301.402)">
    <g id="Group_1202280" data-name="Group 1202280">
      <g id="Group_1178311" data-name="Group 1178311" transform="translate(1225.561 1307.402)">
        <g id="Group_1172010" data-name="Group 1172010" transform="translate(0)">
          <g id="Group_1171046" data-name="Group 1171046">
            <g id="Group_1148525" data-name="Group 1148525">
              <g transform="matrix(1, 0, 0, 1, -9, -6)" filter="url(#Path_982547)">
                <g id="Path_982547-2" data-name="Path 982547" transform="translate(9 6)" fill="#edf3fc">
                  <path d="M 47.5 93.5 C 41.28937149047852 93.5 35.26533508300781 92.28397369384766 29.59518623352051 89.88570404052734 C 24.11771965026855 87.56893157958984 19.19813346862793 84.25196075439453 14.97309303283691 80.02691650390625 C 10.74804019927979 75.80186462402344 7.431066513061523 70.88229370117188 5.114293098449707 65.40481567382812 C 2.716026782989502 59.73468017578125 1.5 53.71062850952148 1.5 47.5 C 1.5 41.28937149047852 2.716026782989502 35.26533508300781 5.114293098449707 29.59518623352051 C 7.431066513061523 24.11771965026855 10.74804019927979 19.19813346862793 14.97309303283691 14.97309303283691 C 19.19813346862793 10.74804019927979 24.11771965026855 7.431066513061523 29.59518623352051 5.114293098449707 C 35.26533508300781 2.716026782989502 41.28937149047852 1.5 47.5 1.5 C 53.71062850952148 1.5 59.73468017578125 2.716026782989502 65.40481567382812 5.114293098449707 C 70.88229370117188 7.431066513061523 75.80186462402344 10.74804019927979 80.02691650390625 14.97309303283691 C 84.25196075439453 19.19813346862793 87.56893157958984 24.11771965026855 89.88570404052734 29.59518623352051 C 92.28397369384766 35.26533508300781 93.5 41.28937149047852 93.5 47.5 C 93.5 53.71062850952148 92.28397369384766 59.73468017578125 89.88570404052734 65.40481567382812 C 87.56893157958984 70.88229370117188 84.25196075439453 75.80186462402344 80.02691650390625 80.02691650390625 C 75.80186462402344 84.25196075439453 70.88229370117188 87.56893157958984 65.40481567382812 89.88570404052734 C 59.73468017578125 92.28397369384766 53.71062850952148 93.5 47.5 93.5 Z" stroke="none"/>
                  <path d="M 47.5 3 C 41.49121475219727 3 35.66376876831055 4.176155090332031 30.17950439453125 6.495796203613281 C 24.88084411621094 8.736953735351562 20.12152099609375 11.94598388671875 16.03375244140625 16.03375244140625 C 11.94598388671875 20.12152099609375 8.736953735351562 24.88084411621094 6.495796203613281 30.17950439453125 C 4.176155090332031 35.66376876831055 3 41.49121475219727 3 47.5 C 3 53.50878524780273 4.176155090332031 59.33623123168945 6.495796203613281 64.82049560546875 C 8.736953735351562 70.11915588378906 11.94598388671875 74.87847900390625 16.03375244140625 78.96624755859375 C 20.12152099609375 83.05401611328125 24.88084411621094 86.26304626464844 30.17950439453125 88.50419616699219 C 35.66376876831055 90.82384490966797 41.49121475219727 92 47.5 92 C 53.50878524780273 92 59.33623123168945 90.82384490966797 64.82049560546875 88.50419616699219 C 70.11915588378906 86.26304626464844 74.87847900390625 83.05401611328125 78.96624755859375 78.96624755859375 C 83.05401611328125 74.87847900390625 86.26304626464844 70.11915588378906 88.50419616699219 64.82049560546875 C 90.82384490966797 59.33623123168945 92 53.50878524780273 92 47.5 C 92 41.49121475219727 90.82384490966797 35.66376876831055 88.50419616699219 30.17950439453125 C 86.26304626464844 24.88084411621094 83.05401611328125 20.12152099609375 78.96624755859375 16.03375244140625 C 74.87847900390625 11.94598388671875 70.11915588378906 8.736953735351562 64.82049560546875 6.495796203613281 C 59.33623123168945 4.176155090332031 53.50878524780273 3 47.5 3 M 47.5 0 C 73.7335205078125 0 95 21.2664794921875 95 47.5 C 95 73.7335205078125 73.7335205078125 95 47.5 95 C 21.2664794921875 95 0 73.7335205078125 0 47.5 C 0 21.2664794921875 21.2664794921875 0 47.5 0 Z" stroke="none" fill="#5692e8"/>
                </g>
              </g>
            </g>
          </g>
        </g>
      </g>
      <g id="distribution_7179214" transform="translate(1233.621 1315.42)">
        <g id="Group_1202270" data-name="Group 1202270" transform="translate(30.036 7.549)">
          <circle id="Ellipse_12532" data-name="Ellipse 12532" cx="9.403" cy="9.403" r="9.403" transform="translate(0 0)" fill="#9be69d"/>
          <path id="Path_1040414" data-name="Path 1040414" d="M194.719,26.025a9.4,9.4,0,1,1,0-18.145,9.4,9.4,0,0,0,0,18.145Z" transform="translate(-182.841 -7.549)" fill="#6fd7a3"/>
          <circle id="Ellipse_12533" data-name="Ellipse 12533" cx="9.403" cy="9.403" r="9.403" transform="translate(0 0)" fill="none" stroke="#000" stroke-linecap="round" stroke-linejoin="round" stroke-miterlimit="10" stroke-width="2"/>
          <g id="Group_1202269" data-name="Group 1202269" transform="translate(7.377 5.007)">
            <path id="Path_1040415" data-name="Path 1040415" d="M244.292,54.008s-3.588.045-3.758-.012.272-.356,2.625-3.717a4.75,4.75,0,0,0,.784-1.6l.036-.285a1.887,1.887,0,0,0-3.738-.366" transform="translate(-240.241 -46.507)" fill="none" stroke="#000" stroke-linecap="round" stroke-linejoin="round" stroke-miterlimit="10" stroke-width="2"/>
          </g>
        </g>
        <g id="Group_1202272" data-name="Group 1202272" transform="translate(52.572 30.085)">
          <circle id="Ellipse_12534" data-name="Ellipse 12534" cx="9.403" cy="9.403" r="9.403" transform="translate(0 0)" fill="#8ac9fe"/>
          <path id="Path_1040416" data-name="Path 1040416" d="M370.06,201.366a9.4,9.4,0,1,1,0-18.145,9.4,9.4,0,0,0,0,18.145Z" transform="translate(-358.182 -182.89)" fill="#60b7ff"/>
          <path id="Path_1040417" data-name="Path 1040417" d="M372.142,184.067a9.406,9.406,0,1,1-4.559-1.177l.251,0" transform="translate(-358.18 -182.89)" fill="none" stroke="#000" stroke-linecap="round" stroke-linejoin="round" stroke-miterlimit="10" stroke-width="2"/>
          <g id="Group_1202271" data-name="Group 1202271" transform="translate(7.516 5.711)">
            <path id="Path_1040418" data-name="Path 1040418" d="M416.7,228.842a1.887,1.887,0,1,1,1.851,2.253,1.887,1.887,0,1,1-1.869,2.15,1.914,1.914,0,0,1-.018-.263" transform="translate(-416.66 -227.321)" fill="none" stroke="#000" stroke-linecap="round" stroke-linejoin="round" stroke-miterlimit="10" stroke-width="2"/>
          </g>
        </g>
        <g id="Group_1202273" data-name="Group 1202273" transform="translate(13.346 12.609)">
          <path id="Path_1040419" data-name="Path 1040419" d="M64.623,368.6a10.173,10.173,0,0,1-4.26-2.132l1.527-.533a1.026,1.026,0,0,0,.331-1.746l-6.047-5.209a1.026,1.026,0,0,0-1.677.586l-1.489,7.841a1.025,1.025,0,0,0,1.345,1.16l1.967-.687a14.021,14.021,0,0,0,7.464,4.483,1.9,1.9,0,0,0,2.323-1.716l0-.065A1.907,1.907,0,0,0,64.623,368.6Z" transform="translate(-52.988 -318.658)" fill="#685e68"/>
          <path id="Path_1040420" data-name="Path 1040420" d="M358.37,50.729a10.174,10.174,0,0,1,4.26,2.132l-1.527.533a1.026,1.026,0,0,0-.331,1.746l6.047,5.209a1.026,1.026,0,0,0,1.677-.586l1.489-7.841a1.025,1.025,0,0,0-1.345-1.16l-1.967.687a14.021,14.021,0,0,0-7.464-4.483,1.9,1.9,0,0,0-2.323,1.716l0,.065A1.906,1.906,0,0,0,358.37,50.729Z" transform="translate(-317.821 -46.916)" fill="#685e68"/>
        </g>
        <g id="Group_1202274" data-name="Group 1202274" transform="translate(13.346 12.609)">
          <path id="Path_1040421" data-name="Path 1040421" d="M64.623,368.6a10.173,10.173,0,0,1-4.26-2.132l1.527-.533a1.026,1.026,0,0,0,.331-1.746l-6.047-5.209a1.026,1.026,0,0,0-1.677.586l-1.489,7.841a1.025,1.025,0,0,0,1.345,1.16l1.967-.687a14.021,14.021,0,0,0,7.464,4.483,1.9,1.9,0,0,0,2.323-1.716l0-.065A1.907,1.907,0,0,0,64.623,368.6Z" transform="translate(-52.988 -318.658)" fill="none" stroke="#000" stroke-linecap="round" stroke-linejoin="round" stroke-miterlimit="10" stroke-width="2"/>
          <path id="Path_1040422" data-name="Path 1040422" d="M358.37,50.729a10.174,10.174,0,0,1,4.26,2.132l-1.527.533a1.026,1.026,0,0,0-.331,1.746l6.047,5.209a1.026,1.026,0,0,0,1.677-.586l1.489-7.841a1.025,1.025,0,0,0-1.345-1.16l-1.967.687a14.021,14.021,0,0,0-7.464-4.483,1.9,1.9,0,0,0-2.323,1.716l0,.065A1.906,1.906,0,0,0,358.37,50.729Z" transform="translate(-317.821 -46.916)" fill="none" stroke="#000" stroke-linecap="round" stroke-linejoin="round" stroke-miterlimit="10" stroke-width="2"/>
        </g>
        <g id="Group_1202275" data-name="Group 1202275" transform="translate(12.56 13.396)">
          <path id="Path_1040423" data-name="Path 1040423" d="M50.679,64.673a10.174,10.174,0,0,1,2.132-4.26l.533,1.527a1.026,1.026,0,0,0,1.746.331L60.3,56.223a1.026,1.026,0,0,0-.586-1.677l-7.841-1.489a1.025,1.025,0,0,0-1.16,1.345l.687,1.967a14.022,14.022,0,0,0-4.483,7.465,1.9,1.9,0,0,0,1.716,2.323l.065,0A1.906,1.906,0,0,0,50.679,64.673Z" transform="translate(-46.866 -53.038)" fill="#685e68"/>
          <path id="Path_1040424" data-name="Path 1040424" d="M368.554,358.421a10.174,10.174,0,0,1-2.132,4.26l-.533-1.526a1.026,1.026,0,0,0-1.746-.331l-5.209,6.047a1.026,1.026,0,0,0,.586,1.677l7.841,1.489a1.025,1.025,0,0,0,1.16-1.345l-.687-1.967a14.021,14.021,0,0,0,4.483-7.464,1.9,1.9,0,0,0-1.716-2.323l-.065,0A1.906,1.906,0,0,0,368.554,358.421Z" transform="translate(-318.608 -317.871)" fill="#685e68"/>
        </g>
        <g id="Group_1202276" data-name="Group 1202276" transform="translate(12.56 13.395)">
          <path id="Path_1040425" data-name="Path 1040425" d="M49.094,58.929A14,14,0,0,1,51.4,56.366L50.713,54.4a1.026,1.026,0,0,1,1.161-1.346l7.841,1.49a1.027,1.027,0,0,1,.586,1.677l-5.209,6.047a1.027,1.027,0,0,1-1.747-.332l-.532-1.526a10.17,10.17,0,0,0-2.132,4.259A1.907,1.907,0,0,1,48.7,66.159l-.064-.005a1.9,1.9,0,0,1-1.716-2.322c.072-.312.153-.622.245-.927" transform="translate(-46.869 -53.036)" fill="none" stroke="#000" stroke-linecap="round" stroke-linejoin="round" stroke-miterlimit="10" stroke-width="2"/>
          <path id="Path_1040426" data-name="Path 1040426" d="M368.554,358.421a10.174,10.174,0,0,1-2.132,4.26l-.533-1.526a1.026,1.026,0,0,0-1.746-.331l-5.209,6.047a1.026,1.026,0,0,0,.586,1.677l7.841,1.489a1.025,1.025,0,0,0,1.16-1.345l-.687-1.967a14.021,14.021,0,0,0,4.483-7.464,1.9,1.9,0,0,0-1.716-2.323l-.065,0A1.906,1.906,0,0,0,368.554,358.421Z" transform="translate(-318.608 -317.871)" fill="none" stroke="#000" stroke-linecap="round" stroke-linejoin="round" stroke-miterlimit="10" stroke-width="2"/>
        </g>
        <g id="Group_1202278" data-name="Group 1202278" transform="translate(7.5 30.085)">
          <circle id="Ellipse_12535" data-name="Ellipse 12535" cx="9.403" cy="9.403" r="9.403" transform="translate(0 0)" fill="#fef056"/>
          <path id="Path_1040427" data-name="Path 1040427" d="M19.378,201.366a9.4,9.4,0,1,1,0-18.145,9.4,9.4,0,0,0,0,18.145Z" transform="translate(-7.5 -182.89)" fill="#ffe177"/>
          <circle id="Ellipse_12536" data-name="Ellipse 12536" cx="9.403" cy="9.403" r="9.403" transform="translate(0 0)" fill="none" stroke="#000" stroke-linecap="round" stroke-linejoin="round" stroke-miterlimit="10" stroke-width="2"/>
          <g id="Group_1202277" data-name="Group 1202277" transform="translate(8.615 5.716)">
            <path id="Path_1040428" data-name="Path 1040428" d="M74.527,227.364H76.1v7.374" transform="translate(-74.527 -227.364)" fill="none" stroke="#000" stroke-linecap="round" stroke-linejoin="round" stroke-miterlimit="10" stroke-width="2"/>
          </g>
        </g>
        <g id="Group_1202279" data-name="Group 1202279" transform="translate(29.23 45.9)">
          <circle id="Ellipse_12537" data-name="Ellipse 12537" cx="9.403" cy="9.403" r="9.403" transform="translate(0.001 6.708)" fill="#dedbee"/>
          <path id="Path_1040429" data-name="Path 1040429" d="M230.474,376.606a9.4,9.4,0,1,0,0-18.145,9.4,9.4,0,0,1,0,18.145Z" transform="translate(-223.546 -351.422)" fill="#d2cfe9"/>
          <path id="Path_1040430" data-name="Path 1040430" d="M208.258,359.9a9.359,9.359,0,0,0-3.748,1.783" transform="translate(-200.919 -352.964)" fill="none" stroke="#000" stroke-linecap="round" stroke-linejoin="round" stroke-miterlimit="10" stroke-width="2"/>
          <path id="Path_1040431" data-name="Path 1040431" d="M194.09,394.33a9.4,9.4,0,1,1-16.6.693" transform="translate(-176.57 -382.969)" fill="none" stroke="#000" stroke-linecap="round" stroke-linejoin="round" stroke-miterlimit="10" stroke-width="2"/>
          <path id="Path_1040432" data-name="Path 1040432" d="M235.739,372.765h0a2.064,2.064,0,0,1-2.064-2.064v-6.373L237.8,359.9v10.8A2.064,2.064,0,0,1,235.739,372.765Z" transform="translate(-226.335 -352.967)" fill="#685e68"/>
          <path id="Path_1040433" data-name="Path 1040433" d="M233.675,317.3H245.6a1.155,1.155,0,0,0,.9-1.877l-2.466-3.082a1.155,1.155,0,0,1,0-1.443l2.466-3.082a1.155,1.155,0,0,0-.9-1.877H234.969a1.294,1.294,0,0,0-1.294,1.294Z" transform="translate(-226.335 -305.938)" fill="#fe76a8"/>
          <path id="Path_1040434" data-name="Path 1040434" d="M233.675,317.3H245.6a1.155,1.155,0,0,0,.9-1.877l-2.466-3.082a1.155,1.155,0,0,1,0-1.443l2.466-3.082a1.155,1.155,0,0,0-.9-1.877H234.969a1.294,1.294,0,0,0-1.294,1.294Z" transform="translate(-226.335 -305.938)" fill="none" stroke="#000" stroke-linecap="round" stroke-linejoin="round" stroke-miterlimit="10" stroke-width="2"/>
          <path id="Path_1040435" data-name="Path 1040435" d="M235.739,402.766h0a2.064,2.064,0,0,1-2.064-2.064v-6.373H237.8V400.7A2.064,2.064,0,0,1,235.739,402.766Z" transform="translate(-226.335 -382.968)" fill="none" stroke="#000" stroke-linecap="round" stroke-linejoin="round" stroke-miterlimit="10" stroke-width="2"/>
        </g>
      </g>
    </g>
  </g>
</svg>
