<svg xmlns="http://www.w3.org/2000/svg" xmlns:xlink="http://www.w3.org/1999/xlink" width="97.533" height="97.533" viewBox="0 0 97.533 97.533">
  <defs>
    <filter id="Path_982547" x="0" y="0" width="97.533" height="97.533" filterUnits="userSpaceOnUse">
      <feOffset dy="3" input="SourceAlpha"/>
      <feGaussianBlur stdDeviation="3" result="blur"/>
      <feFlood flood-opacity="0.161"/>
      <feComposite operator="in" in2="blur"/>
      <feComposite in="SourceGraphic"/>
    </filter>
  </defs>
  <g id="Group_1202466" data-name="Group 1202466" transform="translate(-191.467 -6933.682)">
    <g id="Group_1202404" data-name="Group 1202404" transform="translate(0 31)">
      <g id="Group_1202156" data-name="Group 1202156" transform="translate(-80.533 5497.679)">
        <g id="Group_1177900" data-name="Group 1177900" transform="translate(281 1411.003)">
          <g id="Group_1172010" data-name="Group 1172010" transform="translate(0)">
            <g id="Group_1171046" data-name="Group 1171046">
              <g id="Group_1148525" data-name="Group 1148525">
                <g transform="matrix(1, 0, 0, 1, -9, -6)" filter="url(#Path_982547)">
                  <g id="Path_982547-2" data-name="Path 982547" transform="translate(9 6)" fill="#fdfbec">
                    <path d="M 39.7666015625 78.033203125 C 34.59997940063477 78.033203125 29.58870124816895 77.02164459228516 24.87196731567383 75.02663421630859 C 20.31538963317871 73.099365234375 16.22284507751465 70.34000396728516 12.70802402496338 66.82518005371094 C 9.193202018737793 63.31035614013672 6.433835029602051 59.21781158447266 4.506568431854248 54.66123580932617 C 2.511557102203369 49.94449996948242 1.500001549720764 44.93322372436523 1.500001549720764 39.7666015625 C 1.500001549720764 34.59997940063477 2.511557102203369 29.58870124816895 4.506568431854248 24.87196731567383 C 6.433835029602051 20.31538963317871 9.193202018737793 16.22284507751465 12.70802402496338 12.70802402496338 C 16.22284507751465 9.193202018737793 20.31538963317871 6.433835029602051 24.87196731567383 4.506568431854248 C 29.58870124816895 2.511557102203369 34.59997940063477 1.500001549720764 39.7666015625 1.500001549720764 C 44.93322372436523 1.500001549720764 49.94449996948242 2.511557102203369 54.66123580932617 4.506568431854248 C 59.21781158447266 6.433835029602051 63.31035614013672 9.193202018737793 66.82518005371094 12.70802402496338 C 70.34000396728516 16.22284507751465 73.099365234375 20.31538963317871 75.02663421630859 24.87196731567383 C 77.02164459228516 29.58870124816895 78.033203125 34.59997940063477 78.033203125 39.7666015625 C 78.033203125 44.93322372436523 77.02164459228516 49.94449996948242 75.02663421630859 54.66123580932617 C 73.099365234375 59.21781158447266 70.34000396728516 63.31035614013672 66.82518005371094 66.82518005371094 C 63.31035614013672 70.34000396728516 59.21781158447266 73.099365234375 54.66123580932617 75.02663421630859 C 49.94449996948242 77.02164459228516 44.93322372436523 78.033203125 39.7666015625 78.033203125 Z" stroke="none"/>
                    <path d="M 39.7666015625 3 C 34.80181503295898 3 29.98714065551758 3.971687316894531 25.45630264282227 5.888076782226562 C 21.07851409912109 7.739715576171875 17.146240234375 10.39113616943359 13.76869201660156 13.76869201660156 C 10.39113616943359 17.146240234375 7.739715576171875 21.07851409912109 5.888076782226562 25.45630264282227 C 3.971687316894531 29.98714065551758 3 34.80181503295898 3 39.7666015625 C 3 44.73138809204102 3.971687316894531 49.54606628417969 5.888076782226562 54.076904296875 C 7.739715576171875 58.45468902587891 10.39113616943359 62.386962890625 13.76869201660156 65.76451110839844 C 17.146240234375 69.14206695556641 21.07851409912109 71.79348754882812 25.45630264282227 73.64512634277344 C 29.98714065551758 75.56151580810547 34.80181503295898 76.533203125 39.7666015625 76.533203125 C 44.73138809204102 76.533203125 49.54606628417969 75.56151580810547 54.076904296875 73.64512634277344 C 58.45468902587891 71.79348754882812 62.386962890625 69.14206695556641 65.76451110839844 65.76451110839844 C 69.14206695556641 62.386962890625 71.79348754882812 58.45468902587891 73.64512634277344 54.076904296875 C 75.56151580810547 49.54606628417969 76.533203125 44.73138809204102 76.533203125 39.7666015625 C 76.533203125 34.80181503295898 75.56151580810547 29.98714065551758 73.64512634277344 25.45630264282227 C 71.79348754882812 21.07851409912109 69.14206695556641 17.146240234375 65.76451110839844 13.76869201660156 C 62.386962890625 10.39113616943359 58.45468902587891 7.739715576171875 54.076904296875 5.888076782226562 C 49.54606628417969 3.971687316894531 44.73138809204102 3 39.7666015625 3 M 39.7666015625 0 C 61.72908782958984 0 79.533203125 17.80411529541016 79.533203125 39.7666015625 C 79.533203125 61.72908782958984 61.72908782958984 79.533203125 39.7666015625 79.533203125 C 17.80411529541016 79.533203125 0 61.72908782958984 0 39.7666015625 C 0 17.80411529541016 17.80411529541016 0 39.7666015625 0 Z" stroke="none" fill="#83793c"/>
                  </g>
                </g>
              </g>
            </g>
          </g>
        </g>
      </g>
      <g id="_x39_6_Building_Blocks" transform="translate(179.956 6917.211)">
        <g id="Group_1202403" data-name="Group 1202403" transform="translate(39.253 5.986)">
          <g id="Group_1202402" data-name="Group 1202402" transform="translate(2.68 0.59)">
            <path id="Path_1040821" data-name="Path 1040821" d="M142.163,299.818v3.508h0a6.1,6.1,0,0,0-6.1,6.1.806.806,0,0,0,0,.1h-6.128v-9.706h12.229Z" transform="translate(-123.818 -271.906)" fill="#efe9e5"/>
            <path id="Path_1040822" data-name="Path 1040822" d="M268.234,299.817v9.706h-6.128v-.05a6.1,6.1,0,0,0-6.1-6.1v-3.555h12.229Z" transform="translate(-237.66 -271.905)" fill="#efe9e5"/>
            <path id="Path_1040823" data-name="Path 1040823" d="M129.934,199.758h12.229v9.613H129.934Z" transform="translate(-123.818 -181.552)" fill="#efe9e5"/>
            <path id="Path_1040824" data-name="Path 1040824" d="M66.879,400.351h12.23v9.705H66.879Z" transform="translate(-66.879 -362.687)" fill="#efe9e5"/>
            <path id="Path_1040825" data-name="Path 1040825" d="M319.039,399.878h12.23v9.705h-12.23Z" transform="translate(-294.579 -362.26)" fill="#efe9e5"/>
            <path id="Path_1040826" data-name="Path 1040826" d="M137.162,152.32v2.4A1.159,1.159,0,0,1,136,155.875H109.716a1.159,1.159,0,0,1-1.159-1.159v-2.4a1.159,1.159,0,0,1,1.159-1.159H136A1.159,1.159,0,0,1,137.162,152.32Z" transform="translate(-104.514 -137.669)" fill="#efe9e5"/>
            <path id="Path_1040827" data-name="Path 1040827" d="M168.456,23.644l7.276-11.024a1.233,1.233,0,0,1,2.058,0l7.278,11.027a1.233,1.233,0,0,1-1.029,1.912l-14.554,0A1.233,1.233,0,0,1,168.456,23.644Z" transform="translate(-158.417 -12.066)" fill="#efe9e5"/>
          </g>
          <path id="Path_1040828" data-name="Path 1040828" d="M142.163,299.818v3.508h0a6.1,6.1,0,0,0-6.1,6.1.806.806,0,0,0,0,.1h-6.128v-9.706h12.229Z" transform="translate(-121.138 -271.316)" fill="#04b18b"/>
          <path id="Path_1040829" data-name="Path 1040829" d="M142.145,299.8v3.51h0a6.1,6.1,0,0,0-6.1,6.1.627.627,0,0,0,0,.094h-6.129v-2.312a6.643,6.643,0,0,0,8.465-6.384,7.121,7.121,0,0,0-.075-1.01h3.841Z" transform="translate(-121.121 -271.3)" fill="#fff" opacity="0.4"/>
          <path id="Path_1040830" data-name="Path 1040830" d="M268.234,299.817v9.706h-6.128v-.05a6.1,6.1,0,0,0-6.1-6.1v-3.555h12.229Z" transform="translate(-234.98 -271.315)" fill="#efe9e5"/>
          <path id="Path_1040831" data-name="Path 1040831" d="M328.188,299.8v9.706H322.4a9.457,9.457,0,0,0,2.59-9.706Z" transform="translate(-294.933 -271.3)" fill="#fff" opacity="0.4"/>
          <path id="Path_1040832" data-name="Path 1040832" d="M129.934,199.758h12.229v9.613H129.934Z" transform="translate(-121.138 -180.962)" fill="#efe9e5"/>
          <path id="Path_1040833" data-name="Path 1040833" d="M142.146,199.74v9.616h-12.23v-2.2a6.391,6.391,0,0,0,9.2-5.738,6.135,6.135,0,0,0-.226-1.675Z" transform="translate(-121.122 -180.946)" fill="#fff" opacity="0.4"/>
          <path id="Path_1040834" data-name="Path 1040834" d="M66.879,400.351h12.23v9.705H66.879Z" transform="translate(-64.199 -362.097)" fill="#65cef8"/>
          <path id="Path_1040835" data-name="Path 1040835" d="M319.039,399.878h12.23v9.705h-12.23Z" transform="translate(-291.899 -361.67)" fill="#fbca43"/>
          <path id="Path_1040836" data-name="Path 1040836" d="M79.1,400.345v9.706H66.874v-1.807a15.7,15.7,0,0,0,9.89-7.9Z" transform="translate(-64.195 -362.092)" fill="#fff" opacity="0.4"/>
          <path id="Path_1040837" data-name="Path 1040837" d="M331.271,399.859v9.706h-12.23v-1.991a11.163,11.163,0,0,0,10.621-7.715Z" transform="translate(-291.901 -361.653)" fill="#fff" opacity="0.4"/>
          <path id="Path_1040838" data-name="Path 1040838" d="M137.162,152.32v2.4A1.159,1.159,0,0,1,136,155.875H109.716a1.159,1.159,0,0,1-1.159-1.159v-2.4a1.159,1.159,0,0,1,1.159-1.159H136A1.159,1.159,0,0,1,137.162,152.32Z" transform="translate(-101.834 -137.079)" fill="#333c54"/>
          <path id="Path_1040839" data-name="Path 1040839" d="M137.165,152.307v2.4a1.158,1.158,0,0,1-1.156,1.156H109.723a1.159,1.159,0,0,1-1.161-1.156v-2.4a1.16,1.16,0,0,1,1.161-1.161h2.76a11.017,11.017,0,0,0,15.741,0h7.785a1.159,1.159,0,0,1,1.156,1.161Z" transform="translate(-101.839 -137.065)" fill="#fff" opacity="0.4"/>
          <path id="Path_1040840" data-name="Path 1040840" d="M168.456,23.644l7.276-11.024a1.233,1.233,0,0,1,2.058,0l7.278,11.027a1.233,1.233,0,0,1-1.029,1.912l-14.554,0A1.233,1.233,0,0,1,168.456,23.644Z" transform="translate(-155.737 -11.476)" fill="#fe9c14"/>
          <path id="Path_1040841" data-name="Path 1040841" d="M234.241,25.564H223.846a8.511,8.511,0,0,0,2.029-12.844l.061-.094a1.234,1.234,0,0,1,2.057,0l7.276,11.027A1.232,1.232,0,0,1,234.241,25.564Z" transform="translate(-205.94 -11.484)" fill="#fff" opacity="0.4"/>
          <path id="Path_1040842" data-name="Path 1040842" d="M256.005,199.758h12.229v9.613H256.005Z" transform="translate(-234.98 -180.962)" fill="none"/>
          <path id="Path_1040843" data-name="Path 1040843" d="M256.005,199.758h12.229v9.613H256.005Z" transform="translate(-234.98 -180.962)" fill="#fc575b"/>
          <path id="Path_1040844" data-name="Path 1040844" d="M268.229,199.74v9.616H256v-.92a10.1,10.1,0,0,0,9.588-8.7Z" transform="translate(-234.974 -180.946)" fill="#fff" opacity="0.4"/>
          <path id="Path_1040845" data-name="Path 1040845" d="M80.713,53.31h-1.5V44.194a.59.59,0,0,0-.59-.59H73.1V42a.59.59,0,1,0-1.18,0v1.6H66.947a6.709,6.709,0,0,0-6.079-6.121v-2.4h11.05v1.642a.59.59,0,1,0,1.18,0c0-1.895,0-8.949,0-11.346h.324a1.751,1.751,0,0,0,1.749-1.749v-2.4a1.751,1.751,0,0,0-1.749-1.749H69.26a1.817,1.817,0,0,0-.184-1.647L61.8,6.8a1.817,1.817,0,0,0-1.521-.819h0a1.817,1.817,0,0,0-1.521.819L51.48,17.829a1.82,1.82,0,0,0-.183,1.649H47.134a1.751,1.751,0,0,0-1.749,1.749v2.4a1.75,1.75,0,0,0,1.749,1.749h.325V43.65H41.933a.59.59,0,0,0-.59.59v9.07h-1.5a.59.59,0,1,0,0,1.18h40.87a.59.59,0,1,0,0-1.179ZM65.789,44.192c0,.068.014,9.05.014,9.118H54.752c0-.048.017-9.164.011-9.212a5.515,5.515,0,0,1,5.327-5.5.579.579,0,0,0,.187.038,5.534,5.534,0,0,1,5.512,5.558Zm-17.15-9.114H59.688v2.354A6.7,6.7,0,0,0,53.6,43.6H48.639V35.078Zm23.278-1.272H60.868V25.372h11.05ZM53,19.476a.643.643,0,0,1-.536-1L59.74,7.455a.66.66,0,0,1,1.073,0l7.278,11.027a.643.643,0,0,1-.536,1h0Zm-6.435,4.147v-2.4a.57.57,0,0,1,.569-.569H73.422a.57.57,0,0,1,.569.569v2.4a.57.57,0,0,1-.569.569H47.135A.57.57,0,0,1,46.566,23.623Zm13.123,1.749v8.434H48.639V25.372ZM42.523,44.83h11.05v8.48H42.523Zm24.46,8.48V44.784h11.05V53.31Z" transform="translate(-39.253 -5.986)"/>
        </g>
      </g>
    </g>
  </g>
</svg>
