<svg xmlns="http://www.w3.org/2000/svg" xmlns:xlink="http://www.w3.org/1999/xlink" width="113" height="113" viewBox="0 0 113 113">
  <defs>
    <filter id="Path_982547" x="0" y="0" width="113" height="113" filterUnits="userSpaceOnUse">
      <feOffset dy="3" input="SourceAlpha"/>
      <feGaussianBlur stdDeviation="3" result="blur"/>
      <feFlood flood-opacity="0.161"/>
      <feComposite operator="in" in2="blur"/>
      <feComposite in="SourceGraphic"/>
    </filter>
  </defs>
  <g id="Group_1202446" data-name="Group 1202446" transform="translate(-1163.5 -1336)">
    <g id="Group_1202339" data-name="Group 1202339">
      <g id="Group_1178323" data-name="Group 1178323" transform="translate(0 424)">
        <g id="Group_1177681" data-name="Group 1177681" transform="translate(1172.5 918)">
          <g id="Group_1172010" data-name="Group 1172010">
            <g id="Group_1171046" data-name="Group 1171046">
              <g id="Group_1148525" data-name="Group 1148525">
                <g transform="matrix(1, 0, 0, 1, -9, -6)" filter="url(#Path_982547)">
                  <g id="Path_982547-2" data-name="Path 982547" transform="translate(9 6)" fill="#edf3fc">
                    <path d="M 47.5 93.5 C 41.28937149047852 93.5 35.26533508300781 92.28397369384766 29.59518623352051 89.88570404052734 C 24.11771965026855 87.56893157958984 19.19813346862793 84.25196075439453 14.97309303283691 80.02691650390625 C 10.74804019927979 75.80186462402344 7.431066513061523 70.88229370117188 5.114293098449707 65.40481567382812 C 2.716026782989502 59.73468017578125 1.5 53.71062850952148 1.5 47.5 C 1.5 41.28937149047852 2.716026782989502 35.26533508300781 5.114293098449707 29.59518623352051 C 7.431066513061523 24.11771965026855 10.74804019927979 19.19813346862793 14.97309303283691 14.97309303283691 C 19.19813346862793 10.74804019927979 24.11771965026855 7.431066513061523 29.59518623352051 5.114293098449707 C 35.26533508300781 2.716026782989502 41.28937149047852 1.5 47.5 1.5 C 53.71062850952148 1.5 59.73468017578125 2.716026782989502 65.40481567382812 5.114293098449707 C 70.88229370117188 7.431066513061523 75.80186462402344 10.74804019927979 80.02691650390625 14.97309303283691 C 84.25196075439453 19.19813346862793 87.56893157958984 24.11771965026855 89.88570404052734 29.59518623352051 C 92.28397369384766 35.26533508300781 93.5 41.28937149047852 93.5 47.5 C 93.5 53.71062850952148 92.28397369384766 59.73468017578125 89.88570404052734 65.40481567382812 C 87.56893157958984 70.88229370117188 84.25196075439453 75.80186462402344 80.02691650390625 80.02691650390625 C 75.80186462402344 84.25196075439453 70.88229370117188 87.56893157958984 65.40481567382812 89.88570404052734 C 59.73468017578125 92.28397369384766 53.71062850952148 93.5 47.5 93.5 Z" stroke="none"/>
                    <path d="M 47.5 3 C 41.49121475219727 3 35.66376876831055 4.176155090332031 30.17950439453125 6.495796203613281 C 24.88084411621094 8.736953735351562 20.12152099609375 11.94598388671875 16.03375244140625 16.03375244140625 C 11.94598388671875 20.12152099609375 8.736953735351562 24.88084411621094 6.495796203613281 30.17950439453125 C 4.176155090332031 35.66376876831055 3 41.49121475219727 3 47.5 C 3 53.50878524780273 4.176155090332031 59.33623123168945 6.495796203613281 64.82049560546875 C 8.736953735351562 70.11915588378906 11.94598388671875 74.87847900390625 16.03375244140625 78.96624755859375 C 20.12152099609375 83.05401611328125 24.88084411621094 86.26304626464844 30.17950439453125 88.50419616699219 C 35.66376876831055 90.82384490966797 41.49121475219727 92 47.5 92 C 53.50878524780273 92 59.33623123168945 90.82384490966797 64.82049560546875 88.50419616699219 C 70.11915588378906 86.26304626464844 74.87847900390625 83.05401611328125 78.96624755859375 78.96624755859375 C 83.05401611328125 74.87847900390625 86.26304626464844 70.11915588378906 88.50419616699219 64.82049560546875 C 90.82384490966797 59.33623123168945 92 53.50878524780273 92 47.5 C 92 41.49121475219727 90.82384490966797 35.66376876831055 88.50419616699219 30.17950439453125 C 86.26304626464844 24.88084411621094 83.05401611328125 20.12152099609375 78.96624755859375 16.03375244140625 C 74.87847900390625 11.94598388671875 70.11915588378906 8.736953735351562 64.82049560546875 6.495796203613281 C 59.33623123168945 4.176155090332031 53.50878524780273 3 47.5 3 M 47.5 0 C 73.7335205078125 0 95 21.2664794921875 95 47.5 C 95 73.7335205078125 73.7335205078125 95 47.5 95 C 21.2664794921875 95 0 73.7335205078125 0 47.5 C 0 21.2664794921875 21.2664794921875 0 47.5 0 Z" stroke="none" fill="#5692e8"/>
                  </g>
                </g>
              </g>
            </g>
          </g>
        </g>
      </g>
      <g id="cube_10769652" transform="translate(1152.516 1328.65)">
        <g id="Group_1202330" data-name="Group 1202330" transform="translate(36.596 66.049)">
          <path id="Path_1040616" data-name="Path 1040616" d="M71.051,336.957H44.11l10.223-16.671,3.247-5.3,3.249,5.3Z" transform="translate(-43.078 -313.971)" fill="#e54d3b"/>
          <g id="Group_1202329" data-name="Group 1202329" transform="translate(0 0)">
            <path id="Path_1040617" data-name="Path 1040617" d="M64.57,329.525H37.628l.89,1.55,5.326-8.686,4.968-8.1,3.176-5.18H50.209l4.275,6.971L61.6,327.688l2.077,3.387c.692,1.129,2.475.095,1.779-1.04l-5.326-8.686-4.968-8.1-3.177-5.18a1.042,1.042,0,0,0-1.779,0l-4.274,6.971-7.119,11.609-2.077,3.387a1.039,1.039,0,0,0,.89,1.55H64.57A1.031,1.031,0,0,0,64.57,329.525Z" transform="translate(-36.596 -307.568)"/>
          </g>
        </g>
        <g id="Group_1202332" data-name="Group 1202332" transform="translate(53.315 71.335)">
          <path id="Path_1040618" data-name="Path 1040618" d="M207.314,353.55v16.671H176.043L165.82,353.55Z" transform="translate(-164.788 -352.52)" fill="#edf0f1"/>
          <g id="Group_1202331" data-name="Group 1202331">
            <path id="Path_1040619" data-name="Path 1040619" d="M199.8,347.08v16.671l1.03-1.03H169.559l.89.51-8.96-14.611-1.263-2.059-.89,1.55h41.494a1.031,1.031,0,0,0,0-2.06H159.337a1.039,1.039,0,0,0-.89,1.55l5.29,8.627,3.519,5.738,1.084,1.769c.3.494.544,1,1.219,1.047.715.048,1.45,0,2.166,0h19.88c3.022,0,6.062.1,9.083,0,.047,0,.1,0,.143,0a1.045,1.045,0,0,0,1.03-1.03V347.08A1.031,1.031,0,0,0,199.8,347.08Z" transform="translate(-158.304 -346.05)"/>
          </g>
        </g>
        <g id="Group_1202334" data-name="Group 1202334" transform="translate(36.598 50.277)">
          <path id="Path_1040620" data-name="Path 1040620" d="M95.146,200.54v21.018H60.829l-3.249-5.3-3.247,5.3H44.11V200.54Z" transform="translate(-43.08 -199.47)" fill="#efc41b"/>
          <g id="Group_1202333" data-name="Group 1202333" transform="translate(0 0)">
            <path id="Path_1040621" data-name="Path 1040621" d="M87.646,193.819v21.018l1.03-1.03H54.359l.89.51L52,209.021a1.042,1.042,0,0,0-1.779,0l-3.247,5.3.89-.51H37.64l1.03,1.03V193.819l-1.03,1.03H82.378c2.063,0,4.149.09,6.211,0,.029,0,.059,0,.088,0a1.031,1.031,0,0,0,0-2.06H43.939c-2.063,0-4.149-.09-6.211,0-.029,0-.059,0-.088,0a1.045,1.045,0,0,0-1.03,1.03v21.018a1.045,1.045,0,0,0,1.03,1.03h7.242c.972,0,1.96.051,2.932,0,1.029-.054,1.635-1.646,2.1-2.409l2.083-3.4H50.22l2.32,3.783c.305.5.59,1.018.92,1.5a1.207,1.207,0,0,0,1.069.524c2.054.06,4.119,0,6.174,0H88.677a1.045,1.045,0,0,0,1.03-1.03V193.82A1.031,1.031,0,0,0,87.646,193.819Z" transform="translate(-36.61 -192.749)"/>
          </g>
        </g>
        <g id="Group_1202336" data-name="Group 1202336" transform="translate(66.103 27.59)">
          <path id="Path_1040622" data-name="Path 1040622" d="M258.9,35.09h17.6V57.817H258.9Z" transform="translate(-257.87 -34.06)" fill="#27b999"/>
          <g id="Group_1202335" data-name="Group 1202335" transform="translate(0 0)">
            <path id="Path_1040623" data-name="Path 1040623" d="M269,28.62V51.347l1.03-1.03h-17.6l1.03,1.03V28.62l-1.03,1.03h17.6a1.031,1.031,0,0,0,0-2.06h-17.6a1.045,1.045,0,0,0-1.03,1.03V51.347a1.045,1.045,0,0,0,1.03,1.03h17.6a1.045,1.045,0,0,0,1.03-1.03V28.62A1.031,1.031,0,0,0,269,28.62Z" transform="translate(-251.4 -27.59)"/>
          </g>
        </g>
        <g id="Group_1202338" data-name="Group 1202338" transform="translate(41.678 36.651)">
          <circle id="Ellipse_12548" data-name="Ellipse 12548" cx="6.835" cy="6.835" r="6.835" transform="translate(1.013 1.026)" fill="#fdd7ad"/>
          <g id="Group_1202337" data-name="Group 1202337" transform="translate(0 0)">
            <path id="Path_1040624" data-name="Path 1040624" d="M87.242,101.413A5.8,5.8,0,1,1,82.472,95.7a5.864,5.864,0,0,1,4.769,5.717,1.031,1.031,0,0,0,2.06,0,7.979,7.979,0,0,0-5.141-7.376,7.862,7.862,0,1,0,5.141,7.376,1.031,1.031,0,0,0-2.061,0Z" transform="translate(-73.589 -93.552)"/>
          </g>
        </g>
      </g>
    </g>
  </g>
</svg>
