<svg xmlns="http://www.w3.org/2000/svg" xmlns:xlink="http://www.w3.org/1999/xlink" width="106.16" height="106.161" viewBox="0 0 106.16 106.161">
  <defs>
    <filter id="Path_982547" x="0" y="0" width="106.16" height="106.161" filterUnits="userSpaceOnUse">
      <feOffset dy="3" input="SourceAlpha"/>
      <feGaussianBlur stdDeviation="3" result="blur"/>
      <feFlood flood-opacity="0.161"/>
      <feComposite operator="in" in2="blur"/>
      <feComposite in="SourceGraphic"/>
    </filter>
  </defs>
  <g id="Group_1202459" data-name="Group 1202459" transform="translate(-616.42 -5240.839)">
    <g id="Group_1202401" data-name="Group 1202401" transform="translate(0 31)">
      <g id="Group_1202057" data-name="Group 1202057" transform="translate(344.42 3804.836)">
        <g id="Group_1177900" data-name="Group 1177900" transform="translate(281 1411.003)">
          <g id="Group_1172010" data-name="Group 1172010" transform="translate(0)">
            <g id="Group_1171046" data-name="Group 1171046">
              <g id="Group_1148525" data-name="Group 1148525">
                <g transform="matrix(1, 0, 0, 1, -9, -6)" filter="url(#Path_982547)">
                  <g id="Path_982547-2" data-name="Path 982547" transform="translate(9 6)" fill="#fdfbec">
                    <path d="M 44.0802001953125 86.660400390625 C 38.33124923706055 86.660400390625 32.75506210327148 85.53479766845703 27.50652503967285 83.31484985351562 C 22.43628692626953 81.17032623291016 17.88242530822754 78.09992218017578 13.97144985198975 74.18894958496094 C 10.06047534942627 70.27797698974609 6.99007511138916 65.72411346435547 4.845550060272217 60.65387344360352 C 2.625600099563599 55.40533828735352 1.500000238418579 49.82915115356445 1.500000238418579 44.0802001953125 C 1.500000238418579 38.33124923706055 2.625600099563599 32.75506210327148 4.845550060272217 27.50652503967285 C 6.99007511138916 22.43628692626953 10.06047534942627 17.88242530822754 13.97144985198975 13.97144985198975 C 17.88242530822754 10.06047534942627 22.43628692626953 6.99007511138916 27.50652503967285 4.845550060272217 C 32.75506210327148 2.625600099563599 38.33124923706055 1.500000238418579 44.0802001953125 1.500000238418579 C 49.82915115356445 1.500000238418579 55.40533828735352 2.625600099563599 60.65387344360352 4.845550060272217 C 65.72411346435547 6.99007511138916 70.27797698974609 10.06047534942627 74.18894958496094 13.97144985198975 C 78.09992218017578 17.88242530822754 81.17032623291016 22.43628692626953 83.31484985351562 27.50652503967285 C 85.53479766845703 32.75506210327148 86.660400390625 38.33124923706055 86.660400390625 44.0802001953125 C 86.660400390625 49.82915115356445 85.53479766845703 55.40533828735352 83.31484985351562 60.65387344360352 C 81.17032623291016 65.72411346435547 78.09992218017578 70.27797698974609 74.18894958496094 74.18894958496094 C 70.27797698974609 78.09992218017578 65.72411346435547 81.17032623291016 60.65387344360352 83.31484985351562 C 55.40533828735352 85.53479766845703 49.82915115356445 86.660400390625 44.0802001953125 86.660400390625 Z" stroke="none"/>
                    <path d="M 44.0802001953125 3 C 38.53308486938477 3 33.15349960327148 4.085746765136719 28.09085845947266 6.227058410644531 C 23.19941711425781 8.29595947265625 18.80581665039062 11.25841522216797 15.03211212158203 15.03211212158203 C 11.25841522216797 18.80581665039062 8.29595947265625 23.19941711425781 6.227058410644531 28.09085845947266 C 4.085746765136719 33.15349960327148 3 38.53308486938477 3 44.0802001953125 C 3 49.62731552124023 4.085746765136719 55.00691604614258 6.227058410644531 60.06954193115234 C 8.29595947265625 64.96098327636719 11.25841522216797 69.35458374023438 15.03211212158203 73.12828826904297 C 18.80581665039062 76.90198516845703 23.19941711425781 79.86444091796875 28.09085845947266 81.93334197998047 C 33.15349960327148 84.07466125488281 38.53308486938477 85.160400390625 44.0802001953125 85.160400390625 C 49.62731552124023 85.160400390625 55.00691604614258 84.07466125488281 60.06954193115234 81.93334197998047 C 64.96099853515625 79.86444091796875 69.35458374023438 76.90198516845703 73.12828826904297 73.12828826904297 C 76.90198516845703 69.35458374023438 79.86444091796875 64.96099853515625 81.93334197998047 60.06954193115234 C 84.07466125488281 55.00691604614258 85.160400390625 49.62731552124023 85.160400390625 44.0802001953125 C 85.160400390625 38.53308486938477 84.07466125488281 33.15349960327148 81.93334197998047 28.09085845947266 C 79.86444091796875 23.19941711425781 76.90198516845703 18.80581665039062 73.12828826904297 15.03211212158203 C 69.35458374023438 11.25841522216797 64.96098327636719 8.29595947265625 60.06954193115234 6.227058410644531 C 55.00691604614258 4.085746765136719 49.62731552124023 3 44.0802001953125 3 M 44.0802001953125 0 C 68.42502593994141 0 88.160400390625 19.73538970947266 88.160400390625 44.0802001953125 C 88.160400390625 68.42502593994141 68.42502593994141 88.160400390625 44.0802001953125 88.160400390625 C 19.73538970947266 88.160400390625 0 68.42502593994141 0 44.0802001953125 C 0 19.73538970947266 19.73538970947266 0 44.0802001953125 0 Z" stroke="none" fill="#83793c"/>
                  </g>
                </g>
              </g>
            </g>
          </g>
        </g>
      </g>
      <g id="_08-Mathematics" data-name="08-Mathematics" transform="translate(642.726 5235.273)">
        <path id="Path_1040745" data-name="Path 1040745" d="M5.739,1V5.739H1Z" transform="translate(-0.21 -0.21)" fill="#ff873c"/>
        <path id="Path_1040746" data-name="Path 1040746" d="M5,42H8.159v3.159H5Z" transform="translate(-1.051 -8.828)" fill="#f0f0f0"/>
        <path id="Path_1040747" data-name="Path 1040747" d="M5,34H8.159v3.159H5Z" transform="translate(-1.051 -7.147)" fill="#f0f0f0"/>
        <path id="Path_1040748" data-name="Path 1040748" d="M32.592,1V42.07H1V5.739H5.739V1ZM7.318,36.541V33.382H4.159v3.159Zm0-6.318V27.063H4.159v3.159Zm0-6.318V20.745H4.159V23.9Zm0-6.318V14.427H4.159v3.159Z" transform="translate(-0.21 -0.21)" fill="#ffc170"/>
        <path id="Path_1040749" data-name="Path 1040749" d="M27.853,1v9.478A26.853,26.853,0,0,1,1,37.331V42.07H32.592V1Z" transform="translate(-0.21 -0.21)" fill="#ffac5a"/>
        <path id="Path_1040750" data-name="Path 1040750" d="M5,26H8.159v3.159H5Z" transform="translate(-1.051 -5.465)" fill="#f0f0f0"/>
        <path id="Path_1040751" data-name="Path 1040751" d="M5,18H8.159v3.159H5Z" transform="translate(-1.051 -3.784)" fill="#f0f0f0"/>
        <path id="Path_1040752" data-name="Path 1040752" d="M5,20H8.159v1.58H5Z" transform="translate(-1.051 -4.204)" fill="#d9d9d9"/>
        <path id="Path_1040753" data-name="Path 1040753" d="M5,28H8.159v1.58H5Z" transform="translate(-1.051 -5.886)" fill="#d9d9d9"/>
        <path id="Path_1040754" data-name="Path 1040754" d="M5,36H8.159v1.58H5Z" transform="translate(-1.051 -7.567)" fill="#d9d9d9"/>
        <path id="Path_1040755" data-name="Path 1040755" d="M5,44H8.159v1.58H5Z" transform="translate(-1.051 -9.249)" fill="#d9d9d9"/>
        <path id="Path_1040756" data-name="Path 1040756" d="M10,6h1.58V7.58H10Z" transform="translate(-2.102 -1.261)" fill="#ffdfb0"/>
        <path id="Path_1040757" data-name="Path 1040757" d="M14,6h5.529V7.58H14Z" transform="translate(-2.943 -1.261)" fill="#ffdfb0"/>
        <path id="Path_1040758" data-name="Path 1040758" d="M4,10H17.427v1.58H4Z" transform="translate(-0.841 -2.102)" fill="#ffdfb0"/>
        <path id="Path_1040759" data-name="Path 1040759" d="M12,17h1.58v1.58H12Z" transform="translate(-2.522 -3.573)" fill="#ffdfb0"/>
        <path id="Path_1040760" data-name="Path 1040760" d="M16,17h3.949v1.58H16Z" transform="translate(-3.363 -3.573)" fill="#ffdfb0"/>
        <path id="Path_1040761" data-name="Path 1040761" d="M12,21h7.108v1.58H12Z" transform="translate(-2.522 -4.414)" fill="#ffdfb0"/>
        <path id="Path_1040762" data-name="Path 1040762" d="M52.159,41.58v1.58a1.58,1.58,0,0,1-3.159,0V41.58a1.58,1.58,0,1,1,3.159,0Z" transform="translate(-10.3 -8.408)" fill="#ff636e"/>
        <path id="Path_1040763" data-name="Path 1040763" d="M51.9,40.466A1.547,1.547,0,0,0,50,40.22a1.569,1.569,0,0,1,.79,1.359v1.58A1.58,1.58,0,0,1,50,44.518a1.56,1.56,0,0,0,.79.22,1.584,1.584,0,0,0,1.58-1.58V41.58A1.544,1.544,0,0,0,51.9,40.466Z" transform="translate(-10.51 -8.408)" fill="#ff475a"/>
        <path id="Path_1040764" data-name="Path 1040764" d="M48.159,41.58v1.58a1.58,1.58,0,1,1-3.159,0V41.58a1.58,1.58,0,1,1,3.159,0Z" transform="translate(-9.459 -8.408)" fill="#19cffc"/>
        <path id="Path_1040765" data-name="Path 1040765" d="M47.9,40.466A1.547,1.547,0,0,0,46,40.22a1.569,1.569,0,0,1,.79,1.359v1.58A1.58,1.58,0,0,1,46,44.518a1.56,1.56,0,0,0,.79.22,1.584,1.584,0,0,0,1.58-1.58V41.58A1.544,1.544,0,0,0,47.9,40.466Z" transform="translate(-9.669 -8.408)" fill="#1ea1e3"/>
        <path id="Path_1040766" data-name="Path 1040766" d="M44.159,41.58v1.58a1.58,1.58,0,1,1-3.159,0V41.58a1.58,1.58,0,0,1,3.159,0Z" transform="translate(-8.618 -8.408)" fill="#fc9942"/>
        <path id="Path_1040767" data-name="Path 1040767" d="M32.159,51.58v1.58a1.58,1.58,0,0,1-3.159,0V51.58a1.58,1.58,0,1,1,3.159,0Z" transform="translate(-6.096 -10.51)" fill="#fc9942"/>
        <path id="Path_1040768" data-name="Path 1040768" d="M36.159,51.58v1.58a1.58,1.58,0,0,1-3.159,0V51.58a1.58,1.58,0,0,1,3.159,0Z" transform="translate(-6.937 -10.51)" fill="#19cffc"/>
        <path id="Path_1040769" data-name="Path 1040769" d="M40.159,51.58v1.58a1.58,1.58,0,0,1-3.159,0V51.58a1.58,1.58,0,0,1,3.159,0Z" transform="translate(-7.777 -10.51)" fill="#ff636e"/>
        <path id="Path_1040770" data-name="Path 1040770" d="M28.159,51.58v1.58a1.58,1.58,0,0,1-3.159,0V51.58a1.58,1.58,0,1,1,3.159,0Z" transform="translate(-5.255 -10.51)" fill="#b2876d"/>
        <path id="Path_1040771" data-name="Path 1040771" d="M40.159,41.58v1.58a1.58,1.58,0,0,1-3.159,0V41.58a1.58,1.58,0,0,1,3.159,0Z" transform="translate(-7.777 -8.408)" fill="#b2876d"/>
        <path id="Path_1040772" data-name="Path 1040772" d="M40.159,31.58v1.58a1.58,1.58,0,0,1-3.159,0V31.58a1.58,1.58,0,0,1,3.159,0Z" transform="translate(-7.777 -6.306)" fill="#b2876d"/>
        <path id="Path_1040773" data-name="Path 1040773" d="M36.159,31.58v1.58a1.58,1.58,0,0,1-3.159,0V31.58a1.58,1.58,0,1,1,3.159,0Z" transform="translate(-6.937 -6.306)" fill="#fc9942"/>
        <path id="Path_1040774" data-name="Path 1040774" d="M32.159,31.58v1.58a1.58,1.58,0,1,1-3.159,0V31.58a1.58,1.58,0,1,1,3.159,0Z" transform="translate(-6.096 -6.306)" fill="#19cffc"/>
        <path id="Path_1040775" data-name="Path 1040775" d="M28.159,31.58v1.58a1.58,1.58,0,1,1-3.159,0V31.58a1.58,1.58,0,1,1,3.159,0Z" transform="translate(-5.255 -6.306)" fill="#ff636e"/>
        <path id="Path_1040776" data-name="Path 1040776" d="M16.58,59h4.739v3.159H15V59Z" transform="translate(-3.153 -12.402)" fill="#8d5c4d"/>
        <path id="Path_1040777" data-name="Path 1040777" d="M56.58,59h4.739v3.159H55V59Z" transform="translate(-11.561 -12.402)" fill="#8d5c4d"/>
        <path id="Path_1040778" data-name="Path 1040778" d="M56.58,61h4.739v1.58H55V61Z" transform="translate(-11.561 -12.822)" fill="#805142"/>
        <path id="Path_1040779" data-name="Path 1040779" d="M16.58,61h4.739v1.58H15V61Z" transform="translate(-3.153 -12.822)" fill="#805142"/>
        <path id="Path_1040780" data-name="Path 1040780" d="M17,27h3.159V52.274H17Z" transform="translate(-3.573 -5.675)" fill="#a37862"/>
        <path id="Path_1040781" data-name="Path 1040781" d="M57,27h3.159V52.274H57Z" transform="translate(-11.981 -5.675)" fill="#a37862"/>
        <path id="Path_1040782" data-name="Path 1040782" d="M59,27h1.58V52.274H59Z" transform="translate(-12.402 -5.675)" fill="#b2876d"/>
        <path id="Path_1040783" data-name="Path 1040783" d="M19,27h1.58V52.274H19Z" transform="translate(-3.994 -5.675)" fill="#b2876d"/>
        <path id="Path_1040784" data-name="Path 1040784" d="M50.853,5V19.216H44.535l-3.949,3.949V19.216H24V5Z" transform="translate(-5.045 -1.051)" fill="#f0f0f0"/>
        <path id="Path_1040785" data-name="Path 1040785" d="M39.006,21H24v1.58H40.586A1.58,1.58,0,0,0,39.006,21Z" transform="translate(-5.045 -4.414)" fill="#d9d9d9"/>
        <path id="Path_1040786" data-name="Path 1040786" d="M45,24.949v1.58l3.949-3.949h6.318V21H48.949Z" transform="translate(-9.459 -4.414)" fill="#d9d9d9"/>
        <path id="Path_1040787" data-name="Path 1040787" d="M27.9,30.466A1.547,1.547,0,0,0,26,30.22a1.569,1.569,0,0,1,.79,1.359v1.58A1.58,1.58,0,0,1,26,34.518a1.56,1.56,0,0,0,.79.22,1.584,1.584,0,0,0,1.58-1.58V31.58a1.544,1.544,0,0,0-.466-1.114Z" transform="translate(-5.465 -6.306)" fill="#ff475a"/>
        <path id="Path_1040788" data-name="Path 1040788" d="M39.9,50.466A1.547,1.547,0,0,0,38,50.22a1.569,1.569,0,0,1,.79,1.359v1.58A1.58,1.58,0,0,1,38,54.518a1.56,1.56,0,0,0,.79.22,1.584,1.584,0,0,0,1.58-1.58V51.58A1.544,1.544,0,0,0,39.9,50.466Z" transform="translate(-7.988 -10.51)" fill="#ff475a"/>
        <path id="Path_1040789" data-name="Path 1040789" d="M31.9,30.466A1.547,1.547,0,0,0,30,30.22a1.569,1.569,0,0,1,.79,1.359v1.58A1.58,1.58,0,0,1,30,34.518a1.56,1.56,0,0,0,.79.22,1.584,1.584,0,0,0,1.58-1.58V31.58a1.544,1.544,0,0,0-.466-1.114Z" transform="translate(-6.306 -6.306)" fill="#1ea1e3"/>
        <path id="Path_1040790" data-name="Path 1040790" d="M35.9,50.466A1.547,1.547,0,0,0,34,50.22a1.569,1.569,0,0,1,.79,1.359v1.58A1.58,1.58,0,0,1,34,54.518a1.56,1.56,0,0,0,.79.22,1.584,1.584,0,0,0,1.58-1.58V51.58A1.544,1.544,0,0,0,35.9,50.466Z" transform="translate(-7.147 -10.51)" fill="#1ea1e3"/>
        <path id="Path_1040791" data-name="Path 1040791" d="M43.9,40.466A1.547,1.547,0,0,0,42,40.22a1.569,1.569,0,0,1,.79,1.359v1.58A1.58,1.58,0,0,1,42,44.518a1.56,1.56,0,0,0,.79.22,1.584,1.584,0,0,0,1.58-1.58V41.58A1.544,1.544,0,0,0,43.9,40.466Z" transform="translate(-8.828 -8.408)" fill="#fa732d"/>
        <path id="Path_1040792" data-name="Path 1040792" d="M35.9,30.466A1.547,1.547,0,0,0,34,30.22a1.569,1.569,0,0,1,.79,1.359v1.58A1.58,1.58,0,0,1,34,34.518a1.56,1.56,0,0,0,.79.22,1.584,1.584,0,0,0,1.58-1.58V31.58A1.544,1.544,0,0,0,35.9,30.466Z" transform="translate(-7.147 -6.306)" fill="#fa732d"/>
        <path id="Path_1040793" data-name="Path 1040793" d="M31.9,50.466A1.547,1.547,0,0,0,30,50.22a1.569,1.569,0,0,1,.79,1.359v1.58A1.58,1.58,0,0,1,30,54.518a1.56,1.56,0,0,0,.79.22,1.584,1.584,0,0,0,1.58-1.58V51.58a1.544,1.544,0,0,0-.466-1.114Z" transform="translate(-6.306 -10.51)" fill="#fa732d"/>
        <path id="Path_1040794" data-name="Path 1040794" d="M39.9,40.466A1.547,1.547,0,0,0,38,40.22a1.569,1.569,0,0,1,.79,1.359v1.58A1.58,1.58,0,0,1,38,44.518a1.56,1.56,0,0,0,.79.22,1.584,1.584,0,0,0,1.58-1.58V41.58A1.544,1.544,0,0,0,39.9,40.466Z" transform="translate(-7.988 -8.408)" fill="#a37862"/>
        <path id="Path_1040795" data-name="Path 1040795" d="M39.9,30.466A1.547,1.547,0,0,0,38,30.22a1.569,1.569,0,0,1,.79,1.359v1.58A1.58,1.58,0,0,1,38,34.518a1.56,1.56,0,0,0,.79.22,1.584,1.584,0,0,0,1.58-1.58V31.58A1.544,1.544,0,0,0,39.9,30.466Z" transform="translate(-7.988 -6.306)" fill="#a37862"/>
        <path id="Path_1040796" data-name="Path 1040796" d="M27.9,50.466A1.547,1.547,0,0,0,26,50.22a1.569,1.569,0,0,1,.79,1.359v1.58A1.58,1.58,0,0,1,26,54.518a1.56,1.56,0,0,0,.79.22,1.584,1.584,0,0,0,1.58-1.58V51.58a1.544,1.544,0,0,0-.466-1.114Z" transform="translate(-5.465 -10.51)" fill="#a37862"/>
        <g id="Group_1202400" data-name="Group 1202400" transform="translate(16.586 7.108)">
          <path id="Path_1040797" data-name="Path 1040797" d="M32.529,9H27v1.58h4.739v1.58H27.79a.79.79,0,0,0-.79.79v3.159a.79.79,0,0,0,.79.79h5.529v-1.58H28.58v-1.58h3.949a.79.79,0,0,0,.79-.79V9.79A.79.79,0,0,0,32.529,9Z" transform="translate(-22.261 -9)" fill="#848484"/>
          <path id="Path_1040798" data-name="Path 1040798" d="M52.529,13.739a.79.79,0,0,0,.79-.79V9.79a.79.79,0,0,0-.79-.79H47v1.58h4.739v1.58H47.79a.79.79,0,0,0-.79.79v3.159a.79.79,0,0,0,.79.79h5.529v-1.58H48.58v-1.58Z" transform="translate(-26.465 -9)" fill="#848484"/>
          <path id="Path_1040799" data-name="Path 1040799" d="M40.949,10h-1.58v2.369H37v1.58h2.369v2.369h1.58V13.949h2.369v-1.58H40.949Z" transform="translate(-24.363 -9.21)" fill="#848484"/>
          <path id="Path_1040800" data-name="Path 1040800" d="M41,32H53.637v1.58H41Z" transform="translate(-25.204 -13.835)" fill="#848484"/>
          <path id="Path_1040801" data-name="Path 1040801" d="M21,32h3.159v1.58H21Z" transform="translate(-21 -13.835)" fill="#848484"/>
          <path id="Path_1040802" data-name="Path 1040802" d="M21,42H33.637v1.58H21Z" transform="translate(-21 -15.937)" fill="#848484"/>
          <path id="Path_1040803" data-name="Path 1040803" d="M53,42h3.159v1.58H53Z" transform="translate(-27.726 -15.937)" fill="#848484"/>
          <path id="Path_1040804" data-name="Path 1040804" d="M41,52H53.637v1.58H41Z" transform="translate(-25.204 -18.038)" fill="#848484"/>
          <path id="Path_1040805" data-name="Path 1040805" d="M21,52h3.159v1.58H21Z" transform="translate(-21 -18.038)" fill="#848484"/>
        </g>
        <path id="Path_1040806" data-name="Path 1040806" d="M24,5H50.853V6.58H24Z" transform="translate(-5.045 -1.051)" fill="#d9d9d9"/>
        <path id="Path_1040807" data-name="Path 1040807" d="M49.758,45.809h-.79V21.325a.79.79,0,0,0-.79-.79H45.019a.79.79,0,0,0-.79.79v3.949H33.172a2.359,2.359,0,0,0-3.949-1.753,2.333,2.333,0,0,0-3.159,0,2.333,2.333,0,0,0-3.159,0,2.359,2.359,0,0,0-3.949,1.753h-1.58V21.325a.79.79,0,0,0-.79-.79H13.427a.79.79,0,0,0-.79.79V41.07H1.58V6.318H5.529a.79.79,0,0,0,.79-.79V1.58H31.592v1.58H18.955a.79.79,0,0,0-.79.79V18.165a.79.79,0,0,0,.79.79H31.592v3.159h1.58V18.955h1.58v3.159a.79.79,0,0,0,1.348.558l3.718-3.718h5.991a.79.79,0,0,0,.79-.79V3.949a.79.79,0,0,0-.79-.79H33.172V.79a.79.79,0,0,0-.79-.79H5.529A.79.79,0,0,0,4.97.231L.231,4.97A.79.79,0,0,0,0,5.529V41.86a.79.79,0,0,0,.79.79H12.637v3.159h-.79a.79.79,0,0,0-.79.79v3.159a.79.79,0,0,0,.79.79h6.318a.79.79,0,0,0,.79-.79V46.6a.79.79,0,0,0-.79-.79h-.79V42.649h1.58A2.359,2.359,0,0,0,22.9,44.4a2.333,2.333,0,0,0,3.159,0,2.333,2.333,0,0,0,3.159,0,2.359,2.359,0,0,0,3.949-1.753H44.229v3.159h-.79a.79.79,0,0,0-.79.79v3.159a.79.79,0,0,0,.79.79h6.318a.79.79,0,0,0,.79-.79V46.6A.79.79,0,0,0,49.758,45.809ZM45.019,17.376H39.49a.79.79,0,0,0-.558.231l-2.6,2.6V18.165a.79.79,0,0,0-.79-.79h-15.8V4.739H45.019ZM2.7,4.739,4.739,2.7V4.739ZM30.8,24.484a.79.79,0,0,1,.79.79v1.58a.79.79,0,1,1-1.58,0v-1.58A.79.79,0,0,1,30.8,24.484Zm-3.159,0a.79.79,0,0,1,.79.79v1.58a.79.79,0,0,1-1.58,0v-1.58A.79.79,0,0,1,27.643,24.484Zm-3.159,0a.79.79,0,0,1,.79.79v1.58a.79.79,0,1,1-1.58,0v-1.58A.79.79,0,0,1,24.484,24.484Zm-3.949.79a.79.79,0,0,1,1.58,0v1.58a.79.79,0,0,1-1.58,0Zm-1.58,1.58A2.359,2.359,0,0,0,22.9,28.607a2.333,2.333,0,0,0,3.159,0,2.333,2.333,0,0,0,3.159,0,2.359,2.359,0,0,0,3.949-1.753H44.229v6.318h-1.58A2.359,2.359,0,0,0,38.7,31.418a2.333,2.333,0,0,0-3.159,0,2.333,2.333,0,0,0-3.159,0,2.359,2.359,0,0,0-3.949,1.753H17.376V26.853ZM39.49,33.172a.79.79,0,0,1,1.58,0v1.58a.79.79,0,1,1-1.58,0Zm-3.159,0a.79.79,0,0,1,1.58,0v1.58a.79.79,0,0,1-1.58,0Zm-3.159,0a.79.79,0,0,1,1.58,0v1.58a.79.79,0,1,1-1.58,0Zm-1.58,1.58a.79.79,0,0,1-1.58,0v-1.58a.79.79,0,0,1,1.58,0ZM17.376,48.968H12.637v-1.58h4.739Zm-3.159-3.159V22.114H15.8V45.809Zm7.108-2.369a.79.79,0,0,1-.79-.79V41.07a.79.79,0,0,1,1.58,0v1.58A.79.79,0,0,1,21.325,43.439Zm3.159,0a.79.79,0,0,1-.79-.79V41.07a.79.79,0,0,1,1.58,0v1.58A.79.79,0,0,1,24.484,43.439Zm3.159,0a.79.79,0,0,1-.79-.79V41.07a.79.79,0,0,1,1.58,0v1.58A.79.79,0,0,1,27.643,43.439Zm3.949-.79a.79.79,0,0,1-1.58,0V41.07a.79.79,0,1,1,1.58,0Zm1.58-1.58a2.359,2.359,0,0,0-3.949-1.753,2.333,2.333,0,0,0-3.159,0,2.333,2.333,0,0,0-3.159,0,2.359,2.359,0,0,0-3.949,1.753h-1.58V34.751H28.433A2.359,2.359,0,0,0,32.382,36.5a2.333,2.333,0,0,0,3.159,0,2.333,2.333,0,0,0,3.159,0,2.359,2.359,0,0,0,3.949-1.753h1.58V41.07ZM45.809,22.114h1.58V45.809h-1.58Zm3.159,26.853H44.229v-1.58h4.739Z" transform="translate(0 0)"/>
        <path id="Path_1040808" data-name="Path 1040808" d="M10,6h1.58V7.58H10Z" transform="translate(-2.102 -1.261)"/>
        <path id="Path_1040809" data-name="Path 1040809" d="M14,6h5.529V7.58H14Z" transform="translate(-2.943 -1.261)"/>
        <path id="Path_1040810" data-name="Path 1040810" d="M4,10H17.427v1.58H4Z" transform="translate(-0.841 -2.102)"/>
        <path id="Path_1040811" data-name="Path 1040811" d="M8.739,17.79a.79.79,0,0,0-.79-.79H4.79a.79.79,0,0,0-.79.79v3.159a.79.79,0,0,0,.79.79H7.949a.79.79,0,0,0,.79-.79Zm-1.58,2.369H5.58V18.58h1.58Z" transform="translate(-0.841 -3.573)"/>
        <path id="Path_1040812" data-name="Path 1040812" d="M8.739,25.79a.79.79,0,0,0-.79-.79H4.79a.79.79,0,0,0-.79.79v3.159a.79.79,0,0,0,.79.79H7.949a.79.79,0,0,0,.79-.79Zm-1.58,2.369H5.58V26.58h1.58Z" transform="translate(-0.841 -5.255)"/>
        <path id="Path_1040813" data-name="Path 1040813" d="M8.739,33.79a.79.79,0,0,0-.79-.79H4.79a.79.79,0,0,0-.79.79v3.159a.79.79,0,0,0,.79.79H7.949a.79.79,0,0,0,.79-.79Zm-1.58,2.369H5.58V34.58h1.58Z" transform="translate(-0.841 -6.937)"/>
        <path id="Path_1040814" data-name="Path 1040814" d="M7.949,41H4.79a.79.79,0,0,0-.79.79v3.159a.79.79,0,0,0,.79.79H7.949a.79.79,0,0,0,.79-.79V41.79A.79.79,0,0,0,7.949,41Zm-.79,3.159H5.58V42.58h1.58Z" transform="translate(-0.841 -8.618)"/>
        <path id="Path_1040815" data-name="Path 1040815" d="M12,17h1.58v1.58H12Z" transform="translate(-2.522 -3.573)"/>
        <path id="Path_1040816" data-name="Path 1040816" d="M16,17h3.949v1.58H16Z" transform="translate(-3.363 -3.573)"/>
        <path id="Path_1040817" data-name="Path 1040817" d="M12,21h7.108v1.58H12Z" transform="translate(-2.522 -4.414)"/>
        <path id="Path_1040818" data-name="Path 1040818" d="M27.79,16.9h5.529v-1.58H28.58v-1.58h3.949a.79.79,0,0,0,.79-.79V9.79a.79.79,0,0,0-.79-.79H27v1.58h4.739v1.58H27.79a.79.79,0,0,0-.79.79v3.159A.79.79,0,0,0,27.79,16.9Z" transform="translate(-5.675 -1.892)"/>
        <path id="Path_1040819" data-name="Path 1040819" d="M47.79,16.9h5.529v-1.58H48.58v-1.58h3.949a.79.79,0,0,0,.79-.79V9.79a.79.79,0,0,0-.79-.79H47v1.58h4.739v1.58H47.79a.79.79,0,0,0-.79.79v3.159A.79.79,0,0,0,47.79,16.9Z" transform="translate(-9.879 -1.892)"/>
        <path id="Path_1040820" data-name="Path 1040820" d="M39.369,16.318h1.58V13.949h2.369v-1.58H40.949V10h-1.58v2.369H37v1.58h2.369Z" transform="translate(-7.777 -2.102)"/>
      </g>
    </g>
  </g>
</svg>
