<svg xmlns="http://www.w3.org/2000/svg" xmlns:xlink="http://www.w3.org/1999/xlink" width="113" height="113" viewBox="0 0 113 113">
  <defs>
    <filter id="Trazado_982547" x="0" y="0" width="113" height="113" filterUnits="userSpaceOnUse">
      <feOffset dy="3" input="SourceAlpha"/>
      <feGaussianBlur stdDeviation="3" result="blur"/>
      <feFlood flood-opacity="0.161"/>
      <feComposite operator="in" in2="blur"/>
      <feComposite in="SourceGraphic"/>
    </filter>
  </defs>
  <g id="Grupo_1210866" data-name="Grupo 1210866" transform="translate(-795 -7014.521)">
    <g id="Grupo_1210857" data-name="Grupo 1210857" transform="translate(804 7020.521)">
      <g id="Grupo_1210835" data-name="Grupo 1210835" transform="translate(0)">
        <g id="Grupo_1202055" data-name="Grupo 1202055">
          <g id="Grupo_1177900" data-name="Grupo 1177900">
            <g id="Grupo_1172010" data-name="Grupo 1172010">
              <g id="Grupo_1171046" data-name="Grupo 1171046">
                <g id="Grupo_1148525" data-name="Grupo 1148525">
                  <g transform="matrix(1, 0, 0, 1, -9, -6)" filter="url(#Trazado_982547)">
                    <g id="Trazado_982547-2" data-name="Trazado 982547" transform="translate(9 6)" fill="#edf3fc">
                      <path d="M 47.5 93.5 C 41.28937149047852 93.5 35.26533508300781 92.28397369384766 29.59518623352051 89.88570404052734 C 24.11771965026855 87.56893157958984 19.19813346862793 84.25196075439453 14.97309303283691 80.02691650390625 C 10.74804019927979 75.80186462402344 7.431066513061523 70.88229370117188 5.114293098449707 65.40481567382812 C 2.716026782989502 59.73468017578125 1.5 53.71062850952148 1.5 47.5 C 1.5 41.28937149047852 2.716026782989502 35.26533508300781 5.114293098449707 29.59518623352051 C 7.431066513061523 24.11771965026855 10.74804019927979 19.19813346862793 14.97309303283691 14.97309303283691 C 19.19813346862793 10.74804019927979 24.11771965026855 7.431066513061523 29.59518623352051 5.114293098449707 C 35.26533508300781 2.716026782989502 41.28937149047852 1.5 47.5 1.5 C 53.71062850952148 1.5 59.73468017578125 2.716026782989502 65.40481567382812 5.114293098449707 C 70.88229370117188 7.431066513061523 75.80186462402344 10.74804019927979 80.02691650390625 14.97309303283691 C 84.25196075439453 19.19813346862793 87.56893157958984 24.11771965026855 89.88570404052734 29.59518623352051 C 92.28397369384766 35.26533508300781 93.5 41.28937149047852 93.5 47.5 C 93.5 53.71062850952148 92.28397369384766 59.73468017578125 89.88570404052734 65.40481567382812 C 87.56893157958984 70.88229370117188 84.25196075439453 75.80186462402344 80.02691650390625 80.02691650390625 C 75.80186462402344 84.25196075439453 70.88229370117188 87.56893157958984 65.40481567382812 89.88570404052734 C 59.73468017578125 92.28397369384766 53.71062850952148 93.5 47.5 93.5 Z" stroke="none"/>
                      <path d="M 47.5 3 C 41.49121475219727 3 35.66376876831055 4.176155090332031 30.17950439453125 6.495796203613281 C 24.88084411621094 8.736953735351562 20.12152099609375 11.94598388671875 16.03375244140625 16.03375244140625 C 11.94598388671875 20.12152099609375 8.736953735351562 24.88084411621094 6.495796203613281 30.17950439453125 C 4.176155090332031 35.66376876831055 3 41.49121475219727 3 47.5 C 3 53.50878524780273 4.176155090332031 59.33623123168945 6.495796203613281 64.82049560546875 C 8.736953735351562 70.11915588378906 11.94598388671875 74.87847900390625 16.03375244140625 78.96624755859375 C 20.12152099609375 83.05401611328125 24.88084411621094 86.26304626464844 30.17950439453125 88.50419616699219 C 35.66376876831055 90.82384490966797 41.49121475219727 92 47.5 92 C 53.50878524780273 92 59.33623123168945 90.82384490966797 64.82049560546875 88.50419616699219 C 70.11915588378906 86.26304626464844 74.87847900390625 83.05401611328125 78.96624755859375 78.96624755859375 C 83.05401611328125 74.87847900390625 86.26304626464844 70.11915588378906 88.50419616699219 64.82049560546875 C 90.82384490966797 59.33623123168945 92 53.50878524780273 92 47.5 C 92 41.49121475219727 90.82384490966797 35.66376876831055 88.50419616699219 30.17950439453125 C 86.26304626464844 24.88084411621094 83.05401611328125 20.12152099609375 78.96624755859375 16.03375244140625 C 74.87847900390625 11.94598388671875 70.11915588378906 8.736953735351562 64.82049560546875 6.495796203613281 C 59.33623123168945 4.176155090332031 53.50878524780273 3 47.5 3 M 47.5 0 C 73.7335205078125 0 95 21.2664794921875 95 47.5 C 95 73.7335205078125 73.7335205078125 95 47.5 95 C 21.2664794921875 95 0 73.7335205078125 0 47.5 C 0 21.2664794921875 21.2664794921875 0 47.5 0 Z" stroke="none" fill="#5692e8"/>
                    </g>
                  </g>
                </g>
              </g>
            </g>
          </g>
        </g>
      </g>
    </g>
    <g id="toy_7438814" transform="translate(815.469 7033.671)">
      <g id="Grupo_1210864" data-name="Grupo 1210864" transform="translate(1.045 6.199)">
        <rect id="Rectángulo_418007" data-name="Rectángulo 418007" width="44.154" height="44.154" transform="translate(15.563 3.025)" fill="#b6e6fa"/>
        <path id="Trazado_1041026" data-name="Trazado 1041026" d="M129,66.925h-3.287V37.716A3.287,3.287,0,0,1,129,34.429h0Z" transform="translate(-110.152 -30.905)" fill="#8ad8f6"/>
        <path id="Trazado_1041027" data-name="Trazado 1041027" d="M201.887,360.528v-3.287h33.967v.114a3.173,3.173,0,0,1-3.173,3.173Z" transform="translate(-176.815 -313.42)" fill="#8ad8f6"/>
        <rect id="Rectángulo_418008" data-name="Rectángulo 418008" width="14.045" height="14.045" transform="translate(21.653 8.489)" fill="#fcad42"/>
        <path id="Trazado_1041028" data-name="Trazado 1041028" d="M188.541,85.5v2.751H174.5V74.207h2.815V85.5Z" transform="translate(-152.843 -65.717)" fill="#f69500"/>
        <path id="Trazado_1041029" data-name="Trazado 1041029" d="M328.551,82.481h0a5.621,5.621,0,0,1-5.621-5.621h0a5.6,5.6,0,0,1,.579-2.485,7.022,7.022,0,0,0-6.5,7h0a7.023,7.023,0,0,0,7.023,7.023h0a7.022,7.022,0,0,0,7-6.5A5.6,5.6,0,0,1,328.551,82.481Z" transform="translate(-277.569 -65.864)" fill="#f88fa4"/>
        <path id="Trazado_1041030" data-name="Trazado 1041030" d="M184.8,244.888a6.992,6.992,0,0,1-3.278.81h0a7.023,7.023,0,0,1-7.023-7.023h0a7.023,7.023,0,0,1,7.023-7.023h0a7.023,7.023,0,0,1,7.023,7.023h0a7,7,0,0,1-2.132,5.039" transform="translate(-152.845 -203.509)" fill="#8ae897"/>
        <path id="Trazado_1041031" data-name="Trazado 1041031" d="M186.795,248.275c-.122.141-.252.276-.386.406l-1.613,1.173a7.024,7.024,0,1,1-6.353-12.527,7.024,7.024,0,0,0,8.351,10.948Z" transform="translate(-152.843 -208.475)" fill="#54e072"/>
        <path id="Trazado_1041032" data-name="Trazado 1041032" d="M331.019,242.259v-7.012l-6.515-3.506-6.515,3.506v7.012l6.515,3.506Z" transform="translate(-278.424 -203.586)" fill="#fcad42"/>
        <path id="Trazado_1041033" data-name="Trazado 1041033" d="M331.016,240.51v1.745l-6.168,3.318-.348.187-6.515-3.505v-7.012l.287-.155,6.228-3.352,1.343.723-4.762,2.563v5.334l5.111,2.75Z" transform="translate(-278.421 -203.583)" fill="#fcad42"/>
        <path id="Trazado_1041034" data-name="Trazado 1041034" d="M99.544,43.586V12.753A6.554,6.554,0,0,1,106.1,6.2h37.569a6.554,6.554,0,0,1,6.554,6.554V50.322a6.554,6.554,0,0,1-6.554,6.554H114.289l3.288-3.745H143.61a2.746,2.746,0,0,0,2.746-2.746V12.81a2.746,2.746,0,0,0-2.746-2.746H106.035a2.746,2.746,0,0,0-2.746,2.746V38.845" transform="translate(-87.248 -6.199)" fill="#b6e6fa"/>
        <path id="Trazado_1041035" data-name="Trazado 1041035" d="M30.181,292.306l10.054-10.054L25.7,267.719,20.422,273l-2-2a2.809,2.809,0,1,0-3.972,3.972l2,2-5.28,5.28,5.28,5.28,1.97-1.97a2.809,2.809,0,0,1,3.972,3.972l-1.97,1.97,5.28,5.28,3.053-3.053Z" transform="translate(-9.906 -235.073)" fill="#fde31d"/>
        <rect id="Rectángulo_418009" data-name="Rectángulo 418009" width="4.731" height="0.207" transform="translate(12.451 35.99) rotate(-45)" fill="#f7d700"/>
        <path id="Trazado_1041036" data-name="Trazado 1041036" d="M15.593,304.905l2.951,3.069L15.9,310.623l-5.6-5.718,2.6-2.6a2.039,2.039,0,0,0-1.206-3.386,2.668,2.668,0,0,0-1.654.5l-2.68,2.539-6.308-6.308,5.279-5.28-1.286-1.286a3.845,3.845,0,0,1-1.148-2.549,3.716,3.716,0,0,1,.6-2.2l.547-.545.662-.663h0a.936.936,0,0,1,1.323,0l.605.605,1.322,1.327-.537.537a1.109,1.109,0,0,0,0,1.568l1.88,1.881,1.324,1.323L10.3,291.7,6.34,295.653l1.308,1.308a5.618,5.618,0,0,1,7.944,7.944Z" transform="translate(-1.045 -248.321)" fill="#f7d700"/>
        <path id="Trazado_1041037" data-name="Trazado 1041037" d="M326.326,93.253a4.446,4.446,0,0,1-4.308-4.306,7.655,7.655,0,0,1,2.789-6.279,6.46,6.46,0,1,0,7.791,7.824S329.655,93.46,326.326,93.253Z" transform="translate(-280.066 -73.121)" fill="#f05475"/>
        <path id="Trazado_1041038" data-name="Trazado 1041038" d="M319.094,256.257v-6.78l-2.809,1.512v6.946l6.576,3.539,2.964-1.594Z" transform="translate(-276.933 -219.108)" fill="#f69500"/>
        <line id="Línea_1070" data-name="Línea 1070" y2="1.872" transform="translate(25.334 11.514)" fill="none" stroke="#fff" stroke-miterlimit="10" stroke-width="1.3"/>
        <line id="Línea_1071" data-name="Línea 1071" y2="1.872" transform="translate(43.119 15.259)" fill="none" stroke="#fff" stroke-miterlimit="10" stroke-width="1.3"/>
        <line id="Línea_1072" data-name="Línea 1072" x1="1.324" y2="1.324" transform="translate(15.065 37.391)" fill="none" stroke="#fff" stroke-miterlimit="10" stroke-width="1.3"/>
      </g>
      <g id="Grupo_1210865" data-name="Grupo 1210865" transform="translate(2.24 6.361)">
        <rect id="Rectángulo_418010" data-name="Rectángulo 418010" width="14.045" height="14.045" transform="translate(20.389 8.489)" fill="none" stroke="#000" stroke-miterlimit="10" stroke-width="1.3"/>
        <path id="Trazado_1041039" data-name="Trazado 1041039" d="M328,83.782h0a5.621,5.621,0,0,1-5.621-5.621h0a5.6,5.6,0,0,1,.579-2.485,7.022,7.022,0,0,0-6.5,7h0a7.023,7.023,0,0,0,7.023,7.023h0a7.022,7.022,0,0,0,7-6.5A5.6,5.6,0,0,1,328,83.782Z" transform="translate(-278.279 -67.165)" fill="none" stroke="#000" stroke-miterlimit="10" stroke-width="1.3"/>
        <path id="Trazado_1041040" data-name="Trazado 1041040" d="M184.246,246.189a6.992,6.992,0,0,1-3.278.81h0a7.023,7.023,0,0,1-7.023-7.023h0a7.023,7.023,0,0,1,7.023-7.023h0a7.023,7.023,0,0,1,7.023,7.023h0a7,7,0,0,1-2.132,5.039" transform="translate(-153.556 -204.81)" fill="none" stroke="#000" stroke-miterlimit="10" stroke-width="1.3"/>
        <path id="Trazado_1041041" data-name="Trazado 1041041" d="M330.465,243.56v-7.012l-6.515-3.506-6.515,3.506v7.012l6.515,3.506Z" transform="translate(-279.134 -204.887)" fill="none" stroke="#000" stroke-miterlimit="10" stroke-width="1.3"/>
        <path id="Trazado_1041042" data-name="Trazado 1041042" d="M128.991,67.24V41.205a2.746,2.746,0,0,1,2.746-2.746h37.575a2.746,2.746,0,0,1,2.746,2.746V78.78a2.746,2.746,0,0,1-2.746,2.746H143.279" transform="translate(-114.214 -34.594)" fill="none" stroke="#000" stroke-miterlimit="10" stroke-width="1.3"/>
        <line id="Línea_1073" data-name="Línea 1073" x1="19.896" transform="translate(25.777 50.677)" fill="none" stroke="#000" stroke-miterlimit="10" stroke-width="1.3"/>
        <line id="Línea_1074" data-name="Línea 1074" x1="1.872" transform="translate(47.546 50.677)" fill="none" stroke="#000" stroke-miterlimit="10" stroke-width="1.3"/>
        <path id="Trazado_1041043" data-name="Trazado 1041043" d="M98.991,39.575V14.054A6.554,6.554,0,0,1,105.545,7.5h37.569a6.554,6.554,0,0,1,6.554,6.554V51.623a6.554,6.554,0,0,1-6.554,6.554H139.25" transform="translate(-87.959 -7.5)" fill="none" stroke="#000" stroke-miterlimit="10" stroke-width="1.3"/>
        <path id="Trazado_1041044" data-name="Trazado 1041044" d="M29.628,293.607l10.054-10.054L25.149,269.02l-5.28,5.28-2-2A2.809,2.809,0,0,0,13.9,276.27l2,2-5.28,5.28,5.28,5.28,1.97-1.97a2.809,2.809,0,0,1,3.972,3.972l-1.97,1.97,5.28,5.28,3.053-3.053" transform="translate(-10.617 -236.374)" fill="none" stroke="#000" stroke-miterlimit="10" stroke-width="1.3"/>
      </g>
    </g>
  </g>
</svg>
