<svg xmlns="http://www.w3.org/2000/svg" xmlns:xlink="http://www.w3.org/1999/xlink" width="113" height="113" viewBox="0 0 113 113">
  <defs>
    <filter id="Trazado_982547" x="0" y="0" width="113" height="113" filterUnits="userSpaceOnUse">
      <feOffset dy="3" input="SourceAlpha"/>
      <feGaussianBlur stdDeviation="3" result="blur"/>
      <feFlood flood-opacity="0.161"/>
      <feComposite operator="in" in2="blur"/>
      <feComposite in="SourceGraphic"/>
    </filter>
  </defs>
  <g id="Grupo_1210875" data-name="Grupo 1210875" transform="translate(-4471.85 -7014.521)">
    <g id="Grupo_1210858" data-name="Grupo 1210858" transform="translate(4480.85 7020.521)">
      <g id="Grupo_1210834" data-name="Grupo 1210834" transform="translate(0)">
        <g id="Grupo_1202055" data-name="Grupo 1202055">
          <g id="Grupo_1177900" data-name="Grupo 1177900">
            <g id="Grupo_1172010" data-name="Grupo 1172010">
              <g id="Grupo_1171046" data-name="Grupo 1171046">
                <g id="Grupo_1148525" data-name="Grupo 1148525">
                  <g transform="matrix(1, 0, 0, 1, -9, -6)" filter="url(#Trazado_982547)">
                    <g id="Trazado_982547-2" data-name="Trazado 982547" transform="translate(9 6)" fill="#edf3fc">
                      <path d="M 47.5 93.5 C 41.28937149047852 93.5 35.26533508300781 92.28397369384766 29.59518623352051 89.88570404052734 C 24.11771965026855 87.56893157958984 19.19813346862793 84.25196075439453 14.97309303283691 80.02691650390625 C 10.74804019927979 75.80186462402344 7.431066513061523 70.88229370117188 5.114293098449707 65.40481567382812 C 2.716026782989502 59.73468017578125 1.5 53.71062850952148 1.5 47.5 C 1.5 41.28937149047852 2.716026782989502 35.26533508300781 5.114293098449707 29.59518623352051 C 7.431066513061523 24.11771965026855 10.74804019927979 19.19813346862793 14.97309303283691 14.97309303283691 C 19.19813346862793 10.74804019927979 24.11771965026855 7.431066513061523 29.59518623352051 5.114293098449707 C 35.26533508300781 2.716026782989502 41.28937149047852 1.5 47.5 1.5 C 53.71062850952148 1.5 59.73468017578125 2.716026782989502 65.40481567382812 5.114293098449707 C 70.88229370117188 7.431066513061523 75.80186462402344 10.74804019927979 80.02691650390625 14.97309303283691 C 84.25196075439453 19.19813346862793 87.56893157958984 24.11771965026855 89.88570404052734 29.59518623352051 C 92.28397369384766 35.26533508300781 93.5 41.28937149047852 93.5 47.5 C 93.5 53.71062850952148 92.28397369384766 59.73468017578125 89.88570404052734 65.40481567382812 C 87.56893157958984 70.88229370117188 84.25196075439453 75.80186462402344 80.02691650390625 80.02691650390625 C 75.80186462402344 84.25196075439453 70.88229370117188 87.56893157958984 65.40481567382812 89.88570404052734 C 59.73468017578125 92.28397369384766 53.71062850952148 93.5 47.5 93.5 Z" stroke="none"/>
                      <path d="M 47.5 3 C 41.49121475219727 3 35.66376876831055 4.176155090332031 30.17950439453125 6.495796203613281 C 24.88084411621094 8.736953735351562 20.12152099609375 11.94598388671875 16.03375244140625 16.03375244140625 C 11.94598388671875 20.12152099609375 8.736953735351562 24.88084411621094 6.495796203613281 30.17950439453125 C 4.176155090332031 35.66376876831055 3 41.49121475219727 3 47.5 C 3 53.50878524780273 4.176155090332031 59.33623123168945 6.495796203613281 64.82049560546875 C 8.736953735351562 70.11915588378906 11.94598388671875 74.87847900390625 16.03375244140625 78.96624755859375 C 20.12152099609375 83.05401611328125 24.88084411621094 86.26304626464844 30.17950439453125 88.50419616699219 C 35.66376876831055 90.82384490966797 41.49121475219727 92 47.5 92 C 53.50878524780273 92 59.33623123168945 90.82384490966797 64.82049560546875 88.50419616699219 C 70.11915588378906 86.26304626464844 74.87847900390625 83.05401611328125 78.96624755859375 78.96624755859375 C 83.05401611328125 74.87847900390625 86.26304626464844 70.11915588378906 88.50419616699219 64.82049560546875 C 90.82384490966797 59.33623123168945 92 53.50878524780273 92 47.5 C 92 41.49121475219727 90.82384490966797 35.66376876831055 88.50419616699219 30.17950439453125 C 86.26304626464844 24.88084411621094 83.05401611328125 20.12152099609375 78.96624755859375 16.03375244140625 C 74.87847900390625 11.94598388671875 70.11915588378906 8.736953735351562 64.82049560546875 6.495796203613281 C 59.33623123168945 4.176155090332031 53.50878524780273 3 47.5 3 M 47.5 0 C 73.7335205078125 0 95 21.2664794921875 95 47.5 C 95 73.7335205078125 73.7335205078125 95 47.5 95 C 21.2664794921875 95 0 73.7335205078125 0 47.5 C 0 21.2664794921875 21.2664794921875 0 47.5 0 Z" stroke="none" fill="#5692e8"/>
                    </g>
                  </g>
                </g>
              </g>
            </g>
          </g>
        </g>
      </g>
    </g>
    <g id="player_3058350" transform="translate(4466.096 7005.686)">
      <g id="Grupo_1210868" data-name="Grupo 1210868" transform="translate(37.557 40.685)">
        <path id="Trazado_1041077" data-name="Trazado 1041077" d="M61.889,86.692H85.483v25.739H61.889Z" transform="translate(-60.817 -85.62)" fill="#fc8c29"/>
        <path id="Trazado_1041078" data-name="Trazado 1041078" d="M82.555,110.576H58.961a1.072,1.072,0,0,1-1.072-1.072V83.764a1.072,1.072,0,0,1,1.072-1.072H82.555a1.072,1.072,0,0,1,1.072,1.072V109.5A1.072,1.072,0,0,1,82.555,110.576Zm-22.521-2.145H81.483V84.837H60.034Z" transform="translate(-57.889 -82.692)"/>
      </g>
      <g id="Grupo_1210869" data-name="Grupo 1210869" transform="translate(61.151 40.685)">
        <path id="Trazado_1041079" data-name="Trazado 1041079" d="M149.889,86.692h23.594v25.739H149.889Z" transform="translate(-148.817 -85.62)" fill="#a9ba5a"/>
        <path id="Trazado_1041080" data-name="Trazado 1041080" d="M170.555,110.576H146.961a1.072,1.072,0,0,1-1.072-1.072V83.764a1.072,1.072,0,0,1,1.072-1.072h23.594a1.072,1.072,0,0,1,1.072,1.072V109.5A1.072,1.072,0,0,1,170.555,110.576Zm-22.521-2.145h21.449V84.837H148.034Z" transform="translate(-145.889 -82.692)"/>
      </g>
      <g id="Grupo_1210870" data-name="Grupo 1210870" transform="translate(80.499 51.008)">
        <path id="Trazado_1041081" data-name="Trazado 1041081" d="M233.806,164.2s-.492-16.067-.492-17.946v-8.049a12.371,12.371,0,0,0-3.125-8.219l-3.84-4.8V138.33l-4.3.371v6.16a5.211,5.211,0,0,0,4.145,5.1L224.714,164.2" transform="translate(-220.981 -124.12)" fill="#e7d1c4"/>
        <path id="Trazado_1041082" data-name="Trazado 1041082" d="M221.788,162.347c-.037,0-.074,0-.112-.006a1.071,1.071,0,0,1-.955-1.178l1.391-13.355a6.316,6.316,0,0,1-4.058-5.876v-6.16a1.071,1.071,0,0,1,.98-1.068l3.316-.287V122.264a1.072,1.072,0,0,1,1.909-.67l3.839,4.8a13.39,13.39,0,0,1,3.361,8.89v8.049c0,1.841.487,17.753.492,17.913a1.073,1.073,0,0,1-2.145.066c-.02-.657-.492-16.1-.492-17.979V135.28a11.29,11.29,0,0,0-2.854-7.507l-1.966-2.454V135.4a1.071,1.071,0,0,1-.98,1.068l-3.316.287v5.176a4.156,4.156,0,0,0,3.293,4.051,1.072,1.072,0,0,1,.846,1.161l-1.484,14.241a1.071,1.071,0,0,1-1.065.962Z" transform="translate(-218.053 -121.192)"/>
      </g>
      <g id="Grupo_1210871" data-name="Grupo 1210871" transform="translate(79.656 57.941)">
        <path id="Trazado_1041083" data-name="Trazado 1041083" d="M225.632,159.358l-3.716-7.432a1.586,1.586,0,0,0-2.981.98l.819,4.72v4.821" transform="translate(-217.839 -149.977)" fill="#e7d1c4"/>
        <path id="Trazado_1041084" data-name="Trazado 1041084" d="M216.824,160.594a1.072,1.072,0,0,1-1.072-1.072v-4.729l-.8-4.629a2.658,2.658,0,0,1,5-1.643l3.717,7.432a1.073,1.073,0,0,1-1.919.959l-3.717-7.432a.513.513,0,0,0-.964.318l.819,4.719a1.077,1.077,0,0,1,.016.183v4.821A1.073,1.073,0,0,1,216.824,160.594Z" transform="translate(-214.908 -147.052)"/>
      </g>
      <g id="Grupo_1210872" data-name="Grupo 1210872" transform="translate(30.109 51.008)">
        <path id="Trazado_1041085" data-name="Trazado 1041085" d="M34.112,164.2s.492-16.067.492-17.946v-8.049a12.371,12.371,0,0,1,3.125-8.219l3.84-4.8V138.33l4.3.371v6.16a5.211,5.211,0,0,1-4.145,5.1L43.2,164.2" transform="translate(-33.039 -124.12)" fill="#e7d1c4"/>
        <path id="Trazado_1041086" data-name="Trazado 1041086" d="M40.274,162.348a1.072,1.072,0,0,1-1.065-.961l-1.485-14.241a1.071,1.071,0,0,1,.846-1.161,4.156,4.156,0,0,0,3.293-4.051v-5.176l-3.316-.287a1.072,1.072,0,0,1-.98-1.068V125.321l-1.93,2.41a11.336,11.336,0,0,0-2.889,7.549v8.049c0,1.874-.472,17.322-.492,17.979a1.073,1.073,0,0,1-2.145-.066c.005-.16.492-16.071.492-17.913V135.28a13.434,13.434,0,0,1,3.4-8.932l3.8-4.753a1.072,1.072,0,0,1,1.909.67v12.154l3.316.287a1.072,1.072,0,0,1,.98,1.068v6.16a6.315,6.315,0,0,1-4.058,5.875l1.392,13.355a1.072,1.072,0,0,1-.955,1.178A1.052,1.052,0,0,1,40.274,162.348Z" transform="translate(-30.109 -121.193)"/>
      </g>
      <g id="Grupo_1210873" data-name="Grupo 1210873" transform="translate(35.985 57.941)">
        <path id="Trazado_1041087" data-name="Trazado 1041087" d="M56.025,159.358l3.716-7.432a1.586,1.586,0,0,1,2.981.98l-.819,4.72v4.821" transform="translate(-54.953 -149.978)" fill="#e7d1c4"/>
        <path id="Trazado_1041088" data-name="Trazado 1041088" d="M58.975,160.594a1.072,1.072,0,0,1-1.072-1.072V154.7a1.077,1.077,0,0,1,.016-.183l.819-4.72a.513.513,0,0,0-.964-.317l-3.716,7.432a1.073,1.073,0,1,1-1.919-.959l3.716-7.432a2.658,2.658,0,0,1,5,1.643l-.8,4.629v4.729A1.073,1.073,0,0,1,58.975,160.594Z" transform="translate(-52.026 -147.053)"/>
      </g>
      <g id="Grupo_1210874" data-name="Grupo 1210874" transform="translate(43.992 25.297)">
        <path id="Trazado_1041089" data-name="Trazado 1041089" d="M148.339,234.215a1.069,1.069,0,0,1-.758-.314l-3.033-3.033a1.072,1.072,0,0,1,1.516-1.516l3.033,3.033a1.072,1.072,0,0,1-.758,1.831Z" transform="translate(-127.518 -174.412)"/>
        <path id="Trazado_1041090" data-name="Trazado 1041090" d="M145.3,234.215a1.072,1.072,0,0,1-.758-1.831l3.033-3.033a1.072,1.072,0,0,1,1.516,1.516l-3.033,3.033A1.069,1.069,0,0,1,145.3,234.215Z" transform="translate(-127.517 -174.412)"/>
        <path id="Trazado_1041091" data-name="Trazado 1041091" d="M105.643,218.2a3.754,3.754,0,1,1,3.754-3.754A3.758,3.758,0,0,1,105.643,218.2Zm0-5.362a1.609,1.609,0,1,0,1.609,1.609A1.61,1.61,0,0,0,105.643,212.837Z" transform="translate(-96.527 -160.985)"/>
        <path id="Trazado_1041092" data-name="Trazado 1041092" d="M189.532,215.739a1.147,1.147,0,1,1-1.334-.921A1.147,1.147,0,0,1,189.532,215.739Z" transform="translate(-159.007 -163.991)"/>
        <path id="Trazado_1041093" data-name="Trazado 1041093" d="M184.128,122.2h-3.9a2.344,2.344,0,0,1-2.341-2.341v-2.826a2.344,2.344,0,0,1,2.341-2.341h3.9a2.344,2.344,0,0,1,2.341,2.341v2.826A2.343,2.343,0,0,1,184.128,122.2Zm-3.9-5.362a.2.2,0,0,0-.2.2v2.826a.2.2,0,0,0,.2.2h3.9a.2.2,0,0,0,.2-.2v-2.826a.2.2,0,0,0-.2-.2Z" transform="translate(-152.15 -90.725)"/>
        <path id="Trazado_1041094" data-name="Trazado 1041094" d="M184.128,143.272h-3.9a2.344,2.344,0,0,1-2.341-2.341v-3.9a2.344,2.344,0,0,1,2.341-2.341h3.9a2.344,2.344,0,0,1,2.341,2.341v3.9A2.343,2.343,0,0,1,184.128,143.272Zm-3.9-6.435a.2.2,0,0,0-.2.2v3.9a.2.2,0,0,0,.2.2h3.9a.2.2,0,0,0,.2-.2v-3.9a.2.2,0,0,0-.2-.2Z" transform="translate(-152.15 -105.363)"/>
        <path id="Trazado_1041095" data-name="Trazado 1041095" d="M86.179,128.635a1.072,1.072,0,0,1-1.072-1.072V117.253l-1.805.6a1.073,1.073,0,0,1-.679-2.035l3.217-1.072a1.073,1.073,0,0,1,1.412,1.017v11.8a1.072,1.072,0,0,1-1.072,1.072Z" transform="translate(-81.889 -90.725)"/>
        <path id="Trazado_1041096" data-name="Trazado 1041096" d="M110.179,128.635a1.072,1.072,0,0,1-1.072-1.072V117.253l-1.805.6a1.073,1.073,0,0,1-.679-2.035l3.217-1.072a1.073,1.073,0,0,1,1.412,1.017v11.8a1.072,1.072,0,0,1-1.072,1.072Z" transform="translate(-99.454 -90.725)"/>
        <path id="Trazado_1041097" data-name="Trazado 1041097" d="M132.06,39.558A7.087,7.087,0,0,1,129.285,39a1.072,1.072,0,0,1,.836-1.975,4.987,4.987,0,1,0-3.046-4.595,1.072,1.072,0,1,1-2.145,0,7.131,7.131,0,1,1,7.13,7.131Z" transform="translate(-113.39 -25.297)"/>
        <path id="Trazado_1041098" data-name="Trazado 1041098" d="M120.333,45.819a1.071,1.071,0,0,1-.856-.426l-1.759-2.327a1.073,1.073,0,0,1,1.711-1.294l1.291,1.709,1.9-.645a1.072,1.072,0,1,1,.689,2.031l-2.635.894A1.052,1.052,0,0,1,120.333,45.819Z" transform="translate(-107.954 -37.044)"/>
        <path id="Trazado_1041099" data-name="Trazado 1041099" d="M181.686,96.837H170.961a1.072,1.072,0,0,1,0-2.145h10.724a1.072,1.072,0,1,1,0,2.145Z" transform="translate(-146.295 -76.086)"/>
        <path id="Trazado_1041100" data-name="Trazado 1041100" d="M86.179,96.837H82.961a1.072,1.072,0,0,1,0-2.145h3.217a1.072,1.072,0,0,1,0,2.145Z" transform="translate(-81.889 -76.086)"/>
        <path id="Trazado_1041101" data-name="Trazado 1041101" d="M112.324,96.837h-5.362a1.072,1.072,0,0,1,0-2.145h5.362a1.072,1.072,0,1,1,0,2.145Z" transform="translate(-99.454 -76.086)"/>
      </g>
    </g>
  </g>
</svg>
