<svg xmlns="http://www.w3.org/2000/svg" xmlns:xlink="http://www.w3.org/1999/xlink" width="113" height="113" viewBox="0 0 113 113">
  <defs>
    <filter id="Trazado_982547" x="0" y="0" width="113" height="113" filterUnits="userSpaceOnUse">
      <feOffset dy="3" input="SourceAlpha"/>
      <feGaussianBlur stdDeviation="3" result="blur"/>
      <feFlood flood-opacity="0.161"/>
      <feComposite operator="in" in2="blur"/>
      <feComposite in="SourceGraphic"/>
    </filter>
  </defs>
  <g id="Grupo_1210863" data-name="Grupo 1210863" transform="translate(9 6)">
    <g id="Grupo_1210834" data-name="Grupo 1210834" transform="translate(0)">
      <g id="Grupo_1202055" data-name="Grupo 1202055">
        <g id="Grupo_1177900" data-name="Grupo 1177900">
          <g id="Grupo_1172010" data-name="Grupo 1172010">
            <g id="Grupo_1171046" data-name="Grupo 1171046">
              <g id="Grupo_1148525" data-name="Grupo 1148525">
                <g transform="matrix(1, 0, 0, 1, -9, -6)" filter="url(#Trazado_982547)">
                  <g id="Trazado_982547-2" data-name="Trazado 982547" transform="translate(9 6)" fill="#edf3fc">
                    <path d="M 47.5 93.5 C 41.28937149047852 93.5 35.26533508300781 92.28397369384766 29.59518623352051 89.88570404052734 C 24.11771965026855 87.56893157958984 19.19813346862793 84.25196075439453 14.97309303283691 80.02691650390625 C 10.74804019927979 75.80186462402344 7.431066513061523 70.88229370117188 5.114293098449707 65.40481567382812 C 2.716026782989502 59.73468017578125 1.5 53.71062850952148 1.5 47.5 C 1.5 41.28937149047852 2.716026782989502 35.26533508300781 5.114293098449707 29.59518623352051 C 7.431066513061523 24.11771965026855 10.74804019927979 19.19813346862793 14.97309303283691 14.97309303283691 C 19.19813346862793 10.74804019927979 24.11771965026855 7.431066513061523 29.59518623352051 5.114293098449707 C 35.26533508300781 2.716026782989502 41.28937149047852 1.5 47.5 1.5 C 53.71062850952148 1.5 59.73468017578125 2.716026782989502 65.40481567382812 5.114293098449707 C 70.88229370117188 7.431066513061523 75.80186462402344 10.74804019927979 80.02691650390625 14.97309303283691 C 84.25196075439453 19.19813346862793 87.56893157958984 24.11771965026855 89.88570404052734 29.59518623352051 C 92.28397369384766 35.26533508300781 93.5 41.28937149047852 93.5 47.5 C 93.5 53.71062850952148 92.28397369384766 59.73468017578125 89.88570404052734 65.40481567382812 C 87.56893157958984 70.88229370117188 84.25196075439453 75.80186462402344 80.02691650390625 80.02691650390625 C 75.80186462402344 84.25196075439453 70.88229370117188 87.56893157958984 65.40481567382812 89.88570404052734 C 59.73468017578125 92.28397369384766 53.71062850952148 93.5 47.5 93.5 Z" stroke="none"/>
                    <path d="M 47.5 3 C 41.49121475219727 3 35.66376876831055 4.176155090332031 30.17950439453125 6.495796203613281 C 24.88084411621094 8.736953735351562 20.12152099609375 11.94598388671875 16.03375244140625 16.03375244140625 C 11.94598388671875 20.12152099609375 8.736953735351562 24.88084411621094 6.495796203613281 30.17950439453125 C 4.176155090332031 35.66376876831055 3 41.49121475219727 3 47.5 C 3 53.50878524780273 4.176155090332031 59.33623123168945 6.495796203613281 64.82049560546875 C 8.736953735351562 70.11915588378906 11.94598388671875 74.87847900390625 16.03375244140625 78.96624755859375 C 20.12152099609375 83.05401611328125 24.88084411621094 86.26304626464844 30.17950439453125 88.50419616699219 C 35.66376876831055 90.82384490966797 41.49121475219727 92 47.5 92 C 53.50878524780273 92 59.33623123168945 90.82384490966797 64.82049560546875 88.50419616699219 C 70.11915588378906 86.26304626464844 74.87847900390625 83.05401611328125 78.96624755859375 78.96624755859375 C 83.05401611328125 74.87847900390625 86.26304626464844 70.11915588378906 88.50419616699219 64.82049560546875 C 90.82384490966797 59.33623123168945 92 53.50878524780273 92 47.5 C 92 41.49121475219727 90.82384490966797 35.66376876831055 88.50419616699219 30.17950439453125 C 86.26304626464844 24.88084411621094 83.05401611328125 20.12152099609375 78.96624755859375 16.03375244140625 C 74.87847900390625 11.94598388671875 70.11915588378906 8.736953735351562 64.82049560546875 6.495796203613281 C 59.33623123168945 4.176155090332031 53.50878524780273 3 47.5 3 M 47.5 0 C 73.7335205078125 0 95 21.2664794921875 95 47.5 C 95 73.7335205078125 73.7335205078125 95 47.5 95 C 21.2664794921875 95 0 73.7335205078125 0 47.5 C 0 21.2664794921875 21.2664794921875 0 47.5 0 Z" stroke="none" fill="#5692e8"/>
                  </g>
                </g>
              </g>
            </g>
          </g>
        </g>
      </g>
    </g>
    <g id="composer_11941411" transform="translate(-18.419 6.364)">
      <g id="Grupo_1202407" data-name="Grupo 1202407" transform="translate(37.616 7.499)">
        <path id="Trazado_1040846" data-name="Trazado 1040846" d="M129.463,52.366H86.24c0-9.7,9-17.634,20.35-18.185q.626-.031,1.262-.031C119.788,34.15,129.463,42.306,129.463,52.366Z" transform="translate(-80.049 -30.757)" fill="#6e768f"/>
        <path id="Trazado_1040847" data-name="Trazado 1040847" d="M106.59,34.39A29.9,29.9,0,0,0,99.72,52.575H86.24C86.24,42.871,95.241,34.941,106.59,34.39Z" transform="translate(-80.049 -30.966)" fill="#565e75"/>
        <path id="Trazado_1040848" data-name="Trazado 1040848" d="M129.463,299.651h-7.67V303.5a3.82,3.82,0,0,1-3.82,3.82H97.73a3.82,3.82,0,0,1-3.82-3.82v-3.849H86.24a23.594,23.594,0,0,1,6.327-14.367,20.613,20.613,0,0,1,15.285-6.726C120.683,278.559,128.846,289.763,129.463,299.651Z" transform="translate(-80.049 -244.045)" fill="#a8c9ed"/>
        <path id="Trazado_1040849" data-name="Trazado 1040849" d="M104.337,306.8a2.748,2.748,0,0,0,1.165,2.273H97.73a3.82,3.82,0,0,1-3.82-3.82v-3.849H86.24a23.594,23.594,0,0,1,6.327-14.367,20.875,20.875,0,0,1,11.995-6.47c1.271,2.706,2.995,6.449,2.995,6.449s-3.219,1.859-3.219,6.717Z" transform="translate(-80.049 -245.799)" fill="#7fb0e4"/>
        <path id="Trazado_1040850" data-name="Trazado 1040850" d="M137.7,154.127l-.3-.005A17.438,17.438,0,0,1,120.445,136.6a18.112,18.112,0,0,1,.469-3.773,3.846,3.846,0,0,1,2.055-2.594,19.63,19.63,0,0,1,7.4-1.91,20.814,20.814,0,0,1,6.4.624,3.787,3.787,0,0,0,1.864,0,20.114,20.114,0,0,1,13.8,1.286,3.846,3.846,0,0,1,2.055,2.594,18.111,18.111,0,0,1,.469,3.773A17.438,17.438,0,0,1,137.7,154.127Z" transform="translate(-109.897 -112.903)" fill="#ffd4bd"/>
        <path id="Trazado_1040851" data-name="Trazado 1040851" d="M137.4,154.373a17.438,17.438,0,0,1-16.959-17.527,18.112,18.112,0,0,1,.469-3.773,3.846,3.846,0,0,1,2.055-2.594,19.63,19.63,0,0,1,7.4-1.91C128.656,135.451,129.128,144.638,137.4,154.373Z" transform="translate(-109.897 -113.154)" fill="#ffbf9d"/>
        <path id="Trazado_1040852" data-name="Trazado 1040852" d="M115.667,31.468v.959h-3.835v-.959A20.133,20.133,0,0,0,91.846,11.334q-.917-.006-1.813.07A20.35,20.35,0,0,0,71.565,31.647v.779H67.73v-.959A23.97,23.97,0,0,1,90,7.559q.84-.059,1.695-.06a23.969,23.969,0,0,1,23.969,23.969Z" transform="translate(-63.896 -7.499)" fill="#fad989"/>
        <path id="Trazado_1040853" data-name="Trazado 1040853" d="M90.033,11.814A20.35,20.35,0,0,0,71.565,32.057v.779H67.73v-.959A23.97,23.97,0,0,1,90,7.969,3.373,3.373,0,0,0,90.033,11.814Z" transform="translate(-63.896 -7.909)" fill="#f6ca56"/>
        <path id="Trazado_1040854" data-name="Trazado 1040854" d="M392.97,155.63h0a6.712,6.712,0,0,1-6.712,6.712h-.379a1.911,1.911,0,0,1-1.88-2.247,29.234,29.234,0,0,0,0-8.928,1.911,1.911,0,0,1,1.88-2.247h.379A6.712,6.712,0,0,1,392.97,155.63Z" transform="translate(-339.868 -130.911)" fill="#fbf198"/>
        <path id="Trazado_1040855" data-name="Trazado 1040855" d="M57.284,155.63h0A6.712,6.712,0,0,0,64,162.341h.379a1.911,1.911,0,0,0,1.88-2.247,29.23,29.23,0,0,1,0-8.928,1.911,1.911,0,0,0-1.88-2.247H64A6.712,6.712,0,0,0,57.284,155.63Z" transform="translate(-54.78 -130.911)" fill="#fad989"/>
        <path id="Trazado_1040856" data-name="Trazado 1040856" d="M147.775,287.975a7.61,7.61,0,0,1-1.538,2.991l-12.388,14.786-5.879-4.926,12.388-14.784a7.62,7.62,0,0,1,2.676-2.04Z" transform="translate(-116.465 -248.794)" fill="#fffae6"/>
        <path id="Trazado_1040857" data-name="Trazado 1040857" d="M251.95,272.582a1.571,1.571,0,0,1-.042.359l-.851,3.57c-.012.048-.023.1-.037.144h0a9.464,9.464,0,0,1-4.741-3.974c.045-.022.089-.042.135-.061l3.365-1.462a1.551,1.551,0,0,1,2.17,1.422Z" transform="translate(-219.711 -237.476)" fill="#fff0ce"/>
        <path id="Trazado_1040858" data-name="Trazado 1040858" d="M139.937,385.225l-.159,5.374,3.4,3.649,2.707-.972a4.794,4.794,0,0,0,2.891-6.132h0a4.794,4.794,0,0,0-6.132-2.891Z" transform="translate(-126.77 -336.034)" fill="#ffbf9d"/>
        <path id="Trazado_1040859" data-name="Trazado 1040859" d="M37.968,403.529h0a5.924,5.924,0,0,0,8.254,3.282l7.8-3.955-3.241-9.023-8.536,1.913A5.924,5.924,0,0,0,37.968,403.529Z" transform="translate(-37.616 -344.64)" fill="#4f96d9"/>
        <path id="Trazado_1040860" data-name="Trazado 1040860" d="M329.771,297.44v19.2a3.82,3.82,0,0,1-3.82,3.82H312.5a3.82,3.82,0,0,1-3.82-3.82v-19.2a3.82,3.82,0,0,1,3.82-3.82h13.451A3.82,3.82,0,0,1,329.771,297.44Z" transform="translate(-274.165 -257.188)" fill="#6e768f"/>
        <path id="Trazado_1040861" data-name="Trazado 1040861" d="M319.086,320.464H312.5a3.82,3.82,0,0,1-3.82-3.82v-19.2a3.82,3.82,0,0,1,3.82-3.82h6.176a3.643,3.643,0,0,0-1.322,3.179v20.762A3.128,3.128,0,0,0,319.086,320.464Z" transform="translate(-274.165 -257.188)" fill="#565e75"/>
        <path id="Trazado_1040862" data-name="Trazado 1040862" d="M352.213,446.126a1.917,1.917,0,0,1-1.918,1.918h-9.588a1.917,1.917,0,1,1,0-3.834H350.3A1.918,1.918,0,0,1,352.213,446.126Z" transform="translate(-300.442 -388.604)" fill="#fffae6"/>
        <path id="Trazado_1040863" data-name="Trazado 1040863" d="M340.707,444.21h2.922v3.834h-2.922a1.917,1.917,0,1,1,0-3.834Z" transform="translate(-300.441 -388.604)" fill="#fff0ce"/>
        <path id="Trazado_1040864" data-name="Trazado 1040864" d="M352.213,385.888a1.917,1.917,0,0,1-1.918,1.918h-9.588a1.918,1.918,0,1,1,0-3.835H350.3A1.918,1.918,0,0,1,352.213,385.888Z" transform="translate(-300.442 -336.034)" fill="#fffae6"/>
        <path id="Trazado_1040865" data-name="Trazado 1040865" d="M340.707,383.97h2.922v3.835h-2.922a1.918,1.918,0,1,1,0-3.835Z" transform="translate(-300.441 -336.034)" fill="#fff0ce"/>
        <path id="Trazado_1040866" data-name="Trazado 1040866" d="M352.213,325.648a1.917,1.917,0,0,1-1.918,1.918h-9.588a1.918,1.918,0,1,1,0-3.835H350.3A1.919,1.919,0,0,1,352.213,325.648Z" transform="translate(-300.442 -283.464)" fill="#fffae6"/>
        <path id="Trazado_1040867" data-name="Trazado 1040867" d="M343.63,323.73v3.835h-2.922a1.918,1.918,0,1,1,0-3.835Z" transform="translate(-300.442 -283.464)" fill="#fff0ce"/>
        <g id="Grupo_1202406" data-name="Grupo 1202406" transform="translate(13.935 24.426)">
          <g id="Grupo_1202405" data-name="Grupo 1202405">
            <ellipse id="Elipse_12564" data-name="Elipse 12564" cx="3.738" cy="2.977" rx="3.738" ry="2.977" fill="#ffa1ac"/>
            <ellipse id="Elipse_12565" data-name="Elipse 12565" cx="3.738" cy="2.977" rx="3.738" ry="2.977" transform="translate(20.26)" fill="#ffa1ac"/>
          </g>
        </g>
      </g>
      <g id="Grupo_1202409" data-name="Grupo 1202409" transform="translate(37.617 7.499)">
        <path id="Trazado_1040868" data-name="Trazado 1040868" d="M146.52,475.79a3.818,3.818,0,0,0,3.815,3.648h20.243" transform="translate(-132.654 -416.163)" fill="none" stroke="#000" stroke-linecap="round" stroke-linejoin="round" stroke-miterlimit="10" stroke-width="1"/>
        <path id="Trazado_1040869" data-name="Trazado 1040869" d="M93.67,314.922a26.17,26.17,0,0,1,2.819-5.782,21.48,21.48,0,0,1,7.1-7.15" transform="translate(-86.533 -264.493)" fill="none" stroke="#000" stroke-linecap="round" stroke-linejoin="round" stroke-miterlimit="10" stroke-width="1"/>
        <path id="Trazado_1040870" data-name="Trazado 1040870" d="M126.96,131.868a3.825,3.825,0,0,1,1.7-1.639,20.114,20.114,0,0,1,13.8-1.286,3.787,3.787,0,0,0,1.864,0,20.114,20.114,0,0,1,13.8,1.286,3.825,3.825,0,0,1,1.7,1.639" transform="translate(-115.584 -112.903)" fill="none" stroke="#000" stroke-linecap="round" stroke-linejoin="round" stroke-miterlimit="10" stroke-width="1"/>
        <path id="Trazado_1040871" data-name="Trazado 1040871" d="M354.1,241.87a17.424,17.424,0,0,1-4.244,6.462" transform="translate(-310.102 -212.028)" fill="none" stroke="#000" stroke-linecap="round" stroke-linejoin="round" stroke-miterlimit="10" stroke-width="1"/>
        <path id="Trazado_1040872" data-name="Trazado 1040872" d="M282.383,320.49a17.21,17.21,0,0,1-3.7,1.1" transform="translate(-247.986 -280.637)" fill="none" stroke="#000" stroke-linecap="round" stroke-linejoin="round" stroke-miterlimit="10" stroke-width="1"/>
        <path id="Trazado_1040873" data-name="Trazado 1040873" d="M128.75,241.87a17.594,17.594,0,0,0,9.916,10.141" transform="translate(-117.147 -212.028)" fill="none" stroke="#000" stroke-linecap="round" stroke-linejoin="round" stroke-miterlimit="10" stroke-width="1"/>
        <path id="Trazado_1040874" data-name="Trazado 1040874" d="M364.15,80.42a20.139,20.139,0,0,1,5.431,8.623" transform="translate(-322.573 -71.135)" fill="none" stroke="#000" stroke-linecap="round" stroke-linejoin="round" stroke-miterlimit="10" stroke-width="1"/>
        <path id="Trazado_1040875" data-name="Trazado 1040875" d="M105.6,51.684a20.265,20.265,0,0,1,19.294-14.067,20.045,20.045,0,0,1,10.06,2.776" transform="translate(-96.944 -33.781)" fill="none" stroke="#000" stroke-linecap="round" stroke-linejoin="round" stroke-miterlimit="10" stroke-width="1"/>
        <path id="Trazado_1040876" data-name="Trazado 1040876" d="M70.03,27.715a23.972,23.972,0,0,1,47.352,0" transform="translate(-65.903 -7.5)" fill="none" stroke="#000" stroke-linecap="round" stroke-linejoin="round" stroke-miterlimit="10" stroke-width="1"/>
        <path id="Trazado_1040877" data-name="Trazado 1040877" d="M392.97,155.629a6.712,6.712,0,0,1-6.712,6.712h-.379a1.911,1.911,0,0,1-1.88-2.247,29.135,29.135,0,0,0,0-8.929,1.911,1.911,0,0,1,1.88-2.247h.379A6.712,6.712,0,0,1,392.97,155.629Z" transform="translate(-339.869 -130.91)" fill="none" stroke="#000" stroke-linecap="round" stroke-linejoin="round" stroke-miterlimit="10" stroke-width="1"/>
        <path id="Trazado_1040878" data-name="Trazado 1040878" d="M57.284,155.629A6.712,6.712,0,0,0,64,162.34h.379a1.911,1.911,0,0,0,1.88-2.247,29.133,29.133,0,0,1,0-8.929,1.911,1.911,0,0,0-1.88-2.247H64A6.712,6.712,0,0,0,57.284,155.629Z" transform="translate(-54.78 -130.91)" fill="none" stroke="#000" stroke-linecap="round" stroke-linejoin="round" stroke-miterlimit="10" stroke-width="1"/>
        <path id="Trazado_1040879" data-name="Trazado 1040879" d="M325.553,320.464h.4a3.82,3.82,0,0,0,3.82-3.82v-19.2a3.82,3.82,0,0,0-3.82-3.82H312.5a3.82,3.82,0,0,0-3.82,3.82v19.2a3.82,3.82,0,0,0,3.82,3.82h8.6" transform="translate(-274.166 -257.188)" fill="none" stroke="#000" stroke-linecap="round" stroke-linejoin="round" stroke-miterlimit="10" stroke-width="1"/>
        <path id="Trazado_1040880" data-name="Trazado 1040880" d="M350.3,448.04h-9.587a1.917,1.917,0,1,1,0-3.835H350.3a1.917,1.917,0,0,1,0,3.835Z" transform="translate(-300.445 -388.599)" fill="none" stroke="#000" stroke-linecap="round" stroke-linejoin="round" stroke-miterlimit="10" stroke-width="1"/>
        <path id="Trazado_1040881" data-name="Trazado 1040881" d="M350.3,387.8h-9.587a1.917,1.917,0,1,1,0-3.835H350.3a1.917,1.917,0,1,1,0,3.835Z" transform="translate(-300.445 -336.034)" fill="none" stroke="#000" stroke-linecap="round" stroke-linejoin="round" stroke-miterlimit="10" stroke-width="1"/>
        <path id="Trazado_1040882" data-name="Trazado 1040882" d="M350.3,327.569h-9.587a1.917,1.917,0,1,1,0-3.835H350.3a1.917,1.917,0,0,1,0,3.835Z" transform="translate(-300.445 -283.468)" fill="none" stroke="#000" stroke-linecap="round" stroke-linejoin="round" stroke-miterlimit="10" stroke-width="1"/>
        <path id="Trazado_1040883" data-name="Trazado 1040883" d="M149.84,286.161l9.6-11.461a7.636,7.636,0,0,1,2.811-2.1l3.365-1.462a1.552,1.552,0,0,1,2.128,1.781l-.851,3.57a7.629,7.629,0,0,1-1.575,3.136l-7.565,9.029" transform="translate(-135.551 -237.454)" fill="none" stroke="#000" stroke-linecap="round" stroke-linejoin="round" stroke-miterlimit="10" stroke-width="1"/>
        <path id="Trazado_1040884" data-name="Trazado 1040884" d="M246.51,284.45a9.512,9.512,0,0,0,4.623,3.887" transform="translate(-219.912 -249.186)" fill="none" stroke="#000" stroke-linecap="round" stroke-linejoin="round" stroke-miterlimit="10" stroke-width="1"/>
        <path id="Trazado_1040885" data-name="Trazado 1040885" d="M40.847,396.248a5.939,5.939,0,0,1,1.4-.506l8.536-1.912,3.241,9.023-7.8,3.956a5.925,5.925,0,0,1-8.294-7.173" transform="translate(-37.621 -344.639)" fill="none" stroke="#000" stroke-linecap="round" stroke-linejoin="round" stroke-miterlimit="10" stroke-width="1"/>
        <path id="Trazado_1040886" data-name="Trazado 1040886" d="M144.271,394.249l2.707-.972a4.794,4.794,0,1,0-3.241-9.023l-2.707.972" transform="translate(-127.863 -336.035)" fill="none" stroke="#000" stroke-linecap="round" stroke-linejoin="round" stroke-miterlimit="10" stroke-width="1"/>
        <g id="Grupo_1202408" data-name="Grupo 1202408" transform="translate(19.851 23.009)">
          <line id="Línea_1064" data-name="Línea 1064" y2="1.528" fill="none" stroke="#000" stroke-linecap="round" stroke-linejoin="round" stroke-miterlimit="10" stroke-width="1"/>
          <line id="Línea_1065" data-name="Línea 1065" y2="1.528" transform="translate(15.903)" fill="none" stroke="#000" stroke-linecap="round" stroke-linejoin="round" stroke-miterlimit="10" stroke-width="1"/>
          <path id="Trazado_1040887" data-name="Trazado 1040887" d="M239.505,199.848a2.778,2.778,0,0,0,4.193,0" transform="translate(-233.65 -198.365)" fill="none" stroke="#000" stroke-linecap="round" stroke-linejoin="round" stroke-miterlimit="10" stroke-width="1"/>
        </g>
      </g>
    </g>
  </g>
</svg>
