<svg xmlns="http://www.w3.org/2000/svg" xmlns:xlink="http://www.w3.org/1999/xlink" width="113" height="113" viewBox="0 0 113 113">
  <defs>
    <filter id="Trazado_982547" x="0" y="0" width="113" height="113" filterUnits="userSpaceOnUse">
      <feOffset dy="3" input="SourceAlpha"/>
      <feGaussianBlur stdDeviation="3" result="blur"/>
      <feFlood flood-opacity="0.161"/>
      <feComposite operator="in" in2="blur"/>
      <feComposite in="SourceGraphic"/>
    </filter>
  </defs>
  <g id="Grupo_1210867" data-name="Grupo 1210867" transform="translate(-1113.83 -7014.521)">
    <g id="Grupo_1210854" data-name="Grupo 1210854" transform="translate(1122.83 7020.521)">
      <g id="Grupo_1210834" data-name="Grupo 1210834" transform="translate(0)">
        <g id="Grupo_1202055" data-name="Grupo 1202055">
          <g id="Grupo_1177900" data-name="Grupo 1177900">
            <g id="Grupo_1172010" data-name="Grupo 1172010">
              <g id="Grupo_1171046" data-name="Grupo 1171046">
                <g id="Grupo_1148525" data-name="Grupo 1148525">
                  <g transform="matrix(1, 0, 0, 1, -9, -6)" filter="url(#Trazado_982547)">
                    <g id="Trazado_982547-2" data-name="Trazado 982547" transform="translate(9 6)" fill="#edf3fc">
                      <path d="M 47.5 93.5 C 41.28937149047852 93.5 35.26533508300781 92.28397369384766 29.59518623352051 89.88570404052734 C 24.11771965026855 87.56893157958984 19.19813346862793 84.25196075439453 14.97309303283691 80.02691650390625 C 10.74804019927979 75.80186462402344 7.431066513061523 70.88229370117188 5.114293098449707 65.40481567382812 C 2.716026782989502 59.73468017578125 1.5 53.71062850952148 1.5 47.5 C 1.5 41.28937149047852 2.716026782989502 35.26533508300781 5.114293098449707 29.59518623352051 C 7.431066513061523 24.11771965026855 10.74804019927979 19.19813346862793 14.97309303283691 14.97309303283691 C 19.19813346862793 10.74804019927979 24.11771965026855 7.431066513061523 29.59518623352051 5.114293098449707 C 35.26533508300781 2.716026782989502 41.28937149047852 1.5 47.5 1.5 C 53.71062850952148 1.5 59.73468017578125 2.716026782989502 65.40481567382812 5.114293098449707 C 70.88229370117188 7.431066513061523 75.80186462402344 10.74804019927979 80.02691650390625 14.97309303283691 C 84.25196075439453 19.19813346862793 87.56893157958984 24.11771965026855 89.88570404052734 29.59518623352051 C 92.28397369384766 35.26533508300781 93.5 41.28937149047852 93.5 47.5 C 93.5 53.71062850952148 92.28397369384766 59.73468017578125 89.88570404052734 65.40481567382812 C 87.56893157958984 70.88229370117188 84.25196075439453 75.80186462402344 80.02691650390625 80.02691650390625 C 75.80186462402344 84.25196075439453 70.88229370117188 87.56893157958984 65.40481567382812 89.88570404052734 C 59.73468017578125 92.28397369384766 53.71062850952148 93.5 47.5 93.5 Z" stroke="none"/>
                      <path d="M 47.5 3 C 41.49121475219727 3 35.66376876831055 4.176155090332031 30.17950439453125 6.495796203613281 C 24.88084411621094 8.736953735351562 20.12152099609375 11.94598388671875 16.03375244140625 16.03375244140625 C 11.94598388671875 20.12152099609375 8.736953735351562 24.88084411621094 6.495796203613281 30.17950439453125 C 4.176155090332031 35.66376876831055 3 41.49121475219727 3 47.5 C 3 53.50878524780273 4.176155090332031 59.33623123168945 6.495796203613281 64.82049560546875 C 8.736953735351562 70.11915588378906 11.94598388671875 74.87847900390625 16.03375244140625 78.96624755859375 C 20.12152099609375 83.05401611328125 24.88084411621094 86.26304626464844 30.17950439453125 88.50419616699219 C 35.66376876831055 90.82384490966797 41.49121475219727 92 47.5 92 C 53.50878524780273 92 59.33623123168945 90.82384490966797 64.82049560546875 88.50419616699219 C 70.11915588378906 86.26304626464844 74.87847900390625 83.05401611328125 78.96624755859375 78.96624755859375 C 83.05401611328125 74.87847900390625 86.26304626464844 70.11915588378906 88.50419616699219 64.82049560546875 C 90.82384490966797 59.33623123168945 92 53.50878524780273 92 47.5 C 92 41.49121475219727 90.82384490966797 35.66376876831055 88.50419616699219 30.17950439453125 C 86.26304626464844 24.88084411621094 83.05401611328125 20.12152099609375 78.96624755859375 16.03375244140625 C 74.87847900390625 11.94598388671875 70.11915588378906 8.736953735351562 64.82049560546875 6.495796203613281 C 59.33623123168945 4.176155090332031 53.50878524780273 3 47.5 3 M 47.5 0 C 73.7335205078125 0 95 21.2664794921875 95 47.5 C 95 73.7335205078125 73.7335205078125 95 47.5 95 C 21.2664794921875 95 0 73.7335205078125 0 47.5 C 0 21.2664794921875 21.2664794921875 0 47.5 0 Z" stroke="none" fill="#5692e8"/>
                    </g>
                  </g>
                </g>
              </g>
            </g>
          </g>
        </g>
      </g>
    </g>
    <g id="_27_Sample" data-name="27 Sample" transform="translate(1064.917 7029.647)">
      <circle id="Elipse_12577" data-name="Elipse 12577" cx="4.363" cy="4.363" r="4.363" transform="translate(81.4 45.101)" fill="#b89dd6"/>
      <path id="Trazado_1041045" data-name="Trazado 1041045" d="M182.316,292.431a13.921,13.921,0,0,0,.69,4.341,4.361,4.361,0,0,1,.008-8.712A13.982,13.982,0,0,0,182.316,292.431Z" transform="translate(-84.378 -242.954)" fill="#74d1d1"/>
      <path id="Trazado_1041046" data-name="Trazado 1041046" d="M399.934,299.917H397.1a14.043,14.043,0,0,0,.018-7.607,1.046,1.046,0,0,1,.548.466l3.194,5.526a1.071,1.071,0,0,1-.927,1.615Z" transform="translate(-271.698 -246.601)" fill="#90d1bb"/>
      <path id="Trazado_1041047" data-name="Trazado 1041047" d="M272.4,293.275l2.086,2.871a1.513,1.513,0,0,0,1.692.55l3.375-1.1a1.513,1.513,0,0,0,1.046-1.44v-3.542a1.513,1.513,0,0,0-1.046-1.44l-3.375-1.1a1.513,1.513,0,0,0-1.692.55L272.4,291.5A1.515,1.515,0,0,0,272.4,293.275Z" transform="translate(-164.423 -242.908)" fill="#f5d367"/>
      <path id="Trazado_1041048" data-name="Trazado 1041048" d="M275.312,15.024l-3.242,5.615a1.044,1.044,0,0,0,.905,1.567h6.484a1.044,1.044,0,0,0,.9-1.567l-3.242-5.615a1.044,1.044,0,0,0-1.809,0Z" transform="translate(-164.263 -8.155)" fill="#90d1bb"/>
      <rect id="Rect치ngulo_418011" data-name="Rect치ngulo 418011" width="8.725" height="8.725" rx="4.363" transform="translate(94.502 5.85)" fill="#f46969"/>
      <path id="Trazado_1041049" data-name="Trazado 1041049" d="M367.094,12.1l-2.873,2.086a1.513,1.513,0,0,0-.55,1.692l1.1,3.375A1.513,1.513,0,0,0,366.2,20.3h3.542a1.513,1.513,0,0,0,1.44-1.046l1.111-3.375a1.513,1.513,0,0,0-.55-1.692L368.874,12.1a1.515,1.515,0,0,0-1.78,0Z" transform="translate(-242.942 -5.846)" fill="#e9986b"/>
      <circle id="Elipse_12578" data-name="Elipse 12578" cx="4.363" cy="4.363" r="4.363" transform="translate(81.414 5.85)" fill="#f5d367"/>
      <rect id="Rect치ngulo_418012" data-name="Rect치ngulo 418012" width="8.725" height="8.725" rx="4.363" transform="translate(116.315 27.665) rotate(180)" fill="#f5d367"/>
      <path id="Trazado_1041050" data-name="Trazado 1041050" d="M369.5,107.366l3.242,5.617a1.044,1.044,0,0,1-.905,1.567h-6.491a1.044,1.044,0,0,1-.905-1.567l3.242-5.617a1.047,1.047,0,0,1,1.818,0Z" transform="translate(-243.545 -87.409)" fill="#b89dd6"/>
      <circle id="Elipse_12579" data-name="Elipse 12579" cx="4.363" cy="4.363" r="4.363" transform="translate(94.502 18.938)" fill="#e9986b"/>
      <path id="Trazado_1041051" data-name="Trazado 1041051" d="M91.754,104.464l2.873,2.086a1.513,1.513,0,0,1,.55,1.692l-1.1,3.375a1.513,1.513,0,0,1-1.437,1.046H89.1a1.513,1.513,0,0,1-1.44-1.046l-1.111-3.375a1.513,1.513,0,0,1,.55-1.692l2.871-2.086A1.515,1.515,0,0,1,91.754,104.464Z" transform="translate(-5.087 -85.122)" fill="#90d1bb"/>
      <path id="Trazado_1041052" data-name="Trazado 1041052" d="M372.385,197.615v5a1.865,1.865,0,0,1-1.865,1.865h-4.646a13.993,13.993,0,0,0-2.215-2.215v-4.646a1.866,1.866,0,0,1,1.866-1.865h4.995a1.865,1.865,0,0,1,1.865,1.865Z" transform="translate(-242.996 -163.723)" fill="#74d1d1"/>
      <path id="Trazado_1041053" data-name="Trazado 1041053" d="M187.9,205.426a13.869,13.869,0,0,0-1.574,1.53H180.5a1.044,1.044,0,0,1-.905-1.567l3.242-5.615a1.044,1.044,0,0,1,1.809,0l3.246,5.615C187.887,205.4,187.9,205.413,187.9,205.426Z" transform="translate(-84.887 -166.728)" fill="#f5d367"/>
      <path id="Trazado_1041054" data-name="Trazado 1041054" d="M280.054,199.919a14.019,14.019,0,0,0-8.714,0,4.363,4.363,0,0,1,8.714,0Z" transform="translate(-163.757 -163.748)" fill="#cfdce5"/>
      <circle id="Elipse_12580" data-name="Elipse 12580" cx="4.363" cy="4.363" r="4.363" transform="translate(81.4 32.027)" fill="#f46969"/>
      <path id="Trazado_1041055" data-name="Trazado 1041055" d="M217.27,248.1a14,14,0,1,1,14-14A14,14,0,0,1,217.27,248.1Zm0-22.183a8.183,8.183,0,1,0,8.183,8.183A8.183,8.183,0,0,0,217.27,225.918Z" transform="translate(-105.332 -184.623)" fill="#4a5058"/>
      <path id="Trazado_1041056" data-name="Trazado 1041056" d="M287.368,415.56v9.2a2.909,2.909,0,0,1-5.818,0v-9.2A13.979,13.979,0,0,0,287.368,415.56Z" transform="translate(-172.52 -352.388)" fill="#e9986b"/>
      <path id="Trazado_1041057" data-name="Trazado 1041057" d="M287.368,453.944v2.494a2.909,2.909,0,0,1-5.818,0V452.47Q284.409,453.324,287.368,453.944Z" transform="translate(-172.52 -384.068)" fill="#d38a66"/>
      <path id="Trazado_1041058" data-name="Trazado 1041058" d="M85.763,292.445a5.213,5.213,0,1,1,5.213-5.213A5.213,5.213,0,0,1,85.763,292.445Zm0-8.725a3.512,3.512,0,1,0,3.512,3.513,3.512,3.512,0,0,0-3.512-3.513Z" transform="translate(0 -237.769)"/>
      <path id="Trazado_1041059" data-name="Trazado 1041059" d="M177.9,292.483h-.043a5.211,5.211,0,0,1,.01-10.41.85.85,0,0,1,.85,1.115,13.163,13.163,0,0,0-.009,8.181.85.85,0,0,1-.808,1.115Zm-1.185-8.426a3.515,3.515,0,0,0-.007,6.437A14.886,14.886,0,0,1,176.72,284.057Z" transform="translate(-79.277 -237.814)"/>
      <path id="Trazado_1041060" data-name="Trazado 1041060" d="M394.783,295.624h-2.834a.85.85,0,0,1-.818-1.084,13.177,13.177,0,0,0,.017-7.143.85.85,0,0,1,1.109-1.029,1.906,1.906,0,0,1,.992.839l3.194,5.526a1.923,1.923,0,0,1-1.661,2.89Zm-1.748-1.7h1.748a.222.222,0,0,0,.194-.333l-1.641-2.842v.187A14.837,14.837,0,0,1,393.034,293.924Z" transform="translate(-266.547 -241.458)"/>
      <path id="Trazado_1041061" data-name="Trazado 1041061" d="M270.533,292.434a2.354,2.354,0,0,1-1.91-.972l-2.086-2.871a2.358,2.358,0,0,1,0-2.779l2.086-2.873a2.356,2.356,0,0,1,2.642-.859l3.374,1.1a2.358,2.358,0,0,1,1.635,2.249v3.542a2.358,2.358,0,0,1-1.634,2.249l-3.374,1.1A2.361,2.361,0,0,1,270.533,292.434Zm0-8.769a.663.663,0,0,0-.537.273l-2.081,2.871a.659.659,0,0,0,0,.779L270,290.459a.659.659,0,0,0,.741.241l3.375-1.1a.662.662,0,0,0,.458-.631V285.43a.66.66,0,0,0-.458-.631l-3.368-1.1a.649.649,0,0,0-.213-.028Z" transform="translate(-159.246 -237.721)"/>
      <path id="Trazado_1041062" data-name="Trazado 1041062" d="M274.306,17.909h-6.484a1.894,1.894,0,0,1-1.642-2.842l3.242-5.615a1.9,1.9,0,0,1,3.283,0l3.242,5.615a1.894,1.894,0,0,1-1.641,2.842ZM270.9,10.3l-3.243,5.615a.194.194,0,0,0,.17.292h6.484a.194.194,0,0,0,.169-.292L271.233,10.3a.187.187,0,0,0-.169-.1A.184.184,0,0,0,270.9,10.3Z" transform="translate(-159.11 -3.008)"/>
      <path id="Trazado_1041063" data-name="Trazado 1041063" d="M180.714,15.425h-4.995A2.719,2.719,0,0,1,173,12.711V7.716A2.719,2.719,0,0,1,175.719,5h4.995a2.718,2.718,0,0,1,2.715,2.716v4.995a2.718,2.718,0,0,1-2.715,2.715ZM175.719,6.7A1.017,1.017,0,0,0,174.7,7.716v4.995a1.016,1.016,0,0,0,1.016,1.014h4.995a1.016,1.016,0,0,0,1.014-1.014V7.716A1.016,1.016,0,0,0,180.714,6.7Z" transform="translate(-79.351 0)"/>
      <path id="Trazado_1041064" data-name="Trazado 1041064" d="M364.588,15.993h-3.554a2.359,2.359,0,0,1-2.249-1.634l-1.1-3.375a2.356,2.356,0,0,1,.859-2.643l2.875-2.084a2.358,2.358,0,0,1,2.779,0l2.871,2.086a2.356,2.356,0,0,1,.859,2.643l-1.088,3.374A2.359,2.359,0,0,1,364.588,15.993Zm-1.774-8.487a.659.659,0,0,0-.39.126l-2.871,2.086a.662.662,0,0,0-.241.742l1.1,3.374a.66.66,0,0,0,.625.459h3.542a.662.662,0,0,0,.631-.459l1.1-3.374a.662.662,0,0,0-.241-.742L363.2,7.632a.669.669,0,0,0-.39-.126Z" transform="translate(-237.772 -0.69)"/>
      <path id="Trazado_1041065" data-name="Trazado 1041065" d="M85.863,15.425a5.213,5.213,0,1,1,5.213-5.213A5.213,5.213,0,0,1,85.863,15.425Zm0-8.725a3.512,3.512,0,1,0,3.512,3.512A3.512,3.512,0,0,0,85.863,6.7Z" transform="translate(-0.086 0)"/>
      <path id="Trazado_1041066" data-name="Trazado 1041066" d="M273.109,107.8h-4.995a2.718,2.718,0,0,1-2.715-2.716v-5a2.718,2.718,0,0,1,2.715-2.716h4.995a2.719,2.719,0,0,1,2.719,2.716v4.995a2.719,2.719,0,0,1-2.719,2.722Zm-4.995-8.727a1.016,1.016,0,0,0-1.015,1.016v4.995a1.016,1.016,0,0,0,1.015,1.016h4.995a1.017,1.017,0,0,0,1.016-1.016v-5a1.017,1.017,0,0,0-1.016-1.016Z" transform="translate(-158.659 -79.282)"/>
      <path id="Trazado_1041067" data-name="Trazado 1041067" d="M366.691,110.285h-6.484a1.9,1.9,0,0,1-1.641-2.842l3.245-5.617a1.9,1.9,0,0,1,3.282,0l3.236,5.617a1.9,1.9,0,0,1-1.641,2.842Zm-3.242-7.705a.187.187,0,0,0-.169.1l-3.242,5.617a.2.2,0,0,0,.169.292h6.484a.2.2,0,0,0,.169-.292l-3.242-5.617A.187.187,0,0,0,363.449,102.58Z" transform="translate(-238.407 -82.295)"/>
      <path id="Trazado_1041068" data-name="Trazado 1041068" d="M178.233,107.845a5.213,5.213,0,1,1,5.213-5.213A5.213,5.213,0,0,1,178.233,107.845Zm0-8.725a3.516,3.516,0,1,0,0-.007Z" transform="translate(-79.368 -79.325)"/>
      <path id="Trazado_1041069" data-name="Trazado 1041069" d="M87.577,108.363H84.034a2.358,2.358,0,0,1-2.249-1.634l-1.1-3.374a2.356,2.356,0,0,1,.859-2.643l2.871-2.086a2.358,2.358,0,0,1,2.779,0l2.869,2.086a2.356,2.356,0,0,1,.859,2.643l-1.1,3.374A2.358,2.358,0,0,1,87.577,108.363ZM85.8,99.875a.66.66,0,0,0-.39.128l-2.876,2.086a.659.659,0,0,0-.241.741l1.1,3.375a.66.66,0,0,0,.631.458h3.542a.66.66,0,0,0,.631-.458l1.1-3.379a.659.659,0,0,0-.241-.741L86.187,100a.66.66,0,0,0-.39-.123Z" transform="translate(-0.02 -79.973)"/>
      <path id="Trazado_1041070" data-name="Trazado 1041070" d="M365.371,200.175h-4.646a.85.85,0,0,1-.665-.32,13.009,13.009,0,0,0-2.08-2.08.85.85,0,0,1-.32-.664v-4.646a2.718,2.718,0,0,1,2.716-2.715h4.995a2.718,2.718,0,0,1,2.715,2.715v5A2.718,2.718,0,0,1,365.371,200.175Zm-4.244-1.7h4.244a1.016,1.016,0,0,0,1.014-1.015v-5a1.016,1.016,0,0,0-1.014-1.015h-4.995a1.016,1.016,0,0,0-1.016,1.014v4.251A14.753,14.753,0,0,1,361.127,198.475Z" transform="translate(-237.847 -158.573)"/>
      <path id="Trazado_1041071" data-name="Trazado 1041071" d="M181.19,202.655h-5.833a1.9,1.9,0,0,1-1.641-2.842l3.242-5.615a1.894,1.894,0,0,1,3.282,0l3.242,5.615.008.014c.018.034.037.067.052.1a.85.85,0,0,1-.235.992,13.007,13.007,0,0,0-1.481,1.437A.85.85,0,0,1,181.19,202.655ZM178.6,194.95a.187.187,0,0,0-.169.1l-3.242,5.615a.2.2,0,0,0,.169.292h5.454q.417-.451.869-.863l-2.912-5.044A.187.187,0,0,0,178.6,194.95Z" transform="translate(-79.748 -161.577)"/>
      <path id="Trazado_1041072" data-name="Trazado 1041072" d="M266.184,195.661a.85.85,0,0,1-.85-.893,5.213,5.213,0,0,1,10.411,0,.85.85,0,0,1-1.115.85,13.167,13.167,0,0,0-8.183,0,.851.851,0,0,1-.264.043Zm4.355-2.395a14.81,14.81,0,0,1,3.219.351,3.515,3.515,0,0,0-6.437,0A14.808,14.808,0,0,1,270.539,193.267Z" transform="translate(-158.601 -158.64)"/>
      <path id="Trazado_1041073" data-name="Trazado 1041073" d="M85.763,200.175a5.213,5.213,0,1,1,5.213-5.213A5.213,5.213,0,0,1,85.763,200.175Zm0-8.725a3.512,3.512,0,1,0,3.512,3.512A3.512,3.512,0,0,0,85.763,191.45Z" transform="translate(0 -158.573)"/>
      <path id="Trazado_1041074" data-name="Trazado 1041074" d="M212.12,243.8a14.85,14.85,0,1,1,14.85-14.85A14.85,14.85,0,0,1,212.12,243.8Zm0-28a13.15,13.15,0,1,0,13.15,13.15A13.15,13.15,0,0,0,212.12,215.8Zm0,22.183a9.033,9.033,0,1,1,9.033-9.033A9.033,9.033,0,0,1,212.12,237.983Zm0-16.365a7.332,7.332,0,1,0,7.332,7.332A7.332,7.332,0,0,0,212.12,221.618Z" transform="translate(-100.182 -179.473)"/>
      <path id="Trazado_1041075" data-name="Trazado 1041075" d="M279.3,423.373a3.762,3.762,0,0,1-3.752-3.542.852.852,0,0,1,1.7-.1,2.059,2.059,0,0,0,4.109-.123V411.43a14.952,14.952,0,0,1-4.117,0v1.726a.85.85,0,1,1-1.7,0v-2.737a.85.85,0,0,1,1.027-.832,13.245,13.245,0,0,0,5.464,0,.85.85,0,0,1,1.027.832v9.2A3.763,3.763,0,0,1,279.3,423.373Z" transform="translate(-167.362 -347.245)"/>
      <path id="Trazado_1041076" data-name="Trazado 1041076" d="M276.4,450.766a.85.85,0,0,1-.85-.85V448.64a.85.85,0,0,1,1.7,0v1.275A.85.85,0,0,1,276.4,450.766Z" transform="translate(-167.371 -380.052)"/>
    </g>
  </g>
</svg>
