<svg xmlns="http://www.w3.org/2000/svg" xmlns:xlink="http://www.w3.org/1999/xlink" width="113" height="113" viewBox="0 0 113 113">
  <defs>
    <filter id="Trazado_982547" x="0" y="0" width="113" height="113" filterUnits="userSpaceOnUse">
      <feOffset dy="3" input="SourceAlpha"/>
      <feGaussianBlur stdDeviation="3" result="blur"/>
      <feFlood flood-opacity="0.161"/>
      <feComposite operator="in" in2="blur"/>
      <feComposite in="SourceGraphic"/>
    </filter>
  </defs>
  <g id="Grupo_1210861" data-name="Grupo 1210861" transform="translate(9 6)">
    <g id="Grupo_1210834" data-name="Grupo 1210834" transform="translate(0)">
      <g id="Grupo_1202055" data-name="Grupo 1202055">
        <g id="Grupo_1177900" data-name="Grupo 1177900">
          <g id="Grupo_1172010" data-name="Grupo 1172010">
            <g id="Grupo_1171046" data-name="Grupo 1171046">
              <g id="Grupo_1148525" data-name="Grupo 1148525">
                <g transform="matrix(1, 0, 0, 1, -9, -6)" filter="url(#Trazado_982547)">
                  <g id="Trazado_982547-2" data-name="Trazado 982547" transform="translate(9 6)" fill="#edf3fc">
                    <path d="M 47.5 93.5 C 41.28937149047852 93.5 35.26533508300781 92.28397369384766 29.59518623352051 89.88570404052734 C 24.11771965026855 87.56893157958984 19.19813346862793 84.25196075439453 14.97309303283691 80.02691650390625 C 10.74804019927979 75.80186462402344 7.431066513061523 70.88229370117188 5.114293098449707 65.40481567382812 C 2.716026782989502 59.73468017578125 1.5 53.71062850952148 1.5 47.5 C 1.5 41.28937149047852 2.716026782989502 35.26533508300781 5.114293098449707 29.59518623352051 C 7.431066513061523 24.11771965026855 10.74804019927979 19.19813346862793 14.97309303283691 14.97309303283691 C 19.19813346862793 10.74804019927979 24.11771965026855 7.431066513061523 29.59518623352051 5.114293098449707 C 35.26533508300781 2.716026782989502 41.28937149047852 1.5 47.5 1.5 C 53.71062850952148 1.5 59.73468017578125 2.716026782989502 65.40481567382812 5.114293098449707 C 70.88229370117188 7.431066513061523 75.80186462402344 10.74804019927979 80.02691650390625 14.97309303283691 C 84.25196075439453 19.19813346862793 87.56893157958984 24.11771965026855 89.88570404052734 29.59518623352051 C 92.28397369384766 35.26533508300781 93.5 41.28937149047852 93.5 47.5 C 93.5 53.71062850952148 92.28397369384766 59.73468017578125 89.88570404052734 65.40481567382812 C 87.56893157958984 70.88229370117188 84.25196075439453 75.80186462402344 80.02691650390625 80.02691650390625 C 75.80186462402344 84.25196075439453 70.88229370117188 87.56893157958984 65.40481567382812 89.88570404052734 C 59.73468017578125 92.28397369384766 53.71062850952148 93.5 47.5 93.5 Z" stroke="none"/>
                    <path d="M 47.5 3 C 41.49121475219727 3 35.66376876831055 4.176155090332031 30.17950439453125 6.495796203613281 C 24.88084411621094 8.736953735351562 20.12152099609375 11.94598388671875 16.03375244140625 16.03375244140625 C 11.94598388671875 20.12152099609375 8.736953735351562 24.88084411621094 6.495796203613281 30.17950439453125 C 4.176155090332031 35.66376876831055 3 41.49121475219727 3 47.5 C 3 53.50878524780273 4.176155090332031 59.33623123168945 6.495796203613281 64.82049560546875 C 8.736953735351562 70.11915588378906 11.94598388671875 74.87847900390625 16.03375244140625 78.96624755859375 C 20.12152099609375 83.05401611328125 24.88084411621094 86.26304626464844 30.17950439453125 88.50419616699219 C 35.66376876831055 90.82384490966797 41.49121475219727 92 47.5 92 C 53.50878524780273 92 59.33623123168945 90.82384490966797 64.82049560546875 88.50419616699219 C 70.11915588378906 86.26304626464844 74.87847900390625 83.05401611328125 78.96624755859375 78.96624755859375 C 83.05401611328125 74.87847900390625 86.26304626464844 70.11915588378906 88.50419616699219 64.82049560546875 C 90.82384490966797 59.33623123168945 92 53.50878524780273 92 47.5 C 92 41.49121475219727 90.82384490966797 35.66376876831055 88.50419616699219 30.17950439453125 C 86.26304626464844 24.88084411621094 83.05401611328125 20.12152099609375 78.96624755859375 16.03375244140625 C 74.87847900390625 11.94598388671875 70.11915588378906 8.736953735351562 64.82049560546875 6.495796203613281 C 59.33623123168945 4.176155090332031 53.50878524780273 3 47.5 3 M 47.5 0 C 73.7335205078125 0 95 21.2664794921875 95 47.5 C 95 73.7335205078125 73.7335205078125 95 47.5 95 C 21.2664794921875 95 0 73.7335205078125 0 47.5 C 0 21.2664794921875 21.2664794921875 0 47.5 0 Z" stroke="none" fill="#5692e8"/>
                  </g>
                </g>
              </g>
            </g>
          </g>
        </g>
      </g>
    </g>
    <g id="cube_10769652" transform="translate(-18.137 -10.212)">
      <g id="Grupo_1202330" data-name="Grupo 1202330" transform="translate(36.596 64.65)">
        <path id="Trazado_1040616" data-name="Trazado 1040616" d="M70.071,336.158H44.11l9.851-16.064,3.129-5.1,3.13,5.1Z" transform="translate(-43.115 -314.008)" fill="#e54d3b"/>
        <g id="Grupo_1202329" data-name="Grupo 1202329" transform="translate(0 0)">
          <path id="Trazado_1040617" data-name="Trazado 1040617" d="M63.552,328.726H37.591l.857,1.494,5.132-8.37,4.787-7.806,3.06-4.992H49.713l4.12,6.717,6.86,11.187,2,3.264c.667,1.088,2.385.091,1.714-1l-5.132-8.37-4.787-7.806-3.062-4.992a1,1,0,0,0-1.714,0L45.6,314.767l-6.86,11.187-2,3.264a1,1,0,0,0,.857,1.494H63.552A.993.993,0,0,0,63.552,328.726Z" transform="translate(-36.596 -307.568)"/>
        </g>
      </g>
      <g id="Grupo_1202332" data-name="Grupo 1202332" transform="translate(52.706 69.743)">
        <path id="Trazado_1040618" data-name="Trazado 1040618" d="M205.8,353.55v16.064H175.671L165.82,353.55Z" transform="translate(-164.825 -352.557)" fill="#edf0f1"/>
        <g id="Grupo_1202331" data-name="Grupo 1202331">
          <path id="Trazado_1040619" data-name="Trazado 1040619" d="M198.29,347.043v16.064l.993-.993H169.15l.857.492-8.634-14.08-1.217-1.984-.857,1.494h39.984a.993.993,0,0,0,0-1.985H159.3a1,1,0,0,0-.857,1.494l5.1,8.313,3.391,5.529,1.045,1.7c.292.476.524.965,1.174,1.009.689.046,1.4,0,2.087,0h19.156c2.912,0,5.841.093,8.752,0,.046,0,.092,0,.137,0a1.007,1.007,0,0,0,.993-.993V347.043A.993.993,0,0,0,198.29,347.043Z" transform="translate(-158.304 -346.05)"/>
        </g>
      </g>
      <g id="Grupo_1202334" data-name="Grupo 1202334" transform="translate(36.598 49.451)">
        <path id="Trazado_1040620" data-name="Trazado 1040620" d="M93.289,200.54v20.253H60.22l-3.13-5.1-3.129,5.1H44.11V200.54Z" transform="translate(-43.117 -199.509)" fill="#efc41b"/>
        <g id="Grupo_1202333" data-name="Grupo 1202333" transform="translate(0 0)">
          <path id="Trazado_1040621" data-name="Trazado 1040621" d="M85.789,193.781v20.253l.993-.993H53.713l.857.492-3.13-5.1a1,1,0,0,0-1.714,0l-3.129,5.1.857-.492H37.6l.993.993V193.781l-.993.993H80.712c1.988,0,4,.087,5.985,0,.028,0,.057,0,.085,0a.993.993,0,0,0,0-1.985H43.673c-1.988,0-4-.087-5.985,0-.028,0-.057,0-.085,0a1.007,1.007,0,0,0-.993.993v20.253a1.007,1.007,0,0,0,.993.993h6.979c.937,0,1.889.049,2.825,0,.992-.052,1.575-1.586,2.026-2.321l2.008-3.275H49.725l2.236,3.646c.294.48.568.981.887,1.446a1.163,1.163,0,0,0,1.03.5c1.979.058,3.969,0,5.949,0H86.782a1.007,1.007,0,0,0,.993-.993V193.781A.993.993,0,0,0,85.789,193.781Z" transform="translate(-36.61 -192.749)"/>
        </g>
      </g>
      <g id="Grupo_1202336" data-name="Grupo 1202336" transform="translate(65.029 27.59)">
        <path id="Trazado_1040622" data-name="Trazado 1040622" d="M258.9,35.09h16.96v21.9H258.9Z" transform="translate(-257.907 -34.097)" fill="#27b999"/>
        <g id="Grupo_1202335" data-name="Grupo 1202335" transform="translate(0 0)">
          <path id="Trazado_1040623" data-name="Trazado 1040623" d="M268.36,28.583v21.9l.993-.993h-16.96l.993.993v-21.9l-.993.993h16.96a.993.993,0,0,0,0-1.985h-16.96a1.007,1.007,0,0,0-.993.993v21.9a1.007,1.007,0,0,0,.993.993h16.96a1.007,1.007,0,0,0,.993-.993v-21.9A.993.993,0,0,0,268.36,28.583Z" transform="translate(-251.4 -27.59)"/>
        </g>
      </g>
      <g id="Grupo_1202338" data-name="Grupo 1202338" transform="translate(41.493 36.321)">
        <circle id="Elipse_12548" data-name="Elipse 12548" cx="6.587" cy="6.587" r="6.587" transform="translate(0.976 0.989)" fill="#fdd7ad"/>
        <g id="Grupo_1202337" data-name="Grupo 1202337" transform="translate(0 0)">
          <path id="Trazado_1040624" data-name="Trazado 1040624" d="M86.745,101.127a5.593,5.593,0,1,1-4.6-5.509,5.651,5.651,0,0,1,4.6,5.509.993.993,0,0,0,1.985,0,7.688,7.688,0,0,0-4.954-7.107,7.576,7.576,0,1,0,4.954,7.107A.993.993,0,0,0,86.745,101.127Z" transform="translate(-73.589 -93.552)"/>
        </g>
      </g>
    </g>
  </g>
</svg>
