<svg xmlns="http://www.w3.org/2000/svg" xmlns:xlink="http://www.w3.org/1999/xlink" width="113" height="113" viewBox="0 0 113 113">
  <defs>
    <filter id="Trazado_982547" x="0" y="0" width="113" height="113" filterUnits="userSpaceOnUse">
      <feOffset dy="3" input="SourceAlpha"/>
      <feGaussianBlur stdDeviation="3" result="blur"/>
      <feFlood flood-opacity="0.161"/>
      <feComposite operator="in" in2="blur"/>
      <feComposite in="SourceGraphic"/>
    </filter>
  </defs>
  <g id="Grupo_1210860" data-name="Grupo 1210860" transform="translate(9 6)">
    <g id="Grupo_1210834" data-name="Grupo 1210834" transform="translate(0)">
      <g id="Grupo_1202055" data-name="Grupo 1202055">
        <g id="Grupo_1177900" data-name="Grupo 1177900">
          <g id="Grupo_1172010" data-name="Grupo 1172010">
            <g id="Grupo_1171046" data-name="Grupo 1171046">
              <g id="Grupo_1148525" data-name="Grupo 1148525">
                <g transform="matrix(1, 0, 0, 1, -9, -6)" filter="url(#Trazado_982547)">
                  <g id="Trazado_982547-2" data-name="Trazado 982547" transform="translate(9 6)" fill="#edf3fc">
                    <path d="M 47.5 93.5 C 41.28937149047852 93.5 35.26533508300781 92.28397369384766 29.59518623352051 89.88570404052734 C 24.11771965026855 87.56893157958984 19.19813346862793 84.25196075439453 14.97309303283691 80.02691650390625 C 10.74804019927979 75.80186462402344 7.431066513061523 70.88229370117188 5.114293098449707 65.40481567382812 C 2.716026782989502 59.73468017578125 1.5 53.71062850952148 1.5 47.5 C 1.5 41.28937149047852 2.716026782989502 35.26533508300781 5.114293098449707 29.59518623352051 C 7.431066513061523 24.11771965026855 10.74804019927979 19.19813346862793 14.97309303283691 14.97309303283691 C 19.19813346862793 10.74804019927979 24.11771965026855 7.431066513061523 29.59518623352051 5.114293098449707 C 35.26533508300781 2.716026782989502 41.28937149047852 1.5 47.5 1.5 C 53.71062850952148 1.5 59.73468017578125 2.716026782989502 65.40481567382812 5.114293098449707 C 70.88229370117188 7.431066513061523 75.80186462402344 10.74804019927979 80.02691650390625 14.97309303283691 C 84.25196075439453 19.19813346862793 87.56893157958984 24.11771965026855 89.88570404052734 29.59518623352051 C 92.28397369384766 35.26533508300781 93.5 41.28937149047852 93.5 47.5 C 93.5 53.71062850952148 92.28397369384766 59.73468017578125 89.88570404052734 65.40481567382812 C 87.56893157958984 70.88229370117188 84.25196075439453 75.80186462402344 80.02691650390625 80.02691650390625 C 75.80186462402344 84.25196075439453 70.88229370117188 87.56893157958984 65.40481567382812 89.88570404052734 C 59.73468017578125 92.28397369384766 53.71062850952148 93.5 47.5 93.5 Z" stroke="none"/>
                    <path d="M 47.5 3 C 41.49121475219727 3 35.66376876831055 4.176155090332031 30.17950439453125 6.495796203613281 C 24.88084411621094 8.736953735351562 20.12152099609375 11.94598388671875 16.03375244140625 16.03375244140625 C 11.94598388671875 20.12152099609375 8.736953735351562 24.88084411621094 6.495796203613281 30.17950439453125 C 4.176155090332031 35.66376876831055 3 41.49121475219727 3 47.5 C 3 53.50878524780273 4.176155090332031 59.33623123168945 6.495796203613281 64.82049560546875 C 8.736953735351562 70.11915588378906 11.94598388671875 74.87847900390625 16.03375244140625 78.96624755859375 C 20.12152099609375 83.05401611328125 24.88084411621094 86.26304626464844 30.17950439453125 88.50419616699219 C 35.66376876831055 90.82384490966797 41.49121475219727 92 47.5 92 C 53.50878524780273 92 59.33623123168945 90.82384490966797 64.82049560546875 88.50419616699219 C 70.11915588378906 86.26304626464844 74.87847900390625 83.05401611328125 78.96624755859375 78.96624755859375 C 83.05401611328125 74.87847900390625 86.26304626464844 70.11915588378906 88.50419616699219 64.82049560546875 C 90.82384490966797 59.33623123168945 92 53.50878524780273 92 47.5 C 92 41.49121475219727 90.82384490966797 35.66376876831055 88.50419616699219 30.17950439453125 C 86.26304626464844 24.88084411621094 83.05401611328125 20.12152099609375 78.96624755859375 16.03375244140625 C 74.87847900390625 11.94598388671875 70.11915588378906 8.736953735351562 64.82049560546875 6.495796203613281 C 59.33623123168945 4.176155090332031 53.50878524780273 3 47.5 3 M 47.5 0 C 73.7335205078125 0 95 21.2664794921875 95 47.5 C 95 73.7335205078125 73.7335205078125 95 47.5 95 C 21.2664794921875 95 0 73.7335205078125 0 47.5 C 0 21.2664794921875 21.2664794921875 0 47.5 0 Z" stroke="none" fill="#5692e8"/>
                  </g>
                </g>
              </g>
            </g>
          </g>
        </g>
      </g>
    </g>
    <g id="_x39_6_Building_Blocks" transform="translate(-19.687 6.721)">
      <g id="Grupo_1202403" data-name="Grupo 1202403" transform="translate(39.253 5.986)">
        <g id="Grupo_1202402" data-name="Grupo 1202402" transform="translate(3.56 0.784)">
          <path id="Trazado_1040821" data-name="Trazado 1040821" d="M146.182,299.818v4.661h-.005a8.106,8.106,0,0,0-8.106,8.106,1.072,1.072,0,0,0,.005.128h-8.142v-12.9h16.248Z" transform="translate(-121.808 -262.733)" fill="#efe9e5"/>
          <path id="Trazado_1040822" data-name="Trazado 1040822" d="M272.253,299.817v12.9h-8.142v-.067a8.106,8.106,0,0,0-8.106-8.106v-4.723h16.248Z" transform="translate(-231.631 -262.732)" fill="#efe9e5"/>
          <path id="Trazado_1040823" data-name="Trazado 1040823" d="M129.934,199.758h16.248V212.53H129.934Z" transform="translate(-121.808 -175.569)" fill="#efe9e5"/>
          <path id="Trazado_1040824" data-name="Trazado 1040824" d="M66.879,400.351H83.128v12.895H66.879Z" transform="translate(-66.879 -350.31)" fill="#efe9e5"/>
          <path id="Trazado_1040825" data-name="Trazado 1040825" d="M319.039,399.878h16.249v12.895H319.039Z" transform="translate(-286.541 -349.898)" fill="#efe9e5"/>
          <path id="Trazado_1040826" data-name="Trazado 1040826" d="M146.562,152.7v3.183a1.54,1.54,0,0,1-1.54,1.54H110.1a1.54,1.54,0,0,1-1.54-1.54V152.7a1.54,1.54,0,0,1,1.54-1.54h34.925A1.54,1.54,0,0,1,146.562,152.7Z" transform="translate(-103.186 -133.235)" fill="#efe9e5"/>
          <path id="Trazado_1040827" data-name="Trazado 1040827" d="M168.524,27.449,178.191,12.8a1.638,1.638,0,0,1,2.734,0l9.67,14.65a1.638,1.638,0,0,1-1.367,2.54l-19.337,0A1.638,1.638,0,0,1,168.524,27.449Z" transform="translate(-155.186 -12.066)" fill="#efe9e5"/>
        </g>
        <path id="Trazado_1040828" data-name="Trazado 1040828" d="M146.182,299.818v4.661h-.005a8.106,8.106,0,0,0-8.106,8.106,1.072,1.072,0,0,0,.005.128h-8.142v-12.9h16.248Z" transform="translate(-118.247 -261.95)" fill="#04b18b"/>
        <path id="Trazado_1040829" data-name="Trazado 1040829" d="M146.164,299.8v4.664h-.006a8.107,8.107,0,0,0-8.106,8.106.831.831,0,0,0,.006.125h-8.143v-3.072a8.826,8.826,0,0,0,11.247-8.482,9.461,9.461,0,0,0-.1-1.341h5.1Z" transform="translate(-118.231 -261.934)" fill="#fff" opacity="0.4"/>
        <path id="Trazado_1040830" data-name="Trazado 1040830" d="M272.253,299.817v12.9h-8.142v-.067a8.106,8.106,0,0,0-8.106-8.106v-4.723h16.248Z" transform="translate(-228.071 -261.949)" fill="#efe9e5"/>
        <path id="Trazado_1040831" data-name="Trazado 1040831" d="M330.09,299.8v12.9H322.4a12.565,12.565,0,0,0,3.442-12.9Z" transform="translate(-285.907 -261.934)" fill="#fff" opacity="0.4"/>
        <path id="Trazado_1040832" data-name="Trazado 1040832" d="M129.934,199.758h16.248V212.53H129.934Z" transform="translate(-118.247 -174.785)" fill="#efe9e5"/>
        <path id="Trazado_1040833" data-name="Trazado 1040833" d="M146.165,199.74v12.776H129.916v-2.928a8.491,8.491,0,0,0,12.225-7.623,8.152,8.152,0,0,0-.3-2.226Z" transform="translate(-118.232 -174.77)" fill="#fff" opacity="0.4"/>
        <path id="Trazado_1040834" data-name="Trazado 1040834" d="M66.879,400.351H83.128v12.895H66.879Z" transform="translate(-63.319 -349.526)" fill="#65cef8"/>
        <path id="Trazado_1040835" data-name="Trazado 1040835" d="M319.039,399.878h16.249v12.895H319.039Z" transform="translate(-282.981 -349.114)" fill="#fbca43"/>
        <path id="Trazado_1040836" data-name="Trazado 1040836" d="M83.123,400.345v12.9H66.874v-2.4a20.855,20.855,0,0,0,13.14-10.494Z" transform="translate(-63.314 -349.521)" fill="#fff" opacity="0.4"/>
        <path id="Trazado_1040837" data-name="Trazado 1040837" d="M335.29,399.859v12.9H319.041v-2.646a14.831,14.831,0,0,0,14.112-10.25Z" transform="translate(-282.983 -349.098)" fill="#fff" opacity="0.4"/>
        <path id="Trazado_1040838" data-name="Trazado 1040838" d="M146.562,152.7v3.183a1.54,1.54,0,0,1-1.54,1.54H110.1a1.54,1.54,0,0,1-1.54-1.54V152.7a1.54,1.54,0,0,1,1.54-1.54h34.925A1.54,1.54,0,0,1,146.562,152.7Z" transform="translate(-99.625 -132.451)" fill="#333c54"/>
        <path id="Trazado_1040839" data-name="Trazado 1040839" d="M146.565,152.688v3.185a1.538,1.538,0,0,1-1.536,1.536H110.1a1.54,1.54,0,0,1-1.542-1.536v-3.185a1.541,1.541,0,0,1,1.542-1.542h3.667a14.638,14.638,0,0,0,20.913,0h10.344a1.54,1.54,0,0,1,1.536,1.542Z" transform="translate(-99.63 -132.438)" fill="#fff" opacity="0.4"/>
        <path id="Trazado_1040840" data-name="Trazado 1040840" d="M168.524,27.449,178.191,12.8a1.638,1.638,0,0,1,2.734,0l9.67,14.65a1.638,1.638,0,0,1-1.367,2.54l-19.337,0A1.638,1.638,0,0,1,168.524,27.449Z" transform="translate(-151.625 -11.282)" fill="#fe9c14"/>
        <path id="Trazado_1040841" data-name="Trazado 1040841" d="M237.657,30H223.846a11.307,11.307,0,0,0,2.7-17.064l.081-.125a1.64,1.64,0,0,1,2.733,0l9.667,14.651A1.636,1.636,0,0,1,237.657,30Z" transform="translate(-200.056 -11.29)" fill="#fff" opacity="0.4"/>
        <path id="Trazado_1040842" data-name="Trazado 1040842" d="M256.005,199.758h16.248V212.53H256.005Z" transform="translate(-228.071 -174.785)" fill="none"/>
        <path id="Trazado_1040843" data-name="Trazado 1040843" d="M256.005,199.758h16.248V212.53H256.005Z" transform="translate(-228.071 -174.785)" fill="#fc575b"/>
        <path id="Trazado_1040844" data-name="Trazado 1040844" d="M272.248,199.74v12.776H256v-1.223a13.425,13.425,0,0,0,12.739-11.554Z" transform="translate(-228.065 -174.77)" fill="#fff" opacity="0.4"/>
        <path id="Trazado_1040845" data-name="Trazado 1040845" d="M94.337,68.861H92.343V56.75a.784.784,0,0,0-.784-.784H84.22V53.832a.784.784,0,1,0-1.567,0v2.132H76.047a8.914,8.914,0,0,0-8.076-8.133v-3.2H82.652v2.182a.784.784,0,1,0,1.567,0c0-2.517,0-11.89,0-15.075h.431a2.326,2.326,0,0,0,2.324-2.323V26.236a2.327,2.327,0,0,0-2.324-2.324H79.121a2.415,2.415,0,0,0-.245-2.188l-9.67-14.65a2.414,2.414,0,0,0-2.021-1.088h0a2.414,2.414,0,0,0-2.02,1.088L55.5,21.721a2.418,2.418,0,0,0-.243,2.191h-5.53A2.326,2.326,0,0,0,47.4,26.236v3.183a2.326,2.326,0,0,0,2.323,2.323h.432V56.027H42.813a.784.784,0,0,0-.784.784v12.05H40.037a.784.784,0,1,0,0,1.567h54.3a.784.784,0,1,0,0-1.567ZM74.509,56.747c0,.091.019,12.024.019,12.114H59.846c0-.064.023-12.176.014-12.239a7.327,7.327,0,0,1,7.078-7.31.769.769,0,0,0,.248.05,7.353,7.353,0,0,1,7.323,7.385ZM51.723,44.638H66.4v3.128a8.9,8.9,0,0,0-8.087,8.2H51.724V44.638Zm30.928-1.69H67.971V31.742H82.652ZM57.518,23.909a.854.854,0,0,1-.713-1.325L66.473,7.937a.877.877,0,0,1,1.426,0l9.67,14.65a.854.854,0,0,1-.713,1.325h0Zm-8.549,5.51V26.236a.757.757,0,0,1,.756-.757H84.65a.757.757,0,0,1,.757.757v3.183a.757.757,0,0,1-.757.756H49.725A.757.757,0,0,1,48.969,29.419ZM66.4,31.742V42.947H51.723V31.742ZM43.6,57.594H58.278V68.861H43.6Zm32.5,11.266V57.533H90.776V68.861Z" transform="translate(-39.253 -5.986)"/>
      </g>
    </g>
  </g>
</svg>
