<svg xmlns="http://www.w3.org/2000/svg" xmlns:xlink="http://www.w3.org/1999/xlink" width="113" height="113" viewBox="0 0 113 113">
  <defs>
    <filter id="Trazado_982547" x="0" y="0" width="113" height="113" filterUnits="userSpaceOnUse">
      <feOffset dy="3" input="SourceAlpha"/>
      <feGaussianBlur stdDeviation="3" result="blur"/>
      <feFlood flood-opacity="0.161"/>
      <feComposite operator="in" in2="blur"/>
      <feComposite in="SourceGraphic"/>
    </filter>
  </defs>
  <g id="Grupo_1210877" data-name="Grupo 1210877" transform="translate(-4815.85 -6991.521)">
    <g id="Grupo_1210859" data-name="Grupo 1210859" transform="translate(4824.85 6997.521)">
      <g id="Grupo_1210834" data-name="Grupo 1210834" transform="translate(0)">
        <g id="Grupo_1202055" data-name="Grupo 1202055">
          <g id="Grupo_1177900" data-name="Grupo 1177900">
            <g id="Grupo_1172010" data-name="Grupo 1172010">
              <g id="Grupo_1171046" data-name="Grupo 1171046">
                <g id="Grupo_1148525" data-name="Grupo 1148525">
                  <g transform="matrix(1, 0, 0, 1, -9, -6)" filter="url(#Trazado_982547)">
                    <g id="Trazado_982547-2" data-name="Trazado 982547" transform="translate(9 6)" fill="#edf3fc">
                      <path d="M 47.5 93.5 C 41.28937149047852 93.5 35.26533508300781 92.28397369384766 29.59518623352051 89.88570404052734 C 24.11771965026855 87.56893157958984 19.19813346862793 84.25196075439453 14.97309303283691 80.02691650390625 C 10.74804019927979 75.80186462402344 7.431066513061523 70.88229370117188 5.114293098449707 65.40481567382812 C 2.716026782989502 59.73468017578125 1.5 53.71062850952148 1.5 47.5 C 1.5 41.28937149047852 2.716026782989502 35.26533508300781 5.114293098449707 29.59518623352051 C 7.431066513061523 24.11771965026855 10.74804019927979 19.19813346862793 14.97309303283691 14.97309303283691 C 19.19813346862793 10.74804019927979 24.11771965026855 7.431066513061523 29.59518623352051 5.114293098449707 C 35.26533508300781 2.716026782989502 41.28937149047852 1.5 47.5 1.5 C 53.71062850952148 1.5 59.73468017578125 2.716026782989502 65.40481567382812 5.114293098449707 C 70.88229370117188 7.431066513061523 75.80186462402344 10.74804019927979 80.02691650390625 14.97309303283691 C 84.25196075439453 19.19813346862793 87.56893157958984 24.11771965026855 89.88570404052734 29.59518623352051 C 92.28397369384766 35.26533508300781 93.5 41.28937149047852 93.5 47.5 C 93.5 53.71062850952148 92.28397369384766 59.73468017578125 89.88570404052734 65.40481567382812 C 87.56893157958984 70.88229370117188 84.25196075439453 75.80186462402344 80.02691650390625 80.02691650390625 C 75.80186462402344 84.25196075439453 70.88229370117188 87.56893157958984 65.40481567382812 89.88570404052734 C 59.73468017578125 92.28397369384766 53.71062850952148 93.5 47.5 93.5 Z" stroke="none"/>
                      <path d="M 47.5 3 C 41.49121475219727 3 35.66376876831055 4.176155090332031 30.17950439453125 6.495796203613281 C 24.88084411621094 8.736953735351562 20.12152099609375 11.94598388671875 16.03375244140625 16.03375244140625 C 11.94598388671875 20.12152099609375 8.736953735351562 24.88084411621094 6.495796203613281 30.17950439453125 C 4.176155090332031 35.66376876831055 3 41.49121475219727 3 47.5 C 3 53.50878524780273 4.176155090332031 59.33623123168945 6.495796203613281 64.82049560546875 C 8.736953735351562 70.11915588378906 11.94598388671875 74.87847900390625 16.03375244140625 78.96624755859375 C 20.12152099609375 83.05401611328125 24.88084411621094 86.26304626464844 30.17950439453125 88.50419616699219 C 35.66376876831055 90.82384490966797 41.49121475219727 92 47.5 92 C 53.50878524780273 92 59.33623123168945 90.82384490966797 64.82049560546875 88.50419616699219 C 70.11915588378906 86.26304626464844 74.87847900390625 83.05401611328125 78.96624755859375 78.96624755859375 C 83.05401611328125 74.87847900390625 86.26304626464844 70.11915588378906 88.50419616699219 64.82049560546875 C 90.82384490966797 59.33623123168945 92 53.50878524780273 92 47.5 C 92 41.49121475219727 90.82384490966797 35.66376876831055 88.50419616699219 30.17950439453125 C 86.26304626464844 24.88084411621094 83.05401611328125 20.12152099609375 78.96624755859375 16.03375244140625 C 74.87847900390625 11.94598388671875 70.11915588378906 8.736953735351562 64.82049560546875 6.495796203613281 C 59.33623123168945 4.176155090332031 53.50878524780273 3 47.5 3 M 47.5 0 C 73.7335205078125 0 95 21.2664794921875 95 47.5 C 95 73.7335205078125 73.7335205078125 95 47.5 95 C 21.2664794921875 95 0 73.7335205078125 0 47.5 C 0 21.2664794921875 21.2664794921875 0 47.5 0 Z" stroke="none" fill="#5692e8"/>
                    </g>
                  </g>
                </g>
              </g>
            </g>
          </g>
        </g>
      </g>
    </g>
    <g id="fan-tan_10553603_1_" data-name="fan-tan_10553603 (1)" transform="translate(4826.124 7000.295)">
      <path id="Trazado_1041102" data-name="Trazado 1041102" d="M24,152H65.617v41.617H24Z" transform="translate(-7.009 -119.155)" fill="#c3c6c7"/>
      <path id="Trazado_1041103" data-name="Trazado 1041103" d="M24,152l20.808,20.808L65.617,152Z" transform="translate(-7.009 -119.155)" fill="#ffd33a"/>
      <path id="Trazado_1041104" data-name="Trazado 1041104" d="M24,193.617l20.808-20.808L24,152Z" transform="translate(-7.009 -119.155)" fill="#eb423f"/>
      <path id="Trazado_1041105" data-name="Trazado 1041105" d="M212.808,152,192,172.808l20.808,20.808Z" transform="translate(-154.201 -119.155)" fill="#35a872"/>
      <path id="Trazado_1041106" data-name="Trazado 1041106" d="M0,0H57.453V4.2H0Z" transform="translate(30.859 57.615) rotate(-45)" fill="#95573a"/>
      <path id="Trazado_1041107" data-name="Trazado 1041107" d="M347.817,347.817H328L329.982,328h15.854Z" transform="translate(-273.356 -273.356)" fill="#e9eef2"/>
      <path id="Trazado_1041108" data-name="Trazado 1041108" d="M344,296h15.854v3.964H344Z" transform="translate(-287.374 -245.319)" fill="#c3c6c7"/>
      <g id="Grupo_1210876" data-name="Grupo 1210876" transform="translate(16.233 16.233)">
        <ellipse id="Elipse_12581" data-name="Elipse 12581" cx="2.328" cy="1.552" rx="2.328" ry="1.552" transform="translate(0 9.313)" fill="#e9eef2"/>
        <circle id="Elipse_12582" data-name="Elipse 12582" cx="1.552" cy="1.552" r="1.552" transform="translate(9.313 9.313)" fill="#e9eef2"/>
        <circle id="Elipse_12583" data-name="Elipse 12583" cx="1.552" cy="1.552" r="1.552" transform="translate(17.075 9.313)" fill="#e9eef2"/>
        <circle id="Elipse_12584" data-name="Elipse 12584" cx="1.552" cy="1.552" r="1.552" transform="translate(24.836 9.313)" fill="#e9eef2"/>
        <circle id="Elipse_12585" data-name="Elipse 12585" cx="2.328" cy="2.328" r="2.328" transform="translate(0 0)" fill="#e9eef2"/>
        <ellipse id="Elipse_12586" data-name="Elipse 12586" cx="1.552" cy="2.328" rx="1.552" ry="2.328" transform="translate(9.313 0)" fill="#e9eef2"/>
        <ellipse id="Elipse_12587" data-name="Elipse 12587" cx="1.552" cy="2.328" rx="1.552" ry="2.328" transform="translate(17.075 0)" fill="#e9eef2"/>
        <ellipse id="Elipse_12588" data-name="Elipse 12588" cx="1.552" cy="2.328" rx="1.552" ry="2.328" transform="translate(24.836 0)" fill="#e9eef2"/>
        <circle id="Elipse_12589" data-name="Elipse 12589" cx="1.552" cy="1.552" r="1.552" transform="translate(32.597 9.313)" fill="#e9eef2"/>
        <ellipse id="Elipse_12590" data-name="Elipse 12590" cx="1.552" cy="2.328" rx="1.552" ry="2.328" transform="translate(32.597 0)" fill="#e9eef2"/>
      </g>
      <path id="Trazado_1041109" data-name="Trazado 1041109" d="M73.471,54.595V50.681a.991.991,0,0,0-.991-.991H59.6V36.228L75.162,20.664a.991.991,0,0,0,0-1.4L72.189,16.29a.991.991,0,0,0-1.4,0L55.224,31.854H16.991a.984.984,0,0,0-.989.991h0V74.461h0a.984.984,0,0,0,.988.991H74.461a.991.991,0,0,0,.986-1.089Zm-1.982-.942H57.617V51.671H71.489ZM57.617,49.69h-.991a.991.991,0,0,0-.991.991v3.914L54.226,68.679l-13.54-13.54,16.93-16.93Zm13.872-31.3,1.571,1.571L33.836,59.188l-1.571-1.571ZM17.982,35.237l16.93,16.93-4.749,4.749a.991.991,0,0,0,0,1.4l.786.786L17.982,72.069Zm35.261-1.4-16.93,16.93-16.93-16.93ZM32.349,60.5l.786.786a.991.991,0,0,0,1.4,0l4.749-4.749L53.944,71.2l.034-.034-.231,2.306H19.383Zm23.39,12.966,1.784-17.836h14.06l1.784,17.836ZM24.918,49.69v7.927a.991.991,0,1,1-1.982,0V51.293l-.548.274a.991.991,0,0,1-.886-1.772l1.982-.991a.991.991,0,0,1,1.434.886Zm9.909-3.963a.991.991,0,0,1-.991-.991V42.754a2.844,2.844,0,0,1,2.973-2.973.991.991,0,1,0,0-1.982H34.827a.991.991,0,0,1,0-1.982h1.982a2.973,2.973,0,1,1,0,5.945.871.871,0,0,0-.991.991v.991H38.79a.991.991,0,1,1,0,1.982Zm12.881,5.945a.991.991,0,0,1,.991-.991H50.68a2.844,2.844,0,0,1,2.973,2.973,3.015,3.015,0,0,1-.682,1.982,3.015,3.015,0,0,1,.682,1.982,2.844,2.844,0,0,1-2.973,2.973H48.7a.991.991,0,1,1,0-1.982H50.68a.991.991,0,1,0,0-1.982H49.69a.991.991,0,0,1,0-1.982h.991a.991.991,0,1,0,0-1.982H48.7A.991.991,0,0,1,47.708,51.671ZM40.772,66.534h-.991V60.589a.991.991,0,0,0-1.743-.645l-5.945,6.936a.991.991,0,0,0,.752,1.636H37.8V70.5a.991.991,0,1,0,1.982,0V68.516h.991a.991.991,0,1,0,0-1.982Zm-2.973,0H35l2.8-3.267ZM18.973,29.872A2.973,2.973,0,1,0,16,26.9,2.976,2.976,0,0,0,18.973,29.872Zm0-3.963a.991.991,0,1,1-.991.991A.992.992,0,0,1,18.973,25.909ZM26.9,29.872A2.973,2.973,0,1,0,23.927,26.9,2.976,2.976,0,0,0,26.9,29.872Zm0-3.963a.991.991,0,1,1-.991.991A.992.992,0,0,1,26.9,25.909Zm7.927,3.963A2.973,2.973,0,1,0,31.854,26.9,2.976,2.976,0,0,0,34.827,29.872Zm0-3.963a.991.991,0,1,1-.991.991A.992.992,0,0,1,34.827,25.909Zm7.927,3.963A2.973,2.973,0,1,0,39.781,26.9,2.976,2.976,0,0,0,42.754,29.872Zm0-3.963a.991.991,0,1,1-.991.991A.992.992,0,0,1,42.754,25.909ZM18.973,21.945A2.973,2.973,0,1,0,16,18.973,2.976,2.976,0,0,0,18.973,21.945Zm0-3.963a.991.991,0,1,1-.991.991A.992.992,0,0,1,18.973,17.982ZM26.9,21.945a2.973,2.973,0,1,0-2.973-2.973A2.976,2.976,0,0,0,26.9,21.945Zm0-3.963a.991.991,0,1,1-.991.991A.992.992,0,0,1,26.9,17.982Zm7.927,3.963a2.973,2.973,0,1,0-2.973-2.973A2.976,2.976,0,0,0,34.827,21.945Zm0-3.963a.991.991,0,1,1-.991.991A.992.992,0,0,1,34.827,17.982Zm7.927,3.963a2.973,2.973,0,1,0-2.973-2.973A2.976,2.976,0,0,0,42.754,21.945Zm0-3.963a.991.991,0,1,1-.991.991A.992.992,0,0,1,42.754,17.982Zm7.927,11.89A2.973,2.973,0,1,0,47.708,26.9,2.976,2.976,0,0,0,50.68,29.872Zm0-3.963a.991.991,0,1,1-.991.991A.992.992,0,0,1,50.68,25.909Zm0-3.963a2.973,2.973,0,1,0-2.973-2.973A2.976,2.976,0,0,0,50.68,21.945Zm0-3.963a.991.991,0,1,1-.991.991A.992.992,0,0,1,50.68,17.982Z" transform="translate(0 0)"/>
    </g>
  </g>
</svg>
