<svg xmlns="http://www.w3.org/2000/svg" xmlns:xlink="http://www.w3.org/1999/xlink" width="113" height="113" viewBox="0 0 113 113">
  <defs>
    <filter id="Path_982547" x="0" y="0" width="113" height="113" filterUnits="userSpaceOnUse">
      <feOffset dy="3" input="SourceAlpha"/>
      <feGaussianBlur stdDeviation="3" result="blur"/>
      <feFlood flood-opacity="0.161"/>
      <feComposite operator="in" in2="blur"/>
      <feComposite in="SourceGraphic"/>
    </filter>
  </defs>
  <g id="Group_1202454" data-name="Group 1202454" transform="translate(-272 -4676.514)">
    <g id="Group_1202354" data-name="Group 1202354" transform="translate(0 31)">
      <g id="Group_1202055" data-name="Group 1202055" transform="translate(0 3240.511)">
        <g id="Group_1177900" data-name="Group 1177900" transform="translate(281 1411.003)">
          <g id="Group_1172010" data-name="Group 1172010" transform="translate(0)">
            <g id="Group_1171046" data-name="Group 1171046">
              <g id="Group_1148525" data-name="Group 1148525">
                <g transform="matrix(1, 0, 0, 1, -9, -6)" filter="url(#Path_982547)">
                  <g id="Path_982547-2" data-name="Path 982547" transform="translate(9 6)" fill="#edf3fc">
                    <path d="M 47.5 93.5 C 41.28937149047852 93.5 35.26533508300781 92.28397369384766 29.59518623352051 89.88570404052734 C 24.11771965026855 87.56893157958984 19.19813346862793 84.25196075439453 14.97309303283691 80.02691650390625 C 10.74804019927979 75.80186462402344 7.431066513061523 70.88229370117188 5.114293098449707 65.40481567382812 C 2.716026782989502 59.73468017578125 1.5 53.71062850952148 1.5 47.5 C 1.5 41.28937149047852 2.716026782989502 35.26533508300781 5.114293098449707 29.59518623352051 C 7.431066513061523 24.11771965026855 10.74804019927979 19.19813346862793 14.97309303283691 14.97309303283691 C 19.19813346862793 10.74804019927979 24.11771965026855 7.431066513061523 29.59518623352051 5.114293098449707 C 35.26533508300781 2.716026782989502 41.28937149047852 1.5 47.5 1.5 C 53.71062850952148 1.5 59.73468017578125 2.716026782989502 65.40481567382812 5.114293098449707 C 70.88229370117188 7.431066513061523 75.80186462402344 10.74804019927979 80.02691650390625 14.97309303283691 C 84.25196075439453 19.19813346862793 87.56893157958984 24.11771965026855 89.88570404052734 29.59518623352051 C 92.28397369384766 35.26533508300781 93.5 41.28937149047852 93.5 47.5 C 93.5 53.71062850952148 92.28397369384766 59.73468017578125 89.88570404052734 65.40481567382812 C 87.56893157958984 70.88229370117188 84.25196075439453 75.80186462402344 80.02691650390625 80.02691650390625 C 75.80186462402344 84.25196075439453 70.88229370117188 87.56893157958984 65.40481567382812 89.88570404052734 C 59.73468017578125 92.28397369384766 53.71062850952148 93.5 47.5 93.5 Z" stroke="none"/>
                    <path d="M 47.5 3 C 41.49121475219727 3 35.66376876831055 4.176155090332031 30.17950439453125 6.495796203613281 C 24.88084411621094 8.736953735351562 20.12152099609375 11.94598388671875 16.03375244140625 16.03375244140625 C 11.94598388671875 20.12152099609375 8.736953735351562 24.88084411621094 6.495796203613281 30.17950439453125 C 4.176155090332031 35.66376876831055 3 41.49121475219727 3 47.5 C 3 53.50878524780273 4.176155090332031 59.33623123168945 6.495796203613281 64.82049560546875 C 8.736953735351562 70.11915588378906 11.94598388671875 74.87847900390625 16.03375244140625 78.96624755859375 C 20.12152099609375 83.05401611328125 24.88084411621094 86.26304626464844 30.17950439453125 88.50419616699219 C 35.66376876831055 90.82384490966797 41.49121475219727 92 47.5 92 C 53.50878524780273 92 59.33623123168945 90.82384490966797 64.82049560546875 88.50419616699219 C 70.11915588378906 86.26304626464844 74.87847900390625 83.05401611328125 78.96624755859375 78.96624755859375 C 83.05401611328125 74.87847900390625 86.26304626464844 70.11915588378906 88.50419616699219 64.82049560546875 C 90.82384490966797 59.33623123168945 92 53.50878524780273 92 47.5 C 92 41.49121475219727 90.82384490966797 35.66376876831055 88.50419616699219 30.17950439453125 C 86.26304626464844 24.88084411621094 83.05401611328125 20.12152099609375 78.96624755859375 16.03375244140625 C 74.87847900390625 11.94598388671875 70.11915588378906 8.736953735351562 64.82049560546875 6.495796203613281 C 59.33623123168945 4.176155090332031 53.50878524780273 3 47.5 3 M 47.5 0 C 73.7335205078125 0 95 21.2664794921875 95 47.5 C 95 73.7335205078125 73.7335205078125 95 47.5 95 C 21.2664794921875 95 0 73.7335205078125 0 47.5 C 0 21.2664794921875 21.2664794921875 0 47.5 0 Z" stroke="none" fill="#5692e8"/>
                  </g>
                </g>
              </g>
            </g>
          </g>
        </g>
      </g>
      <g id="box_16283956" transform="translate(292.838 4662.838)">
        <g id="Group_1202348" data-name="Group 1202348" transform="translate(9.5 34.002)">
          <path id="Path_1040646" data-name="Path 1040646" d="M31.945,31.5H14.557A4.032,4.032,0,0,0,10.5,35.557V52.945A4.032,4.032,0,0,0,14.557,57H31.945A4.032,4.032,0,0,0,36,52.945V35.557A3.962,3.962,0,0,0,31.945,31.5Z" transform="translate(-9.341 -30.341)" fill="#76bfe9"/>
          <path id="Path_1040647" data-name="Path 1040647" d="M32.1,58.321H14.716A5.2,5.2,0,0,1,9.5,53.1V35.716A5.2,5.2,0,0,1,14.716,30.5H32.1a5.2,5.2,0,0,1,5.216,5.216V53.1A5.2,5.2,0,0,1,32.1,58.321Zm-17.388-25.5a2.87,2.87,0,0,0-2.9,2.9V53.1a2.87,2.87,0,0,0,2.9,2.9H32.1A2.87,2.87,0,0,0,35,53.1V35.716a2.87,2.87,0,0,0-2.9-2.9Z" transform="translate(-9.5 -30.5)"/>
        </g>
        <g id="Group_1202349" data-name="Group 1202349" transform="translate(35.002 34.002)">
          <path id="Path_1040648" data-name="Path 1040648" d="M53.945,31.5H36.557A4.032,4.032,0,0,0,32.5,35.557V52.945A4.032,4.032,0,0,0,36.557,57H53.945A4.032,4.032,0,0,0,58,52.945V35.557A3.962,3.962,0,0,0,53.945,31.5Z" transform="translate(-31.341 -30.341)" fill="#fcd66f"/>
          <path id="Path_1040649" data-name="Path 1040649" d="M54.1,58.321H36.716A5.2,5.2,0,0,1,31.5,53.1V35.716A5.2,5.2,0,0,1,36.716,30.5H54.1a5.2,5.2,0,0,1,5.216,5.216V53.1A5.2,5.2,0,0,1,54.1,58.321Zm-17.388-25.5a2.87,2.87,0,0,0-2.9,2.9V53.1a2.87,2.87,0,0,0,2.9,2.9H54.1A2.87,2.87,0,0,0,57,53.1V35.716a2.87,2.87,0,0,0-2.9-2.9Z" transform="translate(-31.5 -30.5)"/>
        </g>
        <g id="Group_1202350" data-name="Group 1202350" transform="translate(22.251 8.5)">
          <path id="Path_1040650" data-name="Path 1040650" d="M42.945,9.5H25.557A4.032,4.032,0,0,0,21.5,13.557V30.945A4.032,4.032,0,0,0,25.557,35H42.945A4.032,4.032,0,0,0,47,30.945V13.557A3.962,3.962,0,0,0,42.945,9.5Z" transform="translate(-20.341 -8.341)" fill="#e95c60"/>
          <path id="Path_1040651" data-name="Path 1040651" d="M43.1,36.321H25.716A5.2,5.2,0,0,1,20.5,31.1V13.716A5.2,5.2,0,0,1,25.716,8.5H43.1a5.2,5.2,0,0,1,5.216,5.216V31.1A5.2,5.2,0,0,1,43.1,36.321Zm-17.388-25.5a2.87,2.87,0,0,0-2.9,2.9V31.1a2.87,2.87,0,0,0,2.9,2.9H43.1A2.87,2.87,0,0,0,46,31.1V13.716a2.87,2.87,0,0,0-2.9-2.9Z" transform="translate(-20.5 -8.5)"/>
        </g>
        <g id="Group_1202351" data-name="Group 1202351" transform="translate(33.843 15.571)">
          <path id="Path_1040652" data-name="Path 1040652" d="M33.282,16.339l-2.434,1.275L30.5,16.223,33.514,14.6h1.507V28.163H33.282Z" transform="translate(-30.5 -14.6)"/>
        </g>
        <g id="Group_1202352" data-name="Group 1202352" transform="translate(19.121 41.074)">
          <path id="Path_1040653" data-name="Path 1040653" d="M17.8,50.394V49.235l1.391-1.391c3.478-3.246,4.985-5.1,5.1-7.071a2.431,2.431,0,0,0-2.666-2.666,4.427,4.427,0,0,0-2.9,1.159l-.58-1.275A5.916,5.916,0,0,1,21.973,36.6a3.83,3.83,0,0,1,4.173,3.941c0,2.55-1.855,4.521-4.637,7.3l-1.159.927h6.144v1.507H17.8Z" transform="translate(-17.8 -36.6)"/>
        </g>
        <g id="Group_1202353" data-name="Group 1202353" transform="translate(44.624 40.726)">
          <path id="Path_1040654" data-name="Path 1040654" d="M40.38,48.124a6.264,6.264,0,0,0,3.014.811c2.318,0,3.13-1.507,3.014-2.666,0-1.855-1.739-2.666-3.478-2.666H41.887V42.212H42.93c1.391,0,3.014-.7,3.014-2.318,0-1.043-.7-2.087-2.434-2.087a4.586,4.586,0,0,0-2.666.927l-.464-1.391A6.962,6.962,0,0,1,43.973,36.3c2.666,0,3.825,1.623,3.825,3.246a3.474,3.474,0,0,1-2.55,3.246,3.6,3.6,0,0,1,3.014,3.478c0,2.2-1.739,4.057-4.985,4.057A6.256,6.256,0,0,1,39.8,49.4Z" transform="translate(-39.8 -36.3)"/>
        </g>
      </g>
    </g>
  </g>
</svg>
