<svg xmlns="http://www.w3.org/2000/svg" xmlns:xlink="http://www.w3.org/1999/xlink" width="108" height="108" viewBox="0 0 108 108">
  <defs>
    <filter id="Path_904820" x="0" y="0" width="108" height="108" filterUnits="userSpaceOnUse">
      <feOffset dy="3" input="SourceAlpha"/>
      <feGaussianBlur stdDeviation="3" result="blur"/>
      <feFlood flood-opacity="0.161"/>
      <feComposite operator="in" in2="blur"/>
      <feComposite in="SourceGraphic"/>
    </filter>
  </defs>
  <g id="Group_1202442" data-name="Group 1202442" transform="translate(-619.477 -481.532)">
    <g id="Group_1202325" data-name="Group 1202325">
      <g id="Group_1177315" data-name="Group 1177315" transform="translate(-0.522 -44.468)">
        <g id="Group_1173585" data-name="Group 1173585" transform="translate(629 532)">
          <g id="Group_1173428" data-name="Group 1173428" transform="translate(0 0)">
            <g id="Group_1171958" data-name="Group 1171958">
              <g id="Group_1167341" data-name="Group 1167341">
                <g id="Group_1166792" data-name="Group 1166792">
                  <g transform="matrix(1, 0, 0, 1, -9, -6)" filter="url(#Path_904820)">
                    <g id="Path_904820-2" data-name="Path 904820" transform="translate(9 6)" fill="#effbfe">
                      <path d="M 44.99999618530273 88.49999237060547 C 39.12687301635742 88.49999237060547 33.43022155761719 87.35006713867188 28.06829643249512 85.08216857910156 C 22.88852119445801 82.89130401611328 18.23629570007324 79.75457763671875 14.24084663391113 75.75914001464844 C 10.24540901184082 71.76369476318359 7.108683586120605 67.11146545410156 4.917821407318115 61.93169403076172 C 2.649921178817749 56.56976699829102 1.499996185302734 50.87311553955078 1.499996185302734 44.99999237060547 C 1.499996185302734 39.12686920166016 2.649921178817749 33.43021774291992 4.917821407318115 28.06829261779785 C 7.108683586120605 22.88851737976074 10.24540901184082 18.23630523681641 14.24084663391113 14.24085521697998 C 18.23629570007324 10.24540519714355 22.88852119445801 7.108692169189453 28.06829643249512 4.917829990386963 C 33.43022155761719 2.649929761886597 39.12687301635742 1.500004887580872 44.99999618530273 1.500004887580872 C 50.87311935424805 1.500004887580872 56.56977081298828 2.649929761886597 61.93169784545898 4.917829990386963 C 67.11147308349609 7.108692169189453 71.76369476318359 10.24540519714355 75.75914764404297 14.24085521697998 C 79.75458526611328 18.23630523681641 82.89131164550781 22.88851737976074 85.08216857910156 28.06829261779785 C 87.35007476806641 33.43021774291992 88.5 39.12686920166016 88.5 44.99999237060547 C 88.5 50.87311553955078 87.35007476806641 56.56976699829102 85.08216857910156 61.93169403076172 C 82.89131164550781 67.11146545410156 79.75458526611328 71.76369476318359 75.75914764404297 75.75914001464844 C 71.76369476318359 79.75457763671875 67.11147308349609 82.89130401611328 61.93169784545898 85.08216857910156 C 56.56977081298828 87.35006713867188 50.87311935424805 88.49999237060547 44.99999618530273 88.49999237060547 Z" stroke="none"/>
                      <path d="M 44.99999618530273 2.999992370605469 C 39.32870864868164 2.999992370605469 33.82865142822266 4.11004638671875 28.65262603759766 6.299331665039062 C 23.65165710449219 8.414566040039062 19.15968322753906 11.44333648681641 15.301513671875 15.30150604248047 C 11.44333648681641 19.15967559814453 8.414566040039062 23.65164947509766 6.299339294433594 28.65262222290039 C 4.110054016113281 33.82864761352539 2.999992370605469 39.32870483398438 2.999992370605469 44.99999237060547 C 2.999992370605469 50.67127990722656 4.110054016113281 56.17132186889648 6.299339294433594 61.34736633300781 C 8.414566040039062 66.34833526611328 11.44333648681641 70.84029388427734 15.301513671875 74.69846343994141 C 19.15968322753906 78.55663299560547 23.65165710449219 81.58540344238281 28.65262603759766 83.70063781738281 C 33.82865142822266 85.88992309570312 39.32870864868164 86.99997711181641 44.99999618530273 86.99997711181641 C 50.67128372192383 86.99997711181641 56.17134094238281 85.88992309570312 61.34736633300781 83.70063781738281 C 66.34834289550781 81.58540344238281 70.84030914306641 78.55663299560547 74.69847869873047 74.69846343994141 C 78.55665588378906 70.84029388427734 81.58542633056641 66.34833526611328 83.70065307617188 61.34736633300781 C 85.88993835449219 56.17132186889648 87 50.67127990722656 87 44.99999237060547 C 87 39.32870483398438 85.88993835449219 33.82864761352539 83.70065307617188 28.65262222290039 C 81.58542633056641 23.65164947509766 78.55665588378906 19.15967559814453 74.69847869873047 15.30150604248047 C 70.84030914306641 11.44333648681641 66.34834289550781 8.414566040039062 61.34736633300781 6.299331665039062 C 56.17134094238281 4.11004638671875 50.67128372192383 2.999992370605469 44.99999618530273 2.999992370605469 M 44.99999618530273 -7.62939453125e-06 C 69.85281372070312 -7.62939453125e-06 90 20.14717864990234 90 44.99999237060547 C 90 69.85279083251953 69.85281372070312 89.99997711181641 44.99999618530273 89.99997711181641 C 20.14717864990234 89.99997711181641 -7.62939453125e-06 69.85279083251953 -7.62939453125e-06 44.99999237060547 C -7.62939453125e-06 20.14717864990234 20.14717864990234 -7.62939453125e-06 44.99999618530273 -7.62939453125e-06 Z" stroke="none" fill="#497f88"/>
                    </g>
                  </g>
                </g>
              </g>
            </g>
          </g>
        </g>
      </g>
      <g id="choice_7919830" transform="translate(611.594 494.802)">
        <g id="Group_1202316" data-name="Group 1202316" transform="translate(42.115 43.63)">
          <path id="Path_1040553" data-name="Path 1040553" d="M113.268,308.428a3.491,3.491,0,0,0-2.091-3.2,9.906,9.906,0,0,0-7.721.1,10.053,10.053,0,0,0-6.5,8.9,1.332,1.332,0,0,1-.373.843c-1.294,1.335-5.432,6.288-1.285,11.359,4.931,6.029,10.133-1.165,15.5-1.483h0a2.466,2.466,0,0,0,2.472-2.46V308.428Z" transform="translate(-93.5 -304.5)" fill="#fe99a0"/>
          <path id="Path_1040554" data-name="Path 1040554" d="M143.643,305.232a9.236,9.236,0,0,0-5.423-.552,8.619,8.619,0,0,1,1.773.552,3.491,3.491,0,0,1,2.091,3.2v14.059c0,1.359-1.753,1.24-3.874,2.363a42.4,42.4,0,0,1-7.748,3.669c4.118,1.566,8.406-3.311,12.8-3.572h0a2.466,2.466,0,0,0,2.472-2.46V308.434A3.491,3.491,0,0,0,143.643,305.232Z" transform="translate(-125.966 -304.506)" fill="#fe76a8"/>
          <path id="Path_1040555" data-name="Path 1040555" d="M256,308.428a3.491,3.491,0,0,1,2.091-3.2,9.906,9.906,0,0,1,7.721.1,10.053,10.053,0,0,1,6.5,8.9,1.332,1.332,0,0,0,.373.843c1.294,1.335,5.432,6.288,1.285,11.359-4.931,6.029-10.133-1.165-15.5-1.483h0a2.466,2.466,0,0,1-2.472-2.46V308.428Z" transform="translate(-236.232 -304.5)" fill="#fe99a0"/>
          <path id="Path_1040556" data-name="Path 1040556" d="M300.585,315.074a1.332,1.332,0,0,1-.374-.843,10.053,10.053,0,0,0-6.5-8.9,10.614,10.614,0,0,0-5.948-.654,12.7,12.7,0,0,1,2.3.654,10.053,10.053,0,0,1,6.5,8.9,1.332,1.332,0,0,0,.373.843c1.294,1.336,5.432,6.288,1.285,11.359a6.536,6.536,0,0,1-2.7,2.088c2.157.643,4.275.442,6.345-2.088C306.017,321.362,301.879,316.409,300.585,315.074Z" transform="translate(-264.134 -304.502)" fill="#fe76a8"/>
        </g>
        <path id="Path_1040557" data-name="Path 1040557" d="M82.235,16.781a.332.332,0,0,1-.246-.241,7.8,7.8,0,0,0-11.422-4.794.325.325,0,0,1-.422-.087,10.286,10.286,0,0,0-16.524,0,.325.325,0,0,1-.422.087A7.8,7.8,0,0,0,41.778,16.54a.332.332,0,0,1-.246.241,8.471,8.471,0,1,0,4.865,16.2.325.325,0,0,1,.4.164,7.793,7.793,0,0,0,7.02,4.4c.935,0,1.777-.467,2.66-.467,3.991,0,3.878,4.975,5.4,4.975s1.422-4.975,5.4-4.975c.883,0,1.726.467,2.66.467a7.794,7.794,0,0,0,7.02-4.4.325.325,0,0,1,.4-.164,8.472,8.472,0,1,0,4.866-16.2Z" transform="translate(0 0)" fill="#f9f3f1"/>
        <g id="Group_1202317" data-name="Group 1202317" transform="translate(59.778 10.719)">
          <path id="Path_1040558" data-name="Path 1040558" d="M261.149,40.022a.332.332,0,0,1-.246-.241,7.791,7.791,0,0,0-7.3-5.821,7.808,7.808,0,0,1,3.489,4.237,1.476,1.476,0,0,0,.957.939,8.471,8.471,0,0,1-4.216,16.389,2.137,2.137,0,0,0-2.2.853,7.786,7.786,0,0,1-6.42,3.37c-.935,0-1.777-.467-2.66-.467-2.241,0-3.187,1.576-3.859,2.953.891,1.4,1.226,3.055,2.106,3.055,1.525,0,1.422-4.975,5.4-4.975.883,0,1.726.467,2.66.467a7.794,7.794,0,0,0,7.02-4.4.326.326,0,0,1,.4-.164,8.472,8.472,0,1,0,4.866-16.2Z" transform="translate(-238.692 -33.96)" fill="#f3eae6"/>
        </g>
        <path id="Path_1040559" data-name="Path 1040559" d="M82.371,80.477h-10.4a.885.885,0,0,1-.885-.885V69.2a.885.885,0,0,1,.885-.885h10.4a.885.885,0,0,1,.885.885v10.4A.885.885,0,0,1,82.371,80.477Z" transform="translate(-31.702 -53.414)" fill="#fe99a0"/>
        <path id="Path_1040560" data-name="Path 1040560" d="M137.469,68.312h-3.65a.885.885,0,0,1,.885.885v10.4a.885.885,0,0,1-.885.885h3.65a.885.885,0,0,0,.885-.885V69.2A.885.885,0,0,0,137.469,68.312Z" transform="translate(-86.799 -53.414)" fill="#fe76a8"/>
        <path id="Path_1040561" data-name="Path 1040561" d="M217.279,80.477h-10.4a.885.885,0,0,1-.885-.885V69.2a.885.885,0,0,1,.885-.885h10.4a.885.885,0,0,1,.885.885v10.4A.885.885,0,0,1,217.279,80.477Z" transform="translate(-150.198 -53.414)" fill="#fee45a"/>
        <path id="Path_1040562" data-name="Path 1040562" d="M272.377,68.312h-3.65a.885.885,0,0,1,.885.885v10.4a.885.885,0,0,1-.885.885h3.65a.885.885,0,0,0,.885-.885V69.2A.885.885,0,0,0,272.377,68.312Z" transform="translate(-205.295 -53.414)" fill="#fec165"/>
        <path id="Path_1040563" data-name="Path 1040563" d="M352.188,80.477h-10.4a.885.885,0,0,1-.885-.885V69.2a.885.885,0,0,1,.885-.885h10.4a.885.885,0,0,1,.885.885v10.4A.885.885,0,0,1,352.188,80.477Z" transform="translate(-268.695 -53.414)" fill="#00f2a6"/>
        <path id="Path_1040564" data-name="Path 1040564" d="M407.285,68.312h-3.649a.885.885,0,0,1,.885.885v10.4a.885.885,0,0,1-.885.885h3.649a.885.885,0,0,0,.885-.885V69.2A.885.885,0,0,0,407.285,68.312Z" transform="translate(-323.792 -53.414)" fill="#0ed2b3"/>
        <path id="Path_1040565" data-name="Path 1040565" d="M234.049,197.373l2.367-3.756a.307.307,0,0,1,.52,0l2.367,3.756a.312.312,0,0,1-.26.479h-4.735A.312.312,0,0,1,234.049,197.373Z" transform="translate(-174.793 -163.349)" fill="#62dbfb"/>
        <g id="Group_1202324" data-name="Group 1202324" transform="translate(34.999 7.5)">
          <g id="Group_1202320" data-name="Group 1202320" transform="translate(7.117 36.13)">
            <path id="Path_1040566" data-name="Path 1040566" d="M113.268,308.428a3.491,3.491,0,0,0-2.091-3.2,9.906,9.906,0,0,0-7.721.1,10.053,10.053,0,0,0-6.5,8.9,1.332,1.332,0,0,1-.373.843c-1.294,1.335-5.432,6.288-1.285,11.359,4.931,6.029,10.133-1.165,15.5-1.483h0a2.466,2.466,0,0,0,2.472-2.46V308.428Z" transform="translate(-93.5 -304.5)" fill="none" stroke="#000" stroke-linecap="round" stroke-linejoin="round" stroke-miterlimit="10" stroke-width="1"/>
            <g id="Group_1202318" data-name="Group 1202318" transform="translate(3.733 4.181)">
              <path id="Path_1040567" data-name="Path 1040567" d="M124.187,382.725a10.012,10.012,0,0,0,5.463,2.4" transform="translate(-124.187 -377.39)" fill="none" stroke="#000" stroke-linecap="round" stroke-linejoin="round" stroke-miterlimit="10" stroke-width="1"/>
              <path id="Path_1040568" data-name="Path 1040568" d="M210.12,350.176a4.976,4.976,0,0,1-3.495-.108,3.847,3.847,0,0,1-2.534-3.074" transform="translate(-194.372 -346.006)" fill="none" stroke="#000" stroke-linecap="round" stroke-linejoin="round" stroke-miterlimit="10" stroke-width="1"/>
              <path id="Path_1040569" data-name="Path 1040569" d="M221.479,424.33a7.444,7.444,0,0,0-4.4.926" transform="translate(-205.78 -413.9)" fill="none" stroke="#000" stroke-linecap="round" stroke-linejoin="round" stroke-miterlimit="10" stroke-width="1"/>
              <path id="Path_1040570" data-name="Path 1040570" d="M139.944,461.541a5.06,5.06,0,0,0-4.59-4.611" transform="translate(-133.996 -442.568)" fill="none" stroke="#000" stroke-linecap="round" stroke-linejoin="round" stroke-miterlimit="10" stroke-width="1"/>
              <path id="Path_1040571" data-name="Path 1040571" d="M172.478,379.025a7.418,7.418,0,0,0-1.316,5.333" transform="translate(-165.385 -374.14)" fill="none" stroke="#000" stroke-linecap="round" stroke-linejoin="round" stroke-miterlimit="10" stroke-width="1"/>
              <path id="Path_1040572" data-name="Path 1040572" d="M185.353,339.554a4.648,4.648,0,0,0,4.2-.683" transform="translate(-177.912 -338.871)" fill="none" stroke="#000" stroke-linecap="round" stroke-linejoin="round" stroke-miterlimit="10" stroke-width="1"/>
              <path id="Path_1040573" data-name="Path 1040573" d="M205.148,424.564a4.632,4.632,0,0,0-1.508-3.129" transform="translate(-193.975 -411.391)" fill="none" stroke="#000" stroke-linecap="round" stroke-linejoin="round" stroke-miterlimit="10" stroke-width="1"/>
            </g>
            <path id="Path_1040574" data-name="Path 1040574" d="M270.959,309.669a10.949,10.949,0,0,1,1.351,4.559,1.332,1.332,0,0,0,.373.843c1.294,1.335,5.432,6.288,1.285,11.359-4.931,6.029-10.133-1.165-15.5-1.483h0a2.466,2.466,0,0,1-2.472-2.46V308.428a3.491,3.491,0,0,1,2.091-3.2,9.906,9.906,0,0,1,7.721.1A10.7,10.7,0,0,1,268.2,306.6" transform="translate(-236.233 -304.5)" fill="none" stroke="#000" stroke-linecap="round" stroke-linejoin="round" stroke-miterlimit="10" stroke-width="1"/>
            <g id="Group_1202319" data-name="Group 1202319" transform="translate(20.054 4.181)">
              <path id="Path_1040575" data-name="Path 1040575" d="M348.368,382.725a10.012,10.012,0,0,1-5.463,2.4" transform="translate(-332.619 -377.39)" fill="none" stroke="#000" stroke-linecap="round" stroke-linejoin="round" stroke-miterlimit="10" stroke-width="1"/>
              <path id="Path_1040576" data-name="Path 1040576" d="M258.353,350.176a4.976,4.976,0,0,0,3.495-.108,3.847,3.847,0,0,0,2.534-3.074" transform="translate(-258.353 -346.006)" fill="none" stroke="#000" stroke-linecap="round" stroke-linejoin="round" stroke-miterlimit="10" stroke-width="1"/>
              <path id="Path_1040577" data-name="Path 1040577" d="M258.769,424.33a7.444,7.444,0,0,1,4.4.926" transform="translate(-258.718 -413.9)" fill="none" stroke="#000" stroke-linecap="round" stroke-linejoin="round" stroke-miterlimit="10" stroke-width="1"/>
              <path id="Path_1040578" data-name="Path 1040578" d="M338.914,461.541a5.06,5.06,0,0,1,4.59-4.611" transform="translate(-329.114 -442.568)" fill="none" stroke="#000" stroke-linecap="round" stroke-linejoin="round" stroke-miterlimit="10" stroke-width="1"/>
              <path id="Path_1040579" data-name="Path 1040579" d="M329.511,379.025a7.418,7.418,0,0,1,1.316,5.333" transform="translate(-320.855 -374.14)" fill="none" stroke="#000" stroke-linecap="round" stroke-linejoin="round" stroke-miterlimit="10" stroke-width="1"/>
              <path id="Path_1040580" data-name="Path 1040580" d="M296.321,339.554a4.648,4.648,0,0,1-4.2-.683" transform="translate(-288.013 -338.871)" fill="none" stroke="#000" stroke-linecap="round" stroke-linejoin="round" stroke-miterlimit="10" stroke-width="1"/>
              <path id="Path_1040581" data-name="Path 1040581" d="M295.968,424.564a4.632,4.632,0,0,1,1.507-3.129" transform="translate(-291.392 -411.391)" fill="none" stroke="#000" stroke-linecap="round" stroke-linejoin="round" stroke-miterlimit="10" stroke-width="1"/>
            </g>
          </g>
          <path id="Path_1040582" data-name="Path 1040582" d="M92.672,107.326a8.536,8.536,0,0,0,4.383-.389.325.325,0,0,1,.4.164,7.793,7.793,0,0,0,7.02,4.4c.935,0,1.777-.467,2.66-.467,3.991,0,3.878,4.975,5.4,4.975s1.422-4.975,5.4-4.975c.883,0,1.726.467,2.66.467a7.794,7.794,0,0,0,7.02-4.4.325.325,0,0,1,.4-.164,8.471,8.471,0,0,0,7.25-15.234" transform="translate(-85.656 -81.46)" fill="none" stroke="#000" stroke-linecap="round" stroke-linejoin="round" stroke-miterlimit="10" stroke-width="1"/>
          <path id="Path_1040583" data-name="Path 1040583" d="M39.233,91.295a8.455,8.455,0,0,0-1.054,13.934" transform="translate(-35 -81.101)" fill="none" stroke="#000" stroke-linecap="round" stroke-linejoin="round" stroke-miterlimit="10" stroke-width="1"/>
          <path id="Path_1040584" data-name="Path 1040584" d="M135.62,14.59A7.8,7.8,0,0,0,125,11.746a.325.325,0,0,1-.422-.087,10.286,10.286,0,0,0-16.524,0,.325.325,0,0,1-.422.087,7.8,7.8,0,0,0-10.662,2.919" transform="translate(-89.432 -7.5)" fill="none" stroke="#000" stroke-linecap="round" stroke-linejoin="round" stroke-miterlimit="10" stroke-width="1"/>
          <path id="Path_1040585" data-name="Path 1040585" d="M82.371,80.477h-10.4a.885.885,0,0,1-.885-.885V69.2a.885.885,0,0,1,.885-.885h10.4a.885.885,0,0,1,.885.885v10.4A.885.885,0,0,1,82.371,80.477Z" transform="translate(-66.7 -60.914)" fill="none" stroke="#000" stroke-linecap="round" stroke-linejoin="round" stroke-miterlimit="10" stroke-width="1"/>
          <path id="Path_1040586" data-name="Path 1040586" d="M217.279,80.477h-10.4a.885.885,0,0,1-.885-.885V69.2a.885.885,0,0,1,.885-.885h10.4a.885.885,0,0,1,.885.885v10.4A.885.885,0,0,1,217.279,80.477Z" transform="translate(-185.197 -60.914)" fill="none" stroke="#000" stroke-linecap="round" stroke-linejoin="round" stroke-miterlimit="10" stroke-width="1"/>
          <path id="Path_1040587" data-name="Path 1040587" d="M352.188,80.477h-10.4a.885.885,0,0,1-.885-.885V69.2a.885.885,0,0,1,.885-.885h10.4a.885.885,0,0,1,.885.885v10.4A.885.885,0,0,1,352.188,80.477Z" transform="translate(-303.694 -60.914)" fill="none" stroke="#000" stroke-linecap="round" stroke-linejoin="round" stroke-miterlimit="10" stroke-width="1"/>
          <g id="Group_1202321" data-name="Group 1202321" transform="translate(9.626 10.88)">
            <path id="Path_1040588" data-name="Path 1040588" d="M114.132,96.934h1.237v5.788" transform="translate(-114.132 -96.934)" fill="none" stroke="#000" stroke-linecap="round" stroke-linejoin="round" stroke-miterlimit="10" stroke-width="1"/>
          </g>
          <g id="Group_1202322" data-name="Group 1202322" transform="translate(25.295 10.529)">
            <path id="Path_1040589" data-name="Path 1040589" d="M246.11,99.943s-2.816.035-2.95-.009.214-.279,2.06-2.918a3.726,3.726,0,0,0,.615-1.257l.029-.224a1.481,1.481,0,0,0-2.935-.287" transform="translate(-242.93 -94.054)" fill="none" stroke="#000" stroke-linecap="round" stroke-linejoin="round" stroke-miterlimit="10" stroke-width="1"/>
          </g>
          <g id="Group_1202323" data-name="Group 1202323" transform="translate(41.653 10.518)">
            <path id="Path_1040590" data-name="Path 1040590" d="M377.629,95.155a1.481,1.481,0,1,1,1.453,1.768" transform="translate(-377.601 -93.961)" fill="none" stroke="#000" stroke-linecap="round" stroke-linejoin="round" stroke-miterlimit="10" stroke-width="1"/>
            <path id="Path_1040591" data-name="Path 1040591" d="M378.882,118.312A1.481,1.481,0,1,1,377.415,120a1.507,1.507,0,0,1-.014-.207" transform="translate(-377.401 -115.35)" fill="none" stroke="#000" stroke-linecap="round" stroke-linejoin="round" stroke-miterlimit="10" stroke-width="1"/>
          </g>
          <path id="Path_1040592" data-name="Path 1040592" d="M234.049,197.373l2.367-3.756a.307.307,0,0,1,.52,0l2.367,3.756a.312.312,0,0,1-.26.479h-4.735A.312.312,0,0,1,234.049,197.373Z" transform="translate(-209.791 -170.849)" fill="none" stroke="#000" stroke-linecap="round" stroke-linejoin="round" stroke-miterlimit="10" stroke-width="1"/>
        </g>
      </g>
    </g>
  </g>
</svg>
