<svg xmlns="http://www.w3.org/2000/svg" xmlns:xlink="http://www.w3.org/1999/xlink" width="108" height="108" viewBox="0 0 108 108">
  <defs>
    <filter id="Path_904820" x="0" y="0" width="108" height="108" filterUnits="userSpaceOnUse">
      <feOffset dy="3" input="SourceAlpha"/>
      <feGaussianBlur stdDeviation="3" result="blur"/>
      <feFlood flood-opacity="0.161"/>
      <feComposite operator="in" in2="blur"/>
      <feComposite in="SourceGraphic"/>
    </filter>
  </defs>
  <g id="Group_1202431" data-name="Group 1202431" transform="translate(-623 -2993)">
    <g id="Group_1202284" data-name="Group 1202284">
      <g id="Group_1178315" data-name="Group 1178315" transform="translate(3 2467)">
        <g id="Group_1173585" data-name="Group 1173585" transform="translate(629 532)">
          <g id="Group_1173428" data-name="Group 1173428" transform="translate(0 0)">
            <g id="Group_1171958" data-name="Group 1171958">
              <g id="Group_1167341" data-name="Group 1167341">
                <g id="Group_1166792" data-name="Group 1166792">
                  <g transform="matrix(1, 0, 0, 1, -9, -6)" filter="url(#Path_904820)">
                    <g id="Path_904820-2" data-name="Path 904820" transform="translate(9 6)" fill="#effbfe">
                      <path d="M 44.99999618530273 88.49999237060547 C 39.12687301635742 88.49999237060547 33.43022155761719 87.35006713867188 28.06829643249512 85.08216857910156 C 22.88852119445801 82.89130401611328 18.23629570007324 79.75457763671875 14.24084663391113 75.75914001464844 C 10.24540901184082 71.76369476318359 7.108683586120605 67.11146545410156 4.917821407318115 61.93169403076172 C 2.649921178817749 56.56976699829102 1.499996185302734 50.87311553955078 1.499996185302734 44.99999237060547 C 1.499996185302734 39.12686920166016 2.649921178817749 33.43021774291992 4.917821407318115 28.06829261779785 C 7.108683586120605 22.88851737976074 10.24540901184082 18.23630523681641 14.24084663391113 14.24085521697998 C 18.23629570007324 10.24540519714355 22.88852119445801 7.108692169189453 28.06829643249512 4.917829990386963 C 33.43022155761719 2.649929761886597 39.12687301635742 1.500004887580872 44.99999618530273 1.500004887580872 C 50.87311935424805 1.500004887580872 56.56977081298828 2.649929761886597 61.93169784545898 4.917829990386963 C 67.11147308349609 7.108692169189453 71.76369476318359 10.24540519714355 75.75914764404297 14.24085521697998 C 79.75458526611328 18.23630523681641 82.89131164550781 22.88851737976074 85.08216857910156 28.06829261779785 C 87.35007476806641 33.43021774291992 88.5 39.12686920166016 88.5 44.99999237060547 C 88.5 50.87311553955078 87.35007476806641 56.56976699829102 85.08216857910156 61.93169403076172 C 82.89131164550781 67.11146545410156 79.75458526611328 71.76369476318359 75.75914764404297 75.75914001464844 C 71.76369476318359 79.75457763671875 67.11147308349609 82.89130401611328 61.93169784545898 85.08216857910156 C 56.56977081298828 87.35006713867188 50.87311935424805 88.49999237060547 44.99999618530273 88.49999237060547 Z" stroke="none"/>
                      <path d="M 44.99999618530273 2.999992370605469 C 39.32870864868164 2.999992370605469 33.82865142822266 4.11004638671875 28.65262603759766 6.299331665039062 C 23.65165710449219 8.414566040039062 19.15968322753906 11.44333648681641 15.301513671875 15.30150604248047 C 11.44333648681641 19.15967559814453 8.414566040039062 23.65164947509766 6.299339294433594 28.65262222290039 C 4.110054016113281 33.82864761352539 2.999992370605469 39.32870483398438 2.999992370605469 44.99999237060547 C 2.999992370605469 50.67127990722656 4.110054016113281 56.17132186889648 6.299339294433594 61.34736633300781 C 8.414566040039062 66.34833526611328 11.44333648681641 70.84029388427734 15.301513671875 74.69846343994141 C 19.15968322753906 78.55663299560547 23.65165710449219 81.58540344238281 28.65262603759766 83.70063781738281 C 33.82865142822266 85.88992309570312 39.32870864868164 86.99997711181641 44.99999618530273 86.99997711181641 C 50.67128372192383 86.99997711181641 56.17134094238281 85.88992309570312 61.34736633300781 83.70063781738281 C 66.34834289550781 81.58540344238281 70.84030914306641 78.55663299560547 74.69847869873047 74.69846343994141 C 78.55665588378906 70.84029388427734 81.58542633056641 66.34833526611328 83.70065307617188 61.34736633300781 C 85.88993835449219 56.17132186889648 87 50.67127990722656 87 44.99999237060547 C 87 39.32870483398438 85.88993835449219 33.82864761352539 83.70065307617188 28.65262222290039 C 81.58542633056641 23.65164947509766 78.55665588378906 19.15967559814453 74.69847869873047 15.30150604248047 C 70.84030914306641 11.44333648681641 66.34834289550781 8.414566040039062 61.34736633300781 6.299331665039062 C 56.17134094238281 4.11004638671875 50.67128372192383 2.999992370605469 44.99999618530273 2.999992370605469 M 44.99999618530273 -7.62939453125e-06 C 69.85281372070312 -7.62939453125e-06 90 20.14717864990234 90 44.99999237060547 C 90 69.85279083251953 69.85281372070312 89.99997711181641 44.99999618530273 89.99997711181641 C 20.14717864990234 89.99997711181641 -7.62939453125e-06 69.85279083251953 -7.62939453125e-06 44.99999237060547 C -7.62939453125e-06 20.14717864990234 20.14717864990234 -7.62939453125e-06 44.99999618530273 -7.62939453125e-06 Z" stroke="none" fill="#497f88"/>
                    </g>
                  </g>
                </g>
              </g>
            </g>
          </g>
        </g>
      </g>
      <g id="mindset_16137499" transform="translate(603.718 3012.747)">
        <g id="Group_1202283" data-name="Group 1202283" transform="translate(49.634 1.949)">
          <g id="Group_1202281" data-name="Group 1202281" transform="translate(0 0)">
            <path id="Path_1040436" data-name="Path 1040436" d="M103.973,42.822c-.891-5.262-5.111-6.651-5.111-10.39C99.963,19.123,93.305,9,77.99,9,55.221,9,49.934,37.653,65.823,49.019c.571,9.1-3.232,15.537-3.658,18.59l25.954-.051c0-5.386-4.335-9.386-.788-10.939,2.138-.936,9.106,2.68,10.82.546,1.25-5.353,2.443-4.446,2.443-6.385-2.675-2.037-2.522-2.311.168-3.18l.025-4.179Z" transform="translate(-56.676 -9)" fill="#ffd6bd" fill-rule="evenodd"/>
            <path id="Path_1040437" data-name="Path 1040437" d="M144.749,42.822c-.891-5.262-5.111-6.651-5.111-10.39C140.738,19.123,134.08,9,118.765,9c-.377,0-.749.009-1.116.025,14.422.542,20.688,10.468,19.616,23.407,0,3.738,4.22,5.128,5.111,10.39l-3.184.6-.025,4.179c-2.691.868-2.844,1.143-.168,3.18,0,1.94-1.194,1.032-2.443,6.385a1.739,1.739,0,0,1-.933.568c1.458.221,2.705.18,3.305-.568,1.251-5.353,2.443-4.446,2.443-6.385-2.675-2.037-2.522-2.311.168-3.18l.025-4.179ZM102.941,67.6l23.581-.046c0-5.386-4.335-9.386-.788-10.939a4.537,4.537,0,0,1,2.382,0l-.009,0c-3.547,1.553.788,5.552.788,10.939l-25.955.051Z" transform="translate(-97.451 -9)" fill="#f9c6aa" fill-rule="evenodd"/>
          </g>
          <g id="Group_1202282" data-name="Group 1202282" transform="translate(10.199 9.927)">
            <path id="Path_1040438" data-name="Path 1040438" d="M154.225,92.67a11.586,11.586,0,0,1,5.921,21.543A2.3,2.3,0,0,0,159,116.231v2.825a1.6,1.6,0,0,1-1.592,1.592h-6.365a1.6,1.6,0,0,1-1.592-1.592v-2.825a2.291,2.291,0,0,0-1.147-2.018,11.586,11.586,0,0,1,5.923-21.543Z" transform="translate(-142.64 -92.67)" fill="#ffda2d" fill-rule="evenodd"/>
            <path id="Path_1040439" data-name="Path 1040439" d="M154.244,157.648h-4.067a2.538,2.538,0,1,0-3.45,0H142.66a11.579,11.579,0,0,0,5.663,9.959,2.293,2.293,0,0,1,1.147,2.018v1.045h4.775v-5.5a2.538,2.538,0,1,1,0-3.45v-4.068Z" transform="translate(-142.658 -146.063)" fill="#72d561" fill-rule="evenodd"/>
            <path id="Path_1040440" data-name="Path 1040440" d="M233.38,92.68a11.586,11.586,0,0,1,5.921,21.543,2.3,2.3,0,0,0-1.147,2.018v2.825a1.6,1.6,0,0,1-1.592,1.592H234.7a1.6,1.6,0,0,0,1.592-1.592v-2.825a2.292,2.292,0,0,1,1.147-2.018,11.586,11.586,0,0,0-4.992-21.506q.463-.037.93-.037Z" transform="translate(-221.795 -92.679)" fill="#ffc700" fill-rule="evenodd"/>
            <path id="Path_1040441" data-name="Path 1040441" d="M243.554,106.125a2.538,2.538,0,1,0,4.263-1.86h4.067A11.584,11.584,0,0,0,240.3,92.68v4.067a2.538,2.538,0,1,1,0,3.45v4.067h4.067A2.528,2.528,0,0,0,243.554,106.125Z" transform="translate(-228.713 -92.679)" fill="#64b5f6" fill-rule="evenodd"/>
            <path id="Path_1040442" data-name="Path 1040442" d="M240.29,92.828a11.588,11.588,0,0,1,9.726,11.436h1.859A11.584,11.584,0,0,0,240.291,92.68v.148Z" transform="translate(-228.704 -92.679)" fill="#42a5f5" fill-rule="evenodd"/>
            <path id="Path_1040443" data-name="Path 1040443" d="M154.244,104.264V100.2a2.538,2.538,0,1,0,0-3.45V92.68a11.584,11.584,0,0,0-11.584,11.584h4.067a2.538,2.538,0,1,1,3.45,0Z" transform="translate(-142.658 -92.679)" fill="#fc685b" fill-rule="evenodd"/>
            <path id="Path_1040444" data-name="Path 1040444" d="M232.46,92.717q.47.037.929.112V92.68Q232.921,92.68,232.46,92.717Z" transform="translate(-221.804 -92.679)" fill="#f35244" fill-rule="evenodd"/>
            <path id="Path_1040445" data-name="Path 1040445" d="M219.844,313.77v2.9a2.355,2.355,0,0,1-2.349,2.349h-1.666a2.355,2.355,0,0,1-2.349-2.349v-2.111Z" transform="translate(-205.075 -287.538)" fill="#b4d2d7" fill-rule="evenodd"/>
            <path id="Path_1040446" data-name="Path 1040446" d="M240.856,313.77v2.9a2.355,2.355,0,0,1-2.349,2.349H237.32a2.355,2.355,0,0,0,2.349-2.349v-2.751Z" transform="translate(-226.087 -287.538)" fill="#9bb9c3" fill-rule="evenodd"/>
            <path id="Path_1040447" data-name="Path 1040447" d="M200.05,300.08v1.78a1.6,1.6,0,0,0,1.592,1.592h6.365a1.6,1.6,0,0,0,1.592-1.592v-1.78Z" transform="translate(-193.239 -275.472)" fill="#fdb800" fill-rule="evenodd"/>
            <path id="Path_1040448" data-name="Path 1040448" d="M251.45,303.452h1.859a1.6,1.6,0,0,0,1.592-1.592v-1.78h-1.859v1.78A1.594,1.594,0,0,1,251.45,303.452Z" transform="translate(-238.54 -275.472)" fill="#f4a40e" fill-rule="evenodd"/>
          </g>
        </g>
        <path id="Path_1040449" data-name="Path 1040449" d="M58.979,30.734a.949.949,0,0,1-.348,1.3l-1.94,1.121a.949.949,0,1,1-.949-1.643l1.94-1.12A.948.948,0,0,1,58.979,30.734Zm-2.92-6.244h-2.24a.949.949,0,1,1,0-1.9h2.24a.949.949,0,0,1,0,1.9Zm-.744-10.234a.948.948,0,0,1,1.3-.348l1.941,1.12a.949.949,0,0,1-.476,1.771.929.929,0,0,1-.473-.128l-1.941-1.12a.948.948,0,0,1-.346-1.3Zm6.413-5.522a.949.949,0,1,1,1.643-.949l1.12,1.94a.949.949,0,1,1-1.643.95ZM87.521,32.666a.947.947,0,0,1-1.3.346l-1.94-1.12a.949.949,0,0,1,.949-1.644l1.94,1.12a.951.951,0,0,1,.348,1.3Zm2.445-9.285a.949.949,0,0,1-.949.949h-2.24a.949.949,0,1,1,0-1.9h2.24A.95.95,0,0,1,89.966,23.381Zm-6.109-7.193a.949.949,0,0,1,.348-1.3l1.94-1.12a.949.949,0,0,1,.949,1.644l-1.94,1.12a.947.947,0,0,1-1.3-.348ZM78.206,9.647l1.12-1.941a.949.949,0,1,1,1.644.949L79.85,10.6a.949.949,0,0,1-.823.475.939.939,0,0,1-.473-.127A.949.949,0,0,1,78.206,9.647ZM70.389,8.1V5.862a.949.949,0,0,1,1.9,0V8.1a.949.949,0,0,1-1.9,0Zm6.465,24.5a3.227,3.227,0,0,0-1.61,2.833v.1H72.366V30.98a.949.949,0,0,0-1.644-.645,1.572,1.572,0,0,1-1.165.509,1.589,1.589,0,0,1,0-3.177,1.572,1.572,0,0,1,1.165.509.948.948,0,0,0,1.644-.645V24.412h1.478a3.488,3.488,0,1,0,6.731,0h1.433a10.705,10.705,0,0,1-5.155,8.193Zm-4.6,9.8H70.584a1.4,1.4,0,0,1-1.4-1.4v-.2h4.467v.2A1.4,1.4,0,0,1,72.25,42.406Zm2.35-3.5H68.235a.644.644,0,0,1-.643-.643v-.83h7.651v.83A.644.644,0,0,1,74.6,38.906Zm-8.618-6.3a3.23,3.23,0,0,1,1.61,2.833v.1h2.876V32.618a3.451,3.451,0,0,1-.911.122,3.487,3.487,0,0,1,0-6.974,3.451,3.451,0,0,1,.911.122V24.411H67.35a.949.949,0,0,1-.645-1.644,1.572,1.572,0,0,0,.509-1.165,1.589,1.589,0,0,0-3.177,0,1.572,1.572,0,0,0,.509,1.165.948.948,0,0,1-.645,1.644H60.826A10.7,10.7,0,0,0,65.982,32.605Zm4.486-19.736v3.075a.95.95,0,0,0,1.646.647,1.57,1.57,0,0,1,1.165-.509,1.589,1.589,0,1,1,0,3.177,1.57,1.57,0,0,1-1.165-.509.95.95,0,0,0-1.646.647v3.118H68.99a3.451,3.451,0,0,0,.122-.911,3.487,3.487,0,1,0-6.974,0,3.45,3.45,0,0,0,.122.911H60.825A10.652,10.652,0,0,1,70.468,12.869Zm11.543,9.643a10.654,10.654,0,0,0-9.644-9.643V14.3a3.487,3.487,0,1,1,.912,6.852,3.459,3.459,0,0,1-.912-.122v1.478h3.118a.949.949,0,0,1,.645,1.646,1.589,1.589,0,1,0,2.16,0,.949.949,0,0,1,.645-1.646ZM71.417,10.928a12.535,12.535,0,0,0-6.407,23.309,1.338,1.338,0,0,1,.683,1.2v2.825a2.545,2.545,0,0,0,1.592,2.356v.388a3.3,3.3,0,0,0,3.3,3.3H72.25a3.3,3.3,0,0,0,3.3-3.3v-.388a2.545,2.545,0,0,0,1.592-2.356V35.44a1.353,1.353,0,0,1,.683-1.2,12.535,12.535,0,0,0-6.408-23.309Zm22.152,24.51,2.225-.42a12.246,12.246,0,0,0-2.585-4.536c-1.2-1.517-2.338-2.949-2.338-5.1q0-.039,0-.078c.579-6.99-1.03-12.766-4.653-16.7C82.735,4.817,77.6,2.9,70.946,2.9c-9.318,0-16.527,5.128-19.283,13.717-2.934,9.145.219,19.253,7.668,24.582a.947.947,0,0,1,.4.712,37.8,37.8,0,0,1-2.662,15.432c-.294.841-.564,1.611-.753,2.266l23.769-.046a18.461,18.461,0,0,0-1.237-4.575,11.061,11.061,0,0,1-.9-3.417,2.922,2.922,0,0,1,1.964-2.87c1.214-.53,3.081-.078,5.243.447,1.737.421,4.31,1.045,5.1.486a12.445,12.445,0,0,1,1.966-4.816,1.864,1.864,0,0,0,.352-.65c-1.287-1-2.031-1.733-1.872-2.658.148-.868,1-1.279,2.082-1.649l.021-3.5a.948.948,0,0,1,.772-.925Zm4.3.173A13.239,13.239,0,0,0,94.7,29.3c-1.068-1.347-1.914-2.413-1.927-3.886.613-7.515-1.167-13.773-5.153-18.1A18.315,18.315,0,0,0,80.68,2.657,26.87,26.87,0,0,0,70.946,1,22.291,22.291,0,0,0,57.193,5.4a21.6,21.6,0,0,0-7.337,10.636,25.052,25.052,0,0,0-.205,14.454,22.58,22.58,0,0,0,8.2,11.979,36.017,36.017,0,0,1-2.583,14.245,21.665,21.665,0,0,0-1.092,3.712.95.95,0,0,0,.941,1.08h0l25.955-.05a.949.949,0,0,0,.947-.949,17.693,17.693,0,0,0-1.4-6.179c-1.057-2.865-1.051-3.411.045-3.89.626-.274,2.515.184,4.034.553,2.847.691,5.791,1.4,7.146-.281a.939.939,0,0,0,.184-.378,11.174,11.174,0,0,1,1.739-4.43,3.273,3.273,0,0,0,.73-2.171.947.947,0,0,0-.375-.755,16.317,16.317,0,0,1-1.326-1.09c.39-.166.974-.355,1.213-.432a.948.948,0,0,0,.657-.9l.02-3.4,2.416-.456A.951.951,0,0,0,97.865,35.612Z" transform="translate(0)" fill-rule="evenodd"/>
      </g>
    </g>
  </g>
</svg>
