<svg xmlns="http://www.w3.org/2000/svg" xmlns:xlink="http://www.w3.org/1999/xlink" width="113" height="113" viewBox="0 0 113 113">
  <defs>
    <filter id="Path_982547" x="0" y="0" width="113" height="113" filterUnits="userSpaceOnUse">
      <feOffset dy="3" input="SourceAlpha"/>
      <feGaussianBlur stdDeviation="3" result="blur"/>
      <feFlood flood-opacity="0.161"/>
      <feComposite operator="in" in2="blur"/>
      <feComposite in="SourceGraphic"/>
    </filter>
  </defs>
  <g id="Group_1202444" data-name="Group 1202444" transform="translate(-323.5 -1336)">
    <g id="Group_1202327" data-name="Group 1202327">
      <g id="Group_1178325" data-name="Group 1178325" transform="translate(0 424)">
        <g id="Group_1177679" data-name="Group 1177679" transform="translate(332.5 918)">
          <g id="Group_1172010" data-name="Group 1172010">
            <g id="Group_1171046" data-name="Group 1171046">
              <g id="Group_1148525" data-name="Group 1148525">
                <g transform="matrix(1, 0, 0, 1, -9, -6)" filter="url(#Path_982547)">
                  <g id="Path_982547-2" data-name="Path 982547" transform="translate(9 6)" fill="#edf3fc">
                    <path d="M 47.5 93.5 C 41.28937149047852 93.5 35.26533508300781 92.28397369384766 29.59518623352051 89.88570404052734 C 24.11771965026855 87.56893157958984 19.19813346862793 84.25196075439453 14.97309303283691 80.02691650390625 C 10.74804019927979 75.80186462402344 7.431066513061523 70.88229370117188 5.114293098449707 65.40481567382812 C 2.716026782989502 59.73468017578125 1.5 53.71062850952148 1.5 47.5 C 1.5 41.28937149047852 2.716026782989502 35.26533508300781 5.114293098449707 29.59518623352051 C 7.431066513061523 24.11771965026855 10.74804019927979 19.19813346862793 14.97309303283691 14.97309303283691 C 19.19813346862793 10.74804019927979 24.11771965026855 7.431066513061523 29.59518623352051 5.114293098449707 C 35.26533508300781 2.716026782989502 41.28937149047852 1.5 47.5 1.5 C 53.71062850952148 1.5 59.73468017578125 2.716026782989502 65.40481567382812 5.114293098449707 C 70.88229370117188 7.431066513061523 75.80186462402344 10.74804019927979 80.02691650390625 14.97309303283691 C 84.25196075439453 19.19813346862793 87.56893157958984 24.11771965026855 89.88570404052734 29.59518623352051 C 92.28397369384766 35.26533508300781 93.5 41.28937149047852 93.5 47.5 C 93.5 53.71062850952148 92.28397369384766 59.73468017578125 89.88570404052734 65.40481567382812 C 87.56893157958984 70.88229370117188 84.25196075439453 75.80186462402344 80.02691650390625 80.02691650390625 C 75.80186462402344 84.25196075439453 70.88229370117188 87.56893157958984 65.40481567382812 89.88570404052734 C 59.73468017578125 92.28397369384766 53.71062850952148 93.5 47.5 93.5 Z" stroke="none"/>
                    <path d="M 47.5 3 C 41.49121475219727 3 35.66376876831055 4.176155090332031 30.17950439453125 6.495796203613281 C 24.88084411621094 8.736953735351562 20.12152099609375 11.94598388671875 16.03375244140625 16.03375244140625 C 11.94598388671875 20.12152099609375 8.736953735351562 24.88084411621094 6.495796203613281 30.17950439453125 C 4.176155090332031 35.66376876831055 3 41.49121475219727 3 47.5 C 3 53.50878524780273 4.176155090332031 59.33623123168945 6.495796203613281 64.82049560546875 C 8.736953735351562 70.11915588378906 11.94598388671875 74.87847900390625 16.03375244140625 78.96624755859375 C 20.12152099609375 83.05401611328125 24.88084411621094 86.26304626464844 30.17950439453125 88.50419616699219 C 35.66376876831055 90.82384490966797 41.49121475219727 92 47.5 92 C 53.50878524780273 92 59.33623123168945 90.82384490966797 64.82049560546875 88.50419616699219 C 70.11915588378906 86.26304626464844 74.87847900390625 83.05401611328125 78.96624755859375 78.96624755859375 C 83.05401611328125 74.87847900390625 86.26304626464844 70.11915588378906 88.50419616699219 64.82049560546875 C 90.82384490966797 59.33623123168945 92 53.50878524780273 92 47.5 C 92 41.49121475219727 90.82384490966797 35.66376876831055 88.50419616699219 30.17950439453125 C 86.26304626464844 24.88084411621094 83.05401611328125 20.12152099609375 78.96624755859375 16.03375244140625 C 74.87847900390625 11.94598388671875 70.11915588378906 8.736953735351562 64.82049560546875 6.495796203613281 C 59.33623123168945 4.176155090332031 53.50878524780273 3 47.5 3 M 47.5 0 C 73.7335205078125 0 95 21.2664794921875 95 47.5 C 95 73.7335205078125 73.7335205078125 95 47.5 95 C 21.2664794921875 95 0 73.7335205078125 0 47.5 C 0 21.2664794921875 21.2664794921875 0 47.5 0 Z" stroke="none" fill="#5692e8"/>
                  </g>
                </g>
              </g>
            </g>
          </g>
        </g>
      </g>
      <g id="plus_3418286" transform="translate(348.25 1359.474)">
        <circle id="Ellipse_12547" data-name="Ellipse 12547" cx="19" cy="19" r="19" transform="translate(13 24)" fill="#172e50"/>
        <path id="Path_1040593" data-name="Path 1040593" d="M39.967,25.768A18.991,18.991,0,0,0,16.26,53.643,31.847,31.847,0,0,0,39.967,25.768Z" fill="#213d68"/>
        <path id="Path_1040594" data-name="Path 1040594" d="M45.673,29.807A18.986,18.986,0,0,0,37,24.666a13.976,13.976,0,1,1,8.669,5.141Z" fill="#f0ae42"/>
        <path id="Path_1040595" data-name="Path 1040595" d="M54.727,3.722A14,14,0,0,0,35.645,22.575,20.814,20.814,0,0,0,54.727,3.722Z" fill="#f9d266"/>
        <path id="Path_1040596" data-name="Path 1040596" d="M27,24.666a18.986,18.986,0,0,0-8.669,5.141A14,14,0,1,1,27,24.666Z" fill="#f0ae42"/>
        <path id="Path_1040597" data-name="Path 1040597" d="M19.787,2.533A13.974,13.974,0,0,0,3.447,22.169,20.813,20.813,0,0,0,19.787,2.533Z" fill="#f9d266"/>
        <path id="Path_1040598" data-name="Path 1040598" d="M10,20h9V16H10V7H22v3H13v3h9V23H10Z" fill="#e2e7f6"/>
        <path id="Path_1040599" data-name="Path 1040599" d="M42,10h9v4H42v9H54V20H45V17h9V7H42Z" fill="#e2e7f6"/>
        <path id="Path_1040600" data-name="Path 1040600" d="M45,40H35V30H29V40H19v6H29V56h6V46H45Z" fill="#e2e7f6"/>
        <g id="Group_1202326" data-name="Group 1202326">
          <path id="Path_1040601" data-name="Path 1040601" d="M18.155,10a20.6,20.6,0,0,0,.994-3H10v9h4.229a20.965,20.965,0,0,0,2.325-3H13V10Z" fill="#f2f2f2"/>
          <path id="Path_1040602" data-name="Path 1040602" d="M50.873,14H42v7.058a20.6,20.6,0,0,0,3-1.569V17h3.235a20.92,20.92,0,0,0,2.638-3Z" fill="#f2f2f2"/>
          <path id="Path_1040603" data-name="Path 1040603" d="M54,7.58V7H42v3h9v3.83A20.731,20.731,0,0,0,54,7.58Z" fill="#f2f2f2"/>
          <path id="Path_1040604" data-name="Path 1040604" d="M35.069,40H35V30H29V40H19v6H29v.973A31.966,31.966,0,0,0,35.069,40Z" fill="#f2f2f2"/>
        </g>
        <path id="Path_1040605" data-name="Path 1040605" d="M23,23V13a1,1,0,0,0-1-1H14V11h8a1,1,0,0,0,1-1V7a1,1,0,0,0-1-1H10A1,1,0,0,0,9,7v9a1,1,0,0,0,1,1h8v2H10a1,1,0,0,0-1,1v3a1,1,0,0,0,1,1H22A1,1,0,0,0,23,23Zm-2-1H11V21h8a1,1,0,0,0,1-1V16a1,1,0,0,0-1-1H11V8H21V9H13a1,1,0,0,0-1,1v3a1,1,0,0,0,1,1h8Z"/>
        <path id="Path_1040606" data-name="Path 1040606" d="M63,16a15,15,0,1,0-28.15,7.227,18.017,18.017,0,0,0-5.7,0A14.845,14.845,0,0,0,31,16,15,15,0,1,0,16,31h.039A20,20,0,1,0,47.96,31H48A15.015,15.015,0,0,0,63,16ZM35,16A13,13,0,1,1,48,29a13.237,13.237,0,0,1-1.873-.142,20.008,20.008,0,0,0-8.505-5.039A12.861,12.861,0,0,1,35,16ZM3,16a13,13,0,0,1,26,0,12.858,12.858,0,0,1-2.623,7.818,20.015,20.015,0,0,0-8.5,5.039A13.257,13.257,0,0,1,16,29,13.014,13.014,0,0,1,3,16ZM32,61A18,18,0,1,1,50,43,18,18,0,0,1,32,61Z"/>
        <path id="Path_1040607" data-name="Path 1040607" d="M54,24a1,1,0,0,0,1-1V20a1,1,0,0,0-1-1H46V18h8a1,1,0,0,0,1-1V7a1,1,0,0,0-1-1H42a1,1,0,0,0-1,1v3a1,1,0,0,0,1,1h8v2H42a1,1,0,0,0-1,1v9a1,1,0,0,0,1,1ZM43,15h8a1,1,0,0,0,1-1V10a1,1,0,0,0-1-1H43V8H53v8H45a1,1,0,0,0-1,1v3a1,1,0,0,0,1,1h8v1H43Z"/>
        <path id="Path_1040608" data-name="Path 1040608" d="M36,30a1,1,0,0,0-1-1H29a1,1,0,0,0-1,1v9H19a1,1,0,0,0-1,1v6a1,1,0,0,0,1,1h9v9a1,1,0,0,0,1,1h6a1,1,0,0,0,1-1V47h9a1,1,0,0,0,1-1V40a1,1,0,0,0-1-1H36Zm8,11v4H35a1,1,0,0,0-1,1v9H30V46a1,1,0,0,0-1-1H20V41h9a1,1,0,0,0,1-1V31h4v9a1,1,0,0,0,1,1Z"/>
      </g>
    </g>
  </g>
</svg>
