<svg xmlns="http://www.w3.org/2000/svg" xmlns:xlink="http://www.w3.org/1999/xlink" width="113" height="113" viewBox="0 0 113 113">
  <defs>
    <filter id="Path_982547" x="0" y="0" width="113" height="113" filterUnits="userSpaceOnUse">
      <feOffset dy="3" input="SourceAlpha"/>
      <feGaussianBlur stdDeviation="3" result="blur"/>
      <feFlood flood-opacity="0.161"/>
      <feComposite operator="in" in2="blur"/>
      <feComposite in="SourceGraphic"/>
    </filter>
  </defs>
  <g id="Group_1202455" data-name="Group 1202455" transform="translate(-586.56 -4676.514)">
    <g id="Group_1202367" data-name="Group 1202367" transform="translate(0 31)">
      <g id="Group_1202054" data-name="Group 1202054" transform="translate(0 3240.511)">
        <g id="Group_1177897" data-name="Group 1177897" transform="translate(595.561 1411.003)">
          <g id="Group_1172010" data-name="Group 1172010" transform="translate(0)">
            <g id="Group_1171046" data-name="Group 1171046">
              <g id="Group_1148525" data-name="Group 1148525">
                <g transform="matrix(1, 0, 0, 1, -9, -6)" filter="url(#Path_982547)">
                  <g id="Path_982547-2" data-name="Path 982547" transform="translate(9 6)" fill="#edf3fc">
                    <path d="M 47.5 93.5 C 41.28937149047852 93.5 35.26533508300781 92.28397369384766 29.59518623352051 89.88570404052734 C 24.11771965026855 87.56893157958984 19.19813346862793 84.25196075439453 14.97309303283691 80.02691650390625 C 10.74804019927979 75.80186462402344 7.431066513061523 70.88229370117188 5.114293098449707 65.40481567382812 C 2.716026782989502 59.73468017578125 1.5 53.71062850952148 1.5 47.5 C 1.5 41.28937149047852 2.716026782989502 35.26533508300781 5.114293098449707 29.59518623352051 C 7.431066513061523 24.11771965026855 10.74804019927979 19.19813346862793 14.97309303283691 14.97309303283691 C 19.19813346862793 10.74804019927979 24.11771965026855 7.431066513061523 29.59518623352051 5.114293098449707 C 35.26533508300781 2.716026782989502 41.28937149047852 1.5 47.5 1.5 C 53.71062850952148 1.5 59.73468017578125 2.716026782989502 65.40481567382812 5.114293098449707 C 70.88229370117188 7.431066513061523 75.80186462402344 10.74804019927979 80.02691650390625 14.97309303283691 C 84.25196075439453 19.19813346862793 87.56893157958984 24.11771965026855 89.88570404052734 29.59518623352051 C 92.28397369384766 35.26533508300781 93.5 41.28937149047852 93.5 47.5 C 93.5 53.71062850952148 92.28397369384766 59.73468017578125 89.88570404052734 65.40481567382812 C 87.56893157958984 70.88229370117188 84.25196075439453 75.80186462402344 80.02691650390625 80.02691650390625 C 75.80186462402344 84.25196075439453 70.88229370117188 87.56893157958984 65.40481567382812 89.88570404052734 C 59.73468017578125 92.28397369384766 53.71062850952148 93.5 47.5 93.5 Z" stroke="none"/>
                    <path d="M 47.5 3 C 41.49121475219727 3 35.66376876831055 4.176155090332031 30.17950439453125 6.495796203613281 C 24.88084411621094 8.736953735351562 20.12152099609375 11.94598388671875 16.03375244140625 16.03375244140625 C 11.94598388671875 20.12152099609375 8.736953735351562 24.88084411621094 6.495796203613281 30.17950439453125 C 4.176155090332031 35.66376876831055 3 41.49121475219727 3 47.5 C 3 53.50878524780273 4.176155090332031 59.33623123168945 6.495796203613281 64.82049560546875 C 8.736953735351562 70.11915588378906 11.94598388671875 74.87847900390625 16.03375244140625 78.96624755859375 C 20.12152099609375 83.05401611328125 24.88084411621094 86.26304626464844 30.17950439453125 88.50419616699219 C 35.66376876831055 90.82384490966797 41.49121475219727 92 47.5 92 C 53.50878524780273 92 59.33623123168945 90.82384490966797 64.82049560546875 88.50419616699219 C 70.11915588378906 86.26304626464844 74.87847900390625 83.05401611328125 78.96624755859375 78.96624755859375 C 83.05401611328125 74.87847900390625 86.26304626464844 70.11915588378906 88.50419616699219 64.82049560546875 C 90.82384490966797 59.33623123168945 92 53.50878524780273 92 47.5 C 92 41.49121475219727 90.82384490966797 35.66376876831055 88.50419616699219 30.17950439453125 C 86.26304626464844 24.88084411621094 83.05401611328125 20.12152099609375 78.96624755859375 16.03375244140625 C 74.87847900390625 11.94598388671875 70.11915588378906 8.736953735351562 64.82049560546875 6.495796203613281 C 59.33623123168945 4.176155090332031 53.50878524780273 3 47.5 3 M 47.5 0 C 73.7335205078125 0 95 21.2664794921875 95 47.5 C 95 73.7335205078125 73.7335205078125 95 47.5 95 C 21.2664794921875 95 0 73.7335205078125 0 47.5 C 0 21.2664794921875 21.2664794921875 0 47.5 0 Z" stroke="none" fill="#5692e8"/>
                  </g>
                </g>
              </g>
            </g>
          </g>
        </g>
      </g>
      <g id="abacus_5090327" transform="translate(613.866 4669.82)">
        <g id="Group_1202366" data-name="Group 1202366" transform="translate(0.856 0.855)">
          <g id="Group_1202358" data-name="Group 1202358" transform="translate(7.416 6.213)">
            <path id="Path_1040655" data-name="Path 1040655" d="M72.537,91.759h41.6V96.4h-41.6Z" transform="translate(-72.537 -88.364)" fill="#756e78"/>
            <path id="Path_1040656" data-name="Path 1040656" d="M72.537,112.088h41.6v2.318h-41.6Z" transform="translate(-72.537 -106.374)" fill="#665e66"/>
            <g id="Group_1202355" data-name="Group 1202355" transform="translate(5.285)">
              <path id="Path_1040657" data-name="Path 1040657" d="M121.775,73.412a2.894,2.894,0,0,1-2.894-2.894V64.878a2.894,2.894,0,1,1,5.789,0v5.639A2.894,2.894,0,0,1,121.775,73.412Z" transform="translate(-118.881 -61.984)" fill="#df75a5"/>
              <path id="Path_1040658" data-name="Path 1040658" d="M124.67,102.063v3.963a2.894,2.894,0,1,1-5.789,0v-3.963a2.894,2.894,0,1,0,5.789,0Z" transform="translate(-118.881 -97.492)" fill="#dd5790"/>
            </g>
            <g id="Group_1202356" data-name="Group 1202356" transform="translate(11.074)">
              <path id="Path_1040659" data-name="Path 1040659" d="M172.535,73.412a2.894,2.894,0,0,1-2.894-2.894V64.878a2.894,2.894,0,1,1,5.789,0v5.639A2.894,2.894,0,0,1,172.535,73.412Z" transform="translate(-169.641 -61.984)" fill="#df75a5"/>
              <path id="Path_1040660" data-name="Path 1040660" d="M175.43,102.063v3.963a2.894,2.894,0,0,1-5.789,0v-3.963a2.894,2.894,0,1,0,5.789,0Z" transform="translate(-169.641 -97.492)" fill="#dd5790"/>
            </g>
            <g id="Group_1202357" data-name="Group 1202357" transform="translate(27.766)">
              <path id="Path_1040661" data-name="Path 1040661" d="M318.914,73.412a2.894,2.894,0,0,1-2.894-2.894V64.878a2.894,2.894,0,1,1,5.789,0v5.639A2.894,2.894,0,0,1,318.914,73.412Z" transform="translate(-316.02 -61.984)" fill="#df75a5"/>
              <path id="Path_1040662" data-name="Path 1040662" d="M321.809,102.063v3.963a2.894,2.894,0,1,1-5.789,0v-3.963a2.894,2.894,0,1,0,5.789,0Z" transform="translate(-316.02 -97.492)" fill="#dd5790"/>
            </g>
          </g>
          <g id="Group_1202361" data-name="Group 1202361" transform="translate(7.416 20.14)">
            <path id="Path_1040663" data-name="Path 1040663" d="M72.537,213.879h41.6v4.637h-41.6Z" transform="translate(-72.537 -210.484)" fill="#756e78"/>
            <path id="Path_1040664" data-name="Path 1040664" d="M72.537,234.209h41.6v2.318h-41.6Z" transform="translate(-72.537 -228.495)" fill="#665e66"/>
            <g id="Group_1202359" data-name="Group 1202359" transform="translate(11.074 0)">
              <path id="Path_1040665" data-name="Path 1040665" d="M172.535,195.532a2.894,2.894,0,0,1-2.894-2.894V187a2.894,2.894,0,1,1,5.789,0v5.639A2.894,2.894,0,0,1,172.535,195.532Z" transform="translate(-169.641 -184.104)" fill="#ffe07d"/>
              <path id="Path_1040666" data-name="Path 1040666" d="M175.43,224.183v3.963a2.894,2.894,0,0,1-5.789,0v-3.963a2.894,2.894,0,1,0,5.789,0Z" transform="translate(-169.641 -219.612)" fill="#ffd064"/>
            </g>
            <g id="Group_1202360" data-name="Group 1202360" transform="translate(16.862 0)">
              <path id="Path_1040667" data-name="Path 1040667" d="M223.294,195.532a2.894,2.894,0,0,1-2.894-2.894V187a2.894,2.894,0,1,1,5.789,0v5.639A2.894,2.894,0,0,1,223.294,195.532Z" transform="translate(-220.4 -184.104)" fill="#ffe07d"/>
              <path id="Path_1040668" data-name="Path 1040668" d="M226.189,224.183v3.963a2.894,2.894,0,0,1-5.789,0v-3.963a2.894,2.894,0,0,0,5.789,0Z" transform="translate(-220.4 -219.612)" fill="#ffd064"/>
            </g>
          </g>
          <g id="Group_1202363" data-name="Group 1202363" transform="translate(7.416 34.066)">
            <path id="Path_1040669" data-name="Path 1040669" d="M72.537,336h41.6v4.637h-41.6Z" transform="translate(-72.537 -332.604)" fill="#756e78"/>
            <path id="Path_1040670" data-name="Path 1040670" d="M72.537,356.329h41.6v2.318h-41.6Z" transform="translate(-72.537 -350.615)" fill="#665e66"/>
            <g id="Group_1202362" data-name="Group 1202362" transform="translate(8.243)">
              <path id="Path_1040671" data-name="Path 1040671" d="M147.718,317.652a2.894,2.894,0,0,1-2.894-2.894v-5.639a2.894,2.894,0,0,1,5.789,0v5.639A2.894,2.894,0,0,1,147.718,317.652Z" transform="translate(-144.824 -306.224)" fill="#9dc6fb"/>
              <path id="Path_1040672" data-name="Path 1040672" d="M150.612,346.3v3.963a2.894,2.894,0,0,1-5.789,0V346.3a2.894,2.894,0,0,0,5.789,0Z" transform="translate(-144.823 -341.733)" fill="#80b4fb"/>
            </g>
          </g>
          <path id="Path_1040673" data-name="Path 1040673" d="M48.391,7.5a2.948,2.948,0,0,0-2.948,2.948V55.524l2.948,2.783,2.948-2.783V10.449A2.948,2.948,0,0,0,48.391,7.5Z" transform="translate(-41.116 -7.501)" fill="#aa7a63"/>
          <path id="Path_1040674" data-name="Path 1040674" d="M48.034,55.521l1.652,1.56-1.3,1.222-2.948-2.783V10.446A2.948,2.948,0,0,1,49.686,7.8a2.947,2.947,0,0,0-1.652,2.648Z" transform="translate(-41.116 -7.498)" fill="#986b54"/>
          <path id="Path_1040675" data-name="Path 1040675" d="M417.812,7.5a2.947,2.947,0,0,0-2.948,2.948V55.524h5.895V10.449A2.947,2.947,0,0,0,417.812,7.5Z" transform="translate(-368.409 -7.501)" fill="#aa7a63"/>
          <path id="Path_1040676" data-name="Path 1040676" d="M417.456,55.521l1.652,1.56-1.3,1.222-2.948-2.783V10.446A2.948,2.948,0,0,1,419.108,7.8a2.947,2.947,0,0,0-1.652,2.648Z" transform="translate(-368.41 -7.498)" fill="#986b54"/>
          <path id="Path_1040677" data-name="Path 1040677" d="M59.852,428.616H11.829a4.327,4.327,0,1,0,0,8.653H59.852a4.327,4.327,0,1,0,0-8.653Z" transform="translate(-7.502 -380.593)" fill="#aa7a63"/>
          <path id="Path_1040678" data-name="Path 1040678" d="M14.344,436a4.318,4.318,0,0,0,3.06,1.267H11.829a4.327,4.327,0,1,1,0-8.653H17.4A4.327,4.327,0,0,0,14.344,436Z" transform="translate(-7.502 -380.594)" fill="#986b54"/>
          <g id="Group_1202365" data-name="Group 1202365" transform="translate(19.747 13.252)">
            <path id="Path_1040679" data-name="Path 1040679" d="M319.29,415.1h17.137v10.2H319.29Z" transform="translate(-303.482 -381.866)" fill="#ffddce"/>
            <path id="Path_1040680" data-name="Path 1040680" d="M319.29,415.1h4.169v10.2H319.29Z" transform="translate(-303.482 -381.866)" fill="#ffcbbe"/>
            <path id="Path_1040681" data-name="Path 1040681" d="M193.769,126.705v22.112a2.042,2.042,0,0,1-2.042,2.042H184.78a4.092,4.092,0,0,0-4.114,3.979,4.048,4.048,0,0,0,4.048,4.117h4.732a5.2,5.2,0,0,0,4.324,2.309H209.9a6.94,6.94,0,0,0,6.94-6.94V142.451a2.586,2.586,0,0,0-2.48-2.6,2.551,2.551,0,0,0-2.623,2.55v-1.379a3.043,3.043,0,0,0-3.054-3.054,3,3,0,0,0-2.937,2.995V139.84a3.043,3.043,0,0,0-3.054-3.054,3,3,0,0,0-2.937,2.995V126.705a3,3,0,0,0-5.991,0Z" transform="translate(-180.665 -123.709)" fill="#ffddce"/>
            <g id="Group_1202364" data-name="Group 1202364" transform="translate(0)">
              <path id="Path_1040682" data-name="Path 1040682" d="M200.643,394.907h-6.874a5.2,5.2,0,0,1-4.323-2.309h-4.731a4.049,4.049,0,0,1-4.048-4.118,3.963,3.963,0,0,1,.161-1.054,4.05,4.05,0,0,0,3.888,2.913h4.731a5.2,5.2,0,0,0,4.323,2.309h6.874Z" transform="translate(-180.665 -357.352)" fill="#ffcbbe"/>
              <path id="Path_1040683" data-name="Path 1040683" d="M282.7,123.705a2.974,2.974,0,0,1,1.172.238,3,3,0,0,0-1.822,2.757v22.112a2.041,2.041,0,0,1-2.041,2.041h-2.346a2.041,2.041,0,0,0,2.041-2.041V126.7a2.994,2.994,0,0,1,3-3Z" transform="translate(-266.605 -123.705)" fill="#ffcbbe"/>
            </g>
          </g>
        </g>
        <path id="Path_1040684" data-name="Path 1040684" d="M58.388,53.2a5.171,5.171,0,0,0-2.066-4.14,7.768,7.768,0,0,0,1.316-4.343V32.849a3.456,3.456,0,0,0-3.312-3.457c-.089,0-.177,0-.264,0V3.8a3.8,3.8,0,1,0-7.605,0V9.609h-3.79a3.749,3.749,0,0,0-7.465,0H25.973a3.748,3.748,0,0,0-6.627-2.027A3.748,3.748,0,0,0,12.72,9.609h-.786V3.8a3.8,3.8,0,1,0-7.606,0V48.1a5.181,5.181,0,0,0,.855,10.292H9.048a.855.855,0,1,0,0-1.711H5.183a3.471,3.471,0,1,1,0-6.942H22.541a4.887,4.887,0,0,0,2.111.474h4.3a6.054,6.054,0,0,0,4.759,2.309h1.85v4.159H12.469a.855.855,0,0,0,0,1.711H36.412a.855.855,0,0,0,.855-.855v-5.87a.855.855,0,0,0-.855-.855h-2.7a4.349,4.349,0,0,1-3.614-1.931.855.855,0,0,0-.71-.378h-4.73a3.193,3.193,0,0,1-3.193-3.248,3.241,3.241,0,0,1,3.259-3.138h6.947a2.9,2.9,0,0,0,2.9-2.9V35.653a.855.855,0,0,0-1.711,0v1.808H23.143a3.749,3.749,0,0,0-7.465,0H11.933V29.882h6.575a3.748,3.748,0,0,0,6.626,2.027,3.748,3.748,0,0,0,6.627-2.027h1.09v2.349a.855.855,0,1,0,1.711,0V17.1a2.14,2.14,0,0,1,4.28,0V32.885a.855.855,0,0,0,1.711,0v-2.7h0a2.151,2.151,0,0,1,2.1-2.139,2.1,2.1,0,0,1,1.513.612,2.237,2.237,0,0,1,.669,1.586v1.12a.855.855,0,1,0,1.711,0,2.151,2.151,0,0,1,2.1-2.139,2.093,2.093,0,0,1,1.513.612,2.238,2.238,0,0,1,.669,1.587V32.8a.855.855,0,0,0,1.711,0A1.7,1.7,0,0,1,54.279,31.1a1.734,1.734,0,0,1,1.648,1.747V44.722a6.058,6.058,0,0,1-2.835,5.144.855.855,0,0,0-.4.723v6.943a.854.854,0,0,0,1.094.821,5.205,5.205,0,0,0,4.6-5.148ZM40.553,18.983a3.759,3.759,0,0,0,2.113-3.027h3.791v7.579h-5.9Zm5.9-4.737H42.683V11.319h3.774ZM22.241,7.924a2.041,2.041,0,0,1,2.039,2.039V15.6a2.039,2.039,0,1,1-4.078,0V9.963a2.041,2.041,0,0,1,2.039-2.039ZM14.413,9.963a2.039,2.039,0,1,1,4.078,0V15.6a2.039,2.039,0,1,1-4.078,0ZM12.7,11.319v2.926h-.769V11.319ZM6.038,3.8a2.092,2.092,0,1,1,4.184,0v44.22H6.038ZM32.852,39.215A1.187,1.187,0,0,1,31.666,40.4H24.718a4.969,4.969,0,0,0-1.559.251V39.172h9.692Zm-15.48-1.4a2.039,2.039,0,1,1,4.078,0v3.807a4.865,4.865,0,0,0-1.7,3.6c0,.081,0,.161,0,.242a2.071,2.071,0,0,1-.341.031,2.041,2.041,0,0,1-2.039-2.039ZM19.41,47.2a3.786,3.786,0,0,0,.692-.064,4.846,4.846,0,0,0,.468.883H11.933V43.808h3.745A3.754,3.754,0,0,0,19.41,47.2Zm-3.749-8.033V42.1H11.933V39.172ZM11.933,25.245h6.558v2.926H11.933Zm10.307,6.322A2.041,2.041,0,0,1,20.2,29.528V23.889a2.039,2.039,0,1,1,4.078,0v5.639A2.041,2.041,0,0,1,22.241,31.567Zm7.827-2.039a2.039,2.039,0,1,1-4.078,0V23.889a2.039,2.039,0,1,1,4.078,0ZM28.029,20.14a3.744,3.744,0,0,0-2.894,1.368,3.748,3.748,0,0,0-6.626,2.027H11.933V15.956h.786a3.748,3.748,0,0,0,6.626,2.027,3.748,3.748,0,0,0,6.626-2.027h7.052a3.862,3.862,0,0,0-.173,1.147v6.431h-1.09A3.754,3.754,0,0,0,28.029,20.14Zm3.75,8.032V25.245h1.073v2.926Zm2.343-13.926H25.99V11.319h9.194v2.245a3.845,3.845,0,0,0-1.062.681Zm2.772-.987v-3.3a2.039,2.039,0,0,1,4.078,0V15.6a2.038,2.038,0,0,1-.429,1.249A3.855,3.855,0,0,0,36.894,13.258Zm9.235,15.228a3.947,3.947,0,0,0-.767-1.056,3.8,3.8,0,0,0-4.81-.445v-1.74h5.9v2.98A3.876,3.876,0,0,0,46.129,28.487Zm6.142,1.522a3.959,3.959,0,0,0-.918-1.4,3.772,3.772,0,0,0-3.186-1.066V3.8a2.092,2.092,0,1,1,4.184,0V29.957c-.027.018-.054.033-.08.052ZM54.4,56.462V51.043a7.861,7.861,0,0,0,.809-.67,3.47,3.47,0,0,1-.809,6.089Z" transform="translate(0 0)"/>
      </g>
    </g>
  </g>
</svg>
