<svg xmlns="http://www.w3.org/2000/svg" xmlns:xlink="http://www.w3.org/1999/xlink" width="113" height="113" viewBox="0 0 113 113">
  <defs>
    <filter id="Path_982547" x="0" y="0" width="113" height="113" filterUnits="userSpaceOnUse">
      <feOffset dy="3" input="SourceAlpha"/>
      <feGaussianBlur stdDeviation="3" result="blur"/>
      <feFlood flood-opacity="0.161"/>
      <feComposite operator="in" in2="blur"/>
      <feComposite in="SourceGraphic"/>
    </filter>
  </defs>
  <g id="Group_1202456" data-name="Group 1202456" transform="translate(-901.56 -4676.514)">
    <g id="Group_1202376" data-name="Group 1202376" transform="translate(0 31)">
      <g id="Group_1202053" data-name="Group 1202053" transform="translate(0 3240.511)">
        <g id="Group_1177898" data-name="Group 1177898" transform="translate(910.561 1411.003)">
          <g id="Group_1172010" data-name="Group 1172010" transform="translate(0)">
            <g id="Group_1171046" data-name="Group 1171046">
              <g id="Group_1148525" data-name="Group 1148525">
                <g transform="matrix(1, 0, 0, 1, -9, -6)" filter="url(#Path_982547)">
                  <g id="Path_982547-2" data-name="Path 982547" transform="translate(9 6)" fill="#edf3fc">
                    <path d="M 47.5 93.5 C 41.28937149047852 93.5 35.26533508300781 92.28397369384766 29.59518623352051 89.88570404052734 C 24.11771965026855 87.56893157958984 19.19813346862793 84.25196075439453 14.97309303283691 80.02691650390625 C 10.74804019927979 75.80186462402344 7.431066513061523 70.88229370117188 5.114293098449707 65.40481567382812 C 2.716026782989502 59.73468017578125 1.5 53.71062850952148 1.5 47.5 C 1.5 41.28937149047852 2.716026782989502 35.26533508300781 5.114293098449707 29.59518623352051 C 7.431066513061523 24.11771965026855 10.74804019927979 19.19813346862793 14.97309303283691 14.97309303283691 C 19.19813346862793 10.74804019927979 24.11771965026855 7.431066513061523 29.59518623352051 5.114293098449707 C 35.26533508300781 2.716026782989502 41.28937149047852 1.5 47.5 1.5 C 53.71062850952148 1.5 59.73468017578125 2.716026782989502 65.40481567382812 5.114293098449707 C 70.88229370117188 7.431066513061523 75.80186462402344 10.74804019927979 80.02691650390625 14.97309303283691 C 84.25196075439453 19.19813346862793 87.56893157958984 24.11771965026855 89.88570404052734 29.59518623352051 C 92.28397369384766 35.26533508300781 93.5 41.28937149047852 93.5 47.5 C 93.5 53.71062850952148 92.28397369384766 59.73468017578125 89.88570404052734 65.40481567382812 C 87.56893157958984 70.88229370117188 84.25196075439453 75.80186462402344 80.02691650390625 80.02691650390625 C 75.80186462402344 84.25196075439453 70.88229370117188 87.56893157958984 65.40481567382812 89.88570404052734 C 59.73468017578125 92.28397369384766 53.71062850952148 93.5 47.5 93.5 Z" stroke="none"/>
                    <path d="M 47.5 3 C 41.49121475219727 3 35.66376876831055 4.176155090332031 30.17950439453125 6.495796203613281 C 24.88084411621094 8.736953735351562 20.12152099609375 11.94598388671875 16.03375244140625 16.03375244140625 C 11.94598388671875 20.12152099609375 8.736953735351562 24.88084411621094 6.495796203613281 30.17950439453125 C 4.176155090332031 35.66376876831055 3 41.49121475219727 3 47.5 C 3 53.50878524780273 4.176155090332031 59.33623123168945 6.495796203613281 64.82049560546875 C 8.736953735351562 70.11915588378906 11.94598388671875 74.87847900390625 16.03375244140625 78.96624755859375 C 20.12152099609375 83.05401611328125 24.88084411621094 86.26304626464844 30.17950439453125 88.50419616699219 C 35.66376876831055 90.82384490966797 41.49121475219727 92 47.5 92 C 53.50878524780273 92 59.33623123168945 90.82384490966797 64.82049560546875 88.50419616699219 C 70.11915588378906 86.26304626464844 74.87847900390625 83.05401611328125 78.96624755859375 78.96624755859375 C 83.05401611328125 74.87847900390625 86.26304626464844 70.11915588378906 88.50419616699219 64.82049560546875 C 90.82384490966797 59.33623123168945 92 53.50878524780273 92 47.5 C 92 41.49121475219727 90.82384490966797 35.66376876831055 88.50419616699219 30.17950439453125 C 86.26304626464844 24.88084411621094 83.05401611328125 20.12152099609375 78.96624755859375 16.03375244140625 C 74.87847900390625 11.94598388671875 70.11915588378906 8.736953735351562 64.82049560546875 6.495796203613281 C 59.33623123168945 4.176155090332031 53.50878524780273 3 47.5 3 M 47.5 0 C 73.7335205078125 0 95 21.2664794921875 95 47.5 C 95 73.7335205078125 73.7335205078125 95 47.5 95 C 21.2664794921875 95 0 73.7335205078125 0 47.5 C 0 21.2664794921875 21.2664794921875 0 47.5 0 Z" stroke="none" fill="#5692e8"/>
                  </g>
                </g>
              </g>
            </g>
          </g>
        </g>
      </g>
      <g id="income_17575133" transform="translate(914.387 4643.318)">
        <g id="Group_1202368" data-name="Group 1202368" transform="translate(9.988 69.936)">
          <path id="Path_1040685" data-name="Path 1040685" d="M16,335.137l14.043,15.744,4.7-4.189L20.694,330.95Z" transform="translate(-15.178 -330.126)" fill="#ffc5b7" fill-rule="evenodd"/>
          <path id="Path_1040686" data-name="Path 1040686" d="M24.861,346.51a.824.824,0,0,1-.615-.275L10.2,330.491a.823.823,0,0,1,.066-1.161l4.693-4.189a.83.83,0,0,1,.594-.208.822.822,0,0,1,.567.274L30.171,340.95a.821.821,0,0,1-.066,1.161l-4.7,4.189a.821.821,0,0,1-.548.208Zm-12.882-16.5,12.948,14.514,3.468-3.093L15.444,326.917l-3.464,3.092Z" transform="translate(-9.995 -324.932)"/>
        </g>
        <g id="Group_1202369" data-name="Group 1202369" transform="translate(17.888 60.382)">
          <path id="Path_1040687" data-name="Path 1040687" d="M107.314,271.346l2.383-1.917,8.082-6.421c3.368-2.875,7.286-2.124,9.277.353t-20.3,19.054s-8.617-.008-25.855-.019l-7.216-8.088c8.947-9.234,16.462-11.683,21.709-6.563h8.228c3.7-.457,3.683,3.614,3.7,3.6Z" transform="translate(-72.859 -260.336)" fill="#fed9c9" fill-rule="evenodd"/>
          <path id="Path_1040688" data-name="Path 1040688" d="M101.577,278.065s-8.617-.008-25.853-.019a.821.821,0,0,1-.613-.275l-7.216-8.088a.822.822,0,0,1,.023-1.12c6.007-6.2,11.379-9.377,15.965-9.441a9.381,9.381,0,0,1,6.664,2.628H98.4a3.838,3.838,0,0,1,3.033.793,4.259,4.259,0,0,1,1.291,2.109l1.287-1.035,8.073-6.414a7.868,7.868,0,0,1,5.814-2.009,6.78,6.78,0,0,1,4.627,2.483.823.823,0,0,1-.078,1.116s-6.77,6.351-20.3,19.054a.818.818,0,0,1-.563.223ZM76.092,276.4q22.606.014,25.161.019,16.6-15.581,19.467-18.269a5.133,5.133,0,0,0-2.978-1.32,6.176,6.176,0,0,0-4.6,1.632.254.254,0,0,1-.022.018l-8.082,6.419-2.38,1.914a.824.824,0,0,1-1.339-.635,3.531,3.531,0,0,0-.948-2.38,2.268,2.268,0,0,0-1.823-.412.819.819,0,0,1-.1.007H90.216a.823.823,0,0,1-.575-.234,7.849,7.849,0,0,0-5.739-2.394c-4,.056-8.8,2.88-14.269,8.4Z" transform="translate(-67.685 -255.162)"/>
        </g>
        <path id="Path_1040689" data-name="Path 1040689" d="M213.636,311.488H201.623a.823.823,0,1,1,0-1.646h12.013a2.473,2.473,0,0,0,0-4.946H205.1a.823.823,0,1,1,0-1.646h8.532a4.119,4.119,0,1,1,0,8.238Z" transform="translate(-164.685 -236.283)"/>
        <g id="Group_1202370" data-name="Group 1202370" transform="translate(29.294 57.975)">
          <path id="Path_1040690" data-name="Path 1040690" d="M158.948,243.58h23.215a1.955,1.955,0,0,1,1.948,1.949v2.124a1.956,1.956,0,0,1-1.948,1.953H158.948A1.956,1.956,0,0,1,157,247.652v-2.124A1.955,1.955,0,0,1,158.948,243.58Z" transform="translate(-156.177 -242.758)" fill="red" fill-rule="evenodd"/>
          <path id="Path_1040691" data-name="Path 1040691" d="M176.976,245.249H153.761a2.776,2.776,0,0,1-2.771-2.776v-2.122a2.775,2.775,0,0,1,2.771-2.771h23.215a2.775,2.775,0,0,1,2.771,2.771v2.122A2.776,2.776,0,0,1,176.976,245.249Zm-23.215-6.023a1.127,1.127,0,0,0-1.126,1.126v2.122a1.129,1.129,0,0,0,1.126,1.13h23.215a1.129,1.129,0,0,0,1.126-1.13v-2.122a1.127,1.127,0,0,0-1.126-1.126Z" transform="translate(-150.99 -237.58)"/>
        </g>
        <g id="Group_1202371" data-name="Group 1202371" transform="translate(29.294 51.95)">
          <path id="Path_1040692" data-name="Path 1040692" d="M158.948,199.59h23.215a1.955,1.955,0,0,1,1.948,1.948v2.127a1.955,1.955,0,0,1-1.948,1.948H158.948A1.955,1.955,0,0,1,157,203.665v-2.127A1.955,1.955,0,0,1,158.948,199.59Z" transform="translate(-156.177 -198.767)" fill="#093" fill-rule="evenodd"/>
          <path id="Path_1040693" data-name="Path 1040693" d="M176.976,201.249H153.761a2.775,2.775,0,0,1-2.771-2.771v-2.127a2.775,2.775,0,0,1,2.771-2.771h23.215a2.775,2.775,0,0,1,2.771,2.771v2.127A2.775,2.775,0,0,1,176.976,201.249Zm-23.215-6.023a1.127,1.127,0,0,0-1.126,1.126v2.127a1.127,1.127,0,0,0,1.126,1.126h23.215a1.127,1.127,0,0,0,1.126-1.126v-2.127a1.127,1.127,0,0,0-1.126-1.126Z" transform="translate(-150.99 -193.58)"/>
        </g>
        <g id="Group_1202372" data-name="Group 1202372" transform="translate(29.294 45.926)">
          <path id="Path_1040694" data-name="Path 1040694" d="M158.948,155.6h23.215a1.955,1.955,0,0,1,1.948,1.949v2.126a1.955,1.955,0,0,1-1.948,1.949H158.948A1.955,1.955,0,0,1,157,159.675v-2.126A1.955,1.955,0,0,1,158.948,155.6Z" transform="translate(-156.177 -154.777)" fill="#fdd330" fill-rule="evenodd"/>
          <path id="Path_1040695" data-name="Path 1040695" d="M176.976,157.259H153.761a2.775,2.775,0,0,1-2.771-2.771v-2.126a2.775,2.775,0,0,1,2.771-2.771h23.215a2.775,2.775,0,0,1,2.771,2.771v2.126A2.775,2.775,0,0,1,176.976,157.259Zm-23.215-6.023a1.127,1.127,0,0,0-1.126,1.126v2.126a1.127,1.127,0,0,0,1.126,1.126h23.215a1.127,1.127,0,0,0,1.126-1.126v-2.126a1.127,1.127,0,0,0-1.126-1.126Z" transform="translate(-150.99 -149.59)"/>
        </g>
        <g id="Group_1202373" data-name="Group 1202373" transform="translate(29.294 39.903)">
          <path id="Path_1040696" data-name="Path 1040696" d="M158.948,111.6h23.215a1.955,1.955,0,0,1,1.948,1.948v2.127a1.955,1.955,0,0,1-1.948,1.948H158.948A1.955,1.955,0,0,1,157,115.675v-2.127A1.955,1.955,0,0,1,158.948,111.6Z" transform="translate(-156.177 -110.778)" fill="#3b579f" fill-rule="evenodd"/>
          <path id="Path_1040697" data-name="Path 1040697" d="M176.976,113.269H153.761a2.775,2.775,0,0,1-2.771-2.771v-2.127a2.775,2.775,0,0,1,2.771-2.771h23.215a2.775,2.775,0,0,1,2.771,2.771V110.5A2.775,2.775,0,0,1,176.976,113.269Zm-23.215-6.023a1.127,1.127,0,0,0-1.126,1.126V110.5a1.127,1.127,0,0,0,1.126,1.126h23.215A1.127,1.127,0,0,0,178.1,110.5v-2.127a1.127,1.127,0,0,0-1.126-1.126Z" transform="translate(-150.99 -105.6)"/>
        </g>
        <g id="Group_1202374" data-name="Group 1202374" transform="translate(9.987 29.48)">
          <path id="Path_1040698" data-name="Path 1040698" d="M25.343,63.014V45h3.114L22.23,35.49,16,45h3.114V63.014Z" transform="translate(-15.177 -34.667)" fill="#24d38c"/>
          <path id="Path_1040699" data-name="Path 1040699" d="M20.153,58.65h-6.23a.823.823,0,0,1-.823-.823V40.636H10.81a.823.823,0,0,1-.689-1.273l6.23-9.51a.823.823,0,0,1,1.378,0l6.226,9.51a.823.823,0,0,1-.689,1.273H20.977V57.827a.823.823,0,0,1-.823.823ZM14.746,57H19.33V39.813a.823.823,0,0,1,.823-.823h1.591l-4.7-7.185L12.334,38.99h1.59a.823.823,0,0,1,.823.823V57Z" transform="translate(-9.987 -29.48)"/>
        </g>
        <g id="Group_1202375" data-name="Group 1202375" transform="translate(63.252 29.48)">
          <path id="Path_1040700" data-name="Path 1040700" d="M414.347,63.014V45h3.114l-6.23-9.51L405,45h3.118V63.014Z" transform="translate(-404.177 -34.667)" fill="#24d38c"/>
          <path id="Path_1040701" data-name="Path 1040701" d="M409.157,58.65h-6.23a.823.823,0,0,1-.823-.823V40.636H399.81a.823.823,0,0,1-.689-1.273l6.23-9.51a.823.823,0,0,1,1.378,0l6.23,9.51a.823.823,0,0,1-.689,1.273h-2.289V57.827a.823.823,0,0,1-.823.823ZM403.75,57h4.584V39.813a.823.823,0,0,1,.823-.823h1.59l-4.708-7.185-4.708,7.185h1.594a.823.823,0,0,1,.823.823V57Z" transform="translate(-398.987 -29.48)"/>
        </g>
      </g>
    </g>
  </g>
</svg>
