<svg xmlns="http://www.w3.org/2000/svg" xmlns:xlink="http://www.w3.org/1999/xlink" width="113" height="113" viewBox="0 0 113 113">
  <defs>
    <filter id="Path_982547" x="0" y="0" width="113" height="113" filterUnits="userSpaceOnUse">
      <feOffset dy="3" input="SourceAlpha"/>
      <feGaussianBlur stdDeviation="3" result="blur"/>
      <feFlood flood-opacity="0.161"/>
      <feComposite operator="in" in2="blur"/>
      <feComposite in="SourceGraphic"/>
    </filter>
  </defs>
  <g id="Group_1202426" data-name="Group 1202426" transform="translate(-901.56 -1301.402)">
    <g id="Group_1202268" data-name="Group 1202268">
      <g id="Group_1178313" data-name="Group 1178313" transform="translate(0 -103.601)">
        <g id="Group_1177898" data-name="Group 1177898" transform="translate(910.561 1411.003)">
          <g id="Group_1172010" data-name="Group 1172010" transform="translate(0)">
            <g id="Group_1171046" data-name="Group 1171046">
              <g id="Group_1148525" data-name="Group 1148525">
                <g transform="matrix(1, 0, 0, 1, -9, -6)" filter="url(#Path_982547)">
                  <g id="Path_982547-2" data-name="Path 982547" transform="translate(9 6)" fill="#edf3fc">
                    <path d="M 47.5 93.5 C 41.28937149047852 93.5 35.26533508300781 92.28397369384766 29.59518623352051 89.88570404052734 C 24.11771965026855 87.56893157958984 19.19813346862793 84.25196075439453 14.97309303283691 80.02691650390625 C 10.74804019927979 75.80186462402344 7.431066513061523 70.88229370117188 5.114293098449707 65.40481567382812 C 2.716026782989502 59.73468017578125 1.5 53.71062850952148 1.5 47.5 C 1.5 41.28937149047852 2.716026782989502 35.26533508300781 5.114293098449707 29.59518623352051 C 7.431066513061523 24.11771965026855 10.74804019927979 19.19813346862793 14.97309303283691 14.97309303283691 C 19.19813346862793 10.74804019927979 24.11771965026855 7.431066513061523 29.59518623352051 5.114293098449707 C 35.26533508300781 2.716026782989502 41.28937149047852 1.5 47.5 1.5 C 53.71062850952148 1.5 59.73468017578125 2.716026782989502 65.40481567382812 5.114293098449707 C 70.88229370117188 7.431066513061523 75.80186462402344 10.74804019927979 80.02691650390625 14.97309303283691 C 84.25196075439453 19.19813346862793 87.56893157958984 24.11771965026855 89.88570404052734 29.59518623352051 C 92.28397369384766 35.26533508300781 93.5 41.28937149047852 93.5 47.5 C 93.5 53.71062850952148 92.28397369384766 59.73468017578125 89.88570404052734 65.40481567382812 C 87.56893157958984 70.88229370117188 84.25196075439453 75.80186462402344 80.02691650390625 80.02691650390625 C 75.80186462402344 84.25196075439453 70.88229370117188 87.56893157958984 65.40481567382812 89.88570404052734 C 59.73468017578125 92.28397369384766 53.71062850952148 93.5 47.5 93.5 Z" stroke="none"/>
                    <path d="M 47.5 3 C 41.49121475219727 3 35.66376876831055 4.176155090332031 30.17950439453125 6.495796203613281 C 24.88084411621094 8.736953735351562 20.12152099609375 11.94598388671875 16.03375244140625 16.03375244140625 C 11.94598388671875 20.12152099609375 8.736953735351562 24.88084411621094 6.495796203613281 30.17950439453125 C 4.176155090332031 35.66376876831055 3 41.49121475219727 3 47.5 C 3 53.50878524780273 4.176155090332031 59.33623123168945 6.495796203613281 64.82049560546875 C 8.736953735351562 70.11915588378906 11.94598388671875 74.87847900390625 16.03375244140625 78.96624755859375 C 20.12152099609375 83.05401611328125 24.88084411621094 86.26304626464844 30.17950439453125 88.50419616699219 C 35.66376876831055 90.82384490966797 41.49121475219727 92 47.5 92 C 53.50878524780273 92 59.33623123168945 90.82384490966797 64.82049560546875 88.50419616699219 C 70.11915588378906 86.26304626464844 74.87847900390625 83.05401611328125 78.96624755859375 78.96624755859375 C 83.05401611328125 74.87847900390625 86.26304626464844 70.11915588378906 88.50419616699219 64.82049560546875 C 90.82384490966797 59.33623123168945 92 53.50878524780273 92 47.5 C 92 41.49121475219727 90.82384490966797 35.66376876831055 88.50419616699219 30.17950439453125 C 86.26304626464844 24.88084411621094 83.05401611328125 20.12152099609375 78.96624755859375 16.03375244140625 C 74.87847900390625 11.94598388671875 70.11915588378906 8.736953735351562 64.82049560546875 6.495796203613281 C 59.33623123168945 4.176155090332031 53.50878524780273 3 47.5 3 M 47.5 0 C 73.7335205078125 0 95 21.2664794921875 95 47.5 C 95 73.7335205078125 73.7335205078125 95 47.5 95 C 21.2664794921875 95 0 73.7335205078125 0 47.5 C 0 21.2664794921875 21.2664794921875 0 47.5 0 Z" stroke="none" fill="#5692e8"/>
                  </g>
                </g>
              </g>
            </g>
          </g>
        </g>
      </g>
      <g id="items_6020266" transform="translate(929.033 1328.927)">
        <g id="Group_1202267" data-name="Group 1202267" transform="translate(0.844 0.852)">
          <g id="Group_1202261" data-name="Group 1202261">
            <circle id="Ellipse_12529" data-name="Ellipse 12529" cx="6.949" cy="6.949" r="6.949" fill="#eceff1"/>
            <path id="Path_1040404" data-name="Path 1040404" d="M69.494,8.009a6.949,6.949,0,1,1,0,13.9q-.266,0-.527-.02a6.949,6.949,0,0,0,0-13.857Q69.228,8.009,69.494,8.009Z" transform="translate(-62.545 -8.009)" fill="#d1d1d6" fill-rule="evenodd"/>
          </g>
          <g id="Group_1202262" data-name="Group 1202262" transform="translate(0 19.175)">
            <circle id="Ellipse_12530" data-name="Ellipse 12530" cx="6.949" cy="6.949" r="6.949" fill="#eceff1"/>
            <path id="Path_1040405" data-name="Path 1040405" d="M69.494,190.043a6.949,6.949,0,1,1,0,13.9q-.266,0-.527-.02a6.949,6.949,0,0,0,0-13.857Q69.228,190.043,69.494,190.043Z" transform="translate(-62.545 -190.043)" fill="#d1d1d6" fill-rule="evenodd"/>
          </g>
          <g id="Group_1202263" data-name="Group 1202263" transform="translate(0 38.349)">
            <circle id="Ellipse_12531" data-name="Ellipse 12531" cx="6.949" cy="6.949" r="6.949" fill="#eceff1"/>
            <path id="Path_1040406" data-name="Path 1040406" d="M69.494,372.077a6.949,6.949,0,1,1,0,13.9q-.266,0-.527-.02a6.949,6.949,0,0,0,0-13.857Q69.228,372.077,69.494,372.077Z" transform="translate(-62.545 -372.077)" fill="#d1d1d6" fill-rule="evenodd"/>
          </g>
          <g id="Group_1202264" data-name="Group 1202264" transform="translate(19.856 21.56)">
            <path id="Path_1040407" data-name="Path 1040407" d="M198.081,212.687h29.23a1.585,1.585,0,0,1,1.58,1.58v5.967a1.585,1.585,0,0,1-1.58,1.58h-29.23a1.585,1.585,0,0,1-1.58-1.58v-5.967A1.585,1.585,0,0,1,198.081,212.687Z" transform="translate(-196.501 -212.687)" fill="#6cf5c2" fill-rule="evenodd"/>
            <path id="Path_1040408" data-name="Path 1040408" d="M228.35,213.335a1.586,1.586,0,0,1,1.122,1.512v5.967a1.585,1.585,0,0,1-1.58,1.58h-29.23a1.586,1.586,0,0,1-1.512-1.122,1.567,1.567,0,0,0,.458.068h29.23a1.585,1.585,0,0,0,1.58-1.58v-5.967A1.563,1.563,0,0,0,228.35,213.335Z" transform="translate(-197.081 -213.267)" fill="#00e499" fill-rule="evenodd"/>
          </g>
          <g id="Group_1202265" data-name="Group 1202265" transform="translate(19.856 40.734)">
            <path id="Path_1040409" data-name="Path 1040409" d="M198.081,394.721h29.23a1.585,1.585,0,0,1,1.58,1.58v5.967a1.585,1.585,0,0,1-1.58,1.58h-29.23a1.585,1.585,0,0,1-1.58-1.58V396.3A1.585,1.585,0,0,1,198.081,394.721Z" transform="translate(-196.501 -394.721)" fill="#8ac9fe" fill-rule="evenodd"/>
            <path id="Path_1040410" data-name="Path 1040410" d="M228.35,395.369a1.586,1.586,0,0,1,1.122,1.512v5.967a1.585,1.585,0,0,1-1.58,1.58h-29.23a1.587,1.587,0,0,1-1.512-1.122,1.567,1.567,0,0,0,.458.068h29.23a1.585,1.585,0,0,0,1.58-1.58v-5.966A1.563,1.563,0,0,0,228.35,395.369Z" transform="translate(-197.081 -395.301)" fill="#60b7ff" fill-rule="evenodd"/>
          </g>
          <g id="Group_1202266" data-name="Group 1202266" transform="translate(19.856 2.385)">
            <path id="Path_1040411" data-name="Path 1040411" d="M198.081,30.652h29.23a1.585,1.585,0,0,1,1.58,1.58V38.2a1.585,1.585,0,0,1-1.58,1.58h-29.23a1.585,1.585,0,0,1-1.58-1.58V32.232A1.585,1.585,0,0,1,198.081,30.652Z" transform="translate(-196.501 -30.652)" fill="#fe646f" fill-rule="evenodd"/>
            <path id="Path_1040412" data-name="Path 1040412" d="M228.35,31.3a1.586,1.586,0,0,1,1.122,1.512v5.967a1.585,1.585,0,0,1-1.58,1.58h-29.23a1.586,1.586,0,0,1-1.512-1.122,1.567,1.567,0,0,0,.458.068h29.23a1.585,1.585,0,0,0,1.58-1.58V31.759A1.562,1.562,0,0,0,228.35,31.3Z" transform="translate(-197.081 -31.233)" fill="#fd4755" fill-rule="evenodd"/>
          </g>
        </g>
        <path id="Path_1040413" data-name="Path 1040413" d="M52.247,49.133a.738.738,0,0,1-.737.737H22.279a.738.738,0,0,1-.737-.737V43.166a.738.738,0,0,1,.737-.737H51.51a.738.738,0,0,1,.737.737v5.967Zm-.737-8.39H22.279a2.425,2.425,0,0,0-2.422,2.422v5.967a2.426,2.426,0,0,0,2.422,2.423H51.51a2.426,2.426,0,0,0,2.423-2.423V43.166a2.426,2.426,0,0,0-2.423-2.422Zm-2.265,5.406a.843.843,0,0,0-.843-.843H25.386a.843.843,0,0,0,0,1.685H48.4A.843.843,0,0,0,49.245,46.149Zm3-16.191a.738.738,0,0,1-.737.737H22.279a.738.738,0,0,1-.737-.737V23.992a.738.738,0,0,1,.737-.737H51.51a.738.738,0,0,1,.737.737v5.966Zm-.737-8.389H22.279a2.425,2.425,0,0,0-2.422,2.423v5.966a2.425,2.425,0,0,0,2.422,2.422H51.51a2.425,2.425,0,0,0,2.423-2.422V23.992a2.426,2.426,0,0,0-2.423-2.423Zm-2.265,5.406a.842.842,0,0,0-.843-.843H25.386a.843.843,0,0,0,0,1.685H48.4A.843.843,0,0,0,49.245,26.975Zm3-16.191a.738.738,0,0,1-.737.737H22.279a.738.738,0,0,1-.737-.737V4.817a.738.738,0,0,1,.737-.737H51.51a.738.738,0,0,1,.737.737v5.966ZM51.51,2.394H22.279a2.425,2.425,0,0,0-2.422,2.423v5.966a2.426,2.426,0,0,0,2.422,2.423H51.51a2.426,2.426,0,0,0,2.423-2.423V4.817A2.426,2.426,0,0,0,51.51,2.394ZM49.245,7.8a.842.842,0,0,0-.843-.843H25.386a.843.843,0,0,0,0,1.685H48.4A.843.843,0,0,0,49.245,7.8ZM10.568,30.419a.842.842,0,0,1-.843.843H5.859A.843.843,0,0,1,5.193,29.9,13.088,13.088,0,0,1,6.908,28.2c1.048-.923,2.038-1.794,1.964-2.677,0-.024,0-.048,0-.072a1.076,1.076,0,0,0-2.151,0,.843.843,0,0,1-1.686,0,2.762,2.762,0,0,1,5.523-.036c.125,1.711-1.286,2.952-2.531,4.049l-.131.114H9.725a.843.843,0,0,1,.843.843ZM7.793,33.081a6.106,6.106,0,1,0-6.106-6.106,6.113,6.113,0,0,0,6.106,6.106Zm0-13.9a7.792,7.792,0,1,0,7.791,7.792,7.8,7.8,0,0,0-7.791-7.792Zm2.761,25.048a2.748,2.748,0,0,1-.777,1.918A2.761,2.761,0,1,1,5.03,48.068a.843.843,0,0,1,1.686,0,1.076,1.076,0,1,0,1.076-1.077.843.843,0,1,1,0-1.685,1.076,1.076,0,1,0-1.076-1.075.843.843,0,0,1-1.686,0,2.761,2.761,0,0,1,5.523,0ZM7.793,52.255a6.106,6.106,0,1,0-6.106-6.106,6.112,6.112,0,0,0,6.106,6.106Zm0-13.9a7.791,7.791,0,1,0,7.791,7.791,7.8,7.8,0,0,0-7.791-7.791ZM9.108,4.527v6.547a.843.843,0,0,1-1.685,0v-4.8l-.547.435a.843.843,0,0,1-1.048-1.32L7.742,3.867a.843.843,0,0,1,1.366.66Zm-1.316,9.38A6.106,6.106,0,1,0,1.686,7.8a6.113,6.113,0,0,0,6.106,6.106Zm0-13.9A7.791,7.791,0,1,0,15.583,7.8,7.8,7.8,0,0,0,7.793.009Z" fill-rule="evenodd"/>
      </g>
    </g>
  </g>
</svg>
