<svg xmlns="http://www.w3.org/2000/svg" xmlns:xlink="http://www.w3.org/1999/xlink" width="106.16" height="106.161" viewBox="0 0 106.16 106.161">
  <defs>
    <filter id="Path_982547" x="0" y="0" width="106.16" height="106.161" filterUnits="userSpaceOnUse">
      <feOffset dy="3" input="SourceAlpha"/>
      <feGaussianBlur stdDeviation="3" result="blur"/>
      <feFlood flood-opacity="0.161"/>
      <feComposite operator="in" in2="blur"/>
      <feComposite in="SourceGraphic"/>
    </filter>
    <clipPath id="clip-path">
      <path id="path6114" d="M0-682.665H56.195v56.195H0Z" transform="translate(0 682.665)"/>
    </clipPath>
  </defs>
  <g id="Group_1202458" data-name="Group 1202458" transform="translate(-195.42 -5240.839)">
    <g id="Group_1202056" data-name="Group 1202056" transform="translate(-76.58 3835.836)">
      <g id="Group_1177900" data-name="Group 1177900" transform="translate(281 1411.003)">
        <g id="Group_1172010" data-name="Group 1172010" transform="translate(0)">
          <g id="Group_1171046" data-name="Group 1171046">
            <g id="Group_1148525" data-name="Group 1148525">
              <g transform="matrix(1, 0, 0, 1, -9, -6)" filter="url(#Path_982547)">
                <g id="Path_982547-2" data-name="Path 982547" transform="translate(9 6)" fill="#fdfbec">
                  <path d="M 44.0802001953125 86.660400390625 C 38.33124923706055 86.660400390625 32.75506210327148 85.53479766845703 27.50652503967285 83.31484985351562 C 22.43628692626953 81.17032623291016 17.88242530822754 78.09992218017578 13.97144985198975 74.18894958496094 C 10.06047534942627 70.27797698974609 6.99007511138916 65.72411346435547 4.845550060272217 60.65387344360352 C 2.625600099563599 55.40533828735352 1.500000238418579 49.82915115356445 1.500000238418579 44.0802001953125 C 1.500000238418579 38.33124923706055 2.625600099563599 32.75506210327148 4.845550060272217 27.50652503967285 C 6.99007511138916 22.43628692626953 10.06047534942627 17.88242530822754 13.97144985198975 13.97144985198975 C 17.88242530822754 10.06047534942627 22.43628692626953 6.99007511138916 27.50652503967285 4.845550060272217 C 32.75506210327148 2.625600099563599 38.33124923706055 1.500000238418579 44.0802001953125 1.500000238418579 C 49.82915115356445 1.500000238418579 55.40533828735352 2.625600099563599 60.65387344360352 4.845550060272217 C 65.72411346435547 6.99007511138916 70.27797698974609 10.06047534942627 74.18894958496094 13.97144985198975 C 78.09992218017578 17.88242530822754 81.17032623291016 22.43628692626953 83.31484985351562 27.50652503967285 C 85.53479766845703 32.75506210327148 86.660400390625 38.33124923706055 86.660400390625 44.0802001953125 C 86.660400390625 49.82915115356445 85.53479766845703 55.40533828735352 83.31484985351562 60.65387344360352 C 81.17032623291016 65.72411346435547 78.09992218017578 70.27797698974609 74.18894958496094 74.18894958496094 C 70.27797698974609 78.09992218017578 65.72411346435547 81.17032623291016 60.65387344360352 83.31484985351562 C 55.40533828735352 85.53479766845703 49.82915115356445 86.660400390625 44.0802001953125 86.660400390625 Z" stroke="none"/>
                  <path d="M 44.0802001953125 3 C 38.53308486938477 3 33.15349960327148 4.085746765136719 28.09085845947266 6.227058410644531 C 23.19941711425781 8.29595947265625 18.80581665039062 11.25841522216797 15.03211212158203 15.03211212158203 C 11.25841522216797 18.80581665039062 8.29595947265625 23.19941711425781 6.227058410644531 28.09085845947266 C 4.085746765136719 33.15349960327148 3 38.53308486938477 3 44.0802001953125 C 3 49.62731552124023 4.085746765136719 55.00691604614258 6.227058410644531 60.06954193115234 C 8.29595947265625 64.96098327636719 11.25841522216797 69.35458374023438 15.03211212158203 73.12828826904297 C 18.80581665039062 76.90198516845703 23.19941711425781 79.86444091796875 28.09085845947266 81.93334197998047 C 33.15349960327148 84.07466125488281 38.53308486938477 85.160400390625 44.0802001953125 85.160400390625 C 49.62731552124023 85.160400390625 55.00691604614258 84.07466125488281 60.06954193115234 81.93334197998047 C 64.96099853515625 79.86444091796875 69.35458374023438 76.90198516845703 73.12828826904297 73.12828826904297 C 76.90198516845703 69.35458374023438 79.86444091796875 64.96099853515625 81.93334197998047 60.06954193115234 C 84.07466125488281 55.00691604614258 85.160400390625 49.62731552124023 85.160400390625 44.0802001953125 C 85.160400390625 38.53308486938477 84.07466125488281 33.15349960327148 81.93334197998047 28.09085845947266 C 79.86444091796875 23.19941711425781 76.90198516845703 18.80581665039062 73.12828826904297 15.03211212158203 C 69.35458374023438 11.25841522216797 64.96098327636719 8.29595947265625 60.06954193115234 6.227058410644531 C 55.00691604614258 4.085746765136719 49.62731552124023 3 44.0802001953125 3 M 44.0802001953125 0 C 68.42502593994141 0 88.160400390625 19.73538970947266 88.160400390625 44.0802001953125 C 88.160400390625 68.42502593994141 68.42502593994141 88.160400390625 44.0802001953125 88.160400390625 C 19.73538970947266 88.160400390625 0 68.42502593994141 0 44.0802001953125 C 0 19.73538970947266 19.73538970947266 0 44.0802001953125 0 Z" stroke="none" fill="#83793c"/>
                </g>
              </g>
            </g>
          </g>
        </g>
      </g>
      <g id="g6108" transform="translate(296.983 1426.986)">
        <g id="g6110">
          <g id="g6112" clip-path="url(#clip-path)">
            <g id="g6118" transform="translate(0.817 8.646)">
              <path id="path6120" d="M-271.3,0H-285.32V3.635a1.363,1.363,0,0,1-1.359,1.359h-7.6a1.363,1.363,0,0,1-1.359-1.359V15.772a1.218,1.218,0,0,0,1.218,1.218H-271.3a1.218,1.218,0,0,0,1.218-1.218V1.218A1.218,1.218,0,0,0-271.3,0" transform="translate(295.638)" fill="#ff656f"/>
            </g>
            <g id="g6122" transform="translate(0.817 12.281)">
              <path id="path6124" d="M-46.913-135.3v-10.778h-2.849a1.363,1.363,0,0,1-1.359-1.359V-135.3a1.218,1.218,0,0,0,1.218,1.218H-45.7a1.218,1.218,0,0,1-1.218-1.218" transform="translate(51.121 147.438)" fill="#ff4756"/>
            </g>
            <g id="g6126" transform="translate(0.817 35.882)">
              <path id="path6128" d="M-271.3,0H-285.32V3.635a1.363,1.363,0,0,1-1.359,1.359h-7.6a1.363,1.363,0,0,1-1.359-1.359V15.772a1.218,1.218,0,0,0,1.218,1.218H-271.3a1.218,1.218,0,0,0,1.218-1.218V1.218A1.218,1.218,0,0,0-271.3,0" transform="translate(295.638)" fill="#43cb8e"/>
            </g>
            <g id="g6130" transform="translate(0.817 39.517)">
              <path id="path6132" d="M-46.913-135.3v-10.778h-2.849a1.363,1.363,0,0,1-1.359-1.359V-135.3a1.218,1.218,0,0,0,1.218,1.218H-45.7a1.218,1.218,0,0,1-1.218-1.218" transform="translate(51.121 147.44)" fill="#00ba66"/>
            </g>
            <g id="g6134" transform="translate(29.812 8.646)">
              <path id="path6136" d="M-271.3,0H-285.32V3.635a1.363,1.363,0,0,1-1.359,1.359h-7.6a1.363,1.363,0,0,1-1.359-1.359V15.772a1.218,1.218,0,0,0,1.218,1.218H-271.3a1.218,1.218,0,0,0,1.218-1.218V1.218A1.218,1.218,0,0,0-271.3,0" transform="translate(295.638)" fill="#fee55a"/>
            </g>
            <g id="g6138" transform="translate(29.812 12.281)">
              <path id="path6140" d="M-46.913-135.3v-10.778h-2.849a1.363,1.363,0,0,1-1.359-1.359V-135.3a1.218,1.218,0,0,0,1.218,1.218H-45.7a1.218,1.218,0,0,1-1.218-1.218" transform="translate(51.121 147.438)" fill="#ffd301"/>
            </g>
            <g id="g6142" transform="translate(29.812 35.882)">
              <path id="path6144" d="M-271.3,0H-285.32V3.635a1.363,1.363,0,0,1-1.359,1.359h-7.6a1.363,1.363,0,0,1-1.359-1.359V15.772a1.218,1.218,0,0,0,1.218,1.218H-271.3a1.218,1.218,0,0,0,1.218-1.218V1.218A1.218,1.218,0,0,0-271.3,0" transform="translate(295.638)" fill="#60b8fe"/>
            </g>
            <g id="g6146" transform="translate(29.812 39.517)">
              <path id="path6148" d="M-46.913-135.3v-10.778h-2.849a1.363,1.363,0,0,1-1.359-1.359V-135.3a1.218,1.218,0,0,0,1.218,1.218H-45.7a1.218,1.218,0,0,1-1.218-1.218" transform="translate(51.121 147.44)" fill="#23a8fe"/>
            </g>
            <g id="g6150" transform="translate(0.817 3.323)">
              <path id="path6152" d="M-104.012-118.694h-8.013a1.321,1.321,0,0,1-1.317-1.317v-8.013a1.321,1.321,0,0,1,1.317-1.317h8.013a1.321,1.321,0,0,1,1.317,1.317v8.013a1.321,1.321,0,0,1-1.317,1.317" transform="translate(113.342 129.341)" fill="#dfebfa"/>
            </g>
            <g id="g6154" transform="translate(0.817 30.559)">
              <path id="path6156" d="M-104.012-118.694h-8.013a1.321,1.321,0,0,1-1.317-1.317v-8.013a1.321,1.321,0,0,1,1.317-1.317h8.013a1.321,1.321,0,0,1,1.317,1.317v8.013a1.321,1.321,0,0,1-1.317,1.317" transform="translate(113.342 129.341)" fill="#dfebfa"/>
            </g>
            <g id="g6158" transform="translate(29.812 3.323)">
              <path id="path6160" d="M-104.011-118.694h-8.013a1.321,1.321,0,0,1-1.317-1.317v-8.013a1.321,1.321,0,0,1,1.317-1.317h8.013a1.321,1.321,0,0,1,1.317,1.317v8.013a1.321,1.321,0,0,1-1.317,1.317" transform="translate(113.341 129.341)" fill="#dfebfa"/>
            </g>
            <g id="g6162" transform="translate(29.812 30.559)">
              <path id="path6164" d="M-104.011-118.694h-8.013a1.321,1.321,0,0,1-1.317-1.317v-8.013a1.321,1.321,0,0,1,1.317-1.317h8.013a1.321,1.321,0,0,1,1.317,1.317v8.013a1.321,1.321,0,0,1-1.317,1.317" transform="translate(113.341 129.341)" fill="#dfebfa"/>
            </g>
            <g id="g6166" transform="translate(0.817 3.323)">
              <path id="path6168" d="M-40.787-104.011v-8.013a1.321,1.321,0,0,1,1.317-1.317h-3.659a1.321,1.321,0,0,0-1.317,1.317v8.013a1.321,1.321,0,0,0,1.317,1.317h3.659a1.321,1.321,0,0,1-1.317-1.317" transform="translate(44.445 113.341)" fill="#b1dbfc"/>
            </g>
            <g id="g6170" transform="translate(0.817 30.559)">
              <path id="path6172" d="M-40.787-104.011v-8.013a1.321,1.321,0,0,1,1.317-1.317h-3.659a1.321,1.321,0,0,0-1.317,1.317v8.013a1.321,1.321,0,0,0,1.317,1.317h3.659a1.321,1.321,0,0,1-1.317-1.317" transform="translate(44.445 113.341)" fill="#b1dbfc"/>
            </g>
            <g id="g6174" transform="translate(29.812 3.323)">
              <path id="path6176" d="M-40.785-104.011v-8.013a1.321,1.321,0,0,1,1.317-1.317h-3.658a1.321,1.321,0,0,0-1.317,1.317v8.013a1.321,1.321,0,0,0,1.317,1.317h3.658a1.321,1.321,0,0,1-1.317-1.317" transform="translate(44.444 113.341)" fill="#b1dbfc"/>
            </g>
            <g id="g6178" transform="translate(29.812 30.559)">
              <path id="path6180" d="M-40.785-104.011v-8.013a1.321,1.321,0,0,1,1.317-1.317h-3.658a1.321,1.321,0,0,0-1.317,1.317v8.013a1.321,1.321,0,0,0,1.317,1.317h3.658a1.321,1.321,0,0,1-1.317-1.317" transform="translate(44.444 113.341)" fill="#b1dbfc"/>
            </g>
            <g id="g6182" transform="translate(15.358 15.223)">
              <path id="path6184" d="M0,0H7.211" fill="none" stroke="#000" stroke-linecap="round" stroke-linejoin="round" stroke-miterlimit="10" stroke-width="1"/>
            </g>
            <g id="g6186" transform="translate(4.504 21.729)">
              <path id="path6188" d="M0,0H18.065" fill="none" stroke="#000" stroke-linecap="round" stroke-linejoin="round" stroke-miterlimit="10" stroke-width="1"/>
            </g>
            <g id="g6190" transform="translate(15.358 11.97)">
              <path id="path6192" d="M0,0H3.136" fill="none" stroke="#000" stroke-linecap="round" stroke-linejoin="round" stroke-miterlimit="10" stroke-width="1"/>
            </g>
            <g id="g6194" transform="translate(4.504 18.476)">
              <path id="path6196" d="M0,0H18.065" fill="none" stroke="#000" stroke-linecap="round" stroke-linejoin="round" stroke-miterlimit="10" stroke-width="1"/>
            </g>
            <g id="g6198" transform="translate(0.823 8.646)">
              <path id="path6200" d="M-271.3,0h-13.689V3.964a1.363,1.363,0,0,1-1.359,1.359h-7.929a1.363,1.363,0,0,1-1.359-1.359V15.772a1.218,1.218,0,0,0,1.218,1.218H-271.3a1.218,1.218,0,0,0,1.218-1.218V1.218A1.218,1.218,0,0,0-271.3,0Z" transform="translate(295.638)" fill="none" stroke="#000" stroke-linecap="round" stroke-linejoin="round" stroke-miterlimit="10" stroke-width="1"/>
            </g>
            <g id="g6202" transform="translate(0.823 30.559)">
              <path id="path6204" d="M-104.011-118.694h-8.013a1.321,1.321,0,0,1-1.317-1.317v-8.013a1.321,1.321,0,0,1,1.317-1.317h8.013a1.321,1.321,0,0,1,1.317,1.317v8.013A1.321,1.321,0,0,1-104.011-118.694Z" transform="translate(113.341 129.341)" fill="none" stroke="#000" stroke-linecap="round" stroke-linejoin="round" stroke-miterlimit="10" stroke-width="1"/>
            </g>
            <g id="g6206" transform="translate(15.358 42.459)">
              <path id="path6208" d="M0,0H7.211" fill="none" stroke="#000" stroke-linecap="round" stroke-linejoin="round" stroke-miterlimit="10" stroke-width="1"/>
            </g>
            <g id="g6210" transform="translate(4.504 48.965)">
              <path id="path6212" d="M0,0H18.065" fill="none" stroke="#000" stroke-linecap="round" stroke-linejoin="round" stroke-miterlimit="10" stroke-width="1"/>
            </g>
            <g id="g6214" transform="translate(15.358 39.206)">
              <path id="path6216" d="M0,0H3.136" fill="none" stroke="#000" stroke-linecap="round" stroke-linejoin="round" stroke-miterlimit="10" stroke-width="1"/>
            </g>
            <g id="g6218" transform="translate(4.504 45.712)">
              <path id="path6220" d="M0,0H18.065" fill="none" stroke="#000" stroke-linecap="round" stroke-linejoin="round" stroke-miterlimit="10" stroke-width="1"/>
            </g>
            <g id="g6222" transform="translate(0.823 35.882)">
              <path id="path6224" d="M-271.3,0h-13.689V3.964a1.363,1.363,0,0,1-1.359,1.359h-7.929a1.363,1.363,0,0,1-1.359-1.359V15.772a1.218,1.218,0,0,0,1.218,1.218H-271.3a1.218,1.218,0,0,0,1.218-1.218V1.218A1.218,1.218,0,0,0-271.3,0Z" transform="translate(295.638)" fill="none" stroke="#000" stroke-linecap="round" stroke-linejoin="round" stroke-miterlimit="10" stroke-width="1"/>
            </g>
            <g id="g6226" transform="translate(29.818 3.323)">
              <path id="path6228" d="M-104.011-118.694h-8.013a1.321,1.321,0,0,1-1.317-1.317v-8.013a1.321,1.321,0,0,1,1.317-1.317h8.013a1.321,1.321,0,0,1,1.317,1.317v8.013A1.321,1.321,0,0,1-104.011-118.694Z" transform="translate(113.341 129.341)" fill="none" stroke="#000" stroke-linecap="round" stroke-linejoin="round" stroke-miterlimit="10" stroke-width="1"/>
            </g>
            <g id="g6230" transform="translate(44.353 15.223)">
              <path id="path6232" d="M0,0H7.211" fill="none" stroke="#000" stroke-linecap="round" stroke-linejoin="round" stroke-miterlimit="10" stroke-width="1"/>
            </g>
            <g id="g6234" transform="translate(33.499 21.729)">
              <path id="path6236" d="M0,0H18.065" fill="none" stroke="#000" stroke-linecap="round" stroke-linejoin="round" stroke-miterlimit="10" stroke-width="1"/>
            </g>
            <g id="g6238" transform="translate(44.353 11.97)">
              <path id="path6240" d="M0,0H3.136" fill="none" stroke="#000" stroke-linecap="round" stroke-linejoin="round" stroke-miterlimit="10" stroke-width="1"/>
            </g>
            <g id="g6242" transform="translate(33.499 18.476)">
              <path id="path6244" d="M0,0H18.065" fill="none" stroke="#000" stroke-linecap="round" stroke-linejoin="round" stroke-miterlimit="10" stroke-width="1"/>
            </g>
            <g id="g6246" transform="translate(29.818 30.559)">
              <path id="path6248" d="M-104.011-118.694h-8.013a1.321,1.321,0,0,1-1.317-1.317v-8.013a1.321,1.321,0,0,1,1.317-1.317h8.013a1.321,1.321,0,0,1,1.317,1.317v8.013A1.321,1.321,0,0,1-104.011-118.694Z" transform="translate(113.341 129.341)" fill="none" stroke="#000" stroke-linecap="round" stroke-linejoin="round" stroke-miterlimit="10" stroke-width="1"/>
            </g>
            <g id="g6250" transform="translate(44.353 42.459)">
              <path id="path6252" d="M0,0H7.211" fill="none" stroke="#000" stroke-linecap="round" stroke-linejoin="round" stroke-miterlimit="10" stroke-width="1"/>
            </g>
            <g id="g6254" transform="translate(33.499 48.965)">
              <path id="path6256" d="M0,0H18.065" fill="none" stroke="#000" stroke-linecap="round" stroke-linejoin="round" stroke-miterlimit="10" stroke-width="1"/>
            </g>
            <g id="g6258" transform="translate(44.353 39.206)">
              <path id="path6260" d="M0,0H3.136" fill="none" stroke="#000" stroke-linecap="round" stroke-linejoin="round" stroke-miterlimit="10" stroke-width="1"/>
            </g>
            <g id="g6262" transform="translate(33.499 45.712)">
              <path id="path6264" d="M0,0H18.065" fill="none" stroke="#000" stroke-linecap="round" stroke-linejoin="round" stroke-miterlimit="10" stroke-width="1"/>
            </g>
            <g id="g6266" transform="translate(29.818 35.882)">
              <path id="path6268" d="M-271.3,0h-13.689V3.964a1.363,1.363,0,0,1-1.359,1.359h-7.929a1.363,1.363,0,0,1-1.359-1.359V15.772a1.218,1.218,0,0,0,1.218,1.218H-271.3a1.218,1.218,0,0,0,1.218-1.218V1.218A1.218,1.218,0,0,0-271.3,0Z" transform="translate(295.638)" fill="none" stroke="#000" stroke-linecap="round" stroke-linejoin="round" stroke-miterlimit="10" stroke-width="1"/>
            </g>
            <g id="g6270" transform="translate(5.521 6.219)">
              <path id="path6272" d="M0-4.308l.8-.386V.072" transform="translate(0 4.695)" fill="none" stroke="#000" stroke-linecap="round" stroke-linejoin="round" stroke-miterlimit="10" stroke-width="1"/>
            </g>
            <g id="g6274" transform="translate(33.686 6.242)">
              <path id="path6276" d="M0-9.57a1.491,1.491,0,0,1,2.173-.589A1.444,1.444,0,0,1,2.254-8L0-5.62H2.911" transform="translate(0 10.428)" fill="none" stroke="#000" stroke-linecap="round" stroke-linejoin="round" stroke-miterlimit="10" stroke-width="1"/>
            </g>
            <g id="g6278" transform="translate(4.925 33.478)">
              <path id="path6280" d="M0-53.6H1.242a1.2,1.2,0,0,0,1.2-1.2,1.2,1.2,0,0,0-1.2-1.2,1.2,1.2,0,0,0,1.2-1.2,1.2,1.2,0,0,0-1.2-1.2H0" transform="translate(0 58.411)" fill="none" stroke="#000" stroke-linecap="round" stroke-linejoin="round" stroke-miterlimit="10" stroke-width="1"/>
            </g>
            <g id="g6282" transform="translate(4.925 35.882)">
              <path id="path6284" d="M-13.844,0h-1.242" transform="translate(15.085)" fill="none" stroke="#000" stroke-linecap="round" stroke-linejoin="round" stroke-miterlimit="10" stroke-width="1"/>
            </g>
            <g id="g6286" transform="translate(33.886 33.478)">
              <path id="path6288" d="M0,0V2.687H2.511" fill="none" stroke="#000" stroke-linecap="round" stroke-linejoin="round" stroke-miterlimit="10" stroke-width="1"/>
            </g>
            <g id="g6290" transform="translate(36.397 33.478)">
              <path id="path6292" d="M0,0V4.808" transform="translate(0)" fill="none" stroke="#000" stroke-linecap="round" stroke-linejoin="round" stroke-miterlimit="10" stroke-width="1"/>
            </g>
            <g id="g6294" transform="translate(0.823 3.323)">
              <path id="path6296" d="M-39.862,0H-42.12a1.321,1.321,0,0,0-1.317,1.317V9.33a1.321,1.321,0,0,0,1.317,1.317h8.013A1.321,1.321,0,0,0-32.79,9.33V1.317A1.321,1.321,0,0,0-34.107,0H-36.02" transform="translate(43.437)" fill="none" stroke="#000" stroke-linecap="round" stroke-linejoin="round" stroke-miterlimit="10" stroke-width="1"/>
            </g>
            <g id="g6298" transform="translate(29.818 8.646)">
              <path id="path6300" d="M-284.879-73.29v-5.356a1.218,1.218,0,0,0-1.218-1.218h-13.689V-75.9a1.363,1.363,0,0,1-1.359,1.359h-7.929a1.363,1.363,0,0,1-1.359-1.359v11.807a1.218,1.218,0,0,0,1.218,1.218H-286.1a1.218,1.218,0,0,0,1.218-1.218v-5.356" transform="translate(310.433 79.864)" fill="none" stroke="#000" stroke-linecap="round" stroke-linejoin="round" stroke-miterlimit="10" stroke-width="1"/>
            </g>
          </g>
        </g>
      </g>
    </g>
  </g>
</svg>
