<svg xmlns="http://www.w3.org/2000/svg" xmlns:xlink="http://www.w3.org/1999/xlink" width="113" height="113" viewBox="0 0 113 113">
  <defs>
    <filter id="Path_982547" x="0" y="0" width="113" height="113" filterUnits="userSpaceOnUse">
      <feOffset dy="3" input="SourceAlpha"/>
      <feGaussianBlur stdDeviation="3" result="blur"/>
      <feFlood flood-opacity="0.161"/>
      <feComposite operator="in" in2="blur"/>
      <feComposite in="SourceGraphic"/>
    </filter>
  </defs>
  <g id="Group_1202425" data-name="Group 1202425" transform="translate(-586.56 -1301.402)">
    <g id="Group_1202259" data-name="Group 1202259" transform="translate(595.56 1307.402)">
      <g id="Group_1178314" data-name="Group 1178314">
        <g id="Group_1177900" data-name="Group 1177900">
          <g id="Group_1172010" data-name="Group 1172010">
            <g id="Group_1171046" data-name="Group 1171046">
              <g id="Group_1148525" data-name="Group 1148525">
                <g transform="matrix(1, 0, 0, 1, -9, -6)" filter="url(#Path_982547)">
                  <g id="Path_982547-2" data-name="Path 982547" transform="translate(9 6)" fill="#edf3fc">
                    <path d="M 47.5 93.5 C 41.28937149047852 93.5 35.26533508300781 92.28397369384766 29.59518623352051 89.88570404052734 C 24.11771965026855 87.56893157958984 19.19813346862793 84.25196075439453 14.97309303283691 80.02691650390625 C 10.74804019927979 75.80186462402344 7.431066513061523 70.88229370117188 5.114293098449707 65.40481567382812 C 2.716026782989502 59.73468017578125 1.5 53.71062850952148 1.5 47.5 C 1.5 41.28937149047852 2.716026782989502 35.26533508300781 5.114293098449707 29.59518623352051 C 7.431066513061523 24.11771965026855 10.74804019927979 19.19813346862793 14.97309303283691 14.97309303283691 C 19.19813346862793 10.74804019927979 24.11771965026855 7.431066513061523 29.59518623352051 5.114293098449707 C 35.26533508300781 2.716026782989502 41.28937149047852 1.5 47.5 1.5 C 53.71062850952148 1.5 59.73468017578125 2.716026782989502 65.40481567382812 5.114293098449707 C 70.88229370117188 7.431066513061523 75.80186462402344 10.74804019927979 80.02691650390625 14.97309303283691 C 84.25196075439453 19.19813346862793 87.56893157958984 24.11771965026855 89.88570404052734 29.59518623352051 C 92.28397369384766 35.26533508300781 93.5 41.28937149047852 93.5 47.5 C 93.5 53.71062850952148 92.28397369384766 59.73468017578125 89.88570404052734 65.40481567382812 C 87.56893157958984 70.88229370117188 84.25196075439453 75.80186462402344 80.02691650390625 80.02691650390625 C 75.80186462402344 84.25196075439453 70.88229370117188 87.56893157958984 65.40481567382812 89.88570404052734 C 59.73468017578125 92.28397369384766 53.71062850952148 93.5 47.5 93.5 Z" stroke="none"/>
                    <path d="M 47.5 3 C 41.49121475219727 3 35.66376876831055 4.176155090332031 30.17950439453125 6.495796203613281 C 24.88084411621094 8.736953735351562 20.12152099609375 11.94598388671875 16.03375244140625 16.03375244140625 C 11.94598388671875 20.12152099609375 8.736953735351562 24.88084411621094 6.495796203613281 30.17950439453125 C 4.176155090332031 35.66376876831055 3 41.49121475219727 3 47.5 C 3 53.50878524780273 4.176155090332031 59.33623123168945 6.495796203613281 64.82049560546875 C 8.736953735351562 70.11915588378906 11.94598388671875 74.87847900390625 16.03375244140625 78.96624755859375 C 20.12152099609375 83.05401611328125 24.88084411621094 86.26304626464844 30.17950439453125 88.50419616699219 C 35.66376876831055 90.82384490966797 41.49121475219727 92 47.5 92 C 53.50878524780273 92 59.33623123168945 90.82384490966797 64.82049560546875 88.50419616699219 C 70.11915588378906 86.26304626464844 74.87847900390625 83.05401611328125 78.96624755859375 78.96624755859375 C 83.05401611328125 74.87847900390625 86.26304626464844 70.11915588378906 88.50419616699219 64.82049560546875 C 90.82384490966797 59.33623123168945 92 53.50878524780273 92 47.5 C 92 41.49121475219727 90.82384490966797 35.66376876831055 88.50419616699219 30.17950439453125 C 86.26304626464844 24.88084411621094 83.05401611328125 20.12152099609375 78.96624755859375 16.03375244140625 C 74.87847900390625 11.94598388671875 70.11915588378906 8.736953735351562 64.82049560546875 6.495796203613281 C 59.33623123168945 4.176155090332031 53.50878524780273 3 47.5 3 M 47.5 0 C 73.7335205078125 0 95 21.2664794921875 95 47.5 C 95 73.7335205078125 73.7335205078125 95 47.5 95 C 21.2664794921875 95 0 73.7335205078125 0 47.5 C 0 21.2664794921875 21.2664794921875 0 47.5 0 Z" stroke="none" fill="#5692e8"/>
                  </g>
                </g>
              </g>
            </g>
          </g>
        </g>
      </g>
      <g id="comparative_9850912" transform="translate(19.502 20.002)">
        <path id="Path_1040365" data-name="Path 1040365" d="M203.512,23.8l5.165,8.974a1.528,1.528,0,0,1-1.325,2.291h-10.33a1.528,1.528,0,0,1-1.325-2.291l5.165-8.974A1.528,1.528,0,0,1,203.512,23.8Z" transform="translate(-174.689 -21.313)" fill="#e53950"/>
        <path id="Path_1040366" data-name="Path 1040366" d="M22.937,14.093l1.741,3.353a.531.531,0,0,0,.379.278l3.8.67a.531.531,0,0,1,.278.9l-2.7,2.627a.531.531,0,0,0-.154.462l.6,3.857a.531.531,0,0,1-.773.551l-3.4-1.8a.531.531,0,0,0-.5,0l-3.4,1.8a.531.531,0,0,1-.773-.551l.6-3.857a.531.531,0,0,0-.154-.462l-2.7-2.627a.531.531,0,0,1,.278-.9l3.8-.67a.531.531,0,0,0,.379-.278L22,14.093A.531.531,0,0,1,22.937,14.093Z" transform="translate(-14.732 -13.109)" fill="#ffc344"/>
        <circle id="Ellipse_12527" data-name="Ellipse 12527" cx="6.875" cy="6.875" r="6.875" transform="translate(40.388)" fill="#80d261"/>
        <path id="Path_1040367" data-name="Path 1040367" d="M208.678,32.771,203.513,23.8a1.529,1.529,0,0,0-2.493-.224l3.243,5.634a2.8,2.8,0,0,1-2.425,4.194H195.5a1.531,1.531,0,0,0,1.525,1.66h10.33A1.528,1.528,0,0,0,208.678,32.771Z" transform="translate(-174.69 -21.313)" fill="#ca2e43"/>
        <path id="Path_1040368" data-name="Path 1040368" d="M85.014,51.051a.531.531,0,0,0-.278-.9l-3.612-.637A1.157,1.157,0,0,1,80.8,50.6l-1.564,1.522a1.172,1.172,0,0,0-.341,1.021l.353,2.262A1.169,1.169,0,0,1,78.46,56.7a.532.532,0,0,1,.131.049l3.4,1.8A.531.531,0,0,0,82.761,58l-.6-3.857a.531.531,0,0,1,.154-.462Z" transform="translate(-70.608 -44.862)" fill="#feb237"/>
        <path id="Path_1040369" data-name="Path 1040369" d="M398.791,8.607a6.877,6.877,0,0,1-5.917,11.844,6.875,6.875,0,1,0,5.917-11.844Z" transform="translate(-350.23 -8.485)" fill="#68ca44"/>
        <path id="Path_1040370" data-name="Path 1040370" d="M21.308,173.6H9.16a1.66,1.66,0,0,1-1.66-1.66V165a1.66,1.66,0,0,1,1.66-1.66H21.308a1.66,1.66,0,0,1,1.66,1.66v6.933A1.66,1.66,0,0,1,21.308,173.6Z" transform="translate(-7.5 -146.099)" fill="#dff6fd"/>
        <path id="Path_1040371" data-name="Path 1040371" d="M378.527,173.6H366.379a1.66,1.66,0,0,1-1.66-1.66V165a1.66,1.66,0,0,1,1.66-1.66h12.148a1.66,1.66,0,0,1,1.66,1.66v6.933A1.66,1.66,0,0,1,378.527,173.6Z" transform="translate(-325.19 -146.099)" fill="#dff6fd"/>
        <path id="Path_1040372" data-name="Path 1040372" d="M199.917,173.6H187.769a1.66,1.66,0,0,1-1.66-1.66V165a1.66,1.66,0,0,1,1.66-1.66h12.148a1.66,1.66,0,0,1,1.66,1.66v6.933A1.66,1.66,0,0,1,199.917,173.6Z" transform="translate(-166.345 -146.099)" fill="#dff6fd"/>
        <path id="Path_1040373" data-name="Path 1040373" d="M378.527,297.316H366.379a1.66,1.66,0,0,1-1.66-1.66v-6.933a1.66,1.66,0,0,1,1.66-1.66h12.148a1.66,1.66,0,0,1,1.66,1.66v6.933A1.66,1.66,0,0,1,378.527,297.316Z" transform="translate(-325.19 -256.127)" fill="#dff6fd"/>
        <path id="Path_1040374" data-name="Path 1040374" d="M21.308,422.1H9.16a1.66,1.66,0,0,1-1.66-1.66V413.5a1.66,1.66,0,0,1,1.66-1.66H21.308a1.66,1.66,0,0,1,1.66,1.66v6.933A1.66,1.66,0,0,1,21.308,422.1Z" transform="translate(-7.5 -367.1)" fill="#dff6fd"/>
        <path id="Path_1040375" data-name="Path 1040375" d="M21.308,297.847H9.16a1.66,1.66,0,0,1-1.66-1.66v-6.933a1.66,1.66,0,0,1,1.66-1.66H21.308a1.66,1.66,0,0,1,1.66,1.66v6.933A1.66,1.66,0,0,1,21.308,297.847Z" transform="translate(-7.5 -256.6)" fill="#dff6fd"/>
        <path id="Path_1040376" data-name="Path 1040376" d="M199.917,297.847H187.769a1.66,1.66,0,0,1-1.66-1.66v-6.933a1.66,1.66,0,0,1,1.66-1.66h12.148a1.66,1.66,0,0,1,1.66,1.66v6.933A1.66,1.66,0,0,1,199.917,297.847Z" transform="translate(-166.345 -256.6)" fill="#dff6fd"/>
        <path id="Path_1040377" data-name="Path 1040377" d="M378.527,422.1H366.379a1.66,1.66,0,0,1-1.66-1.66V413.5a1.66,1.66,0,0,1,1.66-1.66h12.148a1.66,1.66,0,0,1,1.66,1.66v6.933A1.66,1.66,0,0,1,378.527,422.1Z" transform="translate(-325.19 -367.1)" fill="#dff6fd"/>
        <path id="Path_1040378" data-name="Path 1040378" d="M199.917,422.1H187.769a1.66,1.66,0,0,1-1.66-1.66V413.5a1.66,1.66,0,0,1,1.66-1.66h12.148a1.66,1.66,0,0,1,1.66,1.66v6.933A1.66,1.66,0,0,1,199.917,422.1Z" transform="translate(-166.345 -367.1)" fill="#dff6fd"/>
        <path id="Path_1040379" data-name="Path 1040379" d="M21.308,163.344H20.2v5.91a2.13,2.13,0,0,1-2.13,2.13H7.5v.553a1.66,1.66,0,0,0,1.66,1.66H21.308a1.66,1.66,0,0,0,1.66-1.66V165A1.66,1.66,0,0,0,21.308,163.344Z" transform="translate(-7.5 -146.099)" fill="#c8effe"/>
        <path id="Path_1040380" data-name="Path 1040380" d="M199.917,411.844H198.81v5.91a2.13,2.13,0,0,1-2.13,2.13H186.109v.553a1.66,1.66,0,0,0,1.66,1.66h12.148a1.66,1.66,0,0,0,1.66-1.66V413.5A1.66,1.66,0,0,0,199.917,411.844Z" transform="translate(-166.345 -367.1)" fill="#c8effe"/>
        <path id="Path_1040381" data-name="Path 1040381" d="M21.308,411.844H20.2v5.91a2.13,2.13,0,0,1-2.13,2.13H7.5v.553a1.66,1.66,0,0,0,1.66,1.66H21.308a1.66,1.66,0,0,0,1.66-1.66V413.5A1.66,1.66,0,0,0,21.308,411.844Z" transform="translate(-7.5 -367.1)" fill="#c8effe"/>
        <path id="Path_1040382" data-name="Path 1040382" d="M199.917,287.594H198.81v5.91a2.13,2.13,0,0,1-2.13,2.13H186.109v.553a1.66,1.66,0,0,0,1.66,1.66h12.148a1.66,1.66,0,0,0,1.66-1.66v-6.933A1.66,1.66,0,0,0,199.917,287.594Z" transform="translate(-166.345 -256.6)" fill="#c8effe"/>
        <path id="Path_1040383" data-name="Path 1040383" d="M21.308,287.594H20.2v5.91a2.13,2.13,0,0,1-2.13,2.13H7.5v.553a1.66,1.66,0,0,0,1.66,1.66H21.308a1.66,1.66,0,0,0,1.66-1.66v-6.933A1.66,1.66,0,0,0,21.308,287.594Z" transform="translate(-7.5 -256.6)" fill="#c8effe"/>
        <path id="Path_1040384" data-name="Path 1040384" d="M378.526,287.062h-1.107v5.91a2.13,2.13,0,0,1-2.13,2.13H364.718v.553a1.66,1.66,0,0,0,1.66,1.66h12.148a1.66,1.66,0,0,0,1.66-1.66v-6.933A1.66,1.66,0,0,0,378.526,287.062Z" transform="translate(-325.189 -256.126)" fill="#c8effe"/>
        <path id="Path_1040385" data-name="Path 1040385" d="M378.526,163.344h-1.107v5.91a2.13,2.13,0,0,1-2.13,2.13H364.718v.553a1.66,1.66,0,0,0,1.66,1.66h12.148a1.66,1.66,0,0,0,1.66-1.66V165A1.66,1.66,0,0,0,378.526,163.344Z" transform="translate(-325.189 -146.099)" fill="#c8effe"/>
        <path id="Path_1040386" data-name="Path 1040386" d="M378.526,411.844h-1.107v5.91a2.13,2.13,0,0,1-2.13,2.13H364.718v.553a1.66,1.66,0,0,0,1.66,1.66h12.148a1.66,1.66,0,0,0,1.66-1.66V413.5A1.66,1.66,0,0,0,378.526,411.844Z" transform="translate(-325.189 -367.1)" fill="#c8effe"/>
        <path id="Path_1040387" data-name="Path 1040387" d="M199.917,163.344H198.81v5.91a2.13,2.13,0,0,1-2.13,2.13H186.109v.553a1.66,1.66,0,0,0,1.66,1.66h12.148a1.66,1.66,0,0,0,1.66-1.66V165A1.66,1.66,0,0,0,199.917,163.344Z" transform="translate(-166.345 -146.099)" fill="#c8effe"/>
        <path id="Path_1040388" data-name="Path 1040388" d="M198.753,27.462l2.11-3.665a1.528,1.528,0,0,1,2.649,0l5.165,8.974a1.528,1.528,0,0,1-1.325,2.291h-10.33a1.528,1.528,0,0,1-1.325-2.291l1.079-1.875" transform="translate(-174.689 -21.313)" fill="none" stroke="#000" stroke-linecap="round" stroke-linejoin="round" stroke-miterlimit="10" stroke-width="1.3"/>
        <path id="Path_1040389" data-name="Path 1040389" d="M22.937,14.093l1.741,3.353a.531.531,0,0,0,.379.278l3.8.67a.531.531,0,0,1,.278.9l-2.7,2.627a.531.531,0,0,0-.154.462l.6,3.857a.531.531,0,0,1-.773.551l-3.4-1.8a.531.531,0,0,0-.5,0l-3.4,1.8a.531.531,0,0,1-.773-.551l.6-3.857a.531.531,0,0,0-.154-.462l-2.7-2.627a.531.531,0,0,1,.278-.9l3.8-.67a.531.531,0,0,0,.379-.278L22,14.093A.531.531,0,0,1,22.937,14.093Z" transform="translate(-14.732 -13.109)" fill="none" stroke="#000" stroke-linecap="round" stroke-linejoin="round" stroke-miterlimit="10" stroke-width="1.3"/>
        <circle id="Ellipse_12528" data-name="Ellipse 12528" cx="6.875" cy="6.875" r="6.875" transform="translate(40.388)" fill="none" stroke="#000" stroke-linecap="round" stroke-linejoin="round" stroke-miterlimit="10" stroke-width="1.3"/>
        <path id="Path_1040390" data-name="Path 1040390" d="M21.308,173.6H9.16a1.66,1.66,0,0,1-1.66-1.66V165a1.66,1.66,0,0,1,1.66-1.66H21.308a1.66,1.66,0,0,1,1.66,1.66v6.933A1.66,1.66,0,0,1,21.308,173.6Z" transform="translate(-7.5 -146.099)" fill="none" stroke="#000" stroke-linecap="round" stroke-linejoin="round" stroke-miterlimit="10" stroke-width="1.3"/>
        <path id="Path_1040391" data-name="Path 1040391" d="M368.079,173.6h-1.7a1.66,1.66,0,0,1-1.66-1.66V165a1.66,1.66,0,0,1,1.66-1.66h12.148a1.66,1.66,0,0,1,1.66,1.66v6.933a1.66,1.66,0,0,1-1.66,1.66h-6.575" transform="translate(-325.19 -146.099)" fill="none" stroke="#000" stroke-linecap="round" stroke-linejoin="round" stroke-miterlimit="10" stroke-width="1.3"/>
        <path id="Path_1040392" data-name="Path 1040392" d="M199.917,173.6H187.769a1.66,1.66,0,0,1-1.66-1.66V165a1.66,1.66,0,0,1,1.66-1.66h12.148a1.66,1.66,0,0,1,1.66,1.66v6.933A1.66,1.66,0,0,1,199.917,173.6Z" transform="translate(-166.345 -146.099)" fill="none" stroke="#000" stroke-linecap="round" stroke-linejoin="round" stroke-miterlimit="10" stroke-width="1.3"/>
        <path id="Path_1040393" data-name="Path 1040393" d="M60.917,199.905l1.215,1.215,2.431-2.43" transform="translate(-55.006 -177.533)" fill="none" stroke="#000" stroke-linecap="round" stroke-linejoin="round" stroke-miterlimit="10" stroke-width="1.3"/>
        <path id="Path_1040394" data-name="Path 1040394" d="M418.136,199.905l1.215,1.215,2.431-2.43" transform="translate(-372.696 -177.533)" fill="none" stroke="#000" stroke-linecap="round" stroke-linejoin="round" stroke-miterlimit="10" stroke-width="1.3"/>
        <line id="Line_1051" data-name="Line 1051" x2="3.437" transform="translate(25.78 22.401)" fill="none" stroke="#000" stroke-linecap="round" stroke-linejoin="round" stroke-miterlimit="10" stroke-width="1.3"/>
        <path id="Path_1040395" data-name="Path 1040395" d="M378.527,297.316H366.379a1.66,1.66,0,0,1-1.66-1.66v-6.933a1.66,1.66,0,0,1,1.66-1.66h12.148a1.66,1.66,0,0,1,1.66,1.66v6.933A1.66,1.66,0,0,1,378.527,297.316Z" transform="translate(-325.19 -256.127)" fill="none" stroke="#000" stroke-linecap="round" stroke-linejoin="round" stroke-miterlimit="10" stroke-width="1.3"/>
        <line id="Line_1052" data-name="Line 1052" x2="3.437" transform="translate(45.544 36.091)" fill="none" stroke="#000" stroke-linecap="round" stroke-linejoin="round" stroke-miterlimit="10" stroke-width="1.3"/>
        <path id="Path_1040396" data-name="Path 1040396" d="M21.308,422.1H9.16a1.66,1.66,0,0,1-1.66-1.66V413.5a1.66,1.66,0,0,1,1.66-1.66H21.308a1.66,1.66,0,0,1,1.66,1.66v6.933A1.66,1.66,0,0,1,21.308,422.1Z" transform="translate(-7.5 -367.1)" fill="none" stroke="#000" stroke-linecap="round" stroke-linejoin="round" stroke-miterlimit="10" stroke-width="1.3"/>
        <line id="Line_1053" data-name="Line 1053" x2="3.437" transform="translate(6.015 49.899)" fill="none" stroke="#000" stroke-linecap="round" stroke-linejoin="round" stroke-miterlimit="10" stroke-width="1.3"/>
        <path id="Path_1040397" data-name="Path 1040397" d="M21.308,297.847H9.16a1.66,1.66,0,0,1-1.66-1.66v-6.933a1.66,1.66,0,0,1,1.66-1.66H21.308a1.66,1.66,0,0,1,1.66,1.66v6.933A1.66,1.66,0,0,1,21.308,297.847Z" transform="translate(-7.5 -256.6)" fill="none" stroke="#000" stroke-linecap="round" stroke-linejoin="round" stroke-miterlimit="10" stroke-width="1.3"/>
        <path id="Path_1040398" data-name="Path 1040398" d="M60.917,324.155l1.215,1.215,2.431-2.43" transform="translate(-55.006 -288.034)" fill="none" stroke="#000" stroke-linecap="round" stroke-linejoin="round" stroke-miterlimit="10" stroke-width="1.3"/>
        <path id="Path_1040399" data-name="Path 1040399" d="M186.109,290.822v-1.569a1.66,1.66,0,0,1,1.66-1.66h12.148a1.66,1.66,0,0,1,1.66,1.66v6.933a1.66,1.66,0,0,1-1.66,1.66H187.769a1.66,1.66,0,0,1-1.66-1.66v-1.492" transform="translate(-166.345 -256.599)" fill="none" stroke="#000" stroke-linecap="round" stroke-linejoin="round" stroke-miterlimit="10" stroke-width="1.3"/>
        <path id="Path_1040400" data-name="Path 1040400" d="M239.527,324.155l1.215,1.215,2.43-2.43" transform="translate(-213.852 -288.034)" fill="none" stroke="#000" stroke-linecap="round" stroke-linejoin="round" stroke-miterlimit="10" stroke-width="1.3"/>
        <path id="Path_1040401" data-name="Path 1040401" d="M378.527,422.1H366.379a1.66,1.66,0,0,1-1.66-1.66V413.5a1.66,1.66,0,0,1,1.66-1.66h12.148a1.66,1.66,0,0,1,1.66,1.66v6.933A1.66,1.66,0,0,1,378.527,422.1Z" transform="translate(-325.19 -367.1)" fill="none" stroke="#000" stroke-linecap="round" stroke-linejoin="round" stroke-miterlimit="10" stroke-width="1.3"/>
        <path id="Path_1040402" data-name="Path 1040402" d="M199.917,422.1H187.769a1.66,1.66,0,0,1-1.66-1.66V413.5a1.66,1.66,0,0,1,1.66-1.66h12.148a1.66,1.66,0,0,1,1.66,1.66v6.933A1.66,1.66,0,0,1,199.917,422.1Z" transform="translate(-166.345 -367.1)" fill="none" stroke="#000" stroke-linecap="round" stroke-linejoin="round" stroke-miterlimit="10" stroke-width="1.3"/>
        <path id="Path_1040403" data-name="Path 1040403" d="M418.136,448.405l1.215,1.215,2.431-2.43" transform="translate(-372.696 -398.535)" fill="none" stroke="#000" stroke-linecap="round" stroke-linejoin="round" stroke-miterlimit="10" stroke-width="1.3"/>
        <line id="Line_1054" data-name="Line 1054" x2="3.437" transform="translate(25.78 49.899)" fill="none" stroke="#000" stroke-linecap="round" stroke-linejoin="round" stroke-miterlimit="10" stroke-width="1.3"/>
      </g>
    </g>
  </g>
</svg>
