<svg xmlns="http://www.w3.org/2000/svg" xmlns:xlink="http://www.w3.org/1999/xlink" width="106.16" height="106.16" viewBox="0 0 106.16 106.16">
  <defs>
    <filter id="Path_982547" x="0" y="0" width="106.16" height="106.16" filterUnits="userSpaceOnUse">
      <feOffset dy="3" input="SourceAlpha"/>
      <feGaussianBlur stdDeviation="3" result="blur"/>
      <feFlood flood-opacity="0.161"/>
      <feComposite operator="in" in2="blur"/>
      <feComposite in="SourceGraphic"/>
    </filter>
  </defs>
  <g id="Group_1202473" data-name="Group 1202473" transform="translate(-1036.42 -7547.914)">
    <g id="Group_1202415" data-name="Group 1202415" transform="translate(0 31)">
      <g id="Group_1202160" data-name="Group 1202160" transform="translate(764.42 6111.911)">
        <g id="Group_1177900" data-name="Group 1177900" transform="translate(281 1411.003)">
          <g id="Group_1172010" data-name="Group 1172010" transform="translate(0)">
            <g id="Group_1171046" data-name="Group 1171046">
              <g id="Group_1148525" data-name="Group 1148525">
                <g transform="matrix(1, 0, 0, 1, -9, -6)" filter="url(#Path_982547)">
                  <g id="Path_982547-2" data-name="Path 982547" transform="translate(9 6)" fill="#fdfbec">
                    <path d="M 44.0802001953125 86.660400390625 C 38.33124923706055 86.660400390625 32.75506210327148 85.53479766845703 27.50652503967285 83.31484985351562 C 22.43628692626953 81.17032623291016 17.88242530822754 78.09992218017578 13.97144985198975 74.18894958496094 C 10.06047534942627 70.27797698974609 6.99007511138916 65.72411346435547 4.845550060272217 60.65387344360352 C 2.625600099563599 55.40533828735352 1.500000238418579 49.82915115356445 1.500000238418579 44.0802001953125 C 1.500000238418579 38.33124923706055 2.625600099563599 32.75506210327148 4.845550060272217 27.50652503967285 C 6.99007511138916 22.43628692626953 10.06047534942627 17.88242530822754 13.97144985198975 13.97144985198975 C 17.88242530822754 10.06047534942627 22.43628692626953 6.99007511138916 27.50652503967285 4.845550060272217 C 32.75506210327148 2.625600099563599 38.33124923706055 1.500000238418579 44.0802001953125 1.500000238418579 C 49.82915115356445 1.500000238418579 55.40533828735352 2.625600099563599 60.65387344360352 4.845550060272217 C 65.72411346435547 6.99007511138916 70.27797698974609 10.06047534942627 74.18894958496094 13.97144985198975 C 78.09992218017578 17.88242530822754 81.17032623291016 22.43628692626953 83.31484985351562 27.50652503967285 C 85.53479766845703 32.75506210327148 86.660400390625 38.33124923706055 86.660400390625 44.0802001953125 C 86.660400390625 49.82915115356445 85.53479766845703 55.40533828735352 83.31484985351562 60.65387344360352 C 81.17032623291016 65.72411346435547 78.09992218017578 70.27797698974609 74.18894958496094 74.18894958496094 C 70.27797698974609 78.09992218017578 65.72411346435547 81.17032623291016 60.65387344360352 83.31484985351562 C 55.40533828735352 85.53479766845703 49.82915115356445 86.660400390625 44.0802001953125 86.660400390625 Z" stroke="none"/>
                    <path d="M 44.0802001953125 3 C 38.53308486938477 3 33.15349960327148 4.085746765136719 28.09085845947266 6.227058410644531 C 23.19941711425781 8.29595947265625 18.80581665039062 11.25841522216797 15.03211212158203 15.03211212158203 C 11.25841522216797 18.80581665039062 8.29595947265625 23.19941711425781 6.227058410644531 28.09085845947266 C 4.085746765136719 33.15349960327148 3 38.53308486938477 3 44.0802001953125 C 3 49.62731552124023 4.085746765136719 55.00691604614258 6.227058410644531 60.06954193115234 C 8.29595947265625 64.96098327636719 11.25841522216797 69.35458374023438 15.03211212158203 73.12828826904297 C 18.80581665039062 76.90198516845703 23.19941711425781 79.86444091796875 28.09085845947266 81.93334197998047 C 33.15349960327148 84.07466125488281 38.53308486938477 85.160400390625 44.0802001953125 85.160400390625 C 49.62731552124023 85.160400390625 55.00691604614258 84.07466125488281 60.06954193115234 81.93334197998047 C 64.96099853515625 79.86444091796875 69.35458374023438 76.90198516845703 73.12828826904297 73.12828826904297 C 76.90198516845703 69.35458374023438 79.86444091796875 64.96099853515625 81.93334197998047 60.06954193115234 C 84.07466125488281 55.00691604614258 85.160400390625 49.62731552124023 85.160400390625 44.0802001953125 C 85.160400390625 38.53308486938477 84.07466125488281 33.15349960327148 81.93334197998047 28.09085845947266 C 79.86444091796875 23.19941711425781 76.90198516845703 18.80581665039062 73.12828826904297 15.03211212158203 C 69.35458374023438 11.25841522216797 64.96098327636719 8.29595947265625 60.06954193115234 6.227058410644531 C 55.00691604614258 4.085746765136719 49.62731552124023 3 44.0802001953125 3 M 44.0802001953125 0 C 68.42502593994141 0 88.160400390625 19.73538970947266 88.160400390625 44.0802001953125 C 88.160400390625 68.42502593994141 68.42502593994141 88.160400390625 44.0802001953125 88.160400390625 C 19.73538970947266 88.160400390625 0 68.42502593994141 0 44.0802001953125 C 0 19.73538970947266 19.73538970947266 0 44.0802001953125 0 Z" stroke="none" fill="#83793c"/>
                  </g>
                </g>
              </g>
            </g>
          </g>
        </g>
      </g>
      <g id="choice_7505448" transform="translate(1046.595 7532.28)">
        <g id="Group_1202413" data-name="Group 1202413" transform="translate(16.698 7.5)">
          <path id="Path_1040908" data-name="Path 1040908" d="M336.412,30.762a7.314,7.314,0,0,0-6.129,3.319,19.633,19.633,0,0,1,9.447,10.53,7.322,7.322,0,0,0-3.318-13.849Z" transform="translate(-295.941 -28.214)" fill="#5972a5"/>
          <path id="Path_1040909" data-name="Path 1040909" d="M72.341,34.081a7.321,7.321,0,1,0-9.447,10.53A19.634,19.634,0,0,1,72.341,34.081Z" transform="translate(-54.269 -28.214)" fill="#4a66a0"/>
          <path id="Path_1040910" data-name="Path 1040910" d="M370.155,343.56,366.63,346.9l-2.383,2.26a1.24,1.24,0,0,1-2.094-.9v-1.213h-2.709a36.389,36.389,0,0,0-4.244-5.165,46.377,46.377,0,0,0,4.317-3.606h2.628v-1.212a1.241,1.241,0,0,1,2.093-.9l2.387,2.257,3.53,3.337A1.24,1.24,0,0,1,370.155,343.56Z" transform="translate(-318.127 -299.866)" fill="#9cda82"/>
          <path id="Path_1040911" data-name="Path 1040911" d="M32.6,341.866s-6.013,5.115-6.155,5.184h-1.36v1.213a1.241,1.241,0,0,1-2.1.9L20.61,346.9l-3.525-3.344a1.24,1.24,0,0,1,0-1.8l3.53-3.337L23,336.164a1.241,1.241,0,0,1,2.093.9v1.212h2.626C29.223,339.4,31.135,340.844,32.6,341.866Z" transform="translate(-16.698 -299.866)" fill="#fd7a6e"/>
          <path id="Path_1040912" data-name="Path 1040912" d="M122.19,358.259v8.771H105.739c.055-.06.113-.12.171-.179l4.641-4.641a.437.437,0,0,0-.05-.661,19.729,19.729,0,0,1-3.49-3.29Z" transform="translate(-95.988 -319.846)" fill="#f85647"/>
          <path id="Path_1040913" data-name="Path 1040913" d="M271.072,367.03H255.96v-8.771h15.185a19.7,19.7,0,0,1-3.5,3.3.436.436,0,0,0-.044.666A16.807,16.807,0,0,1,271.072,367.03Z" transform="translate(-229.757 -319.846)" fill="#55d47b"/>
          <circle id="Ellipse_12566" data-name="Ellipse 12566" cx="4.109" cy="4.109" r="4.109" transform="translate(39.03 21.674)" fill="#ffcbbe"/>
          <circle id="Ellipse_12567" data-name="Ellipse 12567" cx="4.109" cy="4.109" r="4.109" transform="translate(5.167 21.674)" fill="#ffcbbe"/>
          <path id="Path_1040914" data-name="Path 1040914" d="M257.139,401.247H247.7c-4.128-2.267-4.913-9.314-.071-12.7h3.889a14.042,14.042,0,0,1,7.826,10.053A2.236,2.236,0,0,1,257.139,401.247Z" transform="translate(-219.366 -346.818)" fill="#5ad6ff"/>
          <path id="Path_1040915" data-name="Path 1040915" d="M159.93,401.247h-14.2c0-5.617,1.363-10.462,6.135-12.7h7.995A8.574,8.574,0,0,0,159.93,401.247Z" transform="translate(-131.598 -346.818)" fill="#00c5fd"/>
          <path id="Path_1040916" data-name="Path 1040916" d="M189.245,108.11A17.01,17.01,0,0,1,175.972,124.7c-.378.077-1.945.3-2.3.352-8.066-3.522-11.731-9.114-11.731-16.945,0-8.108,4.252-15.091,14.033-16.593A17.01,17.01,0,0,1,189.245,108.11Z" transform="translate(-146.033 -82.316)" fill="#ffddcf"/>
          <path id="Path_1040917" data-name="Path 1040917" d="M119.164,121.707q-.707.059-1.43.059a17,17,0,1,1,3.732-33.6,17.01,17.01,0,0,0-13.271,16.593C108.195,112.87,113.7,119.5,119.164,121.707Z" transform="translate(-91.526 -78.968)" fill="#ffcbbe"/>
          <path id="Path_1040918" data-name="Path 1040918" d="M201.25,61.209a25.115,25.115,0,0,1-3.21-.227c-2.045-3.943-4.447-6-6.989-7.08v5.166a2.171,2.171,0,0,1-2.171,2.172H173.73a2.163,2.163,0,0,1-1.611-.716c0-9.789,5.86-16.644,14.56-18.527A19.953,19.953,0,0,1,201.25,61.209Z" transform="translate(-155.098 -38.219)" fill="#687daa"/>
          <path id="Path_1040919" data-name="Path 1040919" d="M99.2,36.04a19.955,19.955,0,0,0-14.56,18.527,2.167,2.167,0,0,1-.56-1.455V47.945c-2.542,1.075-4.945,3.138-6.989,7.08a25.114,25.114,0,0,1-3.21.227A19.961,19.961,0,0,1,99.2,36.04Z" transform="translate(-67.617 -32.262)" fill="#5972a5"/>
          <path id="Path_1040920" data-name="Path 1040920" d="M155.968,370.835l-9.648,9.649a3.2,3.2,0,0,1-1.51.849c-2.041-2.7-.81-7.621,3.2-11.632l.457-.457,2.956-2.956Z" transform="translate(-129.915 -326.996)" fill="#5ad6ff"/>
          <path id="Path_1040921" data-name="Path 1040921" d="M236.348,344.265l-1.075,1.075a3.53,3.53,0,0,1-1.244.839c-2.539-1.842-2.768-6.127-.2-8.722a1.854,1.854,0,0,1,2.385,1.292l.8,3.07A2.548,2.548,0,0,1,236.348,344.265Z" transform="translate(-208.43 -301.237)" fill="#ffcbbe"/>
          <circle id="Ellipse_12568" data-name="Ellipse 12568" cx="1.734" cy="1.734" r="1.734" transform="translate(24.469 16.156)" fill="#e8ddf5"/>
          <path id="Path_1040922" data-name="Path 1040922" d="M209.055,13.186a1.681,1.681,0,0,1-1.536-2.378,5.687,5.687,0,0,1,10.844,2.078,5.639,5.639,0,0,1-1.555,4.214,5.705,5.705,0,0,1-2.389,1.5A1.734,1.734,0,0,1,212.6,20.33a1.766,1.766,0,0,1-1.65-1.781V17.138a1.733,1.733,0,0,1,1.732-1.734,2.22,2.22,0,0,0,2.216-2.338,2.219,2.219,0,0,0-4.2-.863,1.824,1.824,0,0,1-1.64.983Z" transform="translate(-186.482 -7.5)" fill="#e8ddf5"/>
          <ellipse id="Ellipse_12569" data-name="Ellipse 12569" cx="3.259" cy="2.595" rx="3.259" ry="2.595" transform="translate(14.117 27.804)" fill="#ffa1ac"/>
          <ellipse id="Ellipse_12570" data-name="Ellipse 12570" cx="3.259" cy="2.595" rx="3.259" ry="2.595" transform="translate(31.78 27.819)" fill="#ffa1ac"/>
          <path id="Path_1040923" data-name="Path 1040923" d="M120.366,409.082a3.214,3.214,0,0,1-3.036-5.395l6.237-6.237C120.5,400.65,118.522,405.653,120.366,409.082Z" transform="translate(-105.471 -354.745)" fill="#00c5fd"/>
          <path id="Path_1040924" data-name="Path 1040924" d="M200.517,346.961c-2.75,1.039-5.357-2.952-5.641-3.547a4.07,4.07,0,0,1-.35-.859,3.975,3.975,0,0,1,.1-2.46,1.8,1.8,0,0,1,3.409.159l1.568-1.567a1.832,1.832,0,0,1,.716-.448A6.989,6.989,0,0,0,200.517,346.961Z" transform="translate(-174.919 -302.018)" fill="#ffb2a6"/>
        </g>
        <g id="Group_1202414" data-name="Group 1202414" transform="translate(16.698 7.5)">
          <path id="Path_1040925" data-name="Path 1040925" d="M201.762,345.342l1.076-1.076a2.551,2.551,0,0,0,.665-2.446l-.8-3.069a1.852,1.852,0,0,0-3.1-.844l-1.567,1.567a1.8,1.8,0,0,0-3.41-.159,4,4,0,0,0,.25,3.318C195.2,343.319,198.605,348.5,201.762,345.342Z" transform="translate(-174.919 -301.239)" fill="none" stroke="#000" stroke-linecap="round" stroke-linejoin="round" stroke-miterlimit="10" stroke-width="1"/>
          <path id="Path_1040926" data-name="Path 1040926" d="M71.732,33.275a7.321,7.321,0,1,0-9.852,10.71" transform="translate(-54.27 -28.214)" fill="none" stroke="#000" stroke-linecap="round" stroke-linejoin="round" stroke-miterlimit="10" stroke-width="1"/>
          <path id="Path_1040927" data-name="Path 1040927" d="M360.665,347.05h5.815v1.213a1.241,1.241,0,0,0,2.095.9l2.383-2.261,3.525-3.343a1.241,1.241,0,0,0,0-1.8l-3.531-3.337-2.387-2.257a1.241,1.241,0,0,0-2.093.9v1.213H360.06" transform="translate(-322.457 -299.865)" fill="none" stroke="#000" stroke-linecap="round" stroke-linejoin="round" stroke-miterlimit="10" stroke-width="1"/>
          <path id="Path_1040928" data-name="Path 1040928" d="M31.51,338.278H25.1v-1.213a1.241,1.241,0,0,0-2.093-.9l-2.387,2.257-3.531,3.337a1.241,1.241,0,0,0,0,1.8l3.525,3.343,2.383,2.261a1.241,1.241,0,0,0,2.094-.9v-1.213h5.225" transform="translate(-16.699 -299.865)" fill="none" stroke="#000" stroke-linecap="round" stroke-linejoin="round" stroke-miterlimit="10" stroke-width="1"/>
          <path id="Path_1040929" data-name="Path 1040929" d="M406.768,224.308a4.167,4.167,0,0,0,.42.021,4.108,4.108,0,0,0,3.013-6.9" transform="translate(-364.05 -194.438)" fill="none" stroke="#000" stroke-linecap="round" stroke-linejoin="round" stroke-miterlimit="10" stroke-width="1"/>
          <path id="Path_1040930" data-name="Path 1040930" d="M64.974,217.427a4.108,4.108,0,0,0,3.013,6.9,4.166,4.166,0,0,0,.42-.021" transform="translate(-58.711 -194.437)" fill="none" stroke="#000" stroke-linecap="round" stroke-linejoin="round" stroke-miterlimit="10" stroke-width="1"/>
          <circle id="Ellipse_12571" data-name="Ellipse 12571" cx="1.734" cy="1.734" r="1.734" transform="translate(24.469 16.156)" fill="none" stroke="#000" stroke-linecap="round" stroke-linejoin="round" stroke-miterlimit="10" stroke-width="1"/>
          <path id="Path_1040931" data-name="Path 1040931" d="M209.055,13.186a1.681,1.681,0,0,1-1.536-2.378,5.687,5.687,0,0,1,10.844,2.078,5.639,5.639,0,0,1-1.555,4.214,5.705,5.705,0,0,1-2.389,1.5A1.734,1.734,0,0,1,212.6,20.33a1.766,1.766,0,0,1-1.65-1.781V17.138a1.733,1.733,0,0,1,1.732-1.734,2.22,2.22,0,0,0,2.216-2.338,2.219,2.219,0,0,0-4.2-.863,1.823,1.823,0,0,1-1.64.983Z" transform="translate(-186.483 -7.5)" fill="none" stroke="#000" stroke-linecap="round" stroke-linejoin="round" stroke-miterlimit="10" stroke-width="1"/>
          <line id="Line_1066" data-name="Line 1066" x1="0.001" y2="1.301" transform="translate(19.277 26.585)" fill="none" stroke="#000" stroke-linecap="round" stroke-linejoin="round" stroke-miterlimit="10" stroke-width="1"/>
          <line id="Line_1067" data-name="Line 1067" x1="0.001" y2="1.301" transform="translate(33.142 26.599)" fill="none" stroke="#000" stroke-linecap="round" stroke-linejoin="round" stroke-miterlimit="10" stroke-width="1"/>
          <line id="Line_1068" data-name="Line 1068" x2="3.655" y2="0.003" transform="translate(24.381 28.469)" fill="none" stroke="#000" stroke-linecap="round" stroke-linejoin="round" stroke-miterlimit="10" stroke-width="1"/>
          <path id="Path_1040932" data-name="Path 1040932" d="M125.242,382.084,117.323,390a3.214,3.214,0,1,0,4.546,4.546l8.375-8.375" transform="translate(-105.465 -341.062)" fill="none" stroke="#000" stroke-linecap="round" stroke-linejoin="round" stroke-miterlimit="10" stroke-width="1"/>
          <path id="Path_1040933" data-name="Path 1040933" d="M313.142,401.243h2.736a2.236,2.236,0,0,0,2.2-2.646,14.039,14.039,0,0,0-7.826-10.053" transform="translate(-278.105 -346.814)" fill="none" stroke="#000" stroke-linecap="round" stroke-linejoin="round" stroke-miterlimit="10" stroke-width="1"/>
          <line id="Line_1069" data-name="Line 1069" x2="17.073" transform="translate(14.131 54.429)" fill="none" stroke="#000" stroke-linecap="round" stroke-linejoin="round" stroke-miterlimit="10" stroke-width="1"/>
          <path id="Path_1040934" data-name="Path 1040934" d="M345.048,31.749a7.316,7.316,0,0,0-9.191,1.525" transform="translate(-300.904 -28.214)" fill="none" stroke="#000" stroke-linecap="round" stroke-linejoin="round" stroke-miterlimit="10" stroke-width="1"/>
          <path id="Path_1040935" data-name="Path 1040935" d="M425.817,74.195a7.319,7.319,0,0,0,2.038-9.508" transform="translate(-381.013 -58.424)" fill="none" stroke="#000" stroke-linecap="round" stroke-linejoin="round" stroke-miterlimit="10" stroke-width="1"/>
          <path id="Path_1040936" data-name="Path 1040936" d="M88.514,41.834a19.953,19.953,0,0,0-14.638,19.23,25.061,25.061,0,0,0,3.21-.227c2.045-3.942,4.448-6,6.989-7.08v5.166a2.171,2.171,0,0,0,2.171,2.171H101.4a2.171,2.171,0,0,0,2.171-2.171V53.757c2.542,1.076,4.945,3.138,6.989,7.08a25.062,25.062,0,0,0,3.21.227,19.953,19.953,0,0,0-14.6-19.219" transform="translate(-67.614 -38.074)" fill="none" stroke="#000" stroke-linecap="round" stroke-linejoin="round" stroke-miterlimit="10" stroke-width="1"/>
          <path id="Path_1040937" data-name="Path 1040937" d="M274.266,235.269A17.02,17.02,0,0,0,289,215.352" transform="translate(-246.059 -192.589)" fill="none" stroke="#000" stroke-linecap="round" stroke-linejoin="round" stroke-miterlimit="10" stroke-width="1"/>
          <path id="Path_1040938" data-name="Path 1040938" d="M101,215.352a17.028,17.028,0,0,0,9.943,18.622" transform="translate(-91.527 -192.589)" fill="none" stroke="#000" stroke-linecap="round" stroke-linejoin="round" stroke-miterlimit="10" stroke-width="1"/>
        </g>
      </g>
    </g>
  </g>
</svg>
