<svg xmlns="http://www.w3.org/2000/svg" xmlns:xlink="http://www.w3.org/1999/xlink" width="113" height="113" viewBox="0 0 113 113">
  <defs>
    <filter id="Trazado_982547" x="0" y="0" width="113" height="113" filterUnits="userSpaceOnUse">
      <feOffset dy="3" input="SourceAlpha"/>
      <feGaussianBlur stdDeviation="3" result="blur"/>
      <feFlood flood-opacity="0.161"/>
      <feComposite operator="in" in2="blur"/>
      <feComposite in="SourceGraphic"/>
    </filter>
  </defs>
  <g id="Grupo_1210851" data-name="Grupo 1210851" transform="translate(-4510.02 -4698.873)">
    <g id="Grupo_1210837" data-name="Grupo 1210837" transform="translate(4238.02 53.358)">
      <g id="Grupo_1202055" data-name="Grupo 1202055" transform="translate(0 3240.511)">
        <g id="Grupo_1177900" data-name="Grupo 1177900" transform="translate(281 1411.003)">
          <g id="Grupo_1172010" data-name="Grupo 1172010" transform="translate(0)">
            <g id="Grupo_1171046" data-name="Grupo 1171046">
              <g id="Grupo_1148525" data-name="Grupo 1148525">
                <g transform="matrix(1, 0, 0, 1, -9, -6)" filter="url(#Trazado_982547)">
                  <g id="Trazado_982547-2" data-name="Trazado 982547" transform="translate(9 6)" fill="#edf3fc">
                    <path d="M 47.5 93.5 C 41.28937149047852 93.5 35.26533508300781 92.28397369384766 29.59518623352051 89.88570404052734 C 24.11771965026855 87.56893157958984 19.19813346862793 84.25196075439453 14.97309303283691 80.02691650390625 C 10.74804019927979 75.80186462402344 7.431066513061523 70.88229370117188 5.114293098449707 65.40481567382812 C 2.716026782989502 59.73468017578125 1.5 53.71062850952148 1.5 47.5 C 1.5 41.28937149047852 2.716026782989502 35.26533508300781 5.114293098449707 29.59518623352051 C 7.431066513061523 24.11771965026855 10.74804019927979 19.19813346862793 14.97309303283691 14.97309303283691 C 19.19813346862793 10.74804019927979 24.11771965026855 7.431066513061523 29.59518623352051 5.114293098449707 C 35.26533508300781 2.716026782989502 41.28937149047852 1.5 47.5 1.5 C 53.71062850952148 1.5 59.73468017578125 2.716026782989502 65.40481567382812 5.114293098449707 C 70.88229370117188 7.431066513061523 75.80186462402344 10.74804019927979 80.02691650390625 14.97309303283691 C 84.25196075439453 19.19813346862793 87.56893157958984 24.11771965026855 89.88570404052734 29.59518623352051 C 92.28397369384766 35.26533508300781 93.5 41.28937149047852 93.5 47.5 C 93.5 53.71062850952148 92.28397369384766 59.73468017578125 89.88570404052734 65.40481567382812 C 87.56893157958984 70.88229370117188 84.25196075439453 75.80186462402344 80.02691650390625 80.02691650390625 C 75.80186462402344 84.25196075439453 70.88229370117188 87.56893157958984 65.40481567382812 89.88570404052734 C 59.73468017578125 92.28397369384766 53.71062850952148 93.5 47.5 93.5 Z" stroke="none"/>
                    <path d="M 47.5 3 C 41.49121475219727 3 35.66376876831055 4.176155090332031 30.17950439453125 6.495796203613281 C 24.88084411621094 8.736953735351562 20.12152099609375 11.94598388671875 16.03375244140625 16.03375244140625 C 11.94598388671875 20.12152099609375 8.736953735351562 24.88084411621094 6.495796203613281 30.17950439453125 C 4.176155090332031 35.66376876831055 3 41.49121475219727 3 47.5 C 3 53.50878524780273 4.176155090332031 59.33623123168945 6.495796203613281 64.82049560546875 C 8.736953735351562 70.11915588378906 11.94598388671875 74.87847900390625 16.03375244140625 78.96624755859375 C 20.12152099609375 83.05401611328125 24.88084411621094 86.26304626464844 30.17950439453125 88.50419616699219 C 35.66376876831055 90.82384490966797 41.49121475219727 92 47.5 92 C 53.50878524780273 92 59.33623123168945 90.82384490966797 64.82049560546875 88.50419616699219 C 70.11915588378906 86.26304626464844 74.87847900390625 83.05401611328125 78.96624755859375 78.96624755859375 C 83.05401611328125 74.87847900390625 86.26304626464844 70.11915588378906 88.50419616699219 64.82049560546875 C 90.82384490966797 59.33623123168945 92 53.50878524780273 92 47.5 C 92 41.49121475219727 90.82384490966797 35.66376876831055 88.50419616699219 30.17950439453125 C 86.26304626464844 24.88084411621094 83.05401611328125 20.12152099609375 78.96624755859375 16.03375244140625 C 74.87847900390625 11.94598388671875 70.11915588378906 8.736953735351562 64.82049560546875 6.495796203613281 C 59.33623123168945 4.176155090332031 53.50878524780273 3 47.5 3 M 47.5 0 C 73.7335205078125 0 95 21.2664794921875 95 47.5 C 95 73.7335205078125 73.7335205078125 95 47.5 95 C 21.2664794921875 95 0 73.7335205078125 0 47.5 C 0 21.2664794921875 21.2664794921875 0 47.5 0 Z" stroke="none" fill="#5692e8"/>
                  </g>
                </g>
              </g>
            </g>
          </g>
        </g>
      </g>
    </g>
    <g id="contact_1638364" transform="translate(4528.815 4722.489)">
      <path id="Trazado_1040995" data-name="Trazado 1040995" d="M265.2,249.107v22.136a1.107,1.107,0,0,1-1.107,1.107H237.534a1.107,1.107,0,0,1-1.107-1.107V263.5L232,256.854h4.427v-7.748A1.107,1.107,0,0,1,237.534,248H264.1A1.107,1.107,0,0,1,265.2,249.107Zm0,0" transform="translate(-199.903 -213.689)" fill="#00ccb3"/>
      <path id="Trazado_1040996" data-name="Trazado 1040996" d="M265.2,9.107V31.243A1.107,1.107,0,0,1,264.1,32.35H237.534a1.107,1.107,0,0,1-1.107-1.107V23.5H232l4.427-6.641V9.107A1.107,1.107,0,0,1,237.534,8H264.1A1.107,1.107,0,0,1,265.2,9.107Zm0,0" transform="translate(-199.903 -6.893)" fill="#ffd422"/>
      <path id="Trazado_1040997" data-name="Trazado 1040997" d="M124.175,121.961l2.214,3.32v5.534l-3.32,3.32v2.214l-4.427,1.107-1.107,3.32h-3.32L112,138.563v-24.35L114.214,112h3.32l1.107,3.32h3.32l2.214,2.214Zm0,0" transform="translate(-96.505 -96.505)" fill="#ed539d"/>
      <path id="Trazado_1040998" data-name="Trazado 1040998" d="M15.748,115.32,16.854,112h3.32l2.214,2.214v24.35l-2.214,2.214h-3.32l-1.107-3.32L11.32,136.35v-2.214L8,130.816v-5.534l2.214-3.32v-4.427l2.214-2.214Zm0,0" transform="translate(-6.893 -96.505)" fill="#ea348b"/>
      <path id="Trazado_1040999" data-name="Trazado 1040999" d="M257.217,0H230.654a2.214,2.214,0,0,0-2.214,2.214V9.629L224.2,15.991a1.107,1.107,0,0,0,.921,1.717h3.32V24.35a2.214,2.214,0,0,0,2.214,2.214h26.563a2.214,2.214,0,0,0,2.214-2.214V2.214A2.214,2.214,0,0,0,257.217,0Zm0,24.35H230.654V16.6a1.107,1.107,0,0,0-1.107-1.107h-2.358l3.279-4.92a1.115,1.115,0,0,0,.186-.614V2.214h26.563Zm0,0" transform="translate(-193.022)"/>
      <path id="Trazado_1041000" data-name="Trazado 1041000" d="M257.2,240H230.641a2.214,2.214,0,0,0-2.214,2.214v6.641h-3.32a1.107,1.107,0,0,0-.921,1.721l4.241,6.358v7.416a2.214,2.214,0,0,0,2.214,2.214H257.2a2.214,2.214,0,0,0,2.214-2.214V242.214A2.214,2.214,0,0,0,257.2,240Zm0,24.35H230.641V256.6a1.115,1.115,0,0,0-.186-.614l-3.279-4.92h2.358a1.107,1.107,0,0,0,1.107-1.107v-7.748H257.2Zm0,0" transform="translate(-193.009 -206.796)"/>
      <path id="Trazado_1041001" data-name="Trazado 1041001" d="M296,88h19.923v2.214H296Zm0,0" transform="translate(-255.048 -75.825)"/>
      <path id="Trazado_1041002" data-name="Trazado 1041002" d="M296,56h19.923v2.214H296Zm0,0" transform="translate(-255.048 -48.252)"/>
      <path id="Trazado_1041003" data-name="Trazado 1041003" d="M296,120h19.923v2.214H296Zm0,0" transform="translate(-255.048 -103.398)"/>
      <path id="Trazado_1041004" data-name="Trazado 1041004" d="M296,328h19.923v2.214H296Zm0,0" transform="translate(-255.048 -282.621)"/>
      <path id="Trazado_1041005" data-name="Trazado 1041005" d="M296,296h19.923v2.214H296Zm0,0" transform="translate(-255.048 -255.048)"/>
      <path id="Trazado_1041006" data-name="Trazado 1041006" d="M296,360h19.923v2.214H296Zm0,0" transform="translate(-255.048 -310.194)"/>
      <path id="Trazado_1041007" data-name="Trazado 1041007" d="M28.777,114.737v-4.1a1.107,1.107,0,0,0-.324-.783l-2.214-2.214a1.107,1.107,0,0,0-.783-.324H22.934l-.854-2.563A1.107,1.107,0,0,0,21.029,104h-3.32a1.107,1.107,0,0,0-.783.324L15.5,105.756l-1.431-1.431a1.107,1.107,0,0,0-.783-.324H9.961a1.107,1.107,0,0,0-1.051.757l-.854,2.563H5.534a1.107,1.107,0,0,0-.783.324l-2.214,2.214a1.107,1.107,0,0,0-.324.783v4.1L.186,117.774a1.115,1.115,0,0,0-.186.614v5.534a1.107,1.107,0,0,0,.324.783l3,3v1.755a1.108,1.108,0,0,0,.838,1.074L8,131.49l.914,2.744a1.107,1.107,0,0,0,1.051.757h3.32a1.107,1.107,0,0,0,.783-.324l1.431-1.431,1.431,1.431a1.107,1.107,0,0,0,.783.324h3.32a1.107,1.107,0,0,0,1.051-.757l.914-2.744,3.839-.959a1.108,1.108,0,0,0,.838-1.074V127.7l3-3a1.107,1.107,0,0,0,.324-.783v-5.534a1.115,1.115,0,0,0-.186-.614ZM12.823,132.777H10.759l-.639-1.915,1.73-1.73a1.107,1.107,0,0,0,.324-.783v-1.107H9.961v.649l-1.447,1.447-2.98-.746v-5.777H3.32v1.755l-1.107-1.107v-4.744l1.278-1.915.935.934v.649H6.641v-1.107a1.107,1.107,0,0,0-.324-.783L4.427,114.61V111.1l1.565-1.565H8.4L9.961,111.1v.649h2.214v-1.107a1.107,1.107,0,0,0-.324-.783l-1.73-1.73.639-1.915h2.064l1.565,1.565v23.433Zm15.954-9.313-1.107,1.107v-1.755H25.456v5.777l-2.98.746-1.447-1.447v-.649H18.816v1.107a1.107,1.107,0,0,0,.324.783l1.73,1.73-.639,1.915H18.167L16.6,131.212V107.779l1.565-1.565h2.064l.639,1.915-1.73,1.73a1.107,1.107,0,0,0-.324.783v1.107h2.214V111.1l1.565-1.565H25l1.565,1.565v3.511L24.674,116.5a1.107,1.107,0,0,0-.324.783v1.107h2.214v-.649l.935-.934,1.278,1.915Zm0,0" transform="translate(0 -89.612)"/>
      <path id="Trazado_1041008" data-name="Trazado 1041008" d="M140.1,180.752l-1.889-1.889V176H136v3.32a1.107,1.107,0,0,0,.324.783l2.214,2.214Zm0,0" transform="translate(-117.184 -151.65)"/>
      <path id="Trazado_1041009" data-name="Trazado 1041009" d="M147.909,234.344l-1.565,1.565.783.783v1.755h2.214v-2.214a1.107,1.107,0,0,0-.324-.783Zm0,0" transform="translate(-126.097 -201.922)"/>
      <path id="Trazado_1041010" data-name="Trazado 1041010" d="M60.233,178.863l-1.889,1.889,1.565,1.565,2.214-2.214a1.107,1.107,0,0,0,.324-.783V176H60.233Zm0,0" transform="translate(-50.272 -151.651)"/>
      <path id="Trazado_1041011" data-name="Trazado 1041011" d="M56.324,235.451a1.107,1.107,0,0,0-.324.783v2.214h2.214v-1.755l.783-.783-1.565-1.565Zm0,0" transform="translate(-48.253 -201.922)"/>
    </g>
  </g>
</svg>
