<svg xmlns="http://www.w3.org/2000/svg" xmlns:xlink="http://www.w3.org/1999/xlink" width="108" height="108" viewBox="0 0 108 108">
  <defs>
    <filter id="Path_904820" x="0" y="0" width="108" height="108" filterUnits="userSpaceOnUse">
      <feOffset dy="3" input="SourceAlpha"/>
      <feGaussianBlur stdDeviation="3" result="blur"/>
      <feFlood flood-opacity="0.161"/>
      <feComposite operator="in" in2="blur"/>
      <feComposite in="SourceGraphic"/>
    </filter>
  </defs>
  <g id="Group_1202451" data-name="Group 1202451" transform="translate(-619.477 -3033.957)">
    <g id="Group_1202346" data-name="Group 1202346" transform="translate(628.477 3039.957)">
      <g id="Group_1202051" data-name="Group 1202051" transform="translate(0 0)">
        <g id="Group_1173585" data-name="Group 1173585">
          <g id="Group_1173428" data-name="Group 1173428">
            <g id="Group_1171958" data-name="Group 1171958">
              <g id="Group_1167341" data-name="Group 1167341">
                <g id="Group_1166792" data-name="Group 1166792">
                  <g transform="matrix(1, 0, 0, 1, -9, -6)" filter="url(#Path_904820)">
                    <g id="Path_904820-2" data-name="Path 904820" transform="translate(9 6)" fill="#effbfe">
                      <path d="M 44.99999618530273 88.49999237060547 C 39.12687301635742 88.49999237060547 33.43022155761719 87.35006713867188 28.06829643249512 85.08216857910156 C 22.88852119445801 82.89130401611328 18.23629570007324 79.75457763671875 14.24084663391113 75.75914001464844 C 10.24540901184082 71.76369476318359 7.108683586120605 67.11146545410156 4.917821407318115 61.93169403076172 C 2.649921178817749 56.56976699829102 1.499996185302734 50.87311553955078 1.499996185302734 44.99999237060547 C 1.499996185302734 39.12686920166016 2.649921178817749 33.43021774291992 4.917821407318115 28.06829261779785 C 7.108683586120605 22.88851737976074 10.24540901184082 18.23630523681641 14.24084663391113 14.24085521697998 C 18.23629570007324 10.24540519714355 22.88852119445801 7.108692169189453 28.06829643249512 4.917829990386963 C 33.43022155761719 2.649929761886597 39.12687301635742 1.500004887580872 44.99999618530273 1.500004887580872 C 50.87311935424805 1.500004887580872 56.56977081298828 2.649929761886597 61.93169784545898 4.917829990386963 C 67.11147308349609 7.108692169189453 71.76369476318359 10.24540519714355 75.75914764404297 14.24085521697998 C 79.75458526611328 18.23630523681641 82.89131164550781 22.88851737976074 85.08216857910156 28.06829261779785 C 87.35007476806641 33.43021774291992 88.5 39.12686920166016 88.5 44.99999237060547 C 88.5 50.87311553955078 87.35007476806641 56.56976699829102 85.08216857910156 61.93169403076172 C 82.89131164550781 67.11146545410156 79.75458526611328 71.76369476318359 75.75914764404297 75.75914001464844 C 71.76369476318359 79.75457763671875 67.11147308349609 82.89130401611328 61.93169784545898 85.08216857910156 C 56.56977081298828 87.35006713867188 50.87311935424805 88.49999237060547 44.99999618530273 88.49999237060547 Z" stroke="none"/>
                      <path d="M 44.99999618530273 2.999992370605469 C 39.32870864868164 2.999992370605469 33.82865142822266 4.11004638671875 28.65262603759766 6.299331665039062 C 23.65165710449219 8.414566040039062 19.15968322753906 11.44333648681641 15.301513671875 15.30150604248047 C 11.44333648681641 19.15967559814453 8.414566040039062 23.65164947509766 6.299339294433594 28.65262222290039 C 4.110054016113281 33.82864761352539 2.999992370605469 39.32870483398438 2.999992370605469 44.99999237060547 C 2.999992370605469 50.67127990722656 4.110054016113281 56.17132186889648 6.299339294433594 61.34736633300781 C 8.414566040039062 66.34833526611328 11.44333648681641 70.84029388427734 15.301513671875 74.69846343994141 C 19.15968322753906 78.55663299560547 23.65165710449219 81.58540344238281 28.65262603759766 83.70063781738281 C 33.82865142822266 85.88992309570312 39.32870864868164 86.99997711181641 44.99999618530273 86.99997711181641 C 50.67128372192383 86.99997711181641 56.17134094238281 85.88992309570312 61.34736633300781 83.70063781738281 C 66.34834289550781 81.58540344238281 70.84030914306641 78.55663299560547 74.69847869873047 74.69846343994141 C 78.55665588378906 70.84029388427734 81.58542633056641 66.34833526611328 83.70065307617188 61.34736633300781 C 85.88993835449219 56.17132186889648 87 50.67127990722656 87 44.99999237060547 C 87 39.32870483398438 85.88993835449219 33.82864761352539 83.70065307617188 28.65262222290039 C 81.58542633056641 23.65164947509766 78.55665588378906 19.15967559814453 74.69847869873047 15.30150604248047 C 70.84030914306641 11.44333648681641 66.34834289550781 8.414566040039062 61.34736633300781 6.299331665039062 C 56.17134094238281 4.11004638671875 50.67128372192383 2.999992370605469 44.99999618530273 2.999992370605469 M 44.99999618530273 -7.62939453125e-06 C 69.85281372070312 -7.62939453125e-06 90 20.14717864990234 90 44.99999237060547 C 90 69.85279083251953 69.85281372070312 89.99997711181641 44.99999618530273 89.99997711181641 C 20.14717864990234 89.99997711181641 -7.62939453125e-06 69.85279083251953 -7.62939453125e-06 44.99999237060547 C -7.62939453125e-06 20.14717864990234 20.14717864990234 -7.62939453125e-06 44.99999618530273 -7.62939453125e-06 Z" stroke="none" fill="#497f88"/>
                    </g>
                  </g>
                </g>
              </g>
            </g>
          </g>
        </g>
      </g>
      <g id="man_548031" transform="translate(16.111 14.111)">
        <g id="Group_1202344" data-name="Group 1202344" transform="translate(5.176 1.129)">
          <path id="Path_1040625" data-name="Path 1040625" d="M59.688,22.536c3.6-2.72,6.829-5.444,9.895-2.378,3.066-3.066,6.29-.342,9.895,2.378a23.714,23.714,0,0,0,4.775,3c2.76,1.175,5.749,1.163,9.042-1.991-2.516.16-4.134-1.1-5.549-3.3-3.585-5.583-5.873-14.8-18.163-7.613C57.292,5.448,55,14.66,51.419,20.244c-1.415,2.2-3.033,3.464-5.549,3.3,3.293,3.154,6.282,3.165,9.042,1.99A23.711,23.711,0,0,0,59.688,22.536Z" transform="translate(-45.87 -10.001)" fill="#f4ba64"/>
          <g id="Group_1202340" data-name="Group 1202340" transform="translate(9.042 12.535)">
            <path id="Path_1040626" data-name="Path 1040626" d="M130.771,124.081v-3a23.7,23.7,0,0,1-4.775,3v4.775A4.79,4.79,0,0,0,130.771,124.081Z" transform="translate(-125.996 -121.078)" fill="#c99e81"/>
            <path id="Path_1040627" data-name="Path 1040627" d="M343.675,124.081a4.789,4.789,0,0,0,4.775,4.775v-4.775a23.7,23.7,0,0,1-4.775-3Z" transform="translate(-319.11 -121.078)" fill="#c99e81"/>
          </g>
          <path id="Path_1040628" data-name="Path 1040628" d="M128.72,99.507a4.79,4.79,0,0,1-4.775-4.775v-3c-3.6-2.72-6.829-5.444-9.895-2.378-3.066-3.066-6.29-.342-9.894,2.378v3a4.79,4.79,0,0,1-4.775,4.775,3.385,3.385,0,1,0,0,6.771h1.128a13.456,13.456,0,0,0,3.015,8.492,13.62,13.62,0,0,0,2.609,2.475,13.464,13.464,0,0,0,15.835,0,13.67,13.67,0,0,0,2.61-2.475,13.463,13.463,0,0,0,3.014-8.492h1.128a3.385,3.385,0,1,0,0-6.771ZM105.9,111.1a4.22,4.22,0,0,0,4.958-.672c2.362-2.168,4.6,1.7,1.923,2.963-2.214,1.04-5.715,1.432-6.881-2.291Zm11.333-.672a4.22,4.22,0,0,0,4.958.672c-1.166,3.723-4.668,3.331-6.881,2.291C112.633,112.132,114.876,108.261,117.237,110.429Z" transform="translate(-90.338 -79.195)" fill="#fcd0ac"/>
          <g id="Group_1202341" data-name="Group 1202341" transform="translate(15.566 30.587)">
            <path id="Path_1040629" data-name="Path 1040629" d="M190.691,284.66c2.681-1.26.438-5.131-1.923-2.963a4.221,4.221,0,0,1-4.958.672C184.977,286.092,188.478,285.7,190.691,284.66Z" transform="translate(-183.81 -281.05)" fill="#c99e81"/>
            <path id="Path_1040630" data-name="Path 1040630" d="M259.541,281.7c-2.362-2.168-4.6,1.7-1.923,2.963,2.214,1.04,5.715,1.432,6.881-2.291A4.221,4.221,0,0,1,259.541,281.7Z" transform="translate(-248.207 -281.052)" fill="#c99e81"/>
          </g>
          <g id="Group_1202342" data-name="Group 1202342" transform="translate(1.143 38.051)">
            <path id="Path_1040631" data-name="Path 1040631" d="M193.75,349.765a13.445,13.445,0,0,1-7.917-2.574,8.028,8.028,0,0,0,15.835,0A13.445,13.445,0,0,1,193.75,349.765Z" transform="translate(-171.181 -347.191)" fill="#fcd0ac"/>
            <path id="Path_1040632" data-name="Path 1040632" d="M62.769,462H56.455A22.445,22.445,0,0,0,56,466.514h6.771Z" transform="translate(-55.998 -449.044)" fill="#fcd0ac"/>
            <path id="Path_1040633" data-name="Path 1040633" d="M396,462v4.514h6.771a22.455,22.455,0,0,0-.456-4.514Z" transform="translate(-357.629 -449.044)" fill="#fcd0ac"/>
          </g>
          <g id="Group_1202343" data-name="Group 1202343" transform="translate(1.6 39.443)">
            <path id="Path_1040634" data-name="Path 1040634" d="M396,371.089h6.315A22.6,22.6,0,0,0,396,359.525Z" transform="translate(-358.086 -359.525)" fill="#5f5148"/>
            <path id="Path_1040635" data-name="Path 1040635" d="M66.359,371.089V359.525a22.6,22.6,0,0,0-6.314,11.564Z" transform="translate(-60.045 -359.525)" fill="#5f5148"/>
          </g>
          <path id="Path_1040636" data-name="Path 1040636" d="M116,329.121V345.2h31.6V329.121a22.785,22.785,0,0,0-5.271-3.867,13.664,13.664,0,0,1-2.61,2.475,8.028,8.028,0,0,1-15.835,0,13.62,13.62,0,0,1-2.609-2.475A22.8,22.8,0,0,0,116,329.121Z" transform="translate(-108.084 -289.678)" fill="#c99e81"/>
        </g>
        <g id="Group_1202345" data-name="Group 1202345">
          <path id="Path_1040637" data-name="Path 1040637" d="M247.127,450.2a1.128,1.128,0,0,0,1.128-1.128v-.054a1.128,1.128,0,0,0-2.257,0v.054A1.129,1.129,0,0,0,247.127,450.2Z" transform="translate(-218.239 -397.349)" fill="#000001"/>
          <path id="Path_1040638" data-name="Path 1040638" d="M1.157,492H1.13a1.128,1.128,0,0,0,0,2.257h.026a1.128,1.128,0,0,0,0-2.257Z" transform="translate(-0.002 -436.475)" fill="#000001"/>
          <path id="Path_1040639" data-name="Path 1040639" d="M492.918,492h-.027a1.128,1.128,0,1,0,0,2.257h.027a1.128,1.128,0,1,0,0-2.257Z" transform="translate(-436.269 -436.475)" fill="#000001"/>
          <path id="Path_1040640" data-name="Path 1040640" d="M79.08,55.52h-.821a23.613,23.613,0,0,0-.45-3.6l0-.016a23.72,23.72,0,0,0-11.02-15.546,14.577,14.577,0,0,0,2.43-7.014h.043a4.514,4.514,0,0,0,1.128-8.885V18.24a8.575,8.575,0,0,0,2.121.276A9.43,9.43,0,0,0,79.069,15.5l0,0,.007-.007.027-.029c.015-.016.031-.031.045-.048s.024-.03.036-.045.022-.027.032-.042.023-.034.034-.051l.026-.041c.01-.017.019-.035.028-.053s.015-.03.022-.045.014-.035.021-.052.014-.034.019-.052.01-.033.015-.049.011-.038.015-.057.006-.032.009-.049.007-.039.01-.059,0-.036,0-.055,0-.036,0-.054,0-.046,0-.07,0-.024,0-.036V14.6c0-.027-.006-.054-.009-.081,0-.01,0-.021,0-.031s-.01-.046-.015-.07a1.123,1.123,0,0,0-.364-.6l-.013-.01c-.024-.02-.048-.039-.074-.057l-.025-.016c-.022-.014-.044-.029-.067-.042l-.033-.017c-.021-.011-.043-.022-.065-.032l-.037-.015-.065-.024-.04-.012-.064-.017-.046-.009-.06-.01-.058-.005-.051,0c-.025,0-.049,0-.074,0h-.033c-1.869.119-3.18-.689-4.528-2.788-.51-.794-.992-1.664-1.5-2.585C70.421,4.972,68.407,1.339,64.591.292c-2.758-.757-6.035-.047-10,2.167C50.62.245,47.343-.465,44.585.292c-3.815,1.047-5.83,4.68-7.607,7.885-.511.921-.993,1.791-1.5,2.585-1.347,2.1-2.66,2.906-4.528,2.788h-.1l-.058,0-.051,0-.061.01-.047.009-.058.016-.048.014-.052.02-.052.021-.045.022-.053.028-.041.026c-.017.011-.035.022-.051.034l-.042.032c-.015.012-.03.023-.045.036s-.031.029-.047.044l-.029.028,0,0c-.018.019-.034.039-.051.059l-.022.026c-.018.024-.035.048-.052.073l-.012.018q-.029.046-.054.1c-.01.02-.018.04-.027.06s-.013.027-.018.041q-.02.052-.034.105l0,.011c-.008.032-.016.065-.021.1,0,.009,0,.018,0,.027,0,.028-.008.056-.01.084V14.6c0,.012,0,.024,0,.036s0,.046,0,.07,0,.036,0,.054,0,.036,0,.055.006.04.01.059.006.033.009.049.01.038.015.057.009.033.015.049.013.035.019.052.013.035.021.052.015.03.022.045.018.036.028.053.017.028.026.041.022.035.034.051.021.028.032.042.023.03.036.045.03.032.045.048l.027.029.007.007,0,0a9.428,9.428,0,0,0,6.561,3.015,8.579,8.579,0,0,0,2.121-.276v2.215a4.514,4.514,0,0,0,1.128,8.885h.043a14.577,14.577,0,0,0,2.43,7.014A23.719,23.719,0,0,0,31.371,51.907v0a23.618,23.618,0,0,0-.452,3.611H30.1a1.128,1.128,0,1,0,0,2.257H79.081a1.129,1.129,0,1,0,0-2.257ZM71.516,43.514a21.382,21.382,0,0,1,3.756,7.493H71.516Zm0,9.75H75.76A21.327,21.327,0,0,1,76,55.52H71.516Zm-5.9-37.384a20.182,20.182,0,0,0,2.518,1.508v2.745a3.653,3.653,0,0,1-2.518-3.467Zm-31.97-.5a8.2,8.2,0,0,0,3.734-3.4c.549-.855,1.072-1.8,1.577-2.71,1.638-2.953,3.331-6.007,6.23-6.8,2.156-.592,4.868.045,8.278,1.945V6.266a1.128,1.128,0,0,0,1.128,1.128h0a1.129,1.129,0,0,0,1.128-1.129V4.414c3.409-1.9,6.121-2.537,8.277-1.945,2.9.8,4.593,3.849,6.23,6.8.505.912,1.028,1.854,1.577,2.71a8.2,8.2,0,0,0,3.734,3.4,6.139,6.139,0,0,1-5.738.295,1.117,1.117,0,0,0-.2-.086,25.979,25.979,0,0,1-4.956-3.223A20.336,20.336,0,0,0,59.462,9.15a5.041,5.041,0,0,0-4.874.651,5.041,5.041,0,0,0-4.874-.651,20.337,20.337,0,0,0-5.176,3.215,25.982,25.982,0,0,1-4.955,3.223,1.112,1.112,0,0,0-.206.087A6.14,6.14,0,0,1,33.641,15.38Zm9.925.5v.786a3.653,3.653,0,0,1-2.519,3.467V17.389A20.2,20.2,0,0,0,43.565,15.88Zm-2.519,11.2H39.918a2.257,2.257,0,1,1,0-4.514,5.911,5.911,0,0,0,5.9-5.9V14.224l.081-.061c.793-.6,1.5-1.125,2.151-1.564a4.392,4.392,0,0,0-.109.97,4.33,4.33,0,0,0,1.277,3.082,1.128,1.128,0,0,0,1.6-1.6,2.1,2.1,0,1,1,2.972-2.972,1.129,1.129,0,0,0,1.6,0c2.01-2.01,3.947-.91,7.887,2.08l.081.061v2.442a5.911,5.911,0,0,0,5.9,5.9,2.257,2.257,0,1,1,0,4.514H68.13A1.129,1.129,0,0,0,67,28.212a12.352,12.352,0,0,1-2.666,7.678,1.128,1.128,0,0,0-.176.218,12.525,12.525,0,0,1-2.2,2.084,1.143,1.143,0,0,0-.221.16,12.388,12.388,0,0,1-14.3,0,1.137,1.137,0,0,0-.222-.161,12.513,12.513,0,0,1-2.195-2.08,1.128,1.128,0,0,0-.182-.226,12.353,12.353,0,0,1-2.664-7.675A1.128,1.128,0,0,0,41.047,27.084Zm13.542,17.67a6.877,6.877,0,0,1-5.718-3.032,14.668,14.668,0,0,0,11.437,0A6.877,6.877,0,0,1,54.588,44.754ZM45.65,39.836a9.121,9.121,0,0,0,7.81,7.1v1.45a1.128,1.128,0,0,0,1.128,1.128h0a1.129,1.129,0,0,0,1.128-1.129V46.94a9.121,9.121,0,0,0,7.81-7.1,14.8,14.8,0,0,0,1.849-1.694,21.7,21.7,0,0,1,3.883,2.9V55.521H39.919V41.041a21.7,21.7,0,0,1,3.882-2.9A14.8,14.8,0,0,0,45.65,39.836ZM37.662,51.007H33.905a21.38,21.38,0,0,1,3.756-7.493Zm-4.244,2.257h4.244V55.52H33.177A21.33,21.33,0,0,1,33.417,53.264Z" transform="translate(-25.7 0)" fill="#000001"/>
          <path id="Path_1040641" data-name="Path 1040641" d="M178.831,277.633a8.351,8.351,0,0,0,3.457-.823,3.607,3.607,0,0,0,.784-.5,3.608,3.608,0,0,0,.785.5,8.354,8.354,0,0,0,3.457.823h0a4.966,4.966,0,0,0,4.981-3.8,1.135,1.135,0,0,0-.374-1.24,1.107,1.107,0,0,0-1.276-.07,3.289,3.289,0,0,1-1.487.364,3.109,3.109,0,0,1-2.134-.9,3.23,3.23,0,0,0-2.2-.944,2.718,2.718,0,0,0-1.75.643,2.719,2.719,0,0,0-1.751-.643,3.23,3.23,0,0,0-2.2.944,3.109,3.109,0,0,1-2.134.9,3.3,3.3,0,0,1-1.478-.359,1.114,1.114,0,0,0-1.28.067,1.133,1.133,0,0,0-.379,1.237A4.966,4.966,0,0,0,178.831,277.633Zm5.435-3.763c.061-.273.277-.563.557-.563a1.113,1.113,0,0,1,.674.35,5.447,5.447,0,0,0,3.117,1.46,3.077,3.077,0,0,1-1.3.258,6.059,6.059,0,0,1-2.5-.608C184.365,274.556,184.18,274.254,184.265,273.871Zm-3.618-.213a1.113,1.113,0,0,1,.674-.35c.28,0,.5.29.557.562.086.384-.1.685-.551.9a6.059,6.059,0,0,1-2.5.608,3.077,3.077,0,0,1-1.3-.258A5.447,5.447,0,0,0,180.647,273.658Z" transform="translate(-154.184 -240.463)" fill="#000001"/>
          <path id="Path_1040642" data-name="Path 1040642" d="M293.495,238.913a1.411,1.411,0,1,0,1.411-1.411A1.413,1.413,0,0,0,293.495,238.913Z" transform="translate(-260.375 -210.7)" fill="#000001"/>
          <path id="Path_1040643" data-name="Path 1040643" d="M193.493,238.913A1.411,1.411,0,1,0,194.9,237.5,1.413,1.413,0,0,0,193.493,238.913Z" transform="translate(-171.658 -210.7)" fill="#000001"/>
          <path id="Path_1040644" data-name="Path 1040644" d="M177.685,202.714a3.385,3.385,0,0,1,3.385,0,1.129,1.129,0,0,0,1.129-1.954,5.643,5.643,0,0,0-5.643,0,1.129,1.129,0,0,0,1.129,1.954Z" transform="translate(-156.132 -177.434)" fill="#000001"/>
          <path id="Path_1040645" data-name="Path 1040645" d="M277.687,202.714a3.385,3.385,0,0,1,3.385,0,1.129,1.129,0,0,0,1.129-1.954,5.643,5.643,0,0,0-5.643,0,1.129,1.129,0,0,0,1.129,1.954Z" transform="translate(-244.849 -177.434)" fill="#000001"/>
        </g>
      </g>
    </g>
  </g>
</svg>
