<svg xmlns="http://www.w3.org/2000/svg" xmlns:xlink="http://www.w3.org/1999/xlink" width="113" height="113" viewBox="0 0 113 113">
  <defs>
    <filter id="Path_982547" x="0" y="0" width="113" height="113" filterUnits="userSpaceOnUse">
      <feOffset dy="3" input="SourceAlpha"/>
      <feGaussianBlur stdDeviation="3" result="blur"/>
      <feFlood flood-opacity="0.161"/>
      <feComposite operator="in" in2="blur"/>
      <feComposite in="SourceGraphic"/>
    </filter>
  </defs>
  <g id="Group_1202445" data-name="Group 1202445" transform="translate(-743.25 -1336)">
    <g id="Group_1202328" data-name="Group 1202328">
      <g id="Group_1178324" data-name="Group 1178324" transform="translate(0 424)">
        <g id="Group_1177680" data-name="Group 1177680" transform="translate(752.25 918)">
          <g id="Group_1172010" data-name="Group 1172010">
            <g id="Group_1171046" data-name="Group 1171046">
              <g id="Group_1148525" data-name="Group 1148525">
                <g transform="matrix(1, 0, 0, 1, -9, -6)" filter="url(#Path_982547)">
                  <g id="Path_982547-2" data-name="Path 982547" transform="translate(9 6)" fill="#edf3fc">
                    <path d="M 47.5 93.5 C 41.28937149047852 93.5 35.26533508300781 92.28397369384766 29.59518623352051 89.88570404052734 C 24.11771965026855 87.56893157958984 19.19813346862793 84.25196075439453 14.97309303283691 80.02691650390625 C 10.74804019927979 75.80186462402344 7.431066513061523 70.88229370117188 5.114293098449707 65.40481567382812 C 2.716026782989502 59.73468017578125 1.5 53.71062850952148 1.5 47.5 C 1.5 41.28937149047852 2.716026782989502 35.26533508300781 5.114293098449707 29.59518623352051 C 7.431066513061523 24.11771965026855 10.74804019927979 19.19813346862793 14.97309303283691 14.97309303283691 C 19.19813346862793 10.74804019927979 24.11771965026855 7.431066513061523 29.59518623352051 5.114293098449707 C 35.26533508300781 2.716026782989502 41.28937149047852 1.5 47.5 1.5 C 53.71062850952148 1.5 59.73468017578125 2.716026782989502 65.40481567382812 5.114293098449707 C 70.88229370117188 7.431066513061523 75.80186462402344 10.74804019927979 80.02691650390625 14.97309303283691 C 84.25196075439453 19.19813346862793 87.56893157958984 24.11771965026855 89.88570404052734 29.59518623352051 C 92.28397369384766 35.26533508300781 93.5 41.28937149047852 93.5 47.5 C 93.5 53.71062850952148 92.28397369384766 59.73468017578125 89.88570404052734 65.40481567382812 C 87.56893157958984 70.88229370117188 84.25196075439453 75.80186462402344 80.02691650390625 80.02691650390625 C 75.80186462402344 84.25196075439453 70.88229370117188 87.56893157958984 65.40481567382812 89.88570404052734 C 59.73468017578125 92.28397369384766 53.71062850952148 93.5 47.5 93.5 Z" stroke="none"/>
                    <path d="M 47.5 3 C 41.49121475219727 3 35.66376876831055 4.176155090332031 30.17950439453125 6.495796203613281 C 24.88084411621094 8.736953735351562 20.12152099609375 11.94598388671875 16.03375244140625 16.03375244140625 C 11.94598388671875 20.12152099609375 8.736953735351562 24.88084411621094 6.495796203613281 30.17950439453125 C 4.176155090332031 35.66376876831055 3 41.49121475219727 3 47.5 C 3 53.50878524780273 4.176155090332031 59.33623123168945 6.495796203613281 64.82049560546875 C 8.736953735351562 70.11915588378906 11.94598388671875 74.87847900390625 16.03375244140625 78.96624755859375 C 20.12152099609375 83.05401611328125 24.88084411621094 86.26304626464844 30.17950439453125 88.50419616699219 C 35.66376876831055 90.82384490966797 41.49121475219727 92 47.5 92 C 53.50878524780273 92 59.33623123168945 90.82384490966797 64.82049560546875 88.50419616699219 C 70.11915588378906 86.26304626464844 74.87847900390625 83.05401611328125 78.96624755859375 78.96624755859375 C 83.05401611328125 74.87847900390625 86.26304626464844 70.11915588378906 88.50419616699219 64.82049560546875 C 90.82384490966797 59.33623123168945 92 53.50878524780273 92 47.5 C 92 41.49121475219727 90.82384490966797 35.66376876831055 88.50419616699219 30.17950439453125 C 86.26304626464844 24.88084411621094 83.05401611328125 20.12152099609375 78.96624755859375 16.03375244140625 C 74.87847900390625 11.94598388671875 70.11915588378906 8.736953735351562 64.82049560546875 6.495796203613281 C 59.33623123168945 4.176155090332031 53.50878524780273 3 47.5 3 M 47.5 0 C 73.7335205078125 0 95 21.2664794921875 95 47.5 C 95 73.7335205078125 73.7335205078125 95 47.5 95 C 21.2664794921875 95 0 73.7335205078125 0 47.5 C 0 21.2664794921875 21.2664794921875 0 47.5 0 Z" stroke="none" fill="#5692e8"/>
                  </g>
                </g>
              </g>
            </g>
          </g>
        </g>
      </g>
      <g id="rgb_9102499" transform="translate(766.184 1355.693)">
        <path id="Path_1040609" data-name="Path 1040609" d="M50.106,28.865a18.07,18.07,0,1,0-32.558,0A18.07,18.07,0,1,0,33.827,59.371,18.065,18.065,0,1,0,50.106,28.864Z" transform="translate(0 0)" fill="#1a1a1a"/>
        <path id="Path_1040610" data-name="Path 1040610" d="M32.944,5A15.933,15.933,0,0,1,47,28.451c-.432-.031-.863-.066-1.3-.066a18.011,18.011,0,0,0-12.756,5.284,18.011,18.011,0,0,0-12.756-5.284c-.44,0-.872.035-1.3.066A15.933,15.933,0,0,1,32.944,5Z" transform="translate(0.883 0.129)" fill="#37c4a9"/>
        <path id="Path_1040611" data-name="Path 1040611" d="M44.64,29a15.931,15.931,0,0,1-10.3,6.172q-.474-.732-1.013-1.414A15.891,15.891,0,0,1,44.64,29Z" transform="translate(1.911 1.64)" fill="#cae6fc"/>
        <path id="Path_1040612" data-name="Path 1040612" d="M31.344,33.76q-.54.68-1.013,1.414A15.931,15.931,0,0,1,20.03,29a15.891,15.891,0,0,1,11.314,4.76Z" transform="translate(1.074 1.64)" fill="#ff4500"/>
        <path id="Path_1040613" data-name="Path 1040613" d="M20.945,60.877a15.934,15.934,0,0,1-2.422-31.685,18.1,18.1,0,0,0,11.654,7.949,17.918,17.918,0,0,0,2.114,18.976,15.891,15.891,0,0,1-11.346,4.76Z" transform="translate(0.127 1.652)" fill="#ffd300"/>
        <path id="Path_1040614" data-name="Path 1040614" d="M29,44.445a15.831,15.831,0,0,1,1.886-7.507c.432.031.863.066,1.3.066s.872-.035,1.3-.066a15.85,15.85,0,0,1-1.3,17.033A15.838,15.838,0,0,1,29,44.445Z" transform="translate(1.638 2.14)" fill="#0089e5"/>
        <path id="Path_1040615" data-name="Path 1040615" d="M44.672,60.877a15.891,15.891,0,0,1-11.346-4.76A17.918,17.918,0,0,0,35.44,37.141a18.1,18.1,0,0,0,11.654-7.949,15.934,15.934,0,0,1-2.422,31.685Z" transform="translate(1.911 1.652)" fill="#f2767a"/>
      </g>
    </g>
  </g>
</svg>
