<svg xmlns="http://www.w3.org/2000/svg" xmlns:xlink="http://www.w3.org/1999/xlink" width="106.16" height="106.16" viewBox="0 0 106.16 106.16">
  <defs>
    <filter id="Path_982547" x="0" y="0" width="106.16" height="106.16" filterUnits="userSpaceOnUse">
      <feOffset dy="3" input="SourceAlpha"/>
      <feGaussianBlur stdDeviation="3" result="blur"/>
      <feFlood flood-opacity="0.161"/>
      <feComposite operator="in" in2="blur"/>
      <feComposite in="SourceGraphic"/>
    </filter>
  </defs>
  <g id="Group_1202471" data-name="Group 1202471" transform="translate(-196.42 -7547.914)">
    <g id="Group_1202162" data-name="Group 1202162" transform="translate(-75.58 6142.911)">
      <g id="Group_1177900" data-name="Group 1177900" transform="translate(281 1411.003)">
        <g id="Group_1172010" data-name="Group 1172010" transform="translate(0)">
          <g id="Group_1171046" data-name="Group 1171046">
            <g id="Group_1148525" data-name="Group 1148525">
              <g transform="matrix(1, 0, 0, 1, -9, -6)" filter="url(#Path_982547)">
                <g id="Path_982547-2" data-name="Path 982547" transform="translate(9 6)" fill="#fdfbec">
                  <path d="M 44.0802001953125 86.660400390625 C 38.33124923706055 86.660400390625 32.75506210327148 85.53479766845703 27.50652503967285 83.31484985351562 C 22.43628692626953 81.17032623291016 17.88242530822754 78.09992218017578 13.97144985198975 74.18894958496094 C 10.06047534942627 70.27797698974609 6.99007511138916 65.72411346435547 4.845550060272217 60.65387344360352 C 2.625600099563599 55.40533828735352 1.500000238418579 49.82915115356445 1.500000238418579 44.0802001953125 C 1.500000238418579 38.33124923706055 2.625600099563599 32.75506210327148 4.845550060272217 27.50652503967285 C 6.99007511138916 22.43628692626953 10.06047534942627 17.88242530822754 13.97144985198975 13.97144985198975 C 17.88242530822754 10.06047534942627 22.43628692626953 6.99007511138916 27.50652503967285 4.845550060272217 C 32.75506210327148 2.625600099563599 38.33124923706055 1.500000238418579 44.0802001953125 1.500000238418579 C 49.82915115356445 1.500000238418579 55.40533828735352 2.625600099563599 60.65387344360352 4.845550060272217 C 65.72411346435547 6.99007511138916 70.27797698974609 10.06047534942627 74.18894958496094 13.97144985198975 C 78.09992218017578 17.88242530822754 81.17032623291016 22.43628692626953 83.31484985351562 27.50652503967285 C 85.53479766845703 32.75506210327148 86.660400390625 38.33124923706055 86.660400390625 44.0802001953125 C 86.660400390625 49.82915115356445 85.53479766845703 55.40533828735352 83.31484985351562 60.65387344360352 C 81.17032623291016 65.72411346435547 78.09992218017578 70.27797698974609 74.18894958496094 74.18894958496094 C 70.27797698974609 78.09992218017578 65.72411346435547 81.17032623291016 60.65387344360352 83.31484985351562 C 55.40533828735352 85.53479766845703 49.82915115356445 86.660400390625 44.0802001953125 86.660400390625 Z" stroke="none"/>
                  <path d="M 44.0802001953125 3 C 38.53308486938477 3 33.15349960327148 4.085746765136719 28.09085845947266 6.227058410644531 C 23.19941711425781 8.29595947265625 18.80581665039062 11.25841522216797 15.03211212158203 15.03211212158203 C 11.25841522216797 18.80581665039062 8.29595947265625 23.19941711425781 6.227058410644531 28.09085845947266 C 4.085746765136719 33.15349960327148 3 38.53308486938477 3 44.0802001953125 C 3 49.62731552124023 4.085746765136719 55.00691604614258 6.227058410644531 60.06954193115234 C 8.29595947265625 64.96098327636719 11.25841522216797 69.35458374023438 15.03211212158203 73.12828826904297 C 18.80581665039062 76.90198516845703 23.19941711425781 79.86444091796875 28.09085845947266 81.93334197998047 C 33.15349960327148 84.07466125488281 38.53308486938477 85.160400390625 44.0802001953125 85.160400390625 C 49.62731552124023 85.160400390625 55.00691604614258 84.07466125488281 60.06954193115234 81.93334197998047 C 64.96099853515625 79.86444091796875 69.35458374023438 76.90198516845703 73.12828826904297 73.12828826904297 C 76.90198516845703 69.35458374023438 79.86444091796875 64.96099853515625 81.93334197998047 60.06954193115234 C 84.07466125488281 55.00691604614258 85.160400390625 49.62731552124023 85.160400390625 44.0802001953125 C 85.160400390625 38.53308486938477 84.07466125488281 33.15349960327148 81.93334197998047 28.09085845947266 C 79.86444091796875 23.19941711425781 76.90198516845703 18.80581665039062 73.12828826904297 15.03211212158203 C 69.35458374023438 11.25841522216797 64.96098327636719 8.29595947265625 60.06954193115234 6.227058410644531 C 55.00691604614258 4.085746765136719 49.62731552124023 3 44.0802001953125 3 M 44.0802001953125 0 C 68.42502593994141 0 88.160400390625 19.73538970947266 88.160400390625 44.0802001953125 C 88.160400390625 68.42502593994141 68.42502593994141 88.160400390625 44.0802001953125 88.160400390625 C 19.73538970947266 88.160400390625 0 68.42502593994141 0 44.0802001953125 C 0 19.73538970947266 19.73538970947266 0 44.0802001953125 0 Z" stroke="none" fill="#83793c"/>
                </g>
              </g>
            </g>
          </g>
        </g>
      </g>
      <g id="mindset_16137499" transform="translate(254.074 1425.399)">
        <g id="Group_1202283" data-name="Group 1202283" transform="translate(49.585 1.9)">
          <g id="Group_1202281" data-name="Group 1202281" transform="translate(0 0)">
            <path id="Path_1040436" data-name="Path 1040436" d="M101.519,41.067c-.845-4.989-4.846-6.306-4.846-9.85C97.717,18.6,91.4,9,76.884,9,55.3,9,50.284,36.167,65.348,46.943c.541,8.624-3.064,14.731-3.468,17.626l24.608-.048c0-5.107-4.11-8.9-.747-10.371,2.027-.888,8.633,2.541,10.259.517,1.186-5.075,2.316-4.215,2.316-6.054-2.537-1.931-2.391-2.191.16-3.015l.024-3.962Z" transform="translate(-56.676 -9)" fill="#ffd6bd" fill-rule="evenodd"/>
            <path id="Path_1040437" data-name="Path 1040437" d="M142.579,41.067c-.845-4.989-4.846-6.306-4.846-9.85C138.777,18.6,132.464,9,117.943,9c-.358,0-.71.009-1.059.024,13.674.514,19.614,9.925,18.6,22.192,0,3.544,4,4.862,4.846,9.85l-3.019.569-.024,3.962c-2.551.823-2.7,1.083-.16,3.015,0,1.839-1.132.979-2.316,6.054a1.649,1.649,0,0,1-.884.539c1.382.209,2.565.171,3.134-.539,1.186-5.075,2.316-4.215,2.316-6.054-2.537-1.931-2.391-2.191.16-3.015l.024-3.962Zm-39.638,23.5L125.3,64.52c0-5.107-4.11-8.9-.747-10.371a4.3,4.3,0,0,1,2.259,0l-.009,0c-3.363,1.472.747,5.264.747,10.371l-24.609.048Z" transform="translate(-97.736 -9)" fill="#f9c6aa" fill-rule="evenodd"/>
          </g>
          <g id="Group_1202282" data-name="Group 1202282" transform="translate(9.67 9.412)">
            <path id="Path_1040438" data-name="Path 1040438" d="M153.624,92.67a10.985,10.985,0,0,1,5.614,20.425,2.176,2.176,0,0,0-1.088,1.913v2.678a1.513,1.513,0,0,1-1.51,1.51h-6.035a1.513,1.513,0,0,1-1.51-1.51v-2.678a2.172,2.172,0,0,0-1.088-1.913,10.985,10.985,0,0,1,5.615-20.425Z" transform="translate(-142.64 -92.67)" fill="#ffda2d" fill-rule="evenodd"/>
            <path id="Path_1040439" data-name="Path 1040439" d="M153.643,157.42h-3.856a2.406,2.406,0,1,0-3.271,0H142.66a10.978,10.978,0,0,0,5.369,9.442,2.174,2.174,0,0,1,1.088,1.913v.991h4.528v-5.218a2.406,2.406,0,1,1,0-3.271V157.42Z" transform="translate(-142.658 -146.436)" fill="#72d561" fill-rule="evenodd"/>
            <path id="Path_1040440" data-name="Path 1040440" d="M233.332,92.68a10.985,10.985,0,0,1,5.614,20.425,2.176,2.176,0,0,0-1.088,1.913V117.7a1.513,1.513,0,0,1-1.51,1.51h-1.763a1.513,1.513,0,0,0,1.51-1.51v-2.678a2.173,2.173,0,0,1,1.088-1.913,10.985,10.985,0,0,0-4.733-20.39q.439-.035.882-.035Z" transform="translate(-222.348 -92.679)" fill="#ffc700" fill-rule="evenodd"/>
            <path id="Path_1040441" data-name="Path 1040441" d="M243.386,105.427a2.406,2.406,0,1,0,4.042-1.764h3.856A10.983,10.983,0,0,0,240.3,92.68v3.856a2.406,2.406,0,1,1,0,3.271v3.856h3.856A2.4,2.4,0,0,0,243.386,105.427Z" transform="translate(-229.315 -92.679)" fill="#64b5f6" fill-rule="evenodd"/>
            <path id="Path_1040442" data-name="Path 1040442" d="M240.29,92.821a10.987,10.987,0,0,1,9.222,10.843h1.763A10.983,10.983,0,0,0,240.291,92.68v.141Z" transform="translate(-229.306 -92.679)" fill="#42a5f5" fill-rule="evenodd"/>
            <path id="Path_1040443" data-name="Path 1040443" d="M153.643,103.663V99.807a2.406,2.406,0,1,0,0-3.271V92.68a10.982,10.982,0,0,0-10.983,10.983h3.856a2.406,2.406,0,1,1,3.271,0Z" transform="translate(-142.658 -92.679)" fill="#fc685b" fill-rule="evenodd"/>
            <path id="Path_1040444" data-name="Path 1040444" d="M232.46,92.715q.445.035.881.106V92.68Q232.9,92.68,232.46,92.715Z" transform="translate(-222.356 -92.679)" fill="#f35244" fill-rule="evenodd"/>
            <path id="Path_1040445" data-name="Path 1040445" d="M219.514,313.77v2.748a2.232,2.232,0,0,1-2.227,2.227h-1.579a2.232,2.232,0,0,1-2.227-2.227v-2Z" transform="translate(-205.511 -288.899)" fill="#b4d2d7" fill-rule="evenodd"/>
            <path id="Path_1040446" data-name="Path 1040446" d="M240.672,313.77v2.748a2.232,2.232,0,0,1-2.227,2.227H237.32a2.232,2.232,0,0,0,2.227-2.227v-2.609Z" transform="translate(-226.67 -288.899)" fill="#9bb9c3" fill-rule="evenodd"/>
            <path id="Path_1040447" data-name="Path 1040447" d="M200.05,300.08v1.687a1.513,1.513,0,0,0,1.51,1.51h6.035a1.513,1.513,0,0,0,1.51-1.51V300.08Z" transform="translate(-193.592 -276.749)" fill="#fdb800" fill-rule="evenodd"/>
            <path id="Path_1040448" data-name="Path 1040448" d="M251.45,303.277h1.763a1.513,1.513,0,0,0,1.51-1.51V300.08H252.96v1.687A1.511,1.511,0,0,1,251.45,303.277Z" transform="translate(-239.21 -276.749)" fill="#f4a40e" fill-rule="evenodd"/>
          </g>
        </g>
        <path id="Path_1040449" data-name="Path 1040449" d="M58.445,29.191a.9.9,0,0,1-.33,1.229l-1.839,1.063a.9.9,0,1,1-.9-1.558l1.839-1.062A.9.9,0,0,1,58.445,29.191Zm-2.768-5.92H53.553a.9.9,0,1,1,0-1.8h2.124a.9.9,0,0,1,0,1.8Zm-.705-9.7a.9.9,0,0,1,1.228-.33L58.04,14.3a.9.9,0,0,1-.451,1.679.881.881,0,0,1-.449-.121L55.3,14.8a.9.9,0,0,1-.328-1.228Zm6.08-5.235a.9.9,0,1,1,1.558-.9l1.062,1.839a.9.9,0,1,1-1.558.9Zm24.455,22.69a.9.9,0,0,1-1.229.328l-1.839-1.062a.9.9,0,0,1,.9-1.559l1.839,1.062a.9.9,0,0,1,.33,1.231Zm2.318-8.8a.9.9,0,0,1-.9.9H84.8a.9.9,0,1,1,0-1.8h2.124A.9.9,0,0,1,87.824,22.219ZM82.032,15.4a.9.9,0,0,1,.33-1.229L84.2,13.108a.9.9,0,0,1,.9,1.559l-1.839,1.062a.9.9,0,0,1-1.229-.33ZM76.674,9.2l1.062-1.84a.9.9,0,1,1,1.559.9L78.233,10.1a.9.9,0,0,1-.781.45.891.891,0,0,1-.449-.12A.9.9,0,0,1,76.674,9.2ZM69.263,7.735V5.61a.9.9,0,0,1,1.8,0V7.733a.9.9,0,0,1-1.8,0Zm6.129,23.231a3.06,3.06,0,0,0-1.526,2.686v.091H71.138V29.424a.9.9,0,0,0-1.559-.612,1.49,1.49,0,0,1-1.1.483,1.506,1.506,0,1,1,0-3.012,1.49,1.49,0,0,1,1.1.483.9.9,0,0,0,1.559-.612V23.2h1.4a3.307,3.307,0,1,0,6.381,0h1.359a10.15,10.15,0,0,1-4.888,7.768Zm-4.364,9.293H69.448a1.328,1.328,0,0,1-1.327-1.327v-.191h4.235v.191A1.329,1.329,0,0,1,71.027,40.258Zm2.228-3.318H67.221a.61.61,0,0,1-.61-.61v-.787h7.254v.787A.61.61,0,0,1,73.256,36.939Zm-8.171-5.974a3.062,3.062,0,0,1,1.526,2.686v.091h2.727V30.978a3.272,3.272,0,0,1-.864.116,3.306,3.306,0,0,1,0-6.612,3.272,3.272,0,0,1,.864.116V23.2H66.382a.9.9,0,0,1-.612-1.559,1.49,1.49,0,0,0,.483-1.1,1.506,1.506,0,0,0-3.012,0,1.49,1.49,0,0,0,.483,1.1.9.9,0,0,1-.612,1.559H60.2A10.148,10.148,0,0,0,65.085,30.965Zm4.253-18.712v2.916a.9.9,0,0,0,1.56.613A1.488,1.488,0,0,1,72,15.3a1.506,1.506,0,0,1,0,3.012,1.488,1.488,0,0,1-1.1-.483.9.9,0,0,0-1.56.613V21.4h-1.4a3.272,3.272,0,0,0,.116-.864,3.306,3.306,0,1,0-6.612,0,3.271,3.271,0,0,0,.116.864H60.195A10.1,10.1,0,0,1,69.338,12.253ZM80.282,21.4a10.1,10.1,0,0,0-9.144-9.143v1.361A3.306,3.306,0,1,1,72,20.11a3.28,3.28,0,0,1-.865-.116v1.4h2.956a.9.9,0,0,1,.612,1.56,1.507,1.507,0,1,0,2.048,0,.9.9,0,0,1,.612-1.56ZM70.238,10.413a11.885,11.885,0,0,0-6.074,22.1,1.269,1.269,0,0,1,.648,1.141v2.678a2.413,2.413,0,0,0,1.51,2.234v.368a3.131,3.131,0,0,0,3.127,3.127h1.579a3.132,3.132,0,0,0,3.128-3.127v-.368a2.413,2.413,0,0,0,1.51-2.234V33.653a1.283,1.283,0,0,1,.648-1.141,11.885,11.885,0,0,0-6.075-22.1Zm21,23.239,2.109-.4a11.611,11.611,0,0,0-2.451-4.3c-1.139-1.439-2.217-2.8-2.217-4.837q0-.037,0-.074c.549-6.628-.976-12.1-4.412-15.835C80.968,4.619,76.1,2.8,69.791,2.8c-8.835,0-15.669,4.862-18.282,13.006-2.782,8.67.208,18.254,7.27,23.306a.9.9,0,0,1,.375.675,35.839,35.839,0,0,1-2.524,14.631c-.279.8-.534,1.528-.714,2.148l22.536-.044a17.5,17.5,0,0,0-1.173-4.337,10.487,10.487,0,0,1-.852-3.24,2.77,2.77,0,0,1,1.862-2.721c1.151-.5,2.921-.074,4.971.424,1.647.4,4.087.991,4.832.461a11.8,11.8,0,0,1,1.864-4.566,1.767,1.767,0,0,0,.334-.616c-1.22-.951-1.926-1.643-1.775-2.52.141-.823.951-1.213,1.974-1.564l.02-3.315a.9.9,0,0,1,.732-.877Zm4.073.164a12.552,12.552,0,0,0-3.006-5.981c-1.012-1.277-1.814-2.288-1.827-3.684.582-7.125-1.107-13.059-4.885-17.162A17.365,17.365,0,0,0,79.02,2.571,25.476,25.476,0,0,0,69.791,1,21.134,21.134,0,0,0,56.752,5.171,20.478,20.478,0,0,0,49.8,15.255a23.752,23.752,0,0,0-.195,13.7,21.409,21.409,0,0,0,7.778,11.358,34.148,34.148,0,0,1-2.449,13.506,20.54,20.54,0,0,0-1.035,3.52.9.9,0,0,0,.892,1.024h0L79.4,58.32a.9.9,0,0,0,.9-.9,16.775,16.775,0,0,0-1.328-5.858c-1-2.717-1-3.234.043-3.688.594-.26,2.385.174,3.825.524,2.7.655,5.49,1.332,6.775-.267a.89.89,0,0,0,.174-.359,10.594,10.594,0,0,1,1.649-4.2,3.1,3.1,0,0,0,.692-2.058.9.9,0,0,0-.355-.715,15.471,15.471,0,0,1-1.258-1.034c.37-.157.924-.336,1.15-.409a.9.9,0,0,0,.623-.852l.019-3.219,2.29-.432A.9.9,0,0,0,95.313,33.816Z" fill-rule="evenodd"/>
      </g>
    </g>
  </g>
</svg>
