<svg xmlns="http://www.w3.org/2000/svg" xmlns:xlink="http://www.w3.org/1999/xlink" width="97.533" height="97.533" viewBox="0 0 97.533 97.533">
  <defs>
    <filter id="Path_982547" x="0" y="0" width="97.533" height="97.533" filterUnits="userSpaceOnUse">
      <feOffset dy="3" input="SourceAlpha"/>
      <feGaussianBlur stdDeviation="3" result="blur"/>
      <feFlood flood-opacity="0.161"/>
      <feComposite operator="in" in2="blur"/>
      <feComposite in="SourceGraphic"/>
    </filter>
  </defs>
  <g id="Group_1202467" data-name="Group 1202467" transform="translate(-506.467 -6933.682)">
    <g id="Group_1202157" data-name="Group 1202157" transform="translate(234.467 5528.679)">
      <g id="Group_1177900" data-name="Group 1177900" transform="translate(281 1411.003)">
        <g id="Group_1172010" data-name="Group 1172010" transform="translate(0)">
          <g id="Group_1171046" data-name="Group 1171046">
            <g id="Group_1148525" data-name="Group 1148525">
              <g transform="matrix(1, 0, 0, 1, -9, -6)" filter="url(#Path_982547)">
                <g id="Path_982547-2" data-name="Path 982547" transform="translate(9 6)" fill="#fdfbec">
                  <path d="M 39.7666015625 78.033203125 C 34.59997940063477 78.033203125 29.58870124816895 77.02164459228516 24.87196731567383 75.02663421630859 C 20.31538963317871 73.099365234375 16.22284507751465 70.34000396728516 12.70802402496338 66.82518005371094 C 9.193202018737793 63.31035614013672 6.433835029602051 59.21781158447266 4.506568431854248 54.66123580932617 C 2.511557102203369 49.94449996948242 1.500001549720764 44.93322372436523 1.500001549720764 39.7666015625 C 1.500001549720764 34.59997940063477 2.511557102203369 29.58870124816895 4.506568431854248 24.87196731567383 C 6.433835029602051 20.31538963317871 9.193202018737793 16.22284507751465 12.70802402496338 12.70802402496338 C 16.22284507751465 9.193202018737793 20.31538963317871 6.433835029602051 24.87196731567383 4.506568431854248 C 29.58870124816895 2.511557102203369 34.59997940063477 1.500001549720764 39.7666015625 1.500001549720764 C 44.93322372436523 1.500001549720764 49.94449996948242 2.511557102203369 54.66123580932617 4.506568431854248 C 59.21781158447266 6.433835029602051 63.31035614013672 9.193202018737793 66.82518005371094 12.70802402496338 C 70.34000396728516 16.22284507751465 73.099365234375 20.31538963317871 75.02663421630859 24.87196731567383 C 77.02164459228516 29.58870124816895 78.033203125 34.59997940063477 78.033203125 39.7666015625 C 78.033203125 44.93322372436523 77.02164459228516 49.94449996948242 75.02663421630859 54.66123580932617 C 73.099365234375 59.21781158447266 70.34000396728516 63.31035614013672 66.82518005371094 66.82518005371094 C 63.31035614013672 70.34000396728516 59.21781158447266 73.099365234375 54.66123580932617 75.02663421630859 C 49.94449996948242 77.02164459228516 44.93322372436523 78.033203125 39.7666015625 78.033203125 Z" stroke="none"/>
                  <path d="M 39.7666015625 3 C 34.80181503295898 3 29.98714065551758 3.971687316894531 25.45630264282227 5.888076782226562 C 21.07851409912109 7.739715576171875 17.146240234375 10.39113616943359 13.76869201660156 13.76869201660156 C 10.39113616943359 17.146240234375 7.739715576171875 21.07851409912109 5.888076782226562 25.45630264282227 C 3.971687316894531 29.98714065551758 3 34.80181503295898 3 39.7666015625 C 3 44.73138809204102 3.971687316894531 49.54606628417969 5.888076782226562 54.076904296875 C 7.739715576171875 58.45468902587891 10.39113616943359 62.386962890625 13.76869201660156 65.76451110839844 C 17.146240234375 69.14206695556641 21.07851409912109 71.79348754882812 25.45630264282227 73.64512634277344 C 29.98714065551758 75.56151580810547 34.80181503295898 76.533203125 39.7666015625 76.533203125 C 44.73138809204102 76.533203125 49.54606628417969 75.56151580810547 54.076904296875 73.64512634277344 C 58.45468902587891 71.79348754882812 62.386962890625 69.14206695556641 65.76451110839844 65.76451110839844 C 69.14206695556641 62.386962890625 71.79348754882812 58.45468902587891 73.64512634277344 54.076904296875 C 75.56151580810547 49.54606628417969 76.533203125 44.73138809204102 76.533203125 39.7666015625 C 76.533203125 34.80181503295898 75.56151580810547 29.98714065551758 73.64512634277344 25.45630264282227 C 71.79348754882812 21.07851409912109 69.14206695556641 17.146240234375 65.76451110839844 13.76869201660156 C 62.386962890625 10.39113616943359 58.45468902587891 7.739715576171875 54.076904296875 5.888076782226562 C 49.54606628417969 3.971687316894531 44.73138809204102 3 39.7666015625 3 M 39.7666015625 0 C 61.72908782958984 0 79.533203125 17.80411529541016 79.533203125 39.7666015625 C 79.533203125 61.72908782958984 61.72908782958984 79.533203125 39.7666015625 79.533203125 C 17.80411529541016 79.533203125 0 61.72908782958984 0 39.7666015625 C 0 17.80411529541016 17.80411529541016 0 39.7666015625 0 Z" stroke="none" fill="#83793c"/>
                </g>
              </g>
            </g>
          </g>
        </g>
      </g>
      <g id="cube_10769652" transform="translate(261.059 1399.208)">
        <g id="Group_1202330" data-name="Group 1202330" transform="translate(36.596 57.083)">
          <path id="Path_1040616" data-name="Path 1040616" d="M64.77,331.836H44.11l7.839-12.784,2.49-4.062,2.491,4.062Z" transform="translate(-43.319 -314.208)" fill="#e54d3b"/>
          <g id="Group_1202329" data-name="Group 1202329" transform="translate(0 0)">
            <path id="Path_1040617" data-name="Path 1040617" d="M58.048,324.406H37.388l.682,1.189,4.085-6.661,3.81-6.212,2.435-3.973H47.035l3.279,5.346,5.459,8.9,1.593,2.6c.531.865,1.9.073,1.364-.8l-4.084-6.661-3.81-6.212L48.4,307.952a.8.8,0,0,0-1.364,0L43.758,313.3,38.3,322.2l-1.593,2.6a.8.8,0,0,0,.682,1.189h20.66A.791.791,0,0,0,58.048,324.406Z" transform="translate(-36.596 -307.568)"/>
          </g>
        </g>
        <g id="Group_1202332" data-name="Group 1202332" transform="translate(49.417 61.136)">
          <path id="Path_1040618" data-name="Path 1040618" d="M197.64,353.55v12.784h-23.98L165.82,353.55Z" transform="translate(-165.028 -352.76)" fill="#edf0f1"/>
          <g id="Group_1202331" data-name="Group 1202331">
            <path id="Path_1040619" data-name="Path 1040619" d="M190.126,346.84v12.784l.79-.79h-23.98l.682.391-6.871-11.2-.968-1.579-.682,1.189h31.82a.791.791,0,0,0,0-1.58H159.1a.8.8,0,0,0-.682,1.189l4.057,6.616,2.7,4.4.832,1.356c.232.379.417.768.935.8.548.037,1.112,0,1.661,0h15.245c2.317,0,4.648.074,6.965,0,.036,0,.073,0,.109,0a.8.8,0,0,0,.79-.79V346.84A.791.791,0,0,0,190.126,346.84Z" transform="translate(-158.304 -346.05)"/>
          </g>
        </g>
        <g id="Group_1202334" data-name="Group 1202334" transform="translate(36.598 44.988)">
          <path id="Path_1040620" data-name="Path 1040620" d="M83.248,200.54v16.118H56.931L54.44,212.6l-2.49,4.062H44.11V200.54Z" transform="translate(-43.32 -199.719)" fill="#efc41b"/>
          <g id="Group_1202333" data-name="Group 1202333" transform="translate(0 0)">
            <path id="Path_1040621" data-name="Path 1040621" d="M75.748,193.57v16.118l.79-.79H50.221l.682.391-2.491-4.062a.8.8,0,0,0-1.364,0l-2.49,4.062.682-.391H37.4l.79.79V193.57l-.79.79H71.707c1.582,0,3.182.069,4.763,0h.068a.791.791,0,0,0,0-1.58H42.231c-1.582,0-3.182-.069-4.763,0H37.4a.8.8,0,0,0-.79.79v16.118a.8.8,0,0,0,.79.79h5.554c.746,0,1.5.039,2.248,0,.789-.042,1.254-1.262,1.612-1.847l1.6-2.606H47.047l1.779,2.9c.234.382.452.781.706,1.15a.926.926,0,0,0,.82.4c1.575.046,3.159,0,4.734,0H76.538a.8.8,0,0,0,.79-.79V193.57A.791.791,0,0,0,75.748,193.57Z" transform="translate(-36.61 -192.749)"/>
          </g>
        </g>
        <g id="Group_1202336" data-name="Group 1202336" transform="translate(59.224 27.59)">
          <path id="Path_1040622" data-name="Path 1040622" d="M258.9,35.09h13.5V52.518H258.9Z" transform="translate(-258.11 -34.3)" fill="#27b999"/>
          <g id="Group_1202335" data-name="Group 1202335" transform="translate(0 0)">
            <path id="Path_1040623" data-name="Path 1040623" d="M264.9,28.38V45.809l.79-.79h-13.5l.79.79V28.38l-.79.79h13.5a.791.791,0,0,0,0-1.58h-13.5a.8.8,0,0,0-.79.79V45.809a.8.8,0,0,0,.79.79h13.5a.8.8,0,0,0,.79-.79V28.38A.791.791,0,0,0,264.9,28.38Z" transform="translate(-251.4 -27.59)"/>
          </g>
        </g>
        <g id="Group_1202338" data-name="Group 1202338" transform="translate(40.493 34.538)">
          <circle id="Ellipse_12548" data-name="Ellipse 12548" cx="5.242" cy="5.242" r="5.242" transform="translate(0.776 0.787)" fill="#fdd7ad"/>
          <g id="Group_1202337" data-name="Group 1202337" transform="translate(0 0)">
            <path id="Path_1040624" data-name="Path 1040624" d="M84.058,99.58A4.451,4.451,0,1,1,80.4,95.2a4.5,4.5,0,0,1,3.657,4.384.791.791,0,0,0,1.58,0A6.118,6.118,0,0,0,81.7,93.924a6.029,6.029,0,1,0,3.943,5.656A.791.791,0,0,0,84.058,99.58Z" transform="translate(-73.589 -93.552)"/>
          </g>
        </g>
      </g>
    </g>
  </g>
</svg>
